<svg width="20" height="21" viewBox="0 0 20 21" fill="none" xmlns="http://www.w3.org/2000/svg">
<path d="M18.24 9.12C18.6667 9.12 19.0267 9.26667 19.32 9.56C19.6133 9.82667 19.76 10.1733 19.76 10.6C19.76 11.0267 19.6133 11.3867 19.32 11.68C19.0267 11.9467 18.6667 12.08 18.24 12.08H11.48V18.84C11.48 19.2667 11.3333 19.6267 11.04 19.92C10.7733 20.2133 10.4267 20.36 10 20.36C9.57333 20.36 9.21333 20.2133 8.92 19.92C8.65333 19.6267 8.52 19.2667 8.52 18.84V12.08H1.76C1.33333 12.08 0.973333 11.9333 0.68 11.64C0.386667 11.3467 0.24 11 0.24 10.6C0.24 10.1733 0.386667 9.82667 0.68 9.56C0.973333 9.26667 1.33333 9.12 1.76 9.12H8.52V2.36C8.52 1.93333 8.65333 1.57333 8.92 1.28C9.21333 0.986665 9.57333 0.839998 10 0.839998C10.4267 0.839998 10.7733 0.986665 11.04 1.28C11.3333 1.57333 11.48 1.93333 11.48 2.36V9.12H18.24Z" fill="black"/>
</svg>
