<svg width="95" height="24" viewBox="0 0 95 24" fill="none" xmlns="http://www.w3.org/2000/svg">
<path d="M12 2C10.0222 2 8.08879 2.58649 6.4443 3.6853C4.79981 4.78412 3.51809 6.3459 2.76121 8.17317C2.00433 10.0004 1.8063 12.0111 2.19215 13.9509C2.578 15.8907 3.53041 17.6725 4.92894 19.0711C6.32746 20.4696 8.10929 21.422 10.0491 21.8079C11.9889 22.1937 13.9996 21.9957 15.8268 21.2388C17.6541 20.4819 19.2159 19.2002 20.3147 17.5557C21.4135 15.9112 22 13.9778 22 12C22 10.6868 21.7413 9.38642 21.2388 8.17317C20.7363 6.95991 19.9997 5.85752 19.0711 4.92893C18.1425 4.00035 17.0401 3.26375 15.8268 2.7612C14.6136 2.25866 13.3132 2 12 2ZM12 20C10.4178 20 8.87104 19.5308 7.55544 18.6518C6.23985 17.7727 5.21447 16.5233 4.60897 15.0615C4.00347 13.5997 3.84504 11.9911 4.15372 10.4393C4.4624 8.88743 5.22433 7.46197 6.34315 6.34315C7.46197 5.22433 8.88743 4.4624 10.4393 4.15372C11.9911 3.84504 13.5997 4.00346 15.0615 4.60896C16.5233 5.21447 17.7727 6.23984 18.6518 7.55544C19.5308 8.87103 20 10.4177 20 12C20 14.1217 19.1572 16.1566 17.6569 17.6569C16.1566 19.1571 14.1217 20 12 20ZM16 11H13V8C13 7.73478 12.8946 7.48043 12.7071 7.29289C12.5196 7.10536 12.2652 7 12 7C11.7348 7 11.4804 7.10536 11.2929 7.29289C11.1054 7.48043 11 7.73478 11 8V11H8C7.73479 11 7.48043 11.1054 7.2929 11.2929C7.10536 11.4804 7 11.7348 7 12C7 12.2652 7.10536 12.5196 7.2929 12.7071C7.48043 12.8946 7.73479 13 8 13H11V16C11 16.2652 11.1054 16.5196 11.2929 16.7071C11.4804 16.8946 11.7348 17 12 17C12.2652 17 12.5196 16.8946 12.7071 16.7071C12.8946 16.5196 13 16.2652 13 16V13H16C16.2652 13 16.5196 12.8946 16.7071 12.7071C16.8946 12.5196 17 12.2652 17 12C17 11.7348 16.8946 11.4804 16.7071 11.2929C16.5196 11.1054 16.2652 11 16 11Z" fill="#2280ED"/>
<path d="M43.2476 19.5H41.0811L40.0103 16.4702H35.3286L34.2993 19.5H32.1411L36.5986 7.59668H38.8232L43.2476 19.5ZM39.4873 14.8599L37.8354 10.1118C37.7856 9.95687 37.7331 9.70785 37.6777 9.36475H37.6445C37.5947 9.68018 37.5394 9.9292 37.4785 10.1118L35.8433 14.8599H39.4873ZM52.4116 18.8193C52.4116 21.9404 50.8428 23.501 47.7051 23.501C46.5983 23.501 45.6326 23.3156 44.8081 22.9448V21.1851C45.7378 21.7163 46.6204 21.9819 47.4561 21.9819C49.4759 21.9819 50.4858 20.9886 50.4858 19.002V18.0723H50.4526C49.8162 19.1569 48.8589 19.6992 47.5806 19.6992C46.5457 19.6992 45.7101 19.3229 45.0737 18.5703C44.4429 17.8122 44.1274 16.7967 44.1274 15.5239C44.1274 14.0796 44.4678 12.9313 45.1484 12.0791C45.8291 11.2269 46.7643 10.8008 47.9541 10.8008C49.0775 10.8008 49.9103 11.2601 50.4526 12.1787H50.4858V11H52.4116V18.8193ZM50.5024 15.6069V14.5029C50.5024 13.9053 50.3032 13.3962 49.9048 12.9756C49.5119 12.5495 49.0194 12.3364 48.4272 12.3364C47.6968 12.3364 47.124 12.6076 46.709 13.1499C46.2995 13.6867 46.0947 14.4393 46.0947 15.4077C46.0947 16.2433 46.2912 16.9129 46.6841 17.4165C47.0825 17.9146 47.6082 18.1636 48.2612 18.1636C48.9253 18.1636 49.4648 17.9256 49.8799 17.4497C50.2949 16.9683 50.5024 16.354 50.5024 15.6069ZM59.8491 12.8345C59.6167 12.6519 59.2819 12.5605 58.8447 12.5605C58.2747 12.5605 57.7988 12.8179 57.417 13.3325C57.0352 13.8472 56.8442 14.5472 56.8442 15.4326V19.5H54.9185V11H56.8442V12.7515H56.8774C57.0656 12.1538 57.3534 11.689 57.7407 11.3569C58.1336 11.0194 58.5708 10.8506 59.0522 10.8506C59.4009 10.8506 59.6665 10.9032 59.8491 11.0083V12.8345ZM68.2578 15.7729H62.4639C62.486 16.5588 62.7267 17.1647 63.186 17.5908C63.6509 18.0169 64.2873 18.23 65.0952 18.23C66.0028 18.23 66.8356 17.9588 67.5938 17.4165V18.9688C66.819 19.4557 65.7952 19.6992 64.5225 19.6992C63.2718 19.6992 62.2896 19.3146 61.5757 18.5454C60.8674 17.7707 60.5132 16.6833 60.5132 15.2832C60.5132 13.9606 60.9033 12.8843 61.6836 12.0542C62.4694 11.2186 63.4434 10.8008 64.6055 10.8008C65.7676 10.8008 66.6668 11.1743 67.3032 11.9214C67.9396 12.6685 68.2578 13.7061 68.2578 15.0342V15.7729ZM66.3984 14.4116C66.3929 13.7199 66.2297 13.1831 65.9087 12.8013C65.5877 12.4139 65.145 12.2202 64.5806 12.2202C64.0272 12.2202 63.5568 12.4222 63.1694 12.8262C62.7876 13.2301 62.5524 13.7586 62.4639 14.4116H66.3984ZM77.8286 18.8193C77.8286 21.9404 76.2598 23.501 73.1221 23.501C72.0153 23.501 71.0496 23.3156 70.2251 22.9448V21.1851C71.1548 21.7163 72.0374 21.9819 72.873 21.9819C74.8929 21.9819 75.9028 20.9886 75.9028 19.002V18.0723H75.8696C75.2332 19.1569 74.2759 19.6992 72.9976 19.6992C71.9627 19.6992 71.1271 19.3229 70.4907 18.5703C69.8599 17.8122 69.5444 16.7967 69.5444 15.5239C69.5444 14.0796 69.8848 12.9313 70.5654 12.0791C71.2461 11.2269 72.1813 10.8008 73.3711 10.8008C74.4945 10.8008 75.3273 11.2601 75.8696 12.1787H75.9028V11H77.8286V18.8193ZM75.9194 15.6069V14.5029C75.9194 13.9053 75.7202 13.3962 75.3218 12.9756C74.9289 12.5495 74.4364 12.3364 73.8442 12.3364C73.1138 12.3364 72.541 12.6076 72.126 13.1499C71.7165 13.6867 71.5117 14.4393 71.5117 15.4077C71.5117 16.2433 71.7082 16.9129 72.1011 17.4165C72.4995 17.9146 73.0252 18.1636 73.6782 18.1636C74.3423 18.1636 74.8818 17.9256 75.2969 17.4497C75.7119 16.9683 75.9194 16.354 75.9194 15.6069ZM86.8599 19.5H84.9922V18.1719H84.959C84.3724 19.1901 83.5119 19.6992 82.3774 19.6992C81.5418 19.6992 80.8861 19.4723 80.4102 19.0186C79.9398 18.5648 79.7046 17.9644 79.7046 17.2173C79.7046 15.6125 80.6287 14.6772 82.4771 14.4116L85.0005 14.0547C85.0005 12.8428 84.425 12.2368 83.2739 12.2368C82.2612 12.2368 81.3481 12.5854 80.5347 13.2827V11.5977C81.4312 11.0664 82.466 10.8008 83.6392 10.8008C85.7863 10.8008 86.8599 11.8577 86.8599 13.9717V19.5ZM85.0005 15.3247L83.2158 15.5737C82.6624 15.6457 82.2446 15.7812 81.9624 15.9805C81.6857 16.1742 81.5474 16.5173 81.5474 17.0098C81.5474 17.3695 81.6746 17.6655 81.9292 17.8979C82.1893 18.1248 82.5352 18.2383 82.9668 18.2383C83.5534 18.2383 84.0376 18.0335 84.4194 17.624C84.8068 17.209 85.0005 16.6888 85.0005 16.0635V15.3247ZM94.1479 12.8345C93.9155 12.6519 93.5807 12.5605 93.1436 12.5605C92.5736 12.5605 92.0977 12.8179 91.7158 13.3325C91.334 13.8472 91.1431 14.5472 91.1431 15.4326V19.5H89.2173V11H91.1431V12.7515H91.1763C91.3644 12.1538 91.6522 11.689 92.0396 11.3569C92.4325 11.0194 92.8696 10.8506 93.3511 10.8506C93.6997 10.8506 93.9653 10.9032 94.1479 11.0083V12.8345Z" fill="#2280ED"/>
</svg>
