<svg width="120" height="120" viewBox="0 0 120 120" fill="none" xmlns="http://www.w3.org/2000/svg">
<path d="M27.9237 106.11C50.9803 106.11 66.8137 118.053 77.9237 118.053C89.0337 118.053 112.367 111.667 112.367 60.5567C112.367 9.44669 80.977 1.94336 68.757 1.94336C11.5337 1.94336 -12.9097 106.11 27.9237 106.11Z" fill="#EFEFEF"/>
<path d="M16.1338 75.333H22.8005V78.6663H16.1338V75.333Z" fill="#B7B7B7"/>
<path d="M26.9668 83.666H30.3001V90.3327H26.9668V83.666Z" fill="#B7B7B7"/>
<path d="M26.9668 64.4995H30.3001V71.1662H26.9668V64.4995Z" fill="#B7B7B7"/>
<path d="M91.5635 58.8232C88.8068 58.8232 86.5635 56.5799 86.5635 53.8232C86.5635 51.0666 88.8068 48.8232 91.5635 48.8232C94.3201 48.8232 96.5635 51.0666 96.5635 53.8232C96.5635 56.5799 94.3201 58.8232 91.5635 58.8232ZM91.5635 52.1566C90.6435 52.1566 89.8968 52.9032 89.8968 53.8232C89.8968 54.7432 90.6435 55.4899 91.5635 55.4899C92.4835 55.4899 93.2301 54.7432 93.2301 53.8232C93.2301 52.9032 92.4835 52.1566 91.5635 52.1566Z" fill="#B7B7B7"/>
<path d="M57.5003 87.5001C53.2703 87.5001 48.1837 87.2767 44.197 85.1001H44.167V94.1667C44.167 96.0001 45.667 97.5001 47.5003 97.5001H67.5003C69.3337 97.5001 70.8337 96.0001 70.8337 94.1667V85.0801C66.8437 87.2734 61.7437 87.5001 57.5003 87.5001Z" fill="#BFD8F4"/>
<path d="M72.5 22.5C69.74 22.5 67.5 24.74 67.5 27.5V41.6667V47.5C67.5 44.7333 65.2667 42.5 62.5 42.5C59.7333 42.5 57.5 44.7333 57.5 47.5C57.5 44.74 55.26 42.5 52.5 42.5C49.74 42.5 47.5 44.74 47.5 47.5V50.8333C47.5 48.0733 45.26 45.8333 42.5 45.8333C39.74 45.8333 37.5 48.0733 37.5 50.8333V53.3333V54.1667V71.6667C37.5 86.6667 49.1667 87.5 57.5 87.5C65.8333 87.5 77.5 86.6667 77.5 71.6667V61.6667V52.4V27.5C77.5 24.74 75.26 22.5 72.5 22.5Z" fill="#F3F3F1"/>
<path d="M51.667 94.1668V87.2001C49.0603 86.9068 46.4537 86.3334 44.197 85.1001H44.167V94.1668C44.167 96.0001 45.667 97.5001 47.5003 97.5001H55.0003C53.167 97.5001 51.667 96.0001 51.667 94.1668Z" fill="#BFD8F4"/>
<path d="M65 87.5001C66.8367 87.5001 68.8367 87.4234 70.8333 87.1968V85.0801C67.9667 86.6534 64.53 87.1968 61.25 87.3901C62.5367 87.4634 63.8033 87.5001 65 87.5001Z" fill="#BFD8F4"/>
<path d="M65 47.5003C65 46.2369 65.48 45.1002 66.25 44.2202C65.3333 43.1736 64.0033 42.5002 62.5 42.5002C62.0667 42.5002 61.65 42.5736 61.25 42.6769C63.4033 43.2336 65 45.1736 65 47.5003Z" fill="#BFD8F4"/>
<path d="M70 42.5C72.7667 42.5 75 44.7333 75 47.5V41.6667V27.5C75 26.24 75.48 25.1033 76.25 24.2233C75.3333 23.1767 74.0033 22.5 72.5 22.5C69.74 22.5 67.5 24.74 67.5 27.5V41.6667V43.19C68.2367 42.7633 69.0833 42.5 70 42.5Z" fill="#BFD8F4"/>
<path d="M45 71.6666V54.1666V53.3333V50.8333C45 49.5733 45.48 48.4366 46.25 47.5566C45.3333 46.5066 44.0033 45.8333 42.5 45.8333C39.74 45.8333 37.5 48.0733 37.5 50.8333V53.3333V54.1666V71.6666C37.5 86.6666 49.1667 87.4999 57.5 87.4999C58.6967 87.4999 59.9633 87.4766 61.25 87.4033C53.5567 86.9633 45 84.5166 45 71.6666Z" fill="#BFD8F4"/>
<path d="M50.0004 45.8336C52.7604 45.8336 55.0004 48.0736 55.0004 50.8336V47.5002C55.0004 46.2402 55.4804 45.1036 56.2504 44.2236C55.3337 43.1736 54.0037 42.5002 52.5004 42.5002C50.0937 42.5002 48.087 44.2036 47.6104 46.4669C48.3237 46.0769 49.1304 45.8336 50.0004 45.8336Z" fill="#BFD8F4"/>
<path d="M67.5003 100H47.5003C44.2837 100 41.667 97.3835 41.667 94.1668V85.1001H46.667V94.1668C46.667 94.6201 47.047 95.0001 47.5003 95.0001H67.5003C67.9537 95.0001 68.3337 94.6201 68.3337 94.1668V84.9668H73.3337V94.1668C73.3337 97.3835 70.717 100 67.5003 100Z" fill="#101521"/>
<path d="M42.5 61.6668C38.3633 61.6668 35 58.3035 35 54.1668V50.8335C35 46.6968 38.3633 43.3335 42.5 43.3335C46.6367 43.3335 50 46.6968 50 50.8335V54.1668C50 58.3035 46.6367 61.6668 42.5 61.6668ZM42.5 48.3335C41.12 48.3335 40 49.4535 40 50.8335V54.1668C40 55.5468 41.12 56.6668 42.5 56.6668C43.88 56.6668 45 55.5468 45 54.1668V50.8335C45 49.4535 43.88 48.3335 42.5 48.3335Z" fill="#101521"/>
<path d="M52.5 65.0005C48.3633 65.0005 45 61.6372 45 57.5005V47.5005C45 43.3638 48.3633 40.0005 52.5 40.0005C56.6367 40.0005 60 43.3638 60 47.5005V57.5005C60 61.6372 56.6367 65.0005 52.5 65.0005ZM52.5 45.0005C51.12 45.0005 50 46.1205 50 47.5005V57.5005C50 58.8805 51.12 60.0005 52.5 60.0005C53.88 60.0005 55 58.8805 55 57.5005V47.5005C55 46.1205 53.88 45.0005 52.5 45.0005Z" fill="#101521"/>
<path d="M57.7 65.0005H57.5C56.12 65.0005 55 63.8805 55 62.5005V47.5005C55 43.3638 58.3633 40.0005 62.5 40.0005C66.6367 40.0005 70 43.3638 70 47.5005V56.0005H65V47.5005C65 46.1205 63.88 45.0005 62.5 45.0005C61.12 45.0005 60 46.1205 60 47.5005V62.5005H57.6L57.7 65.0005Z" fill="#101521"/>
<path d="M57.5 90.0002C50.7667 90.0002 35 90.0002 35 71.6669V53.3336H40V71.6669C40 82.7702 46.6967 85.0002 57.5 85.0002C68.3033 85.0002 75 82.7702 75 71.6669V27.5002C75 26.1202 73.88 25.0002 72.5 25.0002C71.12 25.0002 70 26.1202 70 27.5002V56.0002H65V27.5002C65 23.3636 68.3633 20.0002 72.5 20.0002C76.6367 20.0002 80 23.3636 80 27.5002V71.6669C80 90.0002 64.2333 90.0002 57.5 90.0002Z" fill="#101521"/>
<path d="M64.0599 74.5303L57.8599 68.297C56.0366 66.5203 55.0599 64.0436 55.2033 61.5236C55.1999 59.277 56.1566 57.0303 57.8899 55.3436C60.6233 52.5403 65.4033 51.8736 68.7633 53.8436C69.3366 54.1036 70.0699 54.6336 70.7999 55.367L79.2633 63.797L75.7333 67.337L67.2666 58.9036C66.9466 58.5836 66.6733 58.3736 66.4333 58.2603C64.4999 57.157 62.6666 57.607 61.4233 58.8803C60.6166 59.667 60.1999 60.6403 60.1999 61.667C60.1333 62.897 60.5533 63.9403 61.3799 64.7436L67.6066 71.0036L64.0599 74.5303Z" fill="#101521"/>
</svg>
