<svg width="20" height="17" viewBox="0 0 20 17" fill="none" xmlns="http://www.w3.org/2000/svg">
<path d="M19.1368 10.0189C19.1335 9.96987 19.1256 9.92127 19.1133 9.87372L17.1927 4.75948C17.5422 4.5334 17.8297 4.2235 18.0289 3.85799C18.2281 3.49248 18.3327 3.08296 18.3333 2.66669C18.3333 2.44567 18.2455 2.23371 18.0892 2.07743C17.9329 1.92115 17.7209 1.83335 17.4999 1.83335C17.2789 1.83335 17.0669 1.92115 16.9107 2.07743C16.7544 2.23371 16.6666 2.44567 16.6666 2.66669C16.6665 2.85239 16.6044 3.03276 16.4902 3.17918C16.376 3.32559 16.2161 3.42967 16.036 3.47491C15.8559 3.52015 15.6658 3.50396 15.496 3.42889C15.3261 3.35383 15.1862 3.2242 15.0984 3.06057C14.8845 2.681 14.5719 2.36645 14.1936 2.15037C13.8153 1.93428 13.3855 1.82473 12.9499 1.83335H10.8333V1.00002C10.8333 0.779007 10.7455 0.567045 10.5892 0.410765C10.4329 0.254484 10.2209 0.166687 9.99992 0.166687C9.7789 0.166687 9.56694 0.254484 9.41066 0.410765C9.25438 0.567045 9.16658 0.779007 9.16658 1.00002V1.83335H7.04992C6.61434 1.82473 6.18457 1.93428 5.80627 2.15037C5.42797 2.36645 5.11529 2.681 4.90145 3.06057C4.81364 3.2242 4.67371 3.35383 4.50385 3.42889C4.33399 3.50396 4.14393 3.52015 3.96382 3.47491C3.7837 3.42967 3.62386 3.32559 3.50962 3.17918C3.39539 3.03276 3.33332 2.85239 3.33325 2.66669C3.33325 2.44567 3.24545 2.23371 3.08917 2.07743C2.93289 1.92115 2.72093 1.83335 2.49992 1.83335C2.2789 1.83335 2.06694 1.92115 1.91066 2.07743C1.75438 2.23371 1.66659 2.44567 1.66659 2.66669C1.66713 3.08296 1.77176 3.49248 1.97096 3.85799C2.17016 4.2235 2.4576 4.5334 2.80713 4.75948L0.886585 9.87372C0.874257 9.92127 0.866392 9.96987 0.863094 10.0189C0.848459 10.0671 0.838466 10.1166 0.833252 10.1667C0.833252 10.1744 0.835494 10.1815 0.835544 10.1893C0.835794 10.2003 0.838044 10.2104 0.838794 10.2213C0.851769 11.0953 1.20808 11.9292 1.83075 12.5427C2.45342 13.1562 3.29246 13.5001 4.16658 13.5001C5.04071 13.5001 5.87975 13.1562 6.50242 12.5427C7.12509 11.9292 7.4814 11.0953 7.49438 10.2213C7.49508 10.2104 7.49738 10.2003 7.49763 10.1893C7.49768 10.1815 7.49992 10.1744 7.49992 10.1667C7.49471 10.1166 7.48473 10.0671 7.47011 10.0189C7.46681 9.96987 7.45895 9.92127 7.44662 9.87372L5.5238 4.75353C5.87693 4.52816 6.16754 4.21739 6.36873 3.84995C6.44145 3.73685 6.54273 3.64494 6.66233 3.5835C6.78193 3.52206 6.91563 3.49326 7.04992 3.50002H9.16658V15.1667H6.66658C6.44557 15.1667 6.23361 15.2545 6.07733 15.4108C5.92105 15.567 5.83325 15.779 5.83325 16C5.83325 16.221 5.92105 16.433 6.07733 16.5893C6.23361 16.7456 6.44557 16.8334 6.66658 16.8334H13.3333C13.5543 16.8334 13.7662 16.7456 13.9225 16.5893C14.0788 16.433 14.1666 16.221 14.1666 16C14.1666 15.779 14.0788 15.567 13.9225 15.4108C13.7662 15.2545 13.5543 15.1667 13.3333 15.1667H10.8333V3.50002H12.9499C13.0842 3.49327 13.2179 3.52207 13.3375 3.58351C13.4571 3.64495 13.5584 3.73686 13.6311 3.84995C13.8323 4.21739 14.1229 4.52816 14.476 4.75353L12.5533 9.87372C12.5409 9.92127 12.5331 9.96987 12.5298 10.0189C12.5151 10.0671 12.5051 10.1166 12.4999 10.1667C12.4999 10.1744 12.5022 10.1815 12.5022 10.1893C12.5025 10.2003 12.5047 10.2104 12.5055 10.2213C12.5184 11.0953 12.8747 11.9292 13.4974 12.5427C14.1201 13.1562 14.9591 13.5001 15.8333 13.5001C16.7074 13.5001 17.5464 13.1562 18.1691 12.5427C18.7918 11.9292 19.1481 11.0953 19.161 10.2213C19.1617 10.2104 19.164 10.2003 19.1643 10.1893C19.1643 10.1815 19.1666 10.1744 19.1666 10.1667C19.1614 10.1166 19.1514 10.0671 19.1368 10.0189ZM4.16658 5.87963L5.46358 9.33335H2.86959L4.16658 5.87963ZM5.60213 11C5.45507 11.251 5.24557 11.4596 4.99403 11.6056C4.74248 11.7516 4.45743 11.8301 4.16658 11.8334C3.87411 11.8332 3.58682 11.7562 3.33355 11.6099C3.08028 11.4636 2.86996 11.2533 2.72371 11H5.60213ZM15.8333 5.87963L17.1303 9.33335H14.5363L15.8333 5.87963ZM15.8333 11.8334C15.5408 11.8332 15.2535 11.7562 15.0002 11.6099C14.7469 11.4636 14.5366 11.2533 14.3904 11H17.2688C17.1217 11.251 16.9122 11.4596 16.6607 11.6056C16.4091 11.7516 16.1241 11.8301 15.8333 11.8334Z" fill="#232730"/>
</svg>
