<svg width="20" height="17" viewBox="0 0 20 17" fill="none" xmlns="http://www.w3.org/2000/svg">
<path d="M19.1368 10.0189C19.1335 9.96993 19.1256 9.92133 19.1133 9.87378L17.1927 4.75954C17.5422 4.53346 17.8297 4.22356 18.0289 3.85805C18.2281 3.49254 18.3327 3.08302 18.3333 2.66675C18.3333 2.44573 18.2455 2.23377 18.0892 2.07749C17.9329 1.92121 17.7209 1.83341 17.4999 1.83341C17.2789 1.83341 17.0669 1.92121 16.9107 2.07749C16.7544 2.23377 16.6666 2.44573 16.6666 2.66675C16.6665 2.85245 16.6044 3.03282 16.4902 3.17924C16.376 3.32565 16.2161 3.42974 16.036 3.47497C15.8559 3.52021 15.6658 3.50402 15.496 3.42895C15.3261 3.35389 15.1862 3.22427 15.0984 3.06063C14.8845 2.68106 14.5719 2.36651 14.1936 2.15043C13.8153 1.93434 13.3855 1.82479 12.9499 1.83341H10.8333V1.00008C10.8333 0.779068 10.7455 0.567106 10.5892 0.410826C10.4329 0.254545 10.2209 0.166748 9.99992 0.166748C9.7789 0.166748 9.56694 0.254545 9.41066 0.410826C9.25438 0.567106 9.16658 0.779068 9.16658 1.00008V1.83341H7.04992C6.61434 1.82479 6.18457 1.93434 5.80627 2.15043C5.42797 2.36651 5.11529 2.68106 4.90145 3.06063C4.81364 3.22427 4.67371 3.35389 4.50385 3.42895C4.33399 3.50402 4.14393 3.52021 3.96382 3.47497C3.7837 3.42974 3.62386 3.32565 3.50962 3.17924C3.39539 3.03282 3.33332 2.85245 3.33325 2.66675C3.33325 2.44573 3.24545 2.23377 3.08917 2.07749C2.93289 1.92121 2.72093 1.83341 2.49992 1.83341C2.2789 1.83341 2.06694 1.92121 1.91066 2.07749C1.75438 2.23377 1.66659 2.44573 1.66659 2.66675C1.66713 3.08302 1.77176 3.49254 1.97096 3.85805C2.17016 4.22356 2.4576 4.53346 2.80713 4.75954L0.886585 9.87378C0.874257 9.92133 0.866392 9.96993 0.863094 10.0189C0.848459 10.0671 0.838466 10.1166 0.833252 10.1667C0.833252 10.1745 0.835494 10.1816 0.835544 10.1893C0.835794 10.2003 0.838044 10.2104 0.838794 10.2214C0.851769 11.0954 1.20808 11.9292 1.83075 12.5427C2.45342 13.1562 3.29246 13.5001 4.16658 13.5001C5.04071 13.5001 5.87975 13.1562 6.50242 12.5427C7.12509 11.9292 7.4814 11.0954 7.49438 10.2214C7.49508 10.2104 7.49738 10.2003 7.49763 10.1893C7.49768 10.1816 7.49992 10.1745 7.49992 10.1667C7.49471 10.1166 7.48473 10.0671 7.47011 10.0189C7.46681 9.96993 7.45895 9.92133 7.44662 9.87378L5.5238 4.75359C5.87693 4.52823 6.16754 4.21745 6.36873 3.85001C6.44145 3.73691 6.54273 3.645 6.66233 3.58356C6.78193 3.52212 6.91563 3.49332 7.04992 3.50008H9.16658V15.1667H6.66658C6.44557 15.1667 6.23361 15.2545 6.07733 15.4108C5.92105 15.5671 5.83325 15.7791 5.83325 16.0001C5.83325 16.2211 5.92105 16.4331 6.07733 16.5893C6.23361 16.7456 6.44557 16.8334 6.66658 16.8334H13.3333C13.5543 16.8334 13.7662 16.7456 13.9225 16.5893C14.0788 16.4331 14.1666 16.2211 14.1666 16.0001C14.1666 15.7791 14.0788 15.5671 13.9225 15.4108C13.7662 15.2545 13.5543 15.1667 13.3333 15.1667H10.8333V3.50008H12.9499C13.0842 3.49333 13.2179 3.52213 13.3375 3.58357C13.4571 3.64501 13.5584 3.73692 13.6311 3.85001C13.8323 4.21745 14.1229 4.52823 14.476 4.75359L12.5533 9.87378C12.5409 9.92133 12.5331 9.96993 12.5298 10.0189C12.5151 10.0671 12.5051 10.1166 12.4999 10.1667C12.4999 10.1745 12.5022 10.1816 12.5022 10.1893C12.5025 10.2003 12.5047 10.2104 12.5055 10.2214C12.5184 11.0954 12.8747 11.9292 13.4974 12.5427C14.1201 13.1562 14.9591 13.5001 15.8333 13.5001C16.7074 13.5001 17.5464 13.1562 18.1691 12.5427C18.7918 11.9292 19.1481 11.0954 19.161 10.2214C19.1617 10.2104 19.164 10.2003 19.1643 10.1893C19.1643 10.1816 19.1666 10.1745 19.1666 10.1667C19.1614 10.1166 19.1514 10.0671 19.1368 10.0189ZM4.16658 5.87969L5.46358 9.33342H2.86959L4.16658 5.87969ZM5.60213 11.0001C5.45507 11.251 5.24557 11.4596 4.99403 11.6057C4.74248 11.7517 4.45743 11.8301 4.16658 11.8334C3.87411 11.8333 3.58682 11.7562 3.33355 11.61C3.08028 11.4637 2.86996 11.2534 2.72371 11.0001H5.60213ZM15.8333 5.87969L17.1303 9.33342H14.5363L15.8333 5.87969ZM15.8333 11.8334C15.5408 11.8333 15.2535 11.7562 15.0002 11.61C14.7469 11.4637 14.5366 11.2534 14.3904 11.0001H17.2688C17.1217 11.251 16.9122 11.4596 16.6607 11.6057C16.4091 11.7517 16.1241 11.8301 15.8333 11.8334Z" fill="#232730"/>
</svg>
