<svg width="18" height="16" viewBox="0 0 18 16" fill="none" xmlns="http://www.w3.org/2000/svg">
<path d="M17.2232 9.36697C17.2202 9.32286 17.2131 9.27913 17.202 9.23633L15.4735 4.63351C15.7881 4.43004 16.0468 4.15113 16.2261 3.82217C16.4053 3.49321 16.4995 3.12464 16.5 2.75C16.5 2.55109 16.421 2.36032 16.2803 2.21967C16.1397 2.07902 15.9489 2 15.75 2C15.5511 2 15.3603 2.07902 15.2197 2.21967C15.079 2.36032 15 2.55109 15 2.75C14.9999 2.91714 14.9441 3.07947 14.8413 3.21124C14.7385 3.34301 14.5946 3.43669 14.4325 3.4774C14.2704 3.51812 14.0993 3.50354 13.9465 3.43599C13.7936 3.36843 13.6676 3.25177 13.5886 3.1045C13.3962 2.76288 13.1148 2.47979 12.7743 2.28531C12.4338 2.09084 12.047 1.99224 11.655 2H9.75V1.25C9.75 1.05109 9.67098 0.860322 9.53033 0.71967C9.38968 0.579018 9.19891 0.5 9 0.5C8.80109 0.5 8.61032 0.579018 8.46967 0.71967C8.32902 0.860322 8.25 1.05109 8.25 1.25V2H6.345C5.95298 1.99224 5.56618 2.09084 5.22572 2.28531C4.88525 2.47979 4.60383 2.76288 4.41138 3.1045C4.33235 3.25177 4.20641 3.36843 4.05354 3.43599C3.90066 3.50354 3.72961 3.51812 3.56751 3.4774C3.40541 3.43669 3.26154 3.34301 3.15873 3.21124C3.05593 3.07947 3.00006 2.91714 3 2.75C3 2.55109 2.92098 2.36032 2.78033 2.21967C2.63968 2.07902 2.44891 2 2.25 2C2.05109 2 1.86032 2.07902 1.71967 2.21967C1.57902 2.36032 1.5 2.55109 1.5 2.75C1.50049 3.12464 1.59466 3.49321 1.77394 3.82217C1.95322 4.15113 2.21192 4.43004 2.52649 4.63351L0.798 9.23633C0.786905 9.27913 0.779826 9.32286 0.776857 9.36697C0.763686 9.41036 0.754693 9.4549 0.75 9.5C0.75 9.50696 0.752018 9.51336 0.752063 9.52032C0.752288 9.53021 0.754312 9.53932 0.754987 9.54916C0.766665 10.3358 1.08735 11.0862 1.64775 11.6384C2.20816 12.1905 2.96329 12.5 3.75 12.5C4.53671 12.5 5.29185 12.1905 5.85225 11.6384C6.41265 11.0862 6.73334 10.3358 6.74501 9.54916C6.74565 9.53932 6.74771 9.53021 6.74794 9.52032C6.74798 9.51336 6.75 9.50696 6.75 9.5C6.74532 9.4549 6.73633 9.41036 6.72317 9.36697C6.7202 9.32286 6.71313 9.27913 6.70203 9.23633L4.9715 4.62816C5.28931 4.42533 5.55086 4.14563 5.73194 3.81494C5.79738 3.71315 5.88853 3.63043 5.99617 3.57513C6.10381 3.51983 6.22414 3.49392 6.345 3.5H8.25V14H6C5.80109 14 5.61032 14.079 5.46967 14.2197C5.32902 14.3603 5.25 14.5511 5.25 14.75C5.25 14.9489 5.32902 15.1397 5.46967 15.2803C5.61032 15.421 5.80109 15.5 6 15.5H12C12.1989 15.5 12.3897 15.421 12.5303 15.2803C12.671 15.1397 12.75 14.9489 12.75 14.75C12.75 14.5511 12.671 14.3603 12.5303 14.2197C12.3897 14.079 12.1989 14 12 14H9.75V3.5H11.655C11.7759 3.49392 11.8962 3.51984 12.0038 3.57514C12.1115 3.63044 12.2026 3.71315 12.268 3.81494C12.4491 4.14563 12.7107 4.42533 13.0285 4.62816L11.298 9.23633C11.2869 9.27913 11.2798 9.32286 11.2769 9.36697C11.2637 9.41036 11.2547 9.4549 11.25 9.5C11.25 9.50696 11.252 9.51336 11.2521 9.52032C11.2523 9.53021 11.2543 9.53932 11.255 9.54916C11.2667 10.3358 11.5873 11.0862 12.1478 11.6384C12.7082 12.1905 13.4633 12.5 14.25 12.5C15.0367 12.5 15.7918 12.1905 16.3522 11.6384C16.9127 11.0862 17.2333 10.3358 17.245 9.54916C17.2456 9.53932 17.2477 9.53021 17.2479 9.52032C17.248 9.51336 17.25 9.50696 17.25 9.5C17.2453 9.4549 17.2363 9.41036 17.2232 9.36697ZM3.75 5.64165L4.9173 8.75H2.5827L3.75 5.64165ZM5.042 10.25C4.90963 10.4758 4.72109 10.6636 4.4947 10.795C4.2683 10.9264 4.01176 10.9971 3.75 11C3.48677 10.9999 3.22821 10.9305 3.00027 10.7989C2.77233 10.6673 2.58304 10.478 2.45141 10.25H5.042ZM14.25 5.64165L15.4173 8.75H13.0827L14.25 5.64165ZM14.25 11C13.9868 10.9999 13.7282 10.9305 13.5003 10.7989C13.2723 10.6673 13.083 10.478 12.9514 10.25H15.542C15.4096 10.4758 15.2211 10.6636 14.9947 10.795C14.7683 10.9264 14.5118 10.9971 14.25 11Z" fill="#333333"/>
</svg>
