<svg width="21" height="22" viewBox="0 0 21 22" fill="none" xmlns="http://www.w3.org/2000/svg">
<path d="M19.67 1.06C18.9532 0.936533 18.2273 0.87298 17.5 0.869999C15.0183 0.867965 12.5884 1.57957 10.5 2.92C8.40611 1.59717 5.97661 0.90303 3.49996 0.919999C2.77261 0.92298 2.04677 0.986533 1.32996 1.11C1.09517 1.15048 0.882543 1.27346 0.730376 1.45679C0.578208 1.64013 0.496499 1.87177 0.499963 2.11V14.11C0.497821 14.2569 0.528089 14.4025 0.588613 14.5364C0.649136 14.6703 0.738429 14.7893 0.850136 14.8847C0.961843 14.9802 1.09322 15.0499 1.23492 15.0888C1.37662 15.1278 1.52515 15.135 1.66996 15.11C3.10298 14.8619 4.57116 14.9031 5.98803 15.2311C7.40489 15.5591 8.74179 16.1674 9.91996 17.02L10.04 17.09H10.15C10.2609 17.1362 10.3798 17.16 10.5 17.16C10.6201 17.16 10.7391 17.1362 10.85 17.09H10.96L11.08 17.02C12.2499 16.1483 13.583 15.5203 15.0001 15.1734C16.4172 14.8264 17.8896 14.7674 19.33 15C19.4748 15.025 19.6233 15.0178 19.765 14.9788C19.9067 14.9399 20.0381 14.8702 20.1498 14.7747C20.2615 14.6793 20.3508 14.5603 20.4113 14.4264C20.4718 14.2925 20.5021 14.1469 20.5 14V2C20.4896 1.77215 20.4016 1.55471 20.2506 1.38374C20.0996 1.21276 19.8948 1.09854 19.67 1.06ZM9.49996 14.35C7.64985 13.3767 5.59048 12.8687 3.49996 12.87C3.16996 12.87 2.83996 12.87 2.49996 12.87V2.87C2.83302 2.8508 3.16691 2.8508 3.49996 2.87C5.63335 2.86764 7.72018 3.49369 9.49996 4.67V14.35ZM18.5 12.91C18.16 12.91 17.83 12.91 17.5 12.91C15.4094 12.9087 13.3501 13.4167 11.5 14.39V4.67C13.2797 3.49369 15.3666 2.86764 17.5 2.87C17.833 2.8508 18.1669 2.8508 18.5 2.87V12.91ZM19.67 17.06C18.9532 16.9365 18.2273 16.873 17.5 16.87C15.0183 16.868 12.5884 17.5796 10.5 18.92C8.41148 17.5796 5.9816 16.868 3.49996 16.87C2.77261 16.873 2.04677 16.9365 1.32996 17.06C1.19979 17.0807 1.07499 17.1268 0.962725 17.1959C0.850465 17.265 0.752964 17.3555 0.675829 17.4624C0.598695 17.5693 0.543448 17.6903 0.513266 17.8186C0.483085 17.9469 0.478563 18.0799 0.499963 18.21C0.550781 18.4697 0.702453 18.6986 0.921753 18.8467C1.14105 18.9948 1.4101 19.0499 1.66996 19C3.10298 18.7519 4.57116 18.7931 5.98803 19.1211C7.40489 19.4491 8.74179 20.0574 9.91996 20.91C10.0893 21.0306 10.2921 21.0954 10.5 21.0954C10.7079 21.0954 10.9106 21.0306 11.08 20.91C12.2581 20.0574 13.595 19.4491 15.0119 19.1211C16.4288 18.7931 17.8969 18.7519 19.33 19C19.5898 19.0499 19.8589 18.9948 20.0782 18.8467C20.2975 18.6986 20.4491 18.4697 20.5 18.21C20.5214 18.0799 20.5168 17.9469 20.4867 17.8186C20.4565 17.6903 20.4012 17.5693 20.3241 17.4624C20.247 17.3555 20.1495 17.265 20.0372 17.1959C19.9249 17.1268 19.8001 17.0807 19.67 17.06Z" fill="#A6A6A6"/>
</svg>
