<svg width="147" height="37" viewBox="0 0 147 37" fill="none" xmlns="http://www.w3.org/2000/svg">
<path d="M44.7499 19.7378H42.2499C42.1283 19.7378 42.0285 19.789 41.9504 19.8917C41.8724 19.9943 41.8333 20.1255 41.8333 20.2853V23.5712C41.8333 23.7309 41.8722 23.8622 41.9504 23.9645C42.0285 24.0675 42.1285 24.1186 42.2499 24.1186H44.7499C44.8713 24.1186 44.9712 24.0674 45.0494 23.9645C45.1274 23.8622 45.1665 23.7309 45.1665 23.5712V20.2853C45.1665 20.1255 45.1274 19.9946 45.0494 19.8917C44.9712 19.7891 44.8713 19.7378 44.7499 19.7378Z" fill="#2280ED"/>
<path d="M54.75 13.1665H52.25C52.1283 13.1665 52.0286 13.2178 51.9505 13.3203C51.8724 13.4229 51.8333 13.5541 51.8333 13.7137V23.5711C51.8333 23.7308 51.8723 23.8621 51.9505 23.9644C52.0286 24.0674 52.1283 24.1185 52.25 24.1185H54.75C54.8715 24.1185 54.9714 24.0674 55.0493 23.9644C55.1273 23.8621 55.1666 23.7308 55.1666 23.5711V13.7137C55.1666 13.5542 55.1273 13.4229 55.0493 13.3204C54.9714 13.2178 54.8715 13.1665 54.75 13.1665Z" fill="#2280ED"/>
<path d="M49.7499 17.5474H47.2499C47.1282 17.5474 47.0285 17.5986 46.9504 17.7012C46.8723 17.8037 46.8333 17.935 46.8333 18.0945V23.5705C46.8333 23.7305 46.8722 23.8617 46.9504 23.9643C47.0285 24.0668 47.1282 24.1181 47.2499 24.1181H49.7499C49.8713 24.1181 49.9712 24.0668 50.0494 23.9643C50.1273 23.8617 50.1665 23.7305 50.1665 23.5705V18.0945C50.1665 17.935 50.1273 17.8037 50.0494 17.7012C49.9712 17.5987 49.8713 17.5474 49.7499 17.5474Z" fill="#2280ED"/>
<path d="M65.8828 25V13.7969H69.1172C73.2474 13.7969 75.3125 15.6172 75.3125 19.2578C75.3125 20.987 74.7396 22.3776 73.5938 23.4297C72.4479 24.4766 70.9115 25 68.9844 25H65.8828ZM67.7344 15.375V23.4297H69.2188C70.526 23.4297 71.5417 23.0703 72.2656 22.3516C72.9948 21.6328 73.3594 20.6172 73.3594 19.3047C73.3594 16.6849 72.0026 15.375 69.2891 15.375H67.7344ZM78.0781 15.3203C77.7812 15.3203 77.526 15.224 77.3125 15.0312C77.1042 14.8385 77 14.5938 77 14.2969C77 14 77.1042 13.7526 77.3125 13.5547C77.526 13.3568 77.7812 13.2578 78.0781 13.2578C78.3854 13.2578 78.6458 13.3568 78.8594 13.5547C79.0729 13.7526 79.1797 14 79.1797 14.2969C79.1797 14.5781 79.0729 14.8203 78.8594 15.0234C78.6458 15.2214 78.3854 15.3203 78.0781 15.3203ZM78.9766 25H77.1641V17H78.9766V25ZM85.875 14.6328C85.6302 14.4922 85.3516 14.4219 85.0391 14.4219C84.1589 14.4219 83.7188 14.9193 83.7188 15.9141V17H85.5781V18.4219H83.7266V25H81.9141V18.4219H80.5469V17H81.9141V15.7031C81.9141 14.8594 82.1901 14.1953 82.7422 13.7109C83.2943 13.2214 83.9844 12.9766 84.8125 12.9766C85.2604 12.9766 85.6146 13.026 85.875 13.125V14.6328ZM88.6875 25H86.8672V17H88.6875V25ZM89.9922 12.9219L87.7578 15.4844H86.4141L88.3047 12.9219H89.9922ZM96.7812 24.6328C96.1406 25.0026 95.3828 25.1875 94.5078 25.1875C93.3203 25.1875 92.362 24.8177 91.6328 24.0781C90.9036 23.3333 90.5391 22.3698 90.5391 21.1875C90.5391 19.8698 90.9297 18.8125 91.7109 18.0156C92.4974 17.2135 93.5469 16.8125 94.8594 16.8125C95.5885 16.8125 96.2318 16.9401 96.7891 17.1953V18.8828C96.2318 18.4661 95.638 18.2578 95.0078 18.2578C94.2422 18.2578 93.6146 18.5182 93.125 19.0391C92.6354 19.5547 92.3906 20.2318 92.3906 21.0703C92.3906 21.8984 92.6198 22.5521 93.0781 23.0312C93.5417 23.5104 94.1615 23.75 94.9375 23.75C95.5885 23.75 96.2031 23.5182 96.7812 23.0547V24.6328ZM99.5 15.3203C99.2031 15.3203 98.9479 15.224 98.7344 15.0312C98.526 14.8385 98.4219 14.5938 98.4219 14.2969C98.4219 14 98.526 13.7526 98.7344 13.5547C98.9479 13.3568 99.2031 13.2578 99.5 13.2578C99.8073 13.2578 100.068 13.3568 100.281 13.5547C100.495 13.7526 100.602 14 100.602 14.2969C100.602 14.5781 100.495 14.8203 100.281 15.0234C100.068 15.2214 99.8073 15.3203 99.5 15.3203ZM100.398 25H98.5859V17H100.398V25ZM104.594 25H102.773V13.1562H104.594V25Z" fill="#6D6D6D"/>
<rect x="0.5" y="0.5" width="146" height="36" rx="3.5" stroke="#333333"/>
</svg>
