<svg width="147" height="37" viewBox="0 0 147 37" fill="none" xmlns="http://www.w3.org/2000/svg">
<path d="M25.2499 19.7378H22.7499C22.6283 19.7378 22.5285 19.789 22.4504 19.8917C22.3724 19.9943 22.3333 20.1255 22.3333 20.2853V23.5712C22.3333 23.7309 22.3722 23.8622 22.4504 23.9645C22.5285 24.0675 22.6285 24.1186 22.7499 24.1186H25.2499C25.3713 24.1186 25.4712 24.0674 25.5494 23.9645C25.6274 23.8622 25.6665 23.7309 25.6665 23.5712V20.2853C25.6665 20.1255 25.6274 19.9946 25.5494 19.8917C25.4712 19.7891 25.3713 19.7378 25.2499 19.7378Z" fill="#2280ED"/>
<path d="M35.25 13.1665H32.75C32.6283 13.1665 32.5286 13.2178 32.4505 13.3203C32.3724 13.4229 32.3333 13.5541 32.3333 13.7137V23.5711C32.3333 23.7308 32.3723 23.8621 32.4505 23.9644C32.5286 24.0674 32.6283 24.1185 32.75 24.1185H35.25C35.3715 24.1185 35.4714 24.0674 35.5493 23.9644C35.6273 23.8621 35.6666 23.7308 35.6666 23.5711V13.7137C35.6666 13.5542 35.6273 13.4229 35.5493 13.3204C35.4714 13.2178 35.3715 13.1665 35.25 13.1665Z" fill="#6D6D6D"/>
<path d="M30.2499 17.5474H27.7499C27.6282 17.5474 27.5285 17.5986 27.4504 17.7012C27.3723 17.8037 27.3333 17.935 27.3333 18.0945V23.5705C27.3333 23.7305 27.3722 23.8617 27.4504 23.9643C27.5285 24.0668 27.6282 24.1181 27.7499 24.1181H30.2499C30.3713 24.1181 30.4712 24.0668 30.5494 23.9643C30.6273 23.8617 30.6665 23.7305 30.6665 23.5705V18.0945C30.6665 17.935 30.6273 17.8037 30.5494 17.7012C30.4712 17.5987 30.3713 17.5474 30.2499 17.5474Z" fill="#2280ED"/>
<path d="M48.2891 25H46.375V13.7969H48.2891V25ZM57.9766 25H56.1641V20.4922C56.1641 18.9974 55.6354 18.25 54.5781 18.25C54.026 18.25 53.5703 18.4583 53.2109 18.875C52.8516 19.2865 52.6719 19.8073 52.6719 20.4375V25H50.8516V17H52.6719V18.3281H52.7031C53.3021 17.3177 54.1667 16.8125 55.2969 16.8125C56.1667 16.8125 56.8307 17.0964 57.2891 17.6641C57.7474 18.2266 57.9766 19.0417 57.9766 20.1094V25ZM64.4141 24.9141C64.0599 25.0911 63.5938 25.1797 63.0156 25.1797C61.4635 25.1797 60.6875 24.4349 60.6875 22.9453V18.4219H59.3516V17H60.6875V15.1484L62.5 14.6328V17H64.4141V18.4219H62.5V22.4219C62.5 22.8958 62.5859 23.2344 62.7578 23.4375C62.9297 23.6406 63.2161 23.7422 63.6172 23.7422C63.9245 23.7422 64.1901 23.6536 64.4141 23.4766V24.9141ZM72.6562 21.4922H67.2031C67.224 22.2318 67.4505 22.8021 67.8828 23.2031C68.3203 23.6042 68.9193 23.8047 69.6797 23.8047C70.5339 23.8047 71.3177 23.5495 72.0312 23.0391V24.5C71.3021 24.9583 70.3385 25.1875 69.1406 25.1875C67.9635 25.1875 67.0391 24.8255 66.3672 24.1016C65.7005 23.3724 65.3672 22.349 65.3672 21.0312C65.3672 19.7865 65.7344 18.7734 66.4688 17.9922C67.2083 17.2057 68.125 16.8125 69.2188 16.8125C70.3125 16.8125 71.1589 17.1641 71.7578 17.8672C72.3568 18.5703 72.6562 19.5469 72.6562 20.7969V21.4922ZM70.9062 20.2109C70.901 19.5599 70.7474 19.0547 70.4453 18.6953C70.1432 18.3307 69.7266 18.1484 69.1953 18.1484C68.6745 18.1484 68.2318 18.3385 67.8672 18.7188C67.5078 19.099 67.2865 19.5964 67.2031 20.2109H70.9062ZM79.0234 18.7266C78.8047 18.5547 78.4896 18.4688 78.0781 18.4688C77.5417 18.4688 77.0938 18.7109 76.7344 19.1953C76.375 19.6797 76.1953 20.3385 76.1953 21.1719V25H74.3828V17H76.1953V18.6484H76.2266C76.4036 18.0859 76.6745 17.6484 77.0391 17.3359C77.4089 17.0182 77.8203 16.8594 78.2734 16.8594C78.6016 16.8594 78.8516 16.9089 79.0234 17.0078V18.7266ZM92.2656 25H90.4531V20.6406C90.4531 19.8021 90.3333 19.1953 90.0938 18.8203C89.8594 18.4453 89.4609 18.2578 88.8984 18.2578C88.4245 18.2578 88.0208 18.4948 87.6875 18.9688C87.3594 19.4427 87.1953 20.0104 87.1953 20.6719V25H85.375V20.4922C85.375 19.0026 84.849 18.2578 83.7969 18.2578C83.3073 18.2578 82.9036 18.4818 82.5859 18.9297C82.2734 19.3776 82.1172 19.9583 82.1172 20.6719V25H80.3047V17H82.1172V18.2656H82.1484C82.7266 17.2969 83.5677 16.8125 84.6719 16.8125C85.224 16.8125 85.7057 16.9661 86.1172 17.2734C86.5339 17.5755 86.8177 17.974 86.9688 18.4688C87.5625 17.3646 88.4479 16.8125 89.625 16.8125C91.3854 16.8125 92.2656 17.8984 92.2656 20.0703V25ZM101.25 21.4922H95.7969C95.8177 22.2318 96.0443 22.8021 96.4766 23.2031C96.9141 23.6042 97.513 23.8047 98.2734 23.8047C99.1276 23.8047 99.9115 23.5495 100.625 23.0391V24.5C99.8958 24.9583 98.9323 25.1875 97.7344 25.1875C96.5573 25.1875 95.6328 24.8255 94.9609 24.1016C94.2943 23.3724 93.9609 22.349 93.9609 21.0312C93.9609 19.7865 94.3281 18.7734 95.0625 17.9922C95.8021 17.2057 96.7188 16.8125 97.8125 16.8125C98.9062 16.8125 99.7526 17.1641 100.352 17.8672C100.951 18.5703 101.25 19.5469 101.25 20.7969V21.4922ZM99.5 20.2109C99.4948 19.5599 99.3411 19.0547 99.0391 18.6953C98.737 18.3307 98.3203 18.1484 97.7891 18.1484C97.2682 18.1484 96.8255 18.3385 96.4609 18.7188C96.1016 19.099 95.8802 19.5964 95.7969 20.2109H99.5ZM110.25 25H108.438V23.6406H108.406C107.823 24.6719 106.924 25.1875 105.711 25.1875C104.727 25.1875 103.938 24.8307 103.344 24.1172C102.755 23.3984 102.461 22.4219 102.461 21.1875C102.461 19.8646 102.786 18.8047 103.438 18.0078C104.094 17.2109 104.966 16.8125 106.055 16.8125C107.133 16.8125 107.917 17.2448 108.406 18.1094H108.438V13.1562H110.25V25ZM108.461 21.3438V20.2969C108.461 19.7292 108.276 19.2474 107.906 18.8516C107.536 18.4557 107.065 18.2578 106.492 18.2578C105.815 18.2578 105.281 18.5104 104.891 19.0156C104.505 19.5208 104.312 20.2214 104.312 21.1172C104.312 21.9297 104.497 22.5729 104.867 23.0469C105.242 23.5156 105.745 23.75 106.375 23.75C106.995 23.75 107.497 23.5234 107.883 23.0703C108.268 22.612 108.461 22.0365 108.461 21.3438ZM113.531 15.3203C113.234 15.3203 112.979 15.224 112.766 15.0312C112.557 14.8385 112.453 14.5938 112.453 14.2969C112.453 14 112.557 13.7526 112.766 13.5547C112.979 13.3568 113.234 13.2578 113.531 13.2578C113.839 13.2578 114.099 13.3568 114.312 13.5547C114.526 13.7526 114.633 14 114.633 14.2969C114.633 14.5781 114.526 14.8203 114.312 15.0234C114.099 15.2214 113.839 15.3203 113.531 15.3203ZM114.43 25H112.617V17H114.43V25ZM120.352 25.1875C119.117 25.1875 118.13 24.8151 117.391 24.0703C116.656 23.3203 116.289 22.3281 116.289 21.0938C116.289 19.75 116.672 18.7005 117.438 17.9453C118.208 17.1901 119.245 16.8125 120.547 16.8125C121.797 16.8125 122.771 17.1797 123.469 17.9141C124.167 18.6484 124.516 19.6667 124.516 20.9688C124.516 22.2448 124.138 23.2682 123.383 24.0391C122.633 24.8047 121.622 25.1875 120.352 25.1875ZM120.438 18.2578C119.729 18.2578 119.169 18.5052 118.758 19C118.346 19.4948 118.141 20.1771 118.141 21.0469C118.141 21.8854 118.349 22.5469 118.766 23.0312C119.182 23.5104 119.74 23.75 120.438 23.75C121.151 23.75 121.698 23.513 122.078 23.0391C122.464 22.5651 122.656 21.8906 122.656 21.0156C122.656 20.1354 122.464 19.4557 122.078 18.9766C121.698 18.4974 121.151 18.2578 120.438 18.2578Z" fill="#6D6D6D"/>
<rect x="0.5" y="0.5" width="146" height="36" rx="3.5" stroke="#333333"/>
</svg>
