<svg width="147" height="37" viewBox="0 0 147 37" fill="none" xmlns="http://www.w3.org/2000/svg">
<rect x="0.5" y="0.5" width="146" height="36" rx="3.5" fill="#2280ED"/>
<path d="M49.2499 19.7378H46.7499C46.6283 19.7378 46.5285 19.789 46.4504 19.8917C46.3724 19.9943 46.3333 20.1255 46.3333 20.2853V23.5712C46.3333 23.7309 46.3722 23.8622 46.4504 23.9645C46.5285 24.0675 46.6285 24.1186 46.7499 24.1186H49.2499C49.3713 24.1186 49.4712 24.0674 49.5494 23.9645C49.6274 23.8622 49.6665 23.7309 49.6665 23.5712V20.2853C49.6665 20.1255 49.6274 19.9946 49.5494 19.8917C49.4712 19.7891 49.3713 19.7378 49.2499 19.7378Z" fill="url(#paint0_linear_249:579)"/>
<path d="M59.25 13.1665H56.75C56.6283 13.1665 56.5286 13.2178 56.4505 13.3203C56.3724 13.4229 56.3333 13.5541 56.3333 13.7137V23.5711C56.3333 23.7308 56.3723 23.8621 56.4505 23.9644C56.5286 24.0674 56.6283 24.1185 56.75 24.1185H59.25C59.3715 24.1185 59.4714 24.0674 59.5493 23.9644C59.6273 23.8621 59.6666 23.7308 59.6666 23.5711V13.7137C59.6666 13.5542 59.6273 13.4229 59.5493 13.3204C59.4714 13.2178 59.3715 13.1665 59.25 13.1665Z" fill="white"/>
<path d="M54.2499 17.5474H51.7499C51.6282 17.5474 51.5285 17.5986 51.4504 17.7012C51.3723 17.8037 51.3333 17.935 51.3333 18.0945V23.5705C51.3333 23.7305 51.3722 23.8617 51.4504 23.9643C51.5285 24.0668 51.6282 24.1181 51.7499 24.1181H54.2499C54.3713 24.1181 54.4712 24.0668 54.5494 23.9643C54.6273 23.8617 54.6665 23.7305 54.6665 23.5705V18.0945C54.6665 17.935 54.6273 17.8037 54.5494 17.7012C54.4712 17.5987 54.3713 17.5474 54.2499 17.5474Z" fill="white"/>
<path d="M76.4297 15.375H72.2422V18.7422H76.1016V20.3125H72.2422V25H70.3828V13.7969H76.4297V15.375ZM84.3672 25H82.6094V23.75H82.5781C82.026 24.7083 81.2161 25.1875 80.1484 25.1875C79.362 25.1875 78.7448 24.974 78.2969 24.5469C77.8542 24.1198 77.6328 23.5547 77.6328 22.8516C77.6328 21.3411 78.5026 20.4609 80.2422 20.2109L82.6172 19.875C82.6172 18.7344 82.0755 18.1641 80.9922 18.1641C80.0391 18.1641 79.1797 18.4922 78.4141 19.1484V17.5625C79.2578 17.0625 80.2318 16.8125 81.3359 16.8125C83.3568 16.8125 84.3672 17.8073 84.3672 19.7969V25ZM82.6172 21.0703L80.9375 21.3047C80.4167 21.3724 80.0234 21.5 79.7578 21.6875C79.4974 21.8698 79.3672 22.1927 79.3672 22.6562C79.3672 22.9948 79.487 23.2734 79.7266 23.4922C79.9714 23.7057 80.2969 23.8125 80.7031 23.8125C81.2552 23.8125 81.7109 23.6198 82.0703 23.2344C82.4349 22.8438 82.6172 22.3542 82.6172 21.7656V21.0703ZM83.5156 12.9219L81.2812 15.4844H79.9375L81.8281 12.9219H83.5156ZM92.3125 24.6328C91.6719 25.0026 90.9141 25.1875 90.0391 25.1875C88.8516 25.1875 87.8932 24.8177 87.1641 24.0781C86.4349 23.3333 86.0703 22.3698 86.0703 21.1875C86.0703 19.8698 86.4609 18.8125 87.2422 18.0156C88.0286 17.2135 89.0781 16.8125 90.3906 16.8125C91.1198 16.8125 91.763 16.9401 92.3203 17.1953V18.8828C91.763 18.4661 91.1693 18.2578 90.5391 18.2578C89.7734 18.2578 89.1458 18.5182 88.6562 19.0391C88.1667 19.5547 87.9219 20.2318 87.9219 21.0703C87.9219 21.8984 88.151 22.5521 88.6094 23.0312C89.0729 23.5104 89.6927 23.75 90.4688 23.75C91.1198 23.75 91.7344 23.5182 92.3125 23.0547V24.6328ZM95.0312 15.3203C94.7344 15.3203 94.4792 15.224 94.2656 15.0312C94.0573 14.8385 93.9531 14.5938 93.9531 14.2969C93.9531 14 94.0573 13.7526 94.2656 13.5547C94.4792 13.3568 94.7344 13.2578 95.0312 13.2578C95.3385 13.2578 95.599 13.3568 95.8125 13.5547C96.026 13.7526 96.1328 14 96.1328 14.2969C96.1328 14.5781 96.026 14.8203 95.8125 15.0234C95.599 15.2214 95.3385 15.3203 95.0312 15.3203ZM95.9297 25H94.1172V17H95.9297V25ZM100.125 25H98.3047V13.1562H100.125V25Z" fill="white"/>
<rect x="0.5" y="0.5" width="146" height="36" rx="3.5" stroke="#1D70D0"/>
<defs>
<linearGradient id="paint0_linear_249:579" x1="46.3333" y1="19.9096" x2="50.5409" y2="22.395" gradientUnits="userSpaceOnUse">
<stop stop-color="#F6FA00"/>
<stop offset="1" stop-color="#FFE835"/>
</linearGradient>
</defs>
</svg>
