<svg width="230" height="44" viewBox="0 0 230 44" fill="none" xmlns="http://www.w3.org/2000/svg">
<g filter="url(#filter0_d)">
<rect x="4" y="3" width="222" height="36" rx="4" fill="white"/>
<path d="M65.5254 25.5605C64.749 25.9707 63.7822 26.1758 62.625 26.1758C61.1309 26.1758 59.9346 25.6948 59.0361 24.7329C58.1377 23.771 57.6885 22.5088 57.6885 20.9463C57.6885 19.2666 58.1938 17.9092 59.2046 16.874C60.2153 15.8389 61.4971 15.3213 63.0498 15.3213C64.0459 15.3213 64.8711 15.4653 65.5254 15.7534V17.0645C64.7734 16.6445 63.9434 16.4346 63.0352 16.4346C61.8291 16.4346 60.8501 16.8374 60.0981 17.6431C59.3511 18.4487 58.9775 19.5254 58.9775 20.873C58.9775 22.1523 59.3267 23.1729 60.0249 23.9346C60.728 24.6914 61.6484 25.0698 62.7861 25.0698C63.8408 25.0698 64.7539 24.8354 65.5254 24.3667V25.5605ZM70.6377 26.1758C69.5293 26.1758 68.6431 25.8267 67.979 25.1284C67.3198 24.4253 66.9902 23.4951 66.9902 22.3379C66.9902 21.0781 67.3345 20.0942 68.0229 19.3862C68.7114 18.6782 69.6416 18.3242 70.8135 18.3242C71.9316 18.3242 72.8032 18.6685 73.4282 19.3569C74.0581 20.0454 74.373 21 74.373 22.2207C74.373 23.417 74.0337 24.3765 73.355 25.0991C72.6812 25.8169 71.7754 26.1758 70.6377 26.1758ZM70.7256 19.335C69.9541 19.335 69.3438 19.5986 68.8945 20.126C68.4453 20.6484 68.2207 21.3711 68.2207 22.2939C68.2207 23.1826 68.4478 23.8833 68.9019 24.396C69.356 24.9087 69.9639 25.165 70.7256 25.165C71.502 25.165 72.0977 24.9136 72.5127 24.4106C72.9326 23.9077 73.1426 23.1924 73.1426 22.2646C73.1426 21.3271 72.9326 20.6045 72.5127 20.0967C72.0977 19.5889 71.502 19.335 70.7256 19.335ZM82.5176 26H81.3164V21.7227C81.3164 20.1309 80.7354 19.335 79.5732 19.335C78.9727 19.335 78.4746 19.562 78.0791 20.0161C77.6885 20.4653 77.4932 21.0342 77.4932 21.7227V26H76.292V18.5H77.4932V19.7451H77.5225C78.0889 18.7979 78.9092 18.3242 79.9834 18.3242C80.8037 18.3242 81.4312 18.5903 81.8657 19.1226C82.3003 19.6499 82.5176 20.4141 82.5176 21.415V26ZM88.2671 25.9268C87.9839 26.083 87.6104 26.1611 87.1465 26.1611C85.833 26.1611 85.1763 25.4287 85.1763 23.9639V19.5254H83.8872V18.5H85.1763V16.6689L86.3774 16.2808V18.5H88.2671V19.5254H86.3774V23.7515C86.3774 24.2544 86.4629 24.6133 86.6338 24.8281C86.8047 25.043 87.0879 25.1504 87.4834 25.1504C87.7861 25.1504 88.0474 25.0674 88.2671 24.9014V25.9268ZM90.4863 16.5957C90.2715 16.5957 90.0884 16.5225 89.937 16.376C89.7856 16.2295 89.71 16.0439 89.71 15.8193C89.71 15.5947 89.7856 15.4092 89.937 15.2627C90.0884 15.1113 90.2715 15.0356 90.4863 15.0356C90.7061 15.0356 90.8916 15.1113 91.043 15.2627C91.1992 15.4092 91.2773 15.5947 91.2773 15.8193C91.2773 16.0342 91.1992 16.2173 91.043 16.3687C90.8916 16.52 90.7061 16.5957 90.4863 16.5957ZM91.0723 26H89.8711V18.5H91.0723V26ZM99.7295 26H98.5283V21.7227C98.5283 20.1309 97.9473 19.335 96.7852 19.335C96.1846 19.335 95.6865 19.562 95.291 20.0161C94.9004 20.4653 94.7051 21.0342 94.7051 21.7227V26H93.5039V18.5H94.7051V19.7451H94.7344C95.3008 18.7979 96.1211 18.3242 97.1953 18.3242C98.0156 18.3242 98.6431 18.5903 99.0776 19.1226C99.5122 19.6499 99.7295 20.4141 99.7295 21.415V26ZM108.064 26H106.863V24.8135H106.834C106.336 25.7217 105.564 26.1758 104.52 26.1758C102.732 26.1758 101.839 25.1113 101.839 22.9824V18.5H103.033V22.792C103.033 24.374 103.638 25.165 104.849 25.165C105.435 25.165 105.916 24.9502 106.292 24.5205C106.673 24.0859 106.863 23.5195 106.863 22.8213V18.5H108.064V26ZM115.865 26H114.664V24.8281H114.634C114.112 25.7266 113.343 26.1758 112.327 26.1758C111.58 26.1758 110.994 25.978 110.569 25.5825C110.149 25.187 109.939 24.6621 109.939 24.0078C109.939 22.6064 110.765 21.791 112.415 21.5615L114.664 21.2466C114.664 19.9722 114.148 19.335 113.118 19.335C112.215 19.335 111.399 19.6426 110.672 20.2578V19.0273C111.409 18.5586 112.259 18.3242 113.221 18.3242C114.983 18.3242 115.865 19.2568 115.865 21.1221V26ZM114.664 22.2061L112.854 22.4551C112.298 22.5332 111.878 22.6724 111.595 22.8726C111.312 23.0679 111.17 23.417 111.17 23.9199C111.17 24.2861 111.299 24.5864 111.558 24.8208C111.822 25.0503 112.171 25.165 112.605 25.165C113.201 25.165 113.692 24.9575 114.078 24.5425C114.468 24.1226 114.664 23.5928 114.664 22.9531V22.2061ZM122.039 19.7158C121.829 19.5547 121.526 19.4741 121.131 19.4741C120.618 19.4741 120.188 19.7158 119.842 20.1992C119.5 20.6826 119.329 21.3418 119.329 22.1768V26H118.128V18.5H119.329V20.0454H119.358C119.529 19.5181 119.791 19.1079 120.142 18.8149C120.494 18.5171 120.887 18.3682 121.321 18.3682C121.634 18.3682 121.873 18.4023 122.039 18.4707V19.7158ZM132.571 25.6558C131.995 26.0024 131.312 26.1758 130.521 26.1758C129.451 26.1758 128.587 25.8291 127.928 25.1357C127.273 24.4375 126.946 23.5342 126.946 22.4258C126.946 21.1904 127.3 20.1992 128.008 19.4521C128.716 18.7002 129.661 18.3242 130.843 18.3242C131.502 18.3242 132.083 18.4463 132.586 18.6904V19.9209C132.029 19.5303 131.434 19.335 130.799 19.335C130.032 19.335 129.402 19.6108 128.909 20.1626C128.421 20.7095 128.177 21.4297 128.177 22.3232C128.177 23.2021 128.406 23.8955 128.865 24.4033C129.329 24.9111 129.949 25.165 130.726 25.165C131.38 25.165 131.995 24.9478 132.571 24.5132V25.6558ZM137.522 26.1758C136.414 26.1758 135.528 25.8267 134.864 25.1284C134.205 24.4253 133.875 23.4951 133.875 22.3379C133.875 21.0781 134.219 20.0942 134.908 19.3862C135.596 18.6782 136.526 18.3242 137.698 18.3242C138.816 18.3242 139.688 18.6685 140.313 19.3569C140.943 20.0454 141.258 21 141.258 22.2207C141.258 23.417 140.918 24.3765 140.24 25.0991C139.566 25.8169 138.66 26.1758 137.522 26.1758ZM137.61 19.335C136.839 19.335 136.229 19.5986 135.779 20.126C135.33 20.6484 135.105 21.3711 135.105 22.2939C135.105 23.1826 135.333 23.8833 135.787 24.396C136.241 24.9087 136.849 25.165 137.61 25.165C138.387 25.165 138.982 24.9136 139.397 24.4106C139.817 23.9077 140.027 23.1924 140.027 22.2646C140.027 21.3271 139.817 20.6045 139.397 20.0967C138.982 19.5889 138.387 19.335 137.61 19.335ZM149.402 26H148.201V21.7227C148.201 20.1309 147.62 19.335 146.458 19.335C145.857 19.335 145.359 19.562 144.964 20.0161C144.573 20.4653 144.378 21.0342 144.378 21.7227V26H143.177V18.5H144.378V19.7451H144.407C144.974 18.7979 145.794 18.3242 146.868 18.3242C147.688 18.3242 148.316 18.5903 148.75 19.1226C149.185 19.6499 149.402 20.4141 149.402 21.415V26ZM163.802 25.2822C162.747 25.8779 161.575 26.1758 160.286 26.1758C158.787 26.1758 157.574 25.6924 156.646 24.7256C155.723 23.7588 155.262 22.4795 155.262 20.8877C155.262 19.2617 155.774 17.9287 156.8 16.8887C157.83 15.8438 159.134 15.3213 160.711 15.3213C161.854 15.3213 162.813 15.5068 163.589 15.8779V17.2402C162.74 16.7031 161.734 16.4346 160.572 16.4346C159.395 16.4346 158.431 16.8398 157.679 17.6504C156.927 18.4609 156.551 19.5107 156.551 20.7998C156.551 22.1279 156.9 23.1729 157.598 23.9346C158.296 24.6914 159.244 25.0698 160.44 25.0698C161.26 25.0698 161.971 24.9062 162.571 24.5791V21.6348H160.271V20.5215H163.802V25.2822ZM169.222 26.1758C168.113 26.1758 167.227 25.8267 166.563 25.1284C165.904 24.4253 165.574 23.4951 165.574 22.3379C165.574 21.0781 165.918 20.0942 166.607 19.3862C167.295 18.6782 168.226 18.3242 169.397 18.3242C170.516 18.3242 171.387 18.6685 172.012 19.3569C172.642 20.0454 172.957 21 172.957 22.2207C172.957 23.417 172.618 24.3765 171.939 25.0991C171.265 25.8169 170.359 26.1758 169.222 26.1758ZM169.31 19.335C168.538 19.335 167.928 19.5986 167.479 20.126C167.029 20.6484 166.805 21.3711 166.805 22.2939C166.805 23.1826 167.032 23.8833 167.486 24.396C167.94 24.9087 168.548 25.165 169.31 25.165C170.086 25.165 170.682 24.9136 171.097 24.4106C171.517 23.9077 171.727 23.1924 171.727 22.2646C171.727 21.3271 171.517 20.6045 171.097 20.0967C170.682 19.5889 170.086 19.335 169.31 19.335ZM178.011 26.1758C176.902 26.1758 176.016 25.8267 175.352 25.1284C174.693 24.4253 174.363 23.4951 174.363 22.3379C174.363 21.0781 174.708 20.0942 175.396 19.3862C176.084 18.6782 177.015 18.3242 178.187 18.3242C179.305 18.3242 180.176 18.6685 180.801 19.3569C181.431 20.0454 181.746 21 181.746 22.2207C181.746 23.417 181.407 24.3765 180.728 25.0991C180.054 25.8169 179.148 26.1758 178.011 26.1758ZM178.099 19.335C177.327 19.335 176.717 19.5986 176.268 20.126C175.818 20.6484 175.594 21.3711 175.594 22.2939C175.594 23.1826 175.821 23.8833 176.275 24.396C176.729 24.9087 177.337 25.165 178.099 25.165C178.875 25.165 179.471 24.9136 179.886 24.4106C180.306 23.9077 180.516 23.1924 180.516 22.2646C180.516 21.3271 180.306 20.6045 179.886 20.0967C179.471 19.5889 178.875 19.335 178.099 19.335ZM190.066 25.3994C190.066 28.1533 188.748 29.5303 186.111 29.5303C185.184 29.5303 184.373 29.3545 183.68 29.0029V27.8018C184.524 28.2705 185.33 28.5049 186.097 28.5049C187.942 28.5049 188.865 27.5234 188.865 25.5605V24.7402H188.836C188.265 25.6973 187.405 26.1758 186.258 26.1758C185.325 26.1758 184.573 25.8438 184.002 25.1797C183.436 24.5107 183.152 23.6147 183.152 22.4917C183.152 21.2173 183.458 20.2041 184.068 19.4521C184.683 18.7002 185.523 18.3242 186.587 18.3242C187.598 18.3242 188.348 18.7295 188.836 19.54H188.865V18.5H190.066V25.3994ZM188.865 22.6089V21.5029C188.865 20.9072 188.663 20.397 188.257 19.9722C187.857 19.5474 187.356 19.335 186.756 19.335C186.014 19.335 185.433 19.606 185.013 20.1479C184.593 20.6851 184.383 21.4395 184.383 22.4111C184.383 23.2461 184.583 23.915 184.983 24.418C185.389 24.916 185.923 25.165 186.587 25.165C187.261 25.165 187.808 24.9258 188.228 24.4473C188.653 23.9688 188.865 23.356 188.865 22.6089ZM193.699 26H192.498V14.8965H193.699V26ZM202.159 22.5503H196.863C196.883 23.3853 197.107 24.0298 197.537 24.4839C197.967 24.938 198.558 25.165 199.31 25.165C200.154 25.165 200.931 24.8867 201.639 24.3301V25.458C200.979 25.9365 200.108 26.1758 199.024 26.1758C197.964 26.1758 197.132 25.8364 196.526 25.1577C195.921 24.4741 195.618 23.5146 195.618 22.2793C195.618 21.1123 195.948 20.1626 196.607 19.4302C197.271 18.6929 198.094 18.3242 199.075 18.3242C200.057 18.3242 200.816 18.6416 201.353 19.2764C201.89 19.9111 202.159 20.7925 202.159 21.9204V22.5503ZM200.928 21.5322C200.923 20.8389 200.755 20.2993 200.423 19.9136C200.096 19.5278 199.639 19.335 199.053 19.335C198.487 19.335 198.006 19.5376 197.61 19.9429C197.215 20.3481 196.971 20.8779 196.878 21.5322H200.928Z" fill="black"/>
<g clip-path="url(#clip0)">
<path d="M30.9495 19.3238C31.3004 18.2621 31.9776 17.3384 32.8846 16.6843C33.7915 16.0303 34.8818 15.6795 36 15.6817C37.2675 15.6817 38.4135 16.1318 39.3135 16.8682L41.9325 14.25C40.3365 12.8587 38.2912 12 36 12C32.4525 12 29.3985 14.0235 27.93 16.9875L30.9495 19.3238Z" fill="#EA4335"/>
<path d="M39.03 25.5097C38.2125 26.0369 37.1745 26.3182 36 26.3182C34.8863 26.3205 33.8001 25.9724 32.8952 25.3232C31.9902 24.674 31.3124 23.7566 30.9577 22.7009L27.9277 25.0012C28.6712 26.5059 29.8217 27.772 31.2486 28.6556C32.6755 29.5392 34.3216 30.005 36 29.9999C38.1997 29.9999 40.3012 29.2177 41.8755 27.7499L39.0307 25.5097H39.03Z" fill="#34A853"/>
<path d="M41.8755 27.75C43.5217 26.214 44.5905 23.928 44.5905 21C44.5905 20.4675 44.5087 19.8953 44.3865 19.3635H36V22.8413H40.827C40.5893 24.0105 39.9495 24.9158 39.0308 25.5098L41.8755 27.75Z" fill="#4A90E2"/>
<path d="M30.9577 22.701C30.7742 22.1527 30.681 21.5783 30.6817 21C30.6817 20.4135 30.7755 19.8503 30.9495 19.3238L27.93 16.9875C27.3122 18.2346 26.9938 19.6084 27 21C27 22.44 27.3337 23.7975 27.9277 25.0013L30.9577 22.701Z" fill="#FBBC05"/>
</g>
</g>
<defs>
<filter id="filter0_d" x="0" y="0" width="230" height="44" filterUnits="userSpaceOnUse" color-interpolation-filters="sRGB">
<feFlood flood-opacity="0" result="BackgroundImageFix"/>
<feColorMatrix in="SourceAlpha" type="matrix" values="0 0 0 0 0 0 0 0 0 0 0 0 0 0 0 0 0 0 127 0" result="hardAlpha"/>
<feOffset dy="1"/>
<feGaussianBlur stdDeviation="2"/>
<feColorMatrix type="matrix" values="0 0 0 0 0 0 0 0 0 0 0 0 0 0 0 0 0 0 0.25 0"/>
<feBlend mode="normal" in2="BackgroundImageFix" result="effect1_dropShadow"/>
<feBlend mode="normal" in="SourceGraphic" in2="effect1_dropShadow" result="shape"/>
</filter>
<clipPath id="clip0">
<rect width="18" height="18" fill="white" transform="translate(27 12)"/>
</clipPath>
</defs>
</svg>
