<svg width="230" height="44" viewBox="0 0 230 44" fill="none" xmlns="http://www.w3.org/2000/svg">
<g filter="url(#filter0_d)">
<rect x="4" y="3" width="222" height="36" rx="4" fill="#1977F3"/>
<path d="M59.5254 25.5605C58.749 25.9707 57.7822 26.1758 56.625 26.1758C55.1309 26.1758 53.9346 25.6948 53.0361 24.7329C52.1377 23.771 51.6885 22.5088 51.6885 20.9463C51.6885 19.2666 52.1938 17.9092 53.2046 16.874C54.2153 15.8389 55.4971 15.3213 57.0498 15.3213C58.0459 15.3213 58.8711 15.4653 59.5254 15.7534V17.0645C58.7734 16.6445 57.9434 16.4346 57.0352 16.4346C55.8291 16.4346 54.8501 16.8374 54.0981 17.6431C53.3511 18.4487 52.9775 19.5254 52.9775 20.873C52.9775 22.1523 53.3267 23.1729 54.0249 23.9346C54.728 24.6914 55.6484 25.0698 56.7861 25.0698C57.8408 25.0698 58.7539 24.8354 59.5254 24.3667V25.5605ZM64.6377 26.1758C63.5293 26.1758 62.6431 25.8267 61.979 25.1284C61.3198 24.4253 60.9902 23.4951 60.9902 22.3379C60.9902 21.0781 61.3345 20.0942 62.0229 19.3862C62.7114 18.6782 63.6416 18.3242 64.8135 18.3242C65.9316 18.3242 66.8032 18.6685 67.4282 19.3569C68.0581 20.0454 68.373 21 68.373 22.2207C68.373 23.417 68.0337 24.3765 67.355 25.0991C66.6812 25.8169 65.7754 26.1758 64.6377 26.1758ZM64.7256 19.335C63.9541 19.335 63.3438 19.5986 62.8945 20.126C62.4453 20.6484 62.2207 21.3711 62.2207 22.2939C62.2207 23.1826 62.4478 23.8833 62.9019 24.396C63.356 24.9087 63.9639 25.165 64.7256 25.165C65.502 25.165 66.0977 24.9136 66.5127 24.4106C66.9326 23.9077 67.1426 23.1924 67.1426 22.2646C67.1426 21.3271 66.9326 20.6045 66.5127 20.0967C66.0977 19.5889 65.502 19.335 64.7256 19.335ZM76.5176 26H75.3164V21.7227C75.3164 20.1309 74.7354 19.335 73.5732 19.335C72.9727 19.335 72.4746 19.562 72.0791 20.0161C71.6885 20.4653 71.4932 21.0342 71.4932 21.7227V26H70.292V18.5H71.4932V19.7451H71.5225C72.0889 18.7979 72.9092 18.3242 73.9834 18.3242C74.8037 18.3242 75.4312 18.5903 75.8657 19.1226C76.3003 19.6499 76.5176 20.4141 76.5176 21.415V26ZM82.2671 25.9268C81.9839 26.083 81.6104 26.1611 81.1465 26.1611C79.833 26.1611 79.1763 25.4287 79.1763 23.9639V19.5254H77.8872V18.5H79.1763V16.6689L80.3774 16.2808V18.5H82.2671V19.5254H80.3774V23.7515C80.3774 24.2544 80.4629 24.6133 80.6338 24.8281C80.8047 25.043 81.0879 25.1504 81.4834 25.1504C81.7861 25.1504 82.0474 25.0674 82.2671 24.9014V25.9268ZM84.4863 16.5957C84.2715 16.5957 84.0884 16.5225 83.937 16.376C83.7856 16.2295 83.71 16.0439 83.71 15.8193C83.71 15.5947 83.7856 15.4092 83.937 15.2627C84.0884 15.1113 84.2715 15.0356 84.4863 15.0356C84.7061 15.0356 84.8916 15.1113 85.043 15.2627C85.1992 15.4092 85.2773 15.5947 85.2773 15.8193C85.2773 16.0342 85.1992 16.2173 85.043 16.3687C84.8916 16.52 84.7061 16.5957 84.4863 16.5957ZM85.0723 26H83.8711V18.5H85.0723V26ZM93.7295 26H92.5283V21.7227C92.5283 20.1309 91.9473 19.335 90.7852 19.335C90.1846 19.335 89.6865 19.562 89.291 20.0161C88.9004 20.4653 88.7051 21.0342 88.7051 21.7227V26H87.5039V18.5H88.7051V19.7451H88.7344C89.3008 18.7979 90.1211 18.3242 91.1953 18.3242C92.0156 18.3242 92.6431 18.5903 93.0776 19.1226C93.5122 19.6499 93.7295 20.4141 93.7295 21.415V26ZM102.064 26H100.863V24.8135H100.834C100.336 25.7217 99.5645 26.1758 98.5195 26.1758C96.7324 26.1758 95.8389 25.1113 95.8389 22.9824V18.5H97.0327V22.792C97.0327 24.374 97.6382 25.165 98.8491 25.165C99.4351 25.165 99.916 24.9502 100.292 24.5205C100.673 24.0859 100.863 23.5195 100.863 22.8213V18.5H102.064V26ZM109.865 26H108.664V24.8281H108.634C108.112 25.7266 107.343 26.1758 106.327 26.1758C105.58 26.1758 104.994 25.978 104.569 25.5825C104.149 25.187 103.939 24.6621 103.939 24.0078C103.939 22.6064 104.765 21.791 106.415 21.5615L108.664 21.2466C108.664 19.9722 108.148 19.335 107.118 19.335C106.215 19.335 105.399 19.6426 104.672 20.2578V19.0273C105.409 18.5586 106.259 18.3242 107.221 18.3242C108.983 18.3242 109.865 19.2568 109.865 21.1221V26ZM108.664 22.2061L106.854 22.4551C106.298 22.5332 105.878 22.6724 105.595 22.8726C105.312 23.0679 105.17 23.417 105.17 23.9199C105.17 24.2861 105.299 24.5864 105.558 24.8208C105.822 25.0503 106.171 25.165 106.605 25.165C107.201 25.165 107.692 24.9575 108.078 24.5425C108.468 24.1226 108.664 23.5928 108.664 22.9531V22.2061ZM116.039 19.7158C115.829 19.5547 115.526 19.4741 115.131 19.4741C114.618 19.4741 114.188 19.7158 113.842 20.1992C113.5 20.6826 113.329 21.3418 113.329 22.1768V26H112.128V18.5H113.329V20.0454H113.358C113.529 19.5181 113.791 19.1079 114.142 18.8149C114.494 18.5171 114.887 18.3682 115.321 18.3682C115.634 18.3682 115.873 18.4023 116.039 18.4707V19.7158ZM126.571 25.6558C125.995 26.0024 125.312 26.1758 124.521 26.1758C123.451 26.1758 122.587 25.8291 121.928 25.1357C121.273 24.4375 120.946 23.5342 120.946 22.4258C120.946 21.1904 121.3 20.1992 122.008 19.4521C122.716 18.7002 123.661 18.3242 124.843 18.3242C125.502 18.3242 126.083 18.4463 126.586 18.6904V19.9209C126.029 19.5303 125.434 19.335 124.799 19.335C124.032 19.335 123.402 19.6108 122.909 20.1626C122.421 20.7095 122.177 21.4297 122.177 22.3232C122.177 23.2021 122.406 23.8955 122.865 24.4033C123.329 24.9111 123.949 25.165 124.726 25.165C125.38 25.165 125.995 24.9478 126.571 24.5132V25.6558ZM131.522 26.1758C130.414 26.1758 129.528 25.8267 128.864 25.1284C128.205 24.4253 127.875 23.4951 127.875 22.3379C127.875 21.0781 128.219 20.0942 128.908 19.3862C129.596 18.6782 130.526 18.3242 131.698 18.3242C132.816 18.3242 133.688 18.6685 134.313 19.3569C134.943 20.0454 135.258 21 135.258 22.2207C135.258 23.417 134.918 24.3765 134.24 25.0991C133.566 25.8169 132.66 26.1758 131.522 26.1758ZM131.61 19.335C130.839 19.335 130.229 19.5986 129.779 20.126C129.33 20.6484 129.105 21.3711 129.105 22.2939C129.105 23.1826 129.333 23.8833 129.787 24.396C130.241 24.9087 130.849 25.165 131.61 25.165C132.387 25.165 132.982 24.9136 133.397 24.4106C133.817 23.9077 134.027 23.1924 134.027 22.2646C134.027 21.3271 133.817 20.6045 133.397 20.0967C132.982 19.5889 132.387 19.335 131.61 19.335ZM143.402 26H142.201V21.7227C142.201 20.1309 141.62 19.335 140.458 19.335C139.857 19.335 139.359 19.562 138.964 20.0161C138.573 20.4653 138.378 21.0342 138.378 21.7227V26H137.177V18.5H138.378V19.7451H138.407C138.974 18.7979 139.794 18.3242 140.868 18.3242C141.688 18.3242 142.316 18.5903 142.75 19.1226C143.185 19.6499 143.402 20.4141 143.402 21.415V26ZM155.282 16.6104H151.181V20.2432H154.975V21.3491H151.181V26H149.95V15.4971H155.282V16.6104ZM161.969 26H160.768V24.8281H160.739C160.216 25.7266 159.447 26.1758 158.432 26.1758C157.685 26.1758 157.099 25.978 156.674 25.5825C156.254 25.187 156.044 24.6621 156.044 24.0078C156.044 22.6064 156.869 21.791 158.52 21.5615L160.768 21.2466C160.768 19.9722 160.253 19.335 159.223 19.335C158.319 19.335 157.504 19.6426 156.776 20.2578V19.0273C157.514 18.5586 158.363 18.3242 159.325 18.3242C161.088 18.3242 161.969 19.2568 161.969 21.1221V26ZM160.768 22.2061L158.959 22.4551C158.402 22.5332 157.982 22.6724 157.699 22.8726C157.416 23.0679 157.274 23.417 157.274 23.9199C157.274 24.2861 157.404 24.5864 157.663 24.8208C157.926 25.0503 158.275 25.165 158.71 25.165C159.306 25.165 159.796 24.9575 160.182 24.5425C160.573 24.1226 160.768 23.5928 160.768 22.9531V22.2061ZM169.345 25.6558C168.769 26.0024 168.085 26.1758 167.294 26.1758C166.225 26.1758 165.36 25.8291 164.701 25.1357C164.047 24.4375 163.72 23.5342 163.72 22.4258C163.72 21.1904 164.074 20.1992 164.782 19.4521C165.49 18.7002 166.435 18.3242 167.616 18.3242C168.275 18.3242 168.856 18.4463 169.359 18.6904V19.9209C168.803 19.5303 168.207 19.335 167.572 19.335C166.806 19.335 166.176 19.6108 165.683 20.1626C165.194 20.7095 164.95 21.4297 164.95 22.3232C164.95 23.2021 165.18 23.8955 165.639 24.4033C166.103 24.9111 166.723 25.165 167.499 25.165C168.153 25.165 168.769 24.9478 169.345 24.5132V25.6558ZM177.189 22.5503H171.894C171.913 23.3853 172.138 24.0298 172.567 24.4839C172.997 24.938 173.588 25.165 174.34 25.165C175.185 25.165 175.961 24.8867 176.669 24.3301V25.458C176.01 25.9365 175.138 26.1758 174.054 26.1758C172.995 26.1758 172.162 25.8364 171.557 25.1577C170.951 24.4741 170.648 23.5146 170.648 22.2793C170.648 21.1123 170.978 20.1626 171.637 19.4302C172.301 18.6929 173.124 18.3242 174.105 18.3242C175.087 18.3242 175.846 18.6416 176.383 19.2764C176.92 19.9111 177.189 20.7925 177.189 21.9204V22.5503ZM175.958 21.5322C175.954 20.8389 175.785 20.2993 175.453 19.9136C175.126 19.5278 174.669 19.335 174.083 19.335C173.517 19.335 173.036 19.5376 172.641 19.9429C172.245 20.3481 172.001 20.8779 171.908 21.5322H175.958ZM180.243 24.916H180.214V26H179.013V14.8965H180.214V19.8184H180.243C180.834 18.8223 181.698 18.3242 182.836 18.3242C183.798 18.3242 184.55 18.6611 185.092 19.335C185.639 20.0039 185.912 20.9023 185.912 22.0303C185.912 23.2852 185.607 24.291 184.997 25.0479C184.386 25.7998 183.551 26.1758 182.492 26.1758C181.5 26.1758 180.751 25.7559 180.243 24.916ZM180.214 21.8911V22.9385C180.214 23.5586 180.414 24.0859 180.814 24.5205C181.22 24.9502 181.732 25.165 182.353 25.165C183.08 25.165 183.649 24.8867 184.059 24.3301C184.474 23.7734 184.682 22.9995 184.682 22.0083C184.682 21.1733 184.489 20.519 184.103 20.0454C183.717 19.5718 183.195 19.335 182.536 19.335C181.837 19.335 181.276 19.5791 180.851 20.0674C180.426 20.5508 180.214 21.1587 180.214 21.8911ZM190.966 26.1758C189.857 26.1758 188.971 25.8267 188.307 25.1284C187.648 24.4253 187.318 23.4951 187.318 22.3379C187.318 21.0781 187.663 20.0942 188.351 19.3862C189.04 18.6782 189.97 18.3242 191.142 18.3242C192.26 18.3242 193.131 18.6685 193.756 19.3569C194.386 20.0454 194.701 21 194.701 22.2207C194.701 23.417 194.362 24.3765 193.683 25.0991C193.009 25.8169 192.104 26.1758 190.966 26.1758ZM191.054 19.335C190.282 19.335 189.672 19.5986 189.223 20.126C188.773 20.6484 188.549 21.3711 188.549 22.2939C188.549 23.1826 188.776 23.8833 189.23 24.396C189.684 24.9087 190.292 25.165 191.054 25.165C191.83 25.165 192.426 24.9136 192.841 24.4106C193.261 23.9077 193.471 23.1924 193.471 22.2646C193.471 21.3271 193.261 20.6045 192.841 20.0967C192.426 19.5889 191.83 19.335 191.054 19.335ZM199.755 26.1758C198.646 26.1758 197.76 25.8267 197.096 25.1284C196.437 24.4253 196.107 23.4951 196.107 22.3379C196.107 21.0781 196.452 20.0942 197.14 19.3862C197.829 18.6782 198.759 18.3242 199.931 18.3242C201.049 18.3242 201.92 18.6685 202.545 19.3569C203.175 20.0454 203.49 21 203.49 22.2207C203.49 23.417 203.151 24.3765 202.472 25.0991C201.798 25.8169 200.893 26.1758 199.755 26.1758ZM199.843 19.335C199.071 19.335 198.461 19.5986 198.012 20.126C197.562 20.6484 197.338 21.3711 197.338 22.2939C197.338 23.1826 197.565 23.8833 198.019 24.396C198.473 24.9087 199.081 25.165 199.843 25.165C200.619 25.165 201.215 24.9136 201.63 24.4106C202.05 23.9077 202.26 23.1924 202.26 22.2646C202.26 21.3271 202.05 20.6045 201.63 20.0967C201.215 19.5889 200.619 19.335 199.843 19.335ZM211.635 26H209.95L206.64 22.3965H206.61V26H205.409V14.8965H206.61V21.9351H206.64L209.789 18.5H211.364L207.885 22.1182L211.635 26Z" fill="white"/>
<path d="M32.34 14.99H33.75V12.605C33.0673 12.534 32.3814 12.499 31.695 12.5C29.655 12.5 28.26 13.745 28.26 16.025V17.99H25.9575V20.66H28.26V27.5H31.02V20.66H33.315L33.66 17.99H31.02V16.2875C31.02 15.5 31.23 14.99 32.34 14.99Z" fill="white"/>
</g>
<defs>
<filter id="filter0_d" x="0" y="0" width="230" height="44" filterUnits="userSpaceOnUse" color-interpolation-filters="sRGB">
<feFlood flood-opacity="0" result="BackgroundImageFix"/>
<feColorMatrix in="SourceAlpha" type="matrix" values="0 0 0 0 0 0 0 0 0 0 0 0 0 0 0 0 0 0 127 0" result="hardAlpha"/>
<feOffset dy="1"/>
<feGaussianBlur stdDeviation="2"/>
<feColorMatrix type="matrix" values="0 0 0 0 0 0 0 0 0 0 0 0 0 0 0 0 0 0 0.25 0"/>
<feBlend mode="normal" in2="BackgroundImageFix" result="effect1_dropShadow"/>
<feBlend mode="normal" in="SourceGraphic" in2="effect1_dropShadow" result="shape"/>
</filter>
</defs>
</svg>
