<svg width="116" height="60" viewBox="0 0 116 60" fill="none" xmlns="http://www.w3.org/2000/svg">
<g filter="url(#filter0_d)">
<g clip-path="url(#clip0)">
<rect x="12" y="10" width="92" height="36" rx="16" fill="white"/>
<g filter="url(#filter1_d)">
<rect x="54" y="10" width="50" height="36" rx="16" fill="white"/>
<path d="M88.0025 34.7891H74.6286C74.0774 34.7891 73.6306 34.3424 73.6306 33.7912C73.6306 33.24 74.0774 32.7932 74.6286 32.7932H88.0021C88.5533 32.7932 89.0001 33.24 89.0001 33.7912C89.0001 34.3424 88.5537 34.7891 88.0025 34.7891Z" fill="#2280ED"/>
<path d="M88.0025 28.525H74.6286C74.0774 28.525 73.6306 28.0782 73.6306 27.527C73.6306 26.9758 74.0774 26.5291 74.6286 26.5291H88.0021C88.5533 26.5291 89.0001 26.9758 89.0001 27.527C89.0004 28.0782 88.5537 28.525 88.0025 28.525Z" fill="#2280ED"/>
<path d="M88.0025 22.2612H74.6286C74.0774 22.2612 73.6306 21.8144 73.6306 21.2632C73.6306 20.712 74.0774 20.2653 74.6286 20.2653H88.0021C88.5533 20.2653 89.0001 20.712 89.0001 21.2632C89.0001 21.8144 88.5537 22.2612 88.0025 22.2612Z" fill="#2280ED"/>
<path d="M70.3403 22.6805C71.0805 22.6805 71.6805 22.0805 71.6805 21.3403C71.6805 20.6001 71.0805 20 70.3403 20C69.6001 20 69 20.6001 69 21.3403C69 22.0805 69.6001 22.6805 70.3403 22.6805Z" fill="#2280ED"/>
<path d="M70.3403 28.8673C71.0805 28.8673 71.6805 28.2672 71.6805 27.527C71.6805 26.7868 71.0805 26.1868 70.3403 26.1868C69.6001 26.1868 69 26.7868 69 27.527C69 28.2672 69.6001 28.8673 70.3403 28.8673Z" fill="#2280ED"/>
<path d="M70.3403 35.0543C71.0805 35.0543 71.6805 34.4542 71.6805 33.714C71.6805 32.9738 71.0805 32.3738 70.3403 32.3738C69.6001 32.3738 69 32.9738 69 33.714C69 34.4542 69.6001 35.0543 70.3403 35.0543Z" fill="#2280ED"/>
</g>
<path d="M43 20H41V19C41 18.7348 40.8946 18.4804 40.7071 18.2929C40.5196 18.1054 40.2652 18 40 18C39.7348 18 39.4804 18.1054 39.2929 18.2929C39.1054 18.4804 39 18.7348 39 19V20H33V19C33 18.7348 32.8946 18.4804 32.7071 18.2929C32.5196 18.1054 32.2652 18 32 18C31.7348 18 31.4804 18.1054 31.2929 18.2929C31.1054 18.4804 31 18.7348 31 19V20H29C28.2044 20 27.4413 20.3161 26.8787 20.8787C26.3161 21.4413 26 22.2044 26 23V35C26 35.7956 26.3161 36.5587 26.8787 37.1213C27.4413 37.6839 28.2044 38 29 38H43C43.7956 38 44.5587 37.6839 45.1213 37.1213C45.6839 36.5587 46 35.7956 46 35V23C46 22.2044 45.6839 21.4413 45.1213 20.8787C44.5587 20.3161 43.7956 20 43 20ZM44 35C44 35.2652 43.8946 35.5196 43.7071 35.7071C43.5196 35.8946 43.2652 36 43 36H29C28.7348 36 28.4804 35.8946 28.2929 35.7071C28.1054 35.5196 28 35.2652 28 35V28H44V35ZM44 26H28V23C28 22.7348 28.1054 22.4804 28.2929 22.2929C28.4804 22.1054 28.7348 22 29 22H31V23C31 23.2652 31.1054 23.5196 31.2929 23.7071C31.4804 23.8946 31.7348 24 32 24C32.2652 24 32.5196 23.8946 32.7071 23.7071C32.8946 23.5196 33 23.2652 33 23V22H39V23C39 23.2652 39.1054 23.5196 39.2929 23.7071C39.4804 23.8946 39.7348 24 40 24C40.2652 24 40.5196 23.8946 40.7071 23.7071C40.8946 23.5196 41 23.2652 41 23V22H43C43.2652 22 43.5196 22.1054 43.7071 22.2929C43.8946 22.4804 44 22.7348 44 23V26Z" fill="#6D6D6D"/>
</g>
</g>
<defs>
<filter id="filter0_d" x="0" y="0" width="116" height="60" filterUnits="userSpaceOnUse" color-interpolation-filters="sRGB">
<feFlood flood-opacity="0" result="BackgroundImageFix"/>
<feColorMatrix in="SourceAlpha" type="matrix" values="0 0 0 0 0 0 0 0 0 0 0 0 0 0 0 0 0 0 127 0" result="hardAlpha"/>
<feOffset dy="2"/>
<feGaussianBlur stdDeviation="6"/>
<feColorMatrix type="matrix" values="0 0 0 0 0 0 0 0 0 0 0 0 0 0 0 0 0 0 0.12 0"/>
<feBlend mode="normal" in2="BackgroundImageFix" result="effect1_dropShadow"/>
<feBlend mode="normal" in="SourceGraphic" in2="effect1_dropShadow" result="shape"/>
</filter>
<filter id="filter1_d" x="42" y="0" width="74" height="60" filterUnits="userSpaceOnUse" color-interpolation-filters="sRGB">
<feFlood flood-opacity="0" result="BackgroundImageFix"/>
<feColorMatrix in="SourceAlpha" type="matrix" values="0 0 0 0 0 0 0 0 0 0 0 0 0 0 0 0 0 0 127 0" result="hardAlpha"/>
<feOffset dy="2"/>
<feGaussianBlur stdDeviation="6"/>
<feColorMatrix type="matrix" values="0 0 0 0 0 0 0 0 0 0 0 0 0 0 0 0 0 0 0.12 0"/>
<feBlend mode="normal" in2="BackgroundImageFix" result="effect1_dropShadow"/>
<feBlend mode="normal" in="SourceGraphic" in2="effect1_dropShadow" result="shape"/>
</filter>
<clipPath id="clip0">
<rect x="12" y="10" width="92" height="36" rx="16" fill="white"/>
</clipPath>
</defs>
</svg>
