<svg width="116" height="60" viewBox="0 0 116 60" fill="none" xmlns="http://www.w3.org/2000/svg">
<g filter="url(#filter0_d)">
<g clip-path="url(#clip0)">
<rect x="12" y="10" width="92" height="36" rx="16" fill="white"/>
<g filter="url(#filter1_d)">
<rect x="12" y="10" width="50" height="36" rx="16" fill="white"/>
<path d="M44 20H42V19C42 18.7348 41.8946 18.4804 41.7071 18.2929C41.5196 18.1054 41.2652 18 41 18C40.7348 18 40.4804 18.1054 40.2929 18.2929C40.1054 18.4804 40 18.7348 40 19V20H34V19C34 18.7348 33.8946 18.4804 33.7071 18.2929C33.5196 18.1054 33.2652 18 33 18C32.7348 18 32.4804 18.1054 32.2929 18.2929C32.1054 18.4804 32 18.7348 32 19V20H30C29.2044 20 28.4413 20.3161 27.8787 20.8787C27.3161 21.4413 27 22.2044 27 23V35C27 35.7956 27.3161 36.5587 27.8787 37.1213C28.4413 37.6839 29.2044 38 30 38H44C44.7956 38 45.5587 37.6839 46.1213 37.1213C46.6839 36.5587 47 35.7956 47 35V23C47 22.2044 46.6839 21.4413 46.1213 20.8787C45.5587 20.3161 44.7956 20 44 20ZM45 35C45 35.2652 44.8946 35.5196 44.7071 35.7071C44.5196 35.8946 44.2652 36 44 36H30C29.7348 36 29.4804 35.8946 29.2929 35.7071C29.1054 35.5196 29 35.2652 29 35V28H45V35ZM45 26H29V23C29 22.7348 29.1054 22.4804 29.2929 22.2929C29.4804 22.1054 29.7348 22 30 22H32V23C32 23.2652 32.1054 23.5196 32.2929 23.7071C32.4804 23.8946 32.7348 24 33 24C33.2652 24 33.5196 23.8946 33.7071 23.7071C33.8946 23.5196 34 23.2652 34 23V22H40V23C40 23.2652 40.1054 23.5196 40.2929 23.7071C40.4804 23.8946 40.7348 24 41 24C41.2652 24 41.5196 23.8946 41.7071 23.7071C41.8946 23.5196 42 23.2652 42 23V22H44C44.2652 22 44.5196 22.1054 44.7071 22.2929C44.8946 22.4804 45 22.7348 45 23V26Z" fill="#2280ED"/>
</g>
<path d="M92.0024 34.7891H78.6284C78.0772 34.7891 77.6305 34.3424 77.6305 33.7912C77.6305 33.24 78.0772 32.7932 78.6284 32.7932H92.002C92.5532 32.7932 93 33.24 93 33.7912C93 34.3424 92.5536 34.7891 92.0024 34.7891Z" fill="#6D6D6D"/>
<path d="M92.0024 28.525H78.6284C78.0772 28.525 77.6305 28.0782 77.6305 27.527C77.6305 26.9758 78.0772 26.5291 78.6284 26.5291H92.002C92.5532 26.5291 93 26.9758 93 27.527C93.0003 28.0782 92.5536 28.525 92.0024 28.525Z" fill="#6D6D6D"/>
<path d="M92.0024 22.2612H78.6284C78.0772 22.2612 77.6305 21.8144 77.6305 21.2632C77.6305 20.712 78.0772 20.2653 78.6284 20.2653H92.002C92.5532 20.2653 93 20.712 93 21.2632C93 21.8144 92.5536 22.2612 92.0024 22.2612Z" fill="#6D6D6D"/>
<path d="M74.3403 22.6805C75.0805 22.6805 75.6805 22.0805 75.6805 21.3403C75.6805 20.6001 75.0805 20 74.3403 20C73.6001 20 73 20.6001 73 21.3403C73 22.0805 73.6001 22.6805 74.3403 22.6805Z" fill="#6D6D6D"/>
<path d="M74.3403 28.8673C75.0805 28.8673 75.6805 28.2672 75.6805 27.527C75.6805 26.7868 75.0805 26.1868 74.3403 26.1868C73.6001 26.1868 73 26.7868 73 27.527C73 28.2672 73.6001 28.8673 74.3403 28.8673Z" fill="#6D6D6D"/>
<path d="M74.3403 35.0543C75.0805 35.0543 75.6805 34.4542 75.6805 33.714C75.6805 32.9738 75.0805 32.3738 74.3403 32.3738C73.6001 32.3738 73 32.9738 73 33.714C73 34.4542 73.6001 35.0543 74.3403 35.0543Z" fill="#6D6D6D"/>
</g>
</g>
<defs>
<filter id="filter0_d" x="0" y="0" width="116" height="60" filterUnits="userSpaceOnUse" color-interpolation-filters="sRGB">
<feFlood flood-opacity="0" result="BackgroundImageFix"/>
<feColorMatrix in="SourceAlpha" type="matrix" values="0 0 0 0 0 0 0 0 0 0 0 0 0 0 0 0 0 0 127 0" result="hardAlpha"/>
<feOffset dy="2"/>
<feGaussianBlur stdDeviation="6"/>
<feColorMatrix type="matrix" values="0 0 0 0 0 0 0 0 0 0 0 0 0 0 0 0 0 0 0.12 0"/>
<feBlend mode="normal" in2="BackgroundImageFix" result="effect1_dropShadow"/>
<feBlend mode="normal" in="SourceGraphic" in2="effect1_dropShadow" result="shape"/>
</filter>
<filter id="filter1_d" x="0" y="0" width="74" height="60" filterUnits="userSpaceOnUse" color-interpolation-filters="sRGB">
<feFlood flood-opacity="0" result="BackgroundImageFix"/>
<feColorMatrix in="SourceAlpha" type="matrix" values="0 0 0 0 0 0 0 0 0 0 0 0 0 0 0 0 0 0 127 0" result="hardAlpha"/>
<feOffset dy="2"/>
<feGaussianBlur stdDeviation="6"/>
<feColorMatrix type="matrix" values="0 0 0 0 0 0 0 0 0 0 0 0 0 0 0 0 0 0 0.12 0"/>
<feBlend mode="normal" in2="BackgroundImageFix" result="effect1_dropShadow"/>
<feBlend mode="normal" in="SourceGraphic" in2="effect1_dropShadow" result="shape"/>
</filter>
<clipPath id="clip0">
<rect x="12" y="10" width="92" height="36" rx="16" fill="white"/>
</clipPath>
</defs>
</svg>
