<svg width="335" height="201" viewBox="0 0 335 201" fill="none" xmlns="http://www.w3.org/2000/svg">
<g filter="url(#filter0_d_295:1341)">
<g clip-path="url(#clip0_295:1341)">
<rect x="12" y="10" width="311" height="177" rx="12" fill="#FCD76C"/>
<path d="M286.995 112.25H241.249C240.262 112.25 239.462 113.05 239.462 114.036C239.462 115.023 240.262 115.823 241.249 115.823H286.995C287.982 115.823 288.782 115.023 288.782 114.036C288.782 113.05 287.982 112.25 286.995 112.25Z" fill="black"/>
<path d="M286.995 124.806H241.249C240.262 124.806 239.462 125.606 239.462 126.593C239.462 127.579 240.262 128.379 241.249 128.379H286.995C287.982 128.379 288.782 127.579 288.782 126.593C288.782 125.606 287.982 124.806 286.995 124.806Z" fill="black"/>
<path d="M286.995 137.362H241.249C240.262 137.362 239.462 138.162 239.462 139.149C239.462 140.136 240.262 140.936 241.249 140.936H286.995C287.982 140.936 288.782 140.136 288.782 139.149C288.782 138.162 287.982 137.362 286.995 137.362Z" fill="black"/>
<path d="M288.782 151.706C288.782 150.719 287.982 149.919 286.995 149.919H241.249C240.262 149.919 239.462 150.72 239.462 151.706C239.462 152.693 240.262 153.493 241.249 153.493H286.995C287.982 153.493 288.782 152.693 288.782 151.706Z" fill="black"/>
<path d="M241.249 168.32C240.262 168.32 239.462 169.12 239.462 170.107C239.462 171.094 240.262 171.894 241.249 171.894H264.181C265.167 171.894 265.967 171.094 265.967 170.107C265.967 169.12 265.167 168.32 264.181 168.32H241.249Z" fill="black"/>
<path d="M307.587 91.1251V85.3268C307.587 83.1179 305.79 81.3208 303.581 81.3208H266.894C264.685 81.3208 262.888 83.1179 262.888 85.3268V91.1251C262.888 93.334 264.685 95.1309 266.894 95.1309H269.992C270.979 95.1309 271.779 94.3307 271.779 93.344C271.779 92.357 270.979 91.5571 269.992 91.5571H266.894C266.656 91.5571 266.462 91.3634 266.462 91.1254V85.3268C266.462 85.0887 266.656 84.8948 266.894 84.8948H303.581C303.82 84.8948 304.013 85.0885 304.013 85.3268V91.1251C304.013 91.3632 303.82 91.5569 303.581 91.5569H278.346C277.359 91.5569 276.559 92.357 276.559 93.3438C276.559 94.3307 277.359 95.1306 278.346 95.1306H303.582C305.79 95.1311 307.587 93.334 307.587 91.1251Z" fill="black"/>
<path d="M320.949 177.965C319.962 177.965 319.162 178.765 319.162 179.752V182.158C319.162 185.063 316.799 187.426 313.894 187.426H234.841C231.937 187.426 229.574 185.063 229.574 182.158V96.266C229.574 95.8793 229.619 95.5 229.7 95.1309H245.97C249.367 95.1309 252.131 92.3673 252.131 88.9704V72.7C252.5 72.6193 252.879 72.574 253.266 72.574H313.894C316.798 72.574 319.162 74.937 319.162 77.8417V101.632C319.162 102.619 319.962 103.419 320.949 103.419C321.936 103.419 322.736 102.619 322.736 101.632V77.8414C322.736 72.9664 318.769 69 313.894 69H253.266C250.904 69 248.684 69.9198 247.014 71.5896L228.589 90.0143C226.92 91.6841 226 93.9044 226 96.2663V182.159C226 187.034 229.966 191 234.841 191H313.894C318.769 191 322.736 187.034 322.736 182.159V179.752C322.736 178.765 321.936 177.965 320.949 177.965ZM248.557 75.101V88.9704C248.557 90.3967 247.397 91.5571 245.97 91.5571H232.101L248.557 75.101Z" fill="black"/>
<path d="M345.423 132.859C346.678 131.018 347.002 128.747 346.314 126.628C345.625 124.51 344.028 122.863 341.931 122.111C340.54 121.612 339.612 120.335 339.567 118.858C339.5 116.631 338.427 114.603 336.625 113.293C334.823 111.984 332.562 111.591 330.424 112.214C329.004 112.629 327.504 112.141 326.599 110.972C325.236 109.21 323.177 108.199 320.949 108.199C318.721 108.199 316.661 109.21 315.298 110.972C314.393 112.141 312.892 112.628 311.473 112.214C309.335 111.59 307.074 111.984 305.272 113.293C303.469 114.603 302.397 116.631 302.33 118.857C302.285 120.335 301.357 121.612 299.966 122.111C297.869 122.863 296.271 124.51 295.583 126.628C294.895 128.747 295.219 131.018 296.474 132.859C297.306 134.081 297.306 135.659 296.474 136.881C295.219 138.722 294.895 140.993 295.583 143.112C296.271 145.231 297.869 146.877 299.966 147.629C301.357 148.128 302.285 149.405 302.33 150.883C302.392 152.931 303.331 154.856 304.906 156.163C305.945 157.025 307.193 157.565 308.5 157.745V174.015C308.5 175.387 309.244 176.656 310.443 177.326C311.639 177.994 313.111 177.965 314.281 177.244L320.834 173.21C320.941 173.144 321.005 173.174 321.064 173.21L327.617 177.244C328.786 177.964 330.257 177.995 331.455 177.325C332.654 176.656 333.398 175.387 333.398 174.014V157.745C334.704 157.565 335.953 157.025 336.992 156.163C338.567 154.856 339.506 152.931 339.568 150.883C339.612 149.405 340.541 148.128 341.932 147.629C344.029 146.877 345.626 145.23 346.315 143.111C347.003 140.993 346.678 138.722 345.424 136.88C344.591 135.659 344.591 134.081 345.423 132.859ZM329.49 174.201L322.937 170.166C321.718 169.417 320.18 169.415 318.96 170.166L312.407 174.201C312.258 174.292 312.073 174.187 312.073 174.014V157.406C313.302 157.264 314.52 157.764 315.298 158.768C316.661 160.53 318.721 161.541 320.949 161.541C323.177 161.541 325.236 160.53 326.599 158.768C327.377 157.763 328.596 157.264 329.824 157.406V174.014C329.824 174.188 329.637 174.292 329.49 174.201ZM342.47 138.893C343.097 139.814 343.259 140.949 342.915 142.008C342.571 143.066 341.772 143.889 340.724 144.265C337.941 145.264 336.084 147.819 335.995 150.775C335.963 151.814 335.507 152.751 334.709 153.413C333.812 154.157 332.598 154.437 331.425 154.095C328.587 153.267 325.583 154.243 323.773 156.582C323.091 157.462 322.062 157.967 320.948 157.967C319.835 157.967 318.806 157.462 318.124 156.582C316.742 154.795 314.664 153.804 312.495 153.804C311.823 153.804 311.143 153.899 310.472 154.095C309.288 154.44 308.077 154.151 307.187 153.412C306.39 152.75 305.933 151.814 305.902 150.775C305.812 147.819 303.956 145.264 301.172 144.265C300.124 143.889 299.326 143.066 298.982 142.008C298.638 140.949 298.8 139.813 299.427 138.893C301.092 136.449 301.092 133.291 299.427 130.847C298.8 129.927 298.638 128.792 298.982 127.733C299.326 126.674 300.124 125.851 301.172 125.475C303.956 124.476 305.812 121.921 305.902 118.965C305.935 117.852 306.471 116.839 307.372 116.184C308.273 115.53 309.402 115.333 310.472 115.645C313.31 116.474 316.314 115.497 318.124 113.159C318.805 112.278 319.835 111.773 320.948 111.773C322.062 111.773 323.091 112.278 323.773 113.159C325.582 115.497 328.586 116.473 331.425 115.645C332.494 115.333 333.623 115.529 334.524 116.184C335.425 116.838 335.962 117.852 335.995 118.965C336.084 121.921 337.941 124.476 340.724 125.475C341.772 125.85 342.571 126.673 342.915 127.732C343.259 128.791 343.097 129.927 342.47 130.847C340.805 133.291 340.805 136.449 342.47 138.893Z" fill="black"/>
<path d="M320.949 119.893C312.691 119.893 305.972 126.612 305.972 134.87C305.972 143.128 312.691 149.847 320.949 149.847C329.207 149.847 335.926 143.128 335.926 134.87C335.926 126.612 329.207 119.893 320.949 119.893ZM320.949 146.273C314.661 146.273 309.546 141.158 309.546 134.87C309.546 128.583 314.661 123.467 320.949 123.467C327.237 123.467 332.352 128.582 332.352 134.87C332.352 141.158 327.236 146.273 320.949 146.273Z" fill="black"/>
<g filter="url(#filter1_f_295:1341)">
<path d="M353.5 112C353.5 175.789 296.882 237 233.093 237C169.304 237 85.5933 163.289 85.5933 99.5C85.5933 35.7112 169.304 41.0001 233.093 41.0001C296.882 41.0001 353.5 48.2112 353.5 112Z" fill="url(#paint0_linear_295:1341)"/>
</g>

</g>
</g>
<defs>
<filter id="filter0_d_295:1341" x="0" y="0" width="335" height="201" filterUnits="userSpaceOnUse" color-interpolation-filters="sRGB">
<feFlood flood-opacity="0" result="BackgroundImageFix"/>
<feColorMatrix in="SourceAlpha" type="matrix" values="0 0 0 0 0 0 0 0 0 0 0 0 0 0 0 0 0 0 127 0" result="hardAlpha"/>
<feOffset dy="2"/>
<feGaussianBlur stdDeviation="6"/>
<feColorMatrix type="matrix" values="0 0 0 0 0 0 0 0 0 0 0 0 0 0 0 0 0 0 0.12 0"/>
<feBlend mode="normal" in2="BackgroundImageFix" result="effect1_dropShadow_295:1341"/>
<feBlend mode="normal" in="SourceGraphic" in2="effect1_dropShadow_295:1341" result="shape"/>
</filter>
<filter id="filter1_f_295:1341" x="-16.4067" y="-61.1069" width="471.907" height="400.107" filterUnits="userSpaceOnUse" color-interpolation-filters="sRGB">
<feFlood flood-opacity="0" result="BackgroundImageFix"/>
<feBlend mode="normal" in="SourceGraphic" in2="BackgroundImageFix" result="shape"/>
<feGaussianBlur stdDeviation="51" result="effect1_foregroundBlur_295:1341"/>
</filter>
<linearGradient id="paint0_linear_295:1341" x1="58.6425" y1="-20.614" x2="95.6425" y2="138.386" gradientUnits="userSpaceOnUse">
<stop stop-color="#B7B7B7"/>
<stop offset="1" stop-color="#FFE835"/>
</linearGradient>
<clipPath id="clip0_295:1341">
<rect x="12" y="10" width="311" height="177" rx="12" fill="white"/>
</clipPath>
</defs>
</svg>
