<svg width="335" height="201" viewBox="0 0 335 201" fill="none" xmlns="http://www.w3.org/2000/svg">
<g filter="url(#filter0_d_295:1360)">
<g clip-path="url(#clip0_295:1360)">
<rect x="12" y="10" width="311" height="177" rx="12" fill="#FCD76C"/>
<path d="M309.257 141.748L308.848 141.969C306.738 139.489 303.15 138.543 300.407 139.933L300.376 139.949L299.257 140.552C297.8 139.344 296.009 138.611 294.124 138.45C292.239 138.289 290.349 138.708 288.709 139.652L282.264 143.156H280.626C280.576 142.396 280.519 141.63 280.446 140.85C280.444 140.815 280.441 140.778 280.436 140.744C280.359 139.928 280.27 139.102 280.168 138.266C280.11 135.647 280.551 133.042 281.467 130.588C281.643 130.097 281.835 129.613 282.041 129.137C282.3 128.887 282.455 128.549 282.476 128.19C283.236 126.615 284.168 125.129 285.257 123.76L287.473 123.898C288.595 124.051 289.726 124.129 290.859 124.13C295.944 124.13 300.549 122.506 304.325 119.351C310.474 114.212 314.261 105.174 314.714 94.5535C314.724 94.3199 314.676 94.0874 314.576 93.8764C314.475 93.6654 314.324 93.4824 314.136 93.3433C313.948 93.2042 313.729 93.1133 313.498 93.0785C313.267 93.0438 313.03 93.0663 312.81 93.144L295.666 99.1873C290.351 101.06 286.219 105.927 284.612 112.204C283.819 115.451 283.261 118.752 282.941 122.08C282.314 122.873 281.734 123.701 281.204 124.561C279.123 118.359 279.03 111.963 280.921 105.451L283.794 104.037C299.103 96.4978 306.576 79.8863 300.453 67.0079C300.364 66.82 300.235 66.6538 300.075 66.5209C299.914 66.3881 299.727 66.2919 299.526 66.2389C299.325 66.186 299.114 66.1776 298.909 66.2144C298.704 66.2512 298.51 66.3323 298.34 66.452L286.882 74.5059C281.559 78.1168 278.093 83.222 276.861 89.2689C275.868 94.1408 276.331 99.6038 278.166 104.652L278.184 104.702C275.924 112.621 276.333 120.535 279.433 127.964C279.197 128.509 278.976 129.062 278.775 129.625C278.757 129.674 278.742 129.723 278.724 129.772C277.802 125.678 276.478 121.685 274.773 117.851C274.777 117.812 274.781 117.772 274.782 117.732L274.902 113.795C275.412 96.739 264.239 82.3532 249.992 81.7287C249.784 81.7196 249.576 81.756 249.384 81.8353C249.192 81.9146 249.019 82.0349 248.878 82.1879C248.737 82.3409 248.631 82.5228 248.567 82.721C248.504 82.9191 248.485 83.1287 248.511 83.3352L250.258 97.2313C250.954 103.627 253.84 109.081 258.605 113.003C262.281 116.029 267.064 118.126 272.133 118.952C274.103 123.365 275.542 127.997 276.422 132.749C276.787 134.717 277.085 136.639 277.315 138.514C277.351 139.37 277.444 140.223 277.593 141.067C277.659 141.773 277.712 142.468 277.76 143.156H273.678C271.833 143.154 270.011 142.737 268.349 141.935L267.163 141.362C263.764 139.708 259.973 139.027 256.21 139.395C252.447 139.762 248.86 141.164 245.845 143.444C245.813 143.468 245.783 143.493 245.754 143.519L242.891 146.068C242.65 146.283 242.395 146.48 242.135 146.669L241.725 144.222C241.693 144.036 241.626 143.859 241.527 143.7C241.427 143.541 241.297 143.403 241.144 143.294C240.991 143.185 240.818 143.107 240.635 143.065C240.452 143.023 240.263 143.017 240.078 143.048L224.602 145.645C224.417 145.677 224.239 145.744 224.08 145.843C223.921 145.943 223.783 146.073 223.674 146.226C223.565 146.379 223.487 146.552 223.445 146.735C223.403 146.918 223.397 147.107 223.429 147.292L229.692 184.615C229.748 184.949 229.92 185.252 230.178 185.47C230.436 185.689 230.764 185.809 231.102 185.809C231.181 185.809 231.26 185.802 231.338 185.789L246.814 183.191C247 183.16 247.177 183.093 247.336 182.994C247.495 182.894 247.633 182.764 247.742 182.611C247.851 182.458 247.929 182.285 247.971 182.102C248.013 181.919 248.019 181.73 247.988 181.545L246.387 172.005L254.989 166.567C256.094 165.957 257.39 165.79 258.614 166.1C258.643 166.107 258.673 166.114 258.703 166.12L275.989 169.302C280.716 170.148 285.59 169.46 289.899 167.339C289.959 167.309 290.018 167.274 290.074 167.236L319.971 146.708C320.271 146.502 320.482 146.189 320.559 145.833C320.636 145.477 320.574 145.104 320.386 144.792C319.28 142.949 317.505 141.604 315.432 141.037C313.359 140.47 311.147 140.725 309.257 141.748ZM287.382 112.913C288.752 107.563 292.204 103.44 296.617 101.884L311.717 96.5617C310.927 105.443 307.619 112.872 302.491 117.157C298.458 120.527 293.517 121.84 287.807 121.059H287.805L300.468 109.48C300.747 109.224 300.914 108.867 300.931 108.489C300.948 108.11 300.813 107.74 300.557 107.46C300.302 107.18 299.945 107.013 299.566 106.997C299.187 106.98 298.817 107.114 298.537 107.37L286.264 118.593C286.541 116.682 286.915 114.786 287.383 112.913H287.382ZM260.467 100.417L266.928 109.701C268.269 111.636 269.487 113.652 270.574 115.74C258.972 113.08 253.921 104.467 253.097 96.8982L251.568 84.7363C263.108 86.2827 271.982 98.2197 272.056 112.487C271.189 110.965 270.263 109.488 269.275 108.068L262.814 98.7837C262.597 98.4724 262.266 98.26 261.893 98.1931C261.52 98.1262 261.135 98.2102 260.824 98.4269C260.513 98.6435 260.3 98.9748 260.233 99.3481C260.166 99.7213 260.25 100.106 260.467 100.417H260.467ZM301.714 142.476C303.173 141.746 304.996 142.301 306.222 143.385L294.539 149.682C294.196 148.758 293.718 147.89 293.121 147.106L301.714 142.476ZM290.092 142.155L290.125 142.137C291.082 141.584 292.165 141.288 293.27 141.277C294.375 141.266 295.464 141.541 296.431 142.075L290.969 145.018C289.974 144.304 288.855 143.78 287.67 143.472L290.092 142.155ZM288.508 76.8582L298.536 69.8094C302.691 81.0396 295.817 94.9281 282.532 101.472L282.265 101.603C282.678 100.592 283.136 99.5783 283.64 98.5626C285.925 93.9922 288.919 89.812 292.51 86.1769C292.787 85.9175 292.949 85.5588 292.961 85.1797C292.973 84.8007 292.834 84.4325 292.574 84.156C292.315 83.8794 291.956 83.7173 291.577 83.7053C291.198 83.6932 290.83 83.8323 290.553 84.0917C290.333 84.2986 285.109 89.2474 281.124 97.2008C280.64 98.1668 280.197 99.1347 279.794 100.104C277.275 89.1257 282.395 81.005 288.508 76.8582ZM232.275 182.732L226.485 148.229L239.141 146.105L244.931 180.61L232.275 182.732ZM288.54 164.82C284.805 166.636 280.59 167.221 276.502 166.49L259.263 163.315C257.333 162.839 255.294 163.116 253.561 164.089C253.538 164.101 253.517 164.114 253.495 164.128L245.874 168.946L242.651 149.74C243.416 149.304 244.134 148.789 244.792 148.203L247.61 145.694C250.205 143.745 253.287 142.55 256.517 142.239C259.747 141.929 263.001 142.517 265.918 143.937L267.104 144.509C269.155 145.497 271.402 146.012 273.678 146.015H285.177C286.804 146.017 288.381 146.575 289.647 147.597C290.913 148.618 291.792 150.042 292.137 151.632L283.982 151.263C280.944 151.127 277.899 151.267 274.887 151.683C274.511 151.735 274.171 151.934 273.943 152.237C273.714 152.539 273.614 152.92 273.666 153.296C273.718 153.671 273.917 154.011 274.22 154.24C274.522 154.468 274.903 154.568 275.279 154.516C278.119 154.123 280.989 153.991 283.853 154.12L293.662 154.564C293.683 154.564 293.705 154.565 293.727 154.565C294.106 154.565 294.469 154.414 294.737 154.146C295.006 153.878 295.156 153.515 295.156 153.135C295.156 152.954 295.151 152.775 295.141 152.596L310.614 144.264C311.653 143.701 312.847 143.489 314.016 143.659C315.186 143.828 316.27 144.371 317.107 145.205L288.54 164.82Z" fill="black"/>
<path d="M237.049 172.408C236.091 172.569 235.218 173.057 234.58 173.789C233.941 174.521 233.576 175.452 233.547 176.423C233.517 177.394 233.826 178.345 234.419 179.114C235.013 179.883 235.854 180.423 236.801 180.641C237.748 180.859 238.741 180.742 239.611 180.31C240.481 179.878 241.174 179.158 241.573 178.272C241.972 177.386 242.051 176.39 241.797 175.452C241.543 174.514 240.972 173.694 240.181 173.13C239.273 172.484 238.147 172.225 237.049 172.408ZM239.065 176.327C239.11 176.598 239.071 176.875 238.953 177.122C238.835 177.37 238.644 177.575 238.406 177.71C238.168 177.845 237.894 177.904 237.621 177.879C237.349 177.853 237.09 177.745 236.881 177.568C236.672 177.391 236.522 177.154 236.452 176.889C236.382 176.624 236.395 176.344 236.489 176.087C236.583 175.83 236.754 175.608 236.979 175.451C237.203 175.294 237.47 175.21 237.744 175.209C238.061 175.208 238.369 175.32 238.611 175.525C238.853 175.73 239.014 176.014 239.065 176.327H239.065Z" fill="black"/>
<path d="M230.968 153.736C231.34 153.665 231.669 153.449 231.883 153.135C232.096 152.822 232.175 152.436 232.104 152.064L231.894 150.961C231.862 150.773 231.793 150.594 231.691 150.433C231.589 150.272 231.456 150.134 231.3 150.025C231.144 149.916 230.968 149.84 230.781 149.8C230.595 149.761 230.403 149.759 230.216 149.794C230.029 149.83 229.851 149.903 229.693 150.008C229.534 150.113 229.398 150.249 229.293 150.408C229.188 150.566 229.115 150.744 229.08 150.931C229.044 151.118 229.046 151.31 229.086 151.496L229.296 152.599C229.367 152.972 229.583 153.301 229.897 153.514C230.21 153.727 230.596 153.807 230.968 153.736Z" fill="black"/>
<path d="M234.266 171.013C234.638 170.941 234.967 170.725 235.18 170.412C235.394 170.098 235.473 169.713 235.402 169.34L233.112 157.334C233.079 157.148 233.008 156.971 232.906 156.813C232.803 156.654 232.67 156.518 232.514 156.411C232.359 156.305 232.183 156.23 231.999 156.191C231.814 156.153 231.623 156.151 231.438 156.186C231.253 156.222 231.076 156.294 230.919 156.397C230.761 156.501 230.626 156.635 230.52 156.792C230.415 156.948 230.342 157.124 230.304 157.309C230.267 157.494 230.267 157.685 230.304 157.87L232.595 169.875C232.63 170.06 232.701 170.236 232.804 170.393C232.907 170.55 233.04 170.685 233.195 170.791C233.35 170.896 233.525 170.97 233.709 171.008C233.893 171.046 234.083 171.047 234.267 171.012L234.266 171.013Z" fill="black"/>
<g filter="url(#filter1_f_295:1360)">
<path d="M353.5 112C353.5 175.789 296.882 237 233.093 237C169.304 237 85.5933 163.289 85.5933 99.5C85.5933 35.7112 169.304 41.0001 233.093 41.0001C296.882 41.0001 353.5 48.2112 353.5 112Z" fill="url(#paint0_linear_295:1360)"/>
</g>

</g>
</g>
<defs>
<filter id="filter0_d_295:1360" x="0" y="0" width="335" height="201" filterUnits="userSpaceOnUse" color-interpolation-filters="sRGB">
<feFlood flood-opacity="0" result="BackgroundImageFix"/>
<feColorMatrix in="SourceAlpha" type="matrix" values="0 0 0 0 0 0 0 0 0 0 0 0 0 0 0 0 0 0 127 0" result="hardAlpha"/>
<feOffset dy="2"/>
<feGaussianBlur stdDeviation="6"/>
<feColorMatrix type="matrix" values="0 0 0 0 0 0 0 0 0 0 0 0 0 0 0 0 0 0 0.12 0"/>
<feBlend mode="normal" in2="BackgroundImageFix" result="effect1_dropShadow_295:1360"/>
<feBlend mode="normal" in="SourceGraphic" in2="effect1_dropShadow_295:1360" result="shape"/>
</filter>
<filter id="filter1_f_295:1360" x="-16.4067" y="-61.1069" width="471.907" height="400.107" filterUnits="userSpaceOnUse" color-interpolation-filters="sRGB">
<feFlood flood-opacity="0" result="BackgroundImageFix"/>
<feBlend mode="normal" in="SourceGraphic" in2="BackgroundImageFix" result="shape"/>
<feGaussianBlur stdDeviation="51" result="effect1_foregroundBlur_295:1360"/>
</filter>
<linearGradient id="paint0_linear_295:1360" x1="58.6425" y1="-20.614" x2="95.6425" y2="138.386" gradientUnits="userSpaceOnUse">
<stop stop-color="#B7B7B7"/>
<stop offset="1" stop-color="#FFE835"/>
</linearGradient>
<clipPath id="clip0_295:1360">
<rect x="12" y="10" width="311" height="177" rx="12" fill="white"/>
</clipPath>
</defs>
</svg>
