<svg width="21" height="17" viewBox="0 0 21 17" fill="none" xmlns="http://www.w3.org/2000/svg">
<path d="M16.833 1.05113C16.8466 0.409899 16.8221 0.00473479 16.8221 0.00473479L10.5319 0H10.5H10.4681L4.17719 0.00473479C4.17719 0.00473479 4.15342 0.409899 4.167 1.05113H0V1.73565C0 1.89189 0.0264809 5.57761 2.30995 7.59666C3.26258 8.43878 4.45082 8.86221 5.85159 8.86289C6.06344 8.86289 6.2814 8.84868 6.50207 8.82975C7.29785 9.91537 8.21721 10.6756 9.25133 11.0544V14.061H6.21553V15.9441H5.21266V17H10.4681H10.5319H15.7873V15.9448H14.7838V14.0617H11.748V11.0551C12.7814 10.6763 13.7015 9.91605 14.4973 8.83042C14.7193 8.84936 14.9372 8.86289 15.1491 8.86289C16.5492 8.86154 17.7374 8.43878 18.6901 7.59599C20.9735 5.57693 21 1.89122 21 1.73497V1.05113H16.833ZM3.22659 6.57598C1.92224 5.42609 1.53657 3.45776 1.4225 2.42016H4.24576C4.36527 3.71277 4.64637 5.32328 5.29481 6.73899C5.41364 6.99873 5.53857 7.24494 5.66623 7.48573C4.69322 7.44853 3.87435 7.14618 3.22659 6.57598ZM17.7734 6.57598C17.1263 7.14686 16.3068 7.44853 15.3345 7.48573C15.4621 7.24561 15.587 6.99873 15.7059 6.73899C16.3543 5.32328 16.6354 3.71277 16.7542 2.42016H19.5775C19.4634 3.45709 19.0784 5.42542 17.7734 6.57598Z" fill="url(#paint0_linear)"/>
<defs>
<linearGradient id="paint0_linear" x1="10.5" y1="0" x2="10.5" y2="17" gradientUnits="userSpaceOnUse">
<stop stop-color="#C79614"/>
<stop offset="1" stop-color="#FDC10C"/>
</linearGradient>
</defs>
</svg>
