<svg width="16" height="15" viewBox="0 0 16 15" fill="none" xmlns="http://www.w3.org/2000/svg">
<path d="M8 0C6.51664 0 5.0666 0.439867 3.83323 1.26398C2.59986 2.08809 1.63856 3.25943 1.07091 4.62987C0.50325 6.00032 0.354725 7.50832 0.644114 8.96318C0.933503 10.418 1.64781 11.7544 2.6967 12.8033C3.7456 13.8522 5.08197 14.5665 6.53683 14.8559C7.99168 15.1453 9.49968 14.9968 10.8701 14.4291C12.2406 13.8614 13.4119 12.9001 14.236 11.6668C15.0601 10.4334 15.5 8.98336 15.5 7.5C15.5 6.51509 15.306 5.53982 14.9291 4.62987C14.5522 3.71993 13.9997 2.89314 13.3033 2.1967C12.6069 1.50026 11.7801 0.947814 10.8701 0.570904C9.96019 0.193993 8.98492 0 8 0ZM8 13.5C6.81332 13.5 5.65328 13.1481 4.66658 12.4888C3.67989 11.8295 2.91085 10.8925 2.45673 9.7961C2.0026 8.69974 1.88378 7.49334 2.11529 6.32946C2.3468 5.16557 2.91825 4.09647 3.75736 3.25736C4.59648 2.41824 5.66558 1.8468 6.82946 1.61529C7.99335 1.38378 9.19975 1.5026 10.2961 1.95672C11.3925 2.41085 12.3295 3.17988 12.9888 4.16658C13.6481 5.15327 14 6.31331 14 7.5C14 9.0913 13.3679 10.6174 12.2426 11.7426C11.1174 12.8679 9.5913 13.5 8 13.5ZM9.575 5.7225L8.75 6.2025V3.75C8.75 3.55109 8.67099 3.36032 8.53033 3.21967C8.38968 3.07902 8.19892 3 8 3C7.80109 3 7.61033 3.07902 7.46967 3.21967C7.32902 3.36032 7.25 3.55109 7.25 3.75V7.5C7.25 7.5 7.25 7.5 7.25 7.545C7.24648 7.59494 7.24648 7.64506 7.25 7.695C7.26162 7.74106 7.27666 7.78618 7.295 7.83C7.295 7.83 7.295 7.83 7.295 7.875C7.33082 7.9282 7.37096 7.97837 7.415 8.025C7.47559 8.08508 7.5468 8.13339 7.625 8.1675H7.685C7.78269 8.21774 7.89023 8.2459 8 8.25C8.08741 8.2475 8.17371 8.22973 8.255 8.1975H8.3225H8.375L10.325 7.0725C10.4981 6.97304 10.6245 6.80892 10.6766 6.61622C10.7286 6.42353 10.702 6.21805 10.6025 6.045C10.503 5.87195 10.3389 5.74549 10.1462 5.69345C9.95353 5.64141 9.74806 5.66804 9.575 5.7675V5.7225Z" fill="#6D6D6D"/>
</svg>
