<svg width="15" height="19" viewBox="0 0 15 19" fill="none" xmlns="http://www.w3.org/2000/svg">
<path d="M0 9.16667C0 9.40978 0.0965773 9.64294 0.268486 9.81485C0.440394 9.98676 0.673551 10.0833 0.916667 10.0833H7.87417L5.76583 12.1825C5.67991 12.2677 5.61172 12.3691 5.56518 12.4808C5.51864 12.5925 5.49468 12.7123 5.49468 12.8333C5.49468 12.9543 5.51864 13.0742 5.56518 13.1859C5.61172 13.2976 5.67991 13.3989 5.76583 13.4842C5.85105 13.5701 5.95243 13.6383 6.06414 13.6848C6.17584 13.7314 6.29566 13.7553 6.41667 13.7553C6.53768 13.7553 6.65749 13.7314 6.76919 13.6848C6.8809 13.6383 6.98228 13.5701 7.0675 13.4842L10.7342 9.8175C10.8176 9.73032 10.883 9.62752 10.9267 9.515C11.0183 9.29183 11.0183 9.04151 10.9267 8.81833C10.883 8.70581 10.8176 8.60301 10.7342 8.51583L7.0675 4.84917C6.98203 4.7637 6.88057 4.6959 6.76889 4.64965C6.65722 4.60339 6.53754 4.57958 6.41667 4.57958C6.29579 4.57958 6.17611 4.60339 6.06444 4.64965C5.95277 4.6959 5.8513 4.7637 5.76583 4.84917C5.68036 4.93464 5.61257 5.0361 5.56631 5.14777C5.52006 5.25944 5.49625 5.37913 5.49625 5.5C5.49625 5.62087 5.52006 5.74056 5.56631 5.85223C5.61257 5.9639 5.68036 6.06536 5.76583 6.15083L7.87417 8.25H0.916667C0.673551 8.25 0.440394 8.34658 0.268486 8.51849C0.0965773 8.69039 0 8.92355 0 9.16667ZM11.9167 0H2.75C2.02065 0 1.32118 0.289731 0.805456 0.805456C0.289731 1.32118 0 2.02065 0 2.75V5.5C0 5.74312 0.0965773 5.97627 0.268486 6.14818C0.440394 6.32009 0.673551 6.41667 0.916667 6.41667C1.15978 6.41667 1.39294 6.32009 1.56485 6.14818C1.73676 5.97627 1.83333 5.74312 1.83333 5.5V2.75C1.83333 2.50688 1.92991 2.27373 2.10182 2.10182C2.27373 1.92991 2.50688 1.83333 2.75 1.83333H11.9167C12.1598 1.83333 12.3929 1.92991 12.5648 2.10182C12.7368 2.27373 12.8333 2.50688 12.8333 2.75V15.5833C12.8333 15.8264 12.7368 16.0596 12.5648 16.2315C12.3929 16.4034 12.1598 16.5 11.9167 16.5H2.75C2.50688 16.5 2.27373 16.4034 2.10182 16.2315C1.92991 16.0596 1.83333 15.8264 1.83333 15.5833V12.8333C1.83333 12.5902 1.73676 12.3571 1.56485 12.1852C1.39294 12.0132 1.15978 11.9167 0.916667 11.9167C0.673551 11.9167 0.440394 12.0132 0.268486 12.1852C0.0965773 12.3571 0 12.5902 0 12.8333V15.5833C0 16.3127 0.289731 17.0122 0.805456 17.5279C1.32118 18.0436 2.02065 18.3333 2.75 18.3333H11.9167C12.646 18.3333 13.3455 18.0436 13.8612 17.5279C14.3769 17.0122 14.6667 16.3127 14.6667 15.5833V2.75C14.6667 2.02065 14.3769 1.32118 13.8612 0.805456C13.3455 0.289731 12.646 0 11.9167 0Z" fill="black"/>
</svg>
