<svg width="18" height="18" viewBox="0 0 18 18" fill="none" xmlns="http://www.w3.org/2000/svg">
<path d="M14.8334 0.666504H3.16675C2.50371 0.666504 1.86782 0.929896 1.39898 1.39874C0.93014 1.86758 0.666748 2.50346 0.666748 3.1665V11.4998C0.666748 12.1629 0.93014 12.7988 1.39898 13.2676C1.86782 13.7364 2.50371 13.9998 3.16675 13.9998H12.8251L15.9084 17.0915C15.9863 17.1687 16.0786 17.2298 16.1802 17.2713C16.2817 17.3128 16.3904 17.3338 16.5001 17.3332C16.6094 17.336 16.7178 17.3132 16.8167 17.2665C16.9689 17.204 17.0992 17.0978 17.1911 16.9614C17.2831 16.825 17.3326 16.6644 17.3334 16.4998V3.1665C17.3334 2.50346 17.07 1.86758 16.6012 1.39874C16.1323 0.929896 15.4965 0.666504 14.8334 0.666504ZM15.6667 14.4915L13.7584 12.5748C13.6805 12.4976 13.5882 12.4365 13.4867 12.395C13.3851 12.3536 13.2764 12.3325 13.1667 12.3332H3.16675C2.94573 12.3332 2.73377 12.2454 2.57749 12.0891C2.42121 11.9328 2.33341 11.7209 2.33341 11.4998V3.1665C2.33341 2.94549 2.42121 2.73353 2.57749 2.57725C2.73377 2.42097 2.94573 2.33317 3.16675 2.33317H14.8334C15.0544 2.33317 15.2664 2.42097 15.4227 2.57725C15.579 2.73353 15.6667 2.94549 15.6667 3.1665V14.4915Z" fill="#6D6D6D"/>
</svg>
