<svg width="14" height="14" viewBox="0 0 14 14" fill="none" xmlns="http://www.w3.org/2000/svg">
<path d="M11.6667 0.333496H2.33337C1.80294 0.333496 1.29423 0.54421 0.919161 0.919283C0.544088 1.29436 0.333374 1.80306 0.333374 2.3335V9.00016C0.333374 9.5306 0.544088 10.0393 0.919161 10.4144C1.29423 10.7894 1.80294 11.0002 2.33337 11.0002H10.06L12.5267 13.4735C12.589 13.5353 12.6629 13.5842 12.7441 13.6173C12.8253 13.6505 12.9123 13.6673 13 13.6668C13.0875 13.6691 13.1743 13.6508 13.2534 13.6135C13.3751 13.5635 13.4793 13.4786 13.5529 13.3694C13.6264 13.2603 13.6661 13.1318 13.6667 13.0002V2.3335C13.6667 1.80306 13.456 1.29436 13.0809 0.919283C12.7058 0.54421 12.1971 0.333496 11.6667 0.333496ZM12.3334 11.3935L10.8067 9.86016C10.7444 9.79838 10.6705 9.74949 10.5893 9.71632C10.5081 9.68314 10.4211 9.66632 10.3334 9.66683H2.33337C2.15656 9.66683 1.98699 9.59659 1.86197 9.47157C1.73695 9.34654 1.66671 9.17697 1.66671 9.00016V2.3335C1.66671 2.15669 1.73695 1.98712 1.86197 1.86209C1.98699 1.73707 2.15656 1.66683 2.33337 1.66683H11.6667C11.8435 1.66683 12.0131 1.73707 12.1381 1.86209C12.2631 1.98712 12.3334 2.15669 12.3334 2.3335V11.3935Z" fill="#6D6D6D"/>
</svg>
