<svg width="44" height="44" viewBox="0 0 44 44" fill="none" xmlns="http://www.w3.org/2000/svg">
<rect width="44" height="44" rx="22" fill="white"/>
<path d="M18.6839 23.3419C18.8862 22.9381 19 22.4824 19 22C19 21.5176 18.8862 21.0619 18.6839 20.6581M18.6839 23.3419C18.1913 24.3251 17.1745 25 16 25C14.3431 25 13 23.6569 13 22C13 20.3431 14.3431 19 16 19C17.1745 19 18.1913 19.6749 18.6839 20.6581M18.6839 23.3419L25.3161 26.6581M18.6839 20.6581L25.3161 17.3419M25.3161 17.3419C25.8087 18.3251 26.8255 19 28 19C29.6569 19 31 17.6569 31 16C31 14.3431 29.6569 13 28 13C26.3431 13 25 14.3431 25 16C25 16.4824 25.1138 16.9381 25.3161 17.3419ZM25.3161 26.6581C25.1138 27.0619 25 27.5176 25 28C25 29.6569 26.3431 31 28 31C29.6569 31 31 29.6569 31 28C31 26.3431 29.6569 25 28 25C26.8255 25 25.8087 25.6749 25.3161 26.6581Z" stroke="#111827" stroke-width="2" stroke-linecap="round" stroke-linejoin="round"/>
</svg>
