<svg width="21" height="20" viewBox="0 0 21 20" fill="none" xmlns="http://www.w3.org/2000/svg">
<path d="M19.3259 7.55L17.4359 6.92L18.3259 5.14C18.4161 4.95369 18.4463 4.74397 18.4122 4.53978C18.3782 4.33558 18.2816 4.14699 18.1359 4L16.0059 1.87C15.8581 1.72209 15.6677 1.62421 15.4614 1.59013C15.2551 1.55605 15.0434 1.58748 14.8559 1.68L13.0759 2.57L12.4459 0.680003C12.3793 0.482996 12.253 0.311629 12.0846 0.189751C11.9161 0.0678737 11.7138 0.00154767 11.5059 3.33354e-06H8.50586C8.29622 -0.000537828 8.09171 0.0648223 7.92123 0.186845C7.75076 0.308868 7.62295 0.481382 7.55586 0.680003L6.92586 2.57L5.14586 1.68C4.95955 1.58978 4.74983 1.55961 4.54564 1.59364C4.34144 1.62767 4.15284 1.72423 4.00586 1.87L1.87586 4C1.72795 4.14777 1.63007 4.33818 1.59599 4.54446C1.56191 4.75074 1.59334 4.96251 1.68586 5.15L2.57586 6.93L0.685863 7.56C0.488855 7.62654 0.317488 7.75283 0.195611 7.92131C0.0737331 8.08979 0.00740705 8.29207 0.00586271 8.5V11.5C0.00532155 11.7096 0.0706817 11.9142 0.192705 12.0846C0.314728 12.2551 0.487242 12.3829 0.685863 12.45L2.57586 13.08L1.68586 14.86C1.59564 15.0463 1.56547 15.256 1.5995 15.4602C1.63353 15.6644 1.73009 15.853 1.87586 16L4.00586 18.13C4.15363 18.2779 4.34404 18.3758 4.55032 18.4099C4.7566 18.444 4.96837 18.4125 5.15586 18.32L6.93586 17.43L7.56586 19.32C7.63295 19.5186 7.76076 19.6911 7.93123 19.8132C8.10171 19.9352 8.30622 20.0005 8.51586 20H11.5159C11.7255 20.0005 11.93 19.9352 12.1005 19.8132C12.271 19.6911 12.3988 19.5186 12.4659 19.32L13.0959 17.43L14.8759 18.32C15.061 18.4079 15.2687 18.4369 15.4708 18.4029C15.6729 18.3689 15.8597 18.2737 16.0059 18.13L18.1359 16C18.2838 15.8522 18.3817 15.6618 18.4157 15.4555C18.4498 15.2493 18.4184 15.0375 18.3259 14.85L17.4359 13.07L19.3259 12.44C19.5229 12.3735 19.6942 12.2472 19.8161 12.0787C19.938 11.9102 20.0043 11.7079 20.0059 11.5V8.5C20.0064 8.29036 19.941 8.08585 19.819 7.91537C19.697 7.7449 19.5245 7.61709 19.3259 7.55ZM18.0059 10.78L16.8059 11.18C16.5299 11.2695 16.2768 11.418 16.0639 11.6151C15.8511 11.8122 15.6837 12.0533 15.5733 12.3216C15.463 12.5899 15.4123 12.879 15.4248 13.1688C15.4373 13.4586 15.5128 13.7422 15.6459 14L16.2159 15.14L15.1159 16.24L14.0059 15.64C13.7494 15.5122 13.4685 15.4411 13.1822 15.4313C12.8958 15.4215 12.6107 15.4734 12.3462 15.5834C12.0816 15.6934 11.8438 15.8589 11.6488 16.0688C11.4538 16.2787 11.3061 16.5281 11.2159 16.8L10.8159 18H9.22586L8.82586 16.8C8.73635 16.5241 8.58789 16.2709 8.39076 16.0581C8.19363 15.8452 7.95257 15.6778 7.68428 15.5675C7.416 15.4571 7.12691 15.4064 6.83709 15.419C6.54726 15.4315 6.26363 15.5069 6.00586 15.64L4.86586 16.21L3.76586 15.11L4.36586 14C4.49896 13.7422 4.57438 13.4586 4.58691 13.1688C4.59943 12.879 4.54876 12.5899 4.4384 12.3216C4.32804 12.0533 4.16064 11.8122 3.94781 11.6151C3.73498 11.418 3.48181 11.2695 3.20586 11.18L2.00586 10.78V9.22L3.20586 8.82C3.48181 8.73049 3.73498 8.58203 3.94781 8.3849C4.16064 8.18778 4.32804 7.94671 4.4384 7.67842C4.54876 7.41014 4.59943 7.12105 4.58691 6.83123C4.57438 6.5414 4.49896 6.25777 4.36586 6L3.79586 4.89L4.89586 3.79L6.00586 4.36C6.26363 4.4931 6.54726 4.56852 6.83709 4.58105C7.12691 4.59358 7.416 4.5429 7.68428 4.43254C7.95257 4.32218 8.19363 4.15478 8.39076 3.94195C8.58789 3.72912 8.73635 3.47595 8.82586 3.2L9.22586 2H10.7859L11.1859 3.2C11.2754 3.47595 11.4238 3.72912 11.621 3.94195C11.8181 4.15478 12.0592 4.32218 12.3274 4.43254C12.5957 4.5429 12.8848 4.59358 13.1746 4.58105C13.4645 4.56852 13.7481 4.4931 14.0059 4.36L15.1459 3.79L16.2459 4.89L15.6459 6C15.5181 6.25645 15.4469 6.53735 15.4372 6.82369C15.4274 7.11003 15.4793 7.39513 15.5893 7.65969C15.6993 7.92424 15.8648 8.16207 16.0747 8.35708C16.2846 8.5521 16.5339 8.69973 16.8059 8.79L18.0059 9.19V10.78ZM10.0059 6C9.21474 6 8.44138 6.2346 7.78358 6.67413C7.12579 7.11365 6.61309 7.73836 6.31034 8.46927C6.00759 9.20017 5.92838 10.0044 6.08272 10.7804C6.23706 11.5563 6.61803 12.269 7.17744 12.8284C7.73685 13.3878 8.44958 13.7688 9.2255 13.9231C10.0014 14.0775 10.8057 13.9983 11.5366 13.6955C12.2675 13.3928 12.8922 12.8801 13.3317 12.2223C13.7713 11.5645 14.0059 10.7911 14.0059 10C14.0059 8.93914 13.5844 7.92172 12.8343 7.17158C12.0841 6.42143 11.0667 6 10.0059 6ZM10.0059 12C9.6103 12 9.22362 11.8827 8.89472 11.6629C8.56582 11.4432 8.30948 11.1308 8.1581 10.7654C8.00673 10.3999 7.96712 9.99778 8.04429 9.60982C8.12146 9.22186 8.31194 8.86549 8.59165 8.58579C8.87135 8.30608 9.22772 8.1156 9.61568 8.03843C10.0036 7.96126 10.4058 8.00087 10.7712 8.15224C11.1367 8.30362 11.449 8.55996 11.6688 8.88886C11.8886 9.21776 12.0059 9.60444 12.0059 10C12.0059 10.5304 11.7951 11.0391 11.4201 11.4142C11.045 11.7893 10.5363 12 10.0059 12Z" fill="black"/>
</svg>
