<svg width="14" height="15" viewBox="0 0 14 15" fill="none" xmlns="http://www.w3.org/2000/svg">
<path d="M9.60666 13.5H3.82888C3.25425 13.5 2.70315 13.2629 2.29682 12.841C1.89049 12.419 1.66222 11.8467 1.66222 11.25V3.75C1.66222 3.55109 1.58613 3.36032 1.45068 3.21967C1.31524 3.07902 1.13154 3 0.939996 3C0.74845 3 0.56475 3.07902 0.429307 3.21967C0.293864 3.36032 0.217773 3.55109 0.217773 3.75V11.25C0.217773 12.2446 0.598229 13.1984 1.27544 13.9017C1.95266 14.6049 2.87116 15 3.82888 15H9.60666C9.79821 15 9.98191 14.921 10.1174 14.7803C10.2528 14.6397 10.3289 14.4489 10.3289 14.25C10.3289 14.0511 10.2528 13.8603 10.1174 13.7197C9.98191 13.579 9.79821 13.5 9.60666 13.5ZM13.2178 5.205C13.2102 5.1361 13.1957 5.06822 13.1744 5.0025V4.935C13.1397 4.85788 13.0934 4.787 13.0372 4.725L8.70388 0.225C8.64418 0.166662 8.57592 0.118561 8.50166 0.0824999H8.43666L8.20555 0H5.27333C4.69869 0 4.14759 0.237053 3.74126 0.65901C3.33494 1.08097 3.10666 1.65326 3.10666 2.25V9.75C3.10666 10.3467 3.33494 10.919 3.74126 11.341C4.14759 11.7629 4.69869 12 5.27333 12H11.0511C11.6257 12 12.1768 11.7629 12.5832 11.341C12.9895 10.919 13.2178 10.3467 13.2178 9.75V5.25C13.2178 5.25 13.2178 5.25 13.2178 5.205ZM8.88444 2.5575L10.755 4.5H9.60666C9.41512 4.5 9.23142 4.42098 9.09597 4.28033C8.96053 4.13968 8.88444 3.94891 8.88444 3.75V2.5575ZM11.7733 9.75C11.7733 9.94891 11.6972 10.1397 11.5618 10.2803C11.4264 10.421 11.2427 10.5 11.0511 10.5H5.27333C5.08178 10.5 4.89808 10.421 4.76264 10.2803C4.6272 10.1397 4.55111 9.94891 4.55111 9.75V2.25C4.55111 2.05109 4.6272 1.86032 4.76264 1.71967C4.89808 1.57902 5.08178 1.5 5.27333 1.5H7.44V3.75C7.44 4.34674 7.66827 4.91903 8.0746 5.34099C8.48093 5.76295 9.03203 6 9.60666 6H11.7733V9.75Z" fill="#2280ED"/>
</svg>
