<svg width="14" height="14" viewBox="0 0 14 14" fill="none" xmlns="http://www.w3.org/2000/svg">
<path d="M11.6666 1.66683H10.3333V1.00016C10.3333 0.823352 10.2631 0.653782 10.1381 0.528758C10.013 0.403734 9.84346 0.333496 9.66665 0.333496C9.48984 0.333496 9.32027 0.403734 9.19524 0.528758C9.07022 0.653782 8.99998 0.823352 8.99998 1.00016V1.66683H4.99998V1.00016C4.99998 0.823352 4.92974 0.653782 4.80472 0.528758C4.67969 0.403734 4.51012 0.333496 4.33331 0.333496C4.1565 0.333496 3.98693 0.403734 3.86191 0.528758C3.73688 0.653782 3.66665 0.823352 3.66665 1.00016V1.66683H2.33331C1.80288 1.66683 1.29417 1.87754 0.9191 2.25262C0.544027 2.62769 0.333313 3.1364 0.333313 3.66683V11.6668C0.333313 12.1973 0.544027 12.706 0.9191 13.081C1.29417 13.4561 1.80288 13.6668 2.33331 13.6668H11.6666C12.1971 13.6668 12.7058 13.4561 13.0809 13.081C13.4559 12.706 13.6666 12.1973 13.6666 11.6668V3.66683C13.6666 3.1364 13.4559 2.62769 13.0809 2.25262C12.7058 1.87754 12.1971 1.66683 11.6666 1.66683ZM12.3333 11.6668C12.3333 11.8436 12.2631 12.0132 12.1381 12.1382C12.013 12.2633 11.8435 12.3335 11.6666 12.3335H2.33331C2.1565 12.3335 1.98693 12.2633 1.86191 12.1382C1.73688 12.0132 1.66665 11.8436 1.66665 11.6668V7.00016H12.3333V11.6668ZM12.3333 5.66683H1.66665V3.66683C1.66665 3.49002 1.73688 3.32045 1.86191 3.19543C1.98693 3.0704 2.1565 3.00016 2.33331 3.00016H3.66665V3.66683C3.66665 3.84364 3.73688 4.01321 3.86191 4.13823C3.98693 4.26326 4.1565 4.3335 4.33331 4.3335C4.51012 4.3335 4.67969 4.26326 4.80472 4.13823C4.92974 4.01321 4.99998 3.84364 4.99998 3.66683V3.00016H8.99998V3.66683C8.99998 3.84364 9.07022 4.01321 9.19524 4.13823C9.32027 4.26326 9.48984 4.3335 9.66665 4.3335C9.84346 4.3335 10.013 4.26326 10.1381 4.13823C10.2631 4.01321 10.3333 3.84364 10.3333 3.66683V3.00016H11.6666C11.8435 3.00016 12.013 3.0704 12.1381 3.19543C12.2631 3.32045 12.3333 3.49002 12.3333 3.66683V5.66683Z" fill="#6D6D6D"/>
</svg>
