<svg width="80" height="80" viewBox="0 0 80 80" fill="none" xmlns="http://www.w3.org/2000/svg">
<path d="M18.6154 70.74C33.9866 70.74 44.5421 78.7022 51.9488 78.7022C59.3554 78.7022 74.911 74.4444 74.911 40.3711C74.911 6.29775 53.9843 1.29553 45.8377 1.29553C7.68878 1.29553 -8.60678 70.74 18.6154 70.74Z" fill="#EFEFEF"/>
<path d="M14.1665 52.7089H16.3887V57.1533H14.1665V52.7089Z" fill="#B7B7B7"/>
<path d="M14.1665 65.4866H16.3887V69.931H14.1665V65.4866Z" fill="#B7B7B7"/>
<path d="M6.38867 59.9312H10.8331V62.1534H6.38867V59.9312Z" fill="#B7B7B7"/>
<path d="M19.1665 59.9312H23.611V62.1534H19.1665V59.9312Z" fill="#B7B7B7"/>
<path d="M32.7778 60.5556V46.1111C32.7778 43.6667 34.7778 41.6667 37.2223 41.6667H49.4445L56.1112 35V41.6667H60.5556C63.0001 41.6667 65.0001 43.6667 65.0001 46.1111V60.5556C65.0001 63 63.0001 65 60.5556 65H37.2223C34.7778 65 32.7778 63 32.7778 60.5556Z" fill="#F3F3F1"/>
<path d="M47.2222 19.4444V33.8889C47.2222 36.3333 45.2222 38.3333 42.7778 38.3333H30.5556L23.8889 45V38.3333H19.4444C17 38.3333 15 36.3333 15 33.8889V19.4444C15 17 17 15 19.4444 15H42.7778C45.2222 15 47.2222 17 47.2222 19.4444Z" fill="#BFD8F4"/>
<path d="M37.2223 60.5556V46.1112C37.2223 43.6667 39.2223 41.6667 41.6667 41.6667H37.2223C34.7778 41.6667 32.7778 43.6667 32.7778 46.1112V60.5556C32.7778 63.0001 34.7778 65.0001 37.2223 65.0001H41.6667C39.2223 65.0001 37.2223 63.0001 37.2223 60.5556Z" fill="#BFD8F4"/>
<path d="M19.4444 33.8889V19.4444C19.4444 17 21.4444 15 23.8889 15H19.4444C17 15 15 17 15 19.4444V33.8889C15 36.3333 17 38.3333 19.4444 38.3333H23.8889C21.4444 38.3333 19.4444 36.3333 19.4444 33.8889Z" fill="#BFD8F4"/>
<path d="M53.3332 60.0001H49.9999V51.1112C49.9999 50.4979 49.5021 50.0001 48.8888 50.0001C48.2754 50.0001 47.7777 50.4979 47.7777 51.1112V60.0001H44.4443V51.1112C44.4443 48.6601 46.4377 46.6667 48.8888 46.6667C51.3399 46.6667 53.3332 48.6601 53.3332 51.1112V60.0001Z" fill="#101521"/>
<path d="M44.4443 53.3333H53.3332V56.6666H44.4443V53.3333Z" fill="#101521"/>
<path d="M23.8891 46.6667C23.6735 46.6667 23.4579 46.6245 23.2513 46.5401C22.6291 46.2823 22.2224 45.6734 22.2224 45V40H19.4446C16.0735 40 13.3335 37.26 13.3335 33.8889V19.4445C13.3335 16.0734 16.0735 13.3334 19.4446 13.3334H42.778C46.1491 13.3334 48.8891 16.0734 48.8891 19.4445V33.8889C48.8891 37.26 46.1491 40 42.778 40H31.2468L25.0691 46.1778C24.7491 46.4978 24.3224 46.6667 23.8891 46.6667ZM19.4446 16.6667C17.9135 16.6667 16.6668 17.9134 16.6668 19.4445V33.8889C16.6668 35.42 17.9135 36.6667 19.4446 36.6667H23.8891C24.8091 36.6667 25.5557 37.4134 25.5557 38.3334V40.9756L29.3779 37.1534C29.6913 36.84 30.1157 36.6645 30.5557 36.6645H42.778C44.3091 36.6645 45.5557 35.4178 45.5557 33.8867V19.4423C45.5557 17.9112 44.3091 16.6645 42.778 16.6645H19.4446V16.6667Z" fill="#101521"/>
<path d="M60.5558 66.6666H37.2224C33.8513 66.6666 31.1113 63.9266 31.1113 60.5555V44.6666H34.4447V60.5555C34.4447 62.0866 35.6913 63.3333 37.2224 63.3333H60.5558C62.0869 63.3333 63.3336 62.0866 63.3336 60.5555V46.1111C63.3336 44.58 62.0869 43.3333 60.5558 43.3333H56.1113C55.1913 43.3333 54.4447 42.5866 54.4447 41.6666V39.0244L53.9558 39.5133L51.598 37.1555L54.9313 33.8222C55.4091 33.3444 56.1247 33.2022 56.7469 33.46C57.3713 33.7177 57.778 34.3266 57.778 35V40H60.5558C63.9269 40 66.6669 42.74 66.6669 46.1111V60.5555C66.6669 63.9266 63.9269 66.6666 60.5558 66.6666Z" fill="#101521"/>
<path d="M31.6665 33.3333H30.5554C28.4109 33.3333 26.6665 31.5889 26.6665 29.4444V23.8889C26.6665 21.7444 28.4109 20 30.5554 20H31.6665C33.811 20 35.5554 21.7444 35.5554 23.8889V29.4444C35.5554 31.5889 33.811 33.3333 31.6665 33.3333ZM30.5554 23.3333C30.2487 23.3333 29.9998 23.5822 29.9998 23.8889V29.4444C29.9998 29.7511 30.2487 30 30.5554 30H31.6665C31.9732 30 32.2221 29.7511 32.2221 29.4444V23.8889C32.2221 23.5822 31.9732 23.3333 31.6665 23.3333H30.5554Z" fill="#101521"/>
<path d="M29.3027 29.4448L31.6598 27.0878L36.2387 31.6667L33.8816 34.0237L29.3027 29.4448Z" fill="#101521"/>
</svg>
