<svg width="20" height="20" viewBox="0 0 20 20" fill="none" xmlns="http://www.w3.org/2000/svg">
<path d="M18.2502 9.99999C18.007 9.99999 17.7739 10.0966 17.602 10.2685C17.4301 10.4404 17.3335 10.6735 17.3335 10.9167V16.4167C17.3335 16.6598 17.2369 16.8929 17.065 17.0648C16.8931 17.2367 16.6599 17.3333 16.4168 17.3333H3.5835C3.34038 17.3333 3.10722 17.2367 2.93531 17.0648C2.76341 16.8929 2.66683 16.6598 2.66683 16.4167V3.58332C2.66683 3.3402 2.76341 3.10705 2.93531 2.93514C3.10722 2.76323 3.34038 2.66665 3.5835 2.66665H9.0835C9.32661 2.66665 9.55977 2.57007 9.73168 2.39817C9.90359 2.22626 10.0002 1.9931 10.0002 1.74998C10.0002 1.50687 9.90359 1.27371 9.73168 1.1018C9.55977 0.929895 9.32661 0.833318 9.0835 0.833318H3.5835C2.85415 0.833318 2.15468 1.12305 1.63895 1.63877C1.12323 2.1545 0.833496 2.85397 0.833496 3.58332V16.4167C0.833496 17.146 1.12323 17.8455 1.63895 18.3612C2.15468 18.8769 2.85415 19.1667 3.5835 19.1667H16.4168C17.1462 19.1667 17.8456 18.8769 18.3614 18.3612C18.8771 17.8455 19.1668 17.146 19.1668 16.4167V10.9167C19.1668 10.6735 19.0703 10.4404 18.8983 10.2685C18.7264 10.0966 18.4933 9.99999 18.2502 9.99999ZM4.50016 10.6967V14.5833C4.50016 14.8264 4.59674 15.0596 4.76865 15.2315C4.94056 15.4034 5.17371 15.5 5.41683 15.5H9.3035C9.42414 15.5007 9.54373 15.4776 9.65541 15.4319C9.76709 15.3863 9.86868 15.3191 9.95433 15.2342L16.2977 8.88165L18.901 6.33332C18.9869 6.2481 19.0551 6.14672 19.1016 6.03501C19.1482 5.92331 19.1721 5.8035 19.1721 5.68249C19.1721 5.56147 19.1482 5.44166 19.1016 5.32996C19.0551 5.21825 18.9869 5.11687 18.901 5.03165L15.0143 1.09915C14.9291 1.01323 14.8277 0.945039 14.716 0.898501C14.6043 0.851963 14.4845 0.828003 14.3635 0.828003C14.2425 0.828003 14.1227 0.851963 14.011 0.898501C13.8993 0.945039 13.7979 1.01323 13.7127 1.09915L11.1277 3.69332L4.766 10.0458C4.68104 10.1315 4.61382 10.2331 4.56821 10.3447C4.52259 10.4564 4.49947 10.576 4.50016 10.6967ZM14.3635 3.04248L16.9577 5.63665L15.656 6.93832L13.0618 4.34415L14.3635 3.04248ZM6.3335 11.0725L11.7693 5.63665L14.3635 8.23082L8.92766 13.6667H6.3335V11.0725Z" fill="#333333"/>
</svg>
