<svg width="14" height="15" viewBox="0 0 14 15" fill="none" xmlns="http://www.w3.org/2000/svg">
<path d="M10.9997 6.7135C10.8229 6.7135 10.6533 6.78373 10.5283 6.90876C10.4032 7.03378 10.333 7.20335 10.333 7.38016V12.1668C10.333 12.3436 10.2628 12.5132 10.1377 12.6382C10.0127 12.7633 9.84315 12.8335 9.66634 12.8335H2.33301C2.1562 12.8335 1.98663 12.7633 1.8616 12.6382C1.73658 12.5132 1.66634 12.3436 1.66634 12.1668V4.8335C1.66634 4.65669 1.73658 4.48712 1.8616 4.36209C1.98663 4.23707 2.1562 4.16683 2.33301 4.16683H7.11967C7.29649 4.16683 7.46605 4.09659 7.59108 3.97157C7.7161 3.84654 7.78634 3.67697 7.78634 3.50016C7.78634 3.32335 7.7161 3.15378 7.59108 3.02876C7.46605 2.90373 7.29649 2.8335 7.11967 2.8335H2.33301C1.80257 2.8335 1.29387 3.04421 0.918794 3.41928C0.543722 3.79436 0.333008 4.30306 0.333008 4.8335V12.1668C0.333008 12.6973 0.543722 13.206 0.918794 13.581C1.29387 13.9561 1.80257 14.1668 2.33301 14.1668H9.66634C10.1968 14.1668 10.7055 13.9561 11.0806 13.581C11.4556 13.206 11.6663 12.6973 11.6663 12.1668V7.38016C11.6663 7.20335 11.5961 7.03378 11.4711 6.90876C11.3461 6.78373 11.1765 6.7135 10.9997 6.7135ZM13.613 1.24683C13.5454 1.08393 13.4159 0.954479 13.253 0.886829C13.1729 0.852669 13.0868 0.834549 12.9997 0.833496H8.99967C8.82286 0.833496 8.65329 0.903734 8.52827 1.02876C8.40325 1.15378 8.33301 1.32335 8.33301 1.50016C8.33301 1.67697 8.40325 1.84654 8.52827 1.97157C8.65329 2.09659 8.82286 2.16683 8.99967 2.16683H11.393L4.52634 9.02683C4.46386 9.08881 4.41426 9.16254 4.38041 9.24378C4.34657 9.32502 4.32914 9.41216 4.32914 9.50016C4.32914 9.58817 4.34657 9.67531 4.38041 9.75655C4.41426 9.83779 4.46386 9.91152 4.52634 9.9735C4.58832 10.036 4.66205 10.0856 4.74329 10.1194C4.82453 10.1533 4.91167 10.1707 4.99967 10.1707C5.08768 10.1707 5.17482 10.1533 5.25606 10.1194C5.3373 10.0856 5.41103 10.036 5.47301 9.9735L12.333 3.10683V5.50016C12.333 5.67697 12.4032 5.84654 12.5283 5.97157C12.6533 6.09659 12.8229 6.16683 12.9997 6.16683C13.1765 6.16683 13.3461 6.09659 13.4711 5.97157C13.5961 5.84654 13.6663 5.67697 13.6663 5.50016V1.50016C13.6653 1.41304 13.6472 1.32698 13.613 1.24683Z" fill="#101521"/>
</svg>
