<svg width="152" height="160" viewBox="0 0 152 160" fill="none" xmlns="http://www.w3.org/2000/svg">
<g opacity="0.5">
<rect width="152" height="160" rx="6" fill="#BDCDE0"/>
<path d="M55.5834 116.75H96.4168C100.927 116.75 104.583 113.094 104.583 108.583V69.4414C104.583 68.3584 104.153 67.3198 103.387 66.554L81.2794 44.446C80.5136 43.6802 79.475 43.25 78.3921 43.25H55.5834C51.0731 43.25 47.4167 46.9063 47.4167 51.4167V108.583C47.4167 113.094 51.0731 116.75 55.5834 116.75Z" stroke="#8999AB" stroke-width="2" stroke-linecap="round" stroke-linejoin="round"/>
<path d="M56.5322 103.506V106.553H55.1436V98.1509H57.6924C58.6572 98.1509 59.4053 98.3755 59.9365 98.8247C60.4678 99.2739 60.7334 99.9067 60.7334 100.723C60.7334 101.54 60.4561 102.208 59.9014 102.727C59.3467 103.247 58.5967 103.506 57.6514 103.506H56.5322ZM56.5322 99.2993V102.37H57.4346C58.0322 102.37 58.4873 102.231 58.7998 101.954C59.1123 101.676 59.2686 101.286 59.2686 100.782C59.2686 99.7935 58.6943 99.2993 57.5459 99.2993H56.5322ZM62.1631 106.553V98.1509H64.5889C67.6865 98.1509 69.2354 99.5161 69.2354 102.247C69.2354 103.543 68.8057 104.586 67.9463 105.375C67.0869 106.161 65.9346 106.553 64.4893 106.553H62.1631ZM63.5518 99.3345V105.375H64.665C65.6455 105.375 66.4072 105.106 66.9502 104.567C67.4971 104.028 67.7705 103.266 67.7705 102.282C67.7705 100.317 66.7529 99.3345 64.7178 99.3345H63.5518ZM75.3115 99.3345H72.1709V101.86H75.0654V103.038H72.1709V106.553H70.7764V98.1509H75.3115V99.3345Z" fill="#8999AB"/>
</g>
</svg>
