<svg width="24" height="17" viewBox="0 0 24 17" fill="none" xmlns="http://www.w3.org/2000/svg">
<path d="M19.1085 1.05113C19.1238 0.409899 19.0963 0.00473479 19.0963 0.00473479L12.0359 0H12.0001H11.9642L4.90303 0.00473479C4.90303 0.00473479 4.87636 0.409899 4.8916 1.05113H0.214355V1.73565C0.214355 1.89189 0.244079 5.57761 2.80715 7.59666C3.87643 8.43878 5.21018 8.86221 6.78247 8.86289C7.02026 8.86289 7.2649 8.84868 7.5126 8.82975C8.40582 9.91537 9.43776 10.6756 10.5985 11.0544V14.061H7.19098V15.9441H6.0653V17H11.9642H12.0359H17.9348V15.9448H16.8084V14.0617H13.4009V11.0551C14.5609 10.6763 15.5936 9.91605 16.4868 8.83042C16.736 8.84936 16.9806 8.86289 17.2184 8.86289C18.79 8.86154 20.1237 8.43878 21.193 7.59599C23.7561 5.57693 23.7858 1.89122 23.7858 1.73497V1.05113H19.1085ZM3.83604 6.57598C2.37197 5.42609 1.93908 3.45776 1.81104 2.42016H4.98001C5.11415 3.71277 5.42967 5.32328 6.15751 6.73899C6.29089 6.99873 6.43112 7.24494 6.5744 7.48573C5.48226 7.44853 4.56312 7.14618 3.83604 6.57598ZM20.1641 6.57598C19.4378 7.14686 18.5179 7.44853 17.4265 7.48573C17.5698 7.24561 17.71 6.99873 17.8434 6.73899C18.5712 5.32328 18.8868 3.71277 19.0201 2.42016H22.1891C22.0611 3.45709 21.6289 5.42542 20.1641 6.57598Z" fill="url(#paint0_linear)"/>
<defs>
<linearGradient id="paint0_linear" x1="12.0001" y1="0" x2="12.0001" y2="17" gradientUnits="userSpaceOnUse">
<stop stop-color="#C79614"/>
<stop offset="1" stop-color="#FDC10C"/>
</linearGradient>
</defs>
</svg>
