<svg width="20" height="24" viewBox="0 0 20 24" fill="none" xmlns="http://www.w3.org/2000/svg">
<path d="M19.0883 6.31834C18.9785 6.1793 18.8384 6.06711 18.6787 5.99029C18.519 5.91348 18.3439 5.87405 18.1667 5.875H5.33334V5.29167C5.3348 4.7838 5.50192 4.29027 5.80933 3.886C6.11674 3.48173 6.54766 3.1888 7.03668 3.05167C7.35084 3.35481 7.76695 3.52958 8.20334 3.54167H9.37001C9.83414 3.54167 10.2793 3.3573 10.6074 3.02911C10.9356 2.70092 11.12 2.2558 11.12 1.79167C11.12 1.32754 10.9356 0.882424 10.6074 0.554235C10.2793 0.226046 9.83414 0.0416718 9.37001 0.0416718H8.20334C7.94034 0.0420337 7.68084 0.10207 7.4444 0.217259C7.20796 0.332448 7.00074 0.499787 6.83834 0.706672C5.76299 0.900626 4.78979 1.46579 4.08837 2.30366C3.38694 3.14152 3.00178 4.19896 3.00001 5.29167V5.875H1.83334C1.65614 5.87405 1.48104 5.91348 1.32134 5.99029C1.16164 6.06711 1.02155 6.1793 0.911678 6.31834C0.794806 6.45687 0.711816 6.62072 0.66929 6.7969C0.626763 6.97308 0.625868 7.15675 0.666678 7.33334L1.39001 10.2383C1.56272 10.9075 1.92965 11.5105 2.44454 11.9714C2.95944 12.4323 3.59925 12.7305 4.28334 12.8283L5.19334 20.995H4.16668C3.85726 20.995 3.56051 21.1179 3.34172 21.3367C3.12293 21.5555 3.00001 21.8523 3.00001 22.1617C3.00001 22.4711 3.12293 22.7678 3.34172 22.9866C3.56051 23.2054 3.85726 23.3283 4.16668 23.3283H15.8333C16.1428 23.3283 16.4395 23.2054 16.6583 22.9866C16.8771 22.7678 17 22.4711 17 22.1617C17 21.8523 16.8771 21.5555 16.6583 21.3367C16.4395 21.1179 16.1428 20.995 15.8333 20.995H14.8067L15.7167 12.8283C16.3959 12.7233 17.0292 12.4205 17.5375 11.9578C18.0458 11.4952 18.4067 10.8931 18.575 10.2267L19.3333 7.33334C19.3742 7.15675 19.3733 6.97308 19.3307 6.7969C19.2882 6.62072 19.2052 6.45687 19.0883 6.31834ZM12.45 21.0417H7.55001L6.64001 12.875H13.36L12.45 21.0417ZM16.3117 9.66667C16.2478 9.92553 16.0972 10.1547 15.8849 10.316C15.6726 10.4773 15.4115 10.5611 15.145 10.5533H4.82001C4.5535 10.5611 4.29238 10.4773 4.08011 10.316C3.86783 10.1547 3.71722 9.92553 3.65334 9.66667L3.32668 8.20834H16.6733L16.3117 9.66667Z" fill="#FFE835"/>
</svg>
