<svg width="32" height="32" viewBox="0 0 32 32" fill="none" xmlns="http://www.w3.org/2000/svg">
<path d="M24.5538 3.70442C18.4054 3.70442 14.1831 0.519531 11.2205 0.519531C8.25781 0.519531 2.03558 2.22264 2.03558 15.852C2.03558 29.4813 10.4063 31.4813 13.6649 31.4813C28.9245 31.4822 35.4427 3.70442 24.5538 3.70442Z" fill="#EFEFEF"/>
<path d="M28.4445 4.88932C27.7094 4.88932 27.1111 4.2911 27.1111 3.55599C27.1111 2.82088 27.7094 2.22266 28.4445 2.22266C29.1796 2.22266 29.7778 2.82088 29.7778 3.55599C29.7778 4.2911 29.1796 4.88932 28.4445 4.88932ZM28.4445 3.11154C28.1991 3.11154 28 3.31066 28 3.55599C28 3.80132 28.1991 4.00043 28.4445 4.00043C28.6898 4.00043 28.8889 3.80132 28.8889 3.55599C28.8889 3.31066 28.6898 3.11154 28.4445 3.11154Z" fill="#A4AFC1"/>
<path d="M23.1111 19.7779C23.7248 19.7779 24.2222 19.2804 24.2222 18.6668C24.2222 18.0531 23.7248 17.5557 23.1111 17.5557C22.4975 17.5557 22 18.0531 22 18.6668C22 19.2804 22.4975 19.7779 23.1111 19.7779Z" fill="#F3F3F1"/>
<path d="M8.88888 19.7779C9.50253 19.7779 9.99999 19.2804 9.99999 18.6668C9.99999 18.0531 9.50253 17.5557 8.88888 17.5557C8.27523 17.5557 7.77777 18.0531 7.77777 18.6668C7.77777 19.2804 8.27523 19.7779 8.88888 19.7779Z" fill="#F3F3F1"/>
<path d="M16 20.2227C17.1046 20.2227 18 19.3272 18 18.2227C18 17.1181 17.1046 16.2227 16 16.2227C14.8954 16.2227 14 17.1181 14 18.2227C14 19.3272 14.8954 20.2227 16 20.2227Z" fill="#F3F3F1"/>
<path d="M20.2222 26.6664V24.6664C20.2222 23.6842 19.4267 22.8887 18.4444 22.8887H13.5556C12.5733 22.8887 11.7778 23.6842 11.7778 24.6664V26.6664H20.2222Z" fill="#F3F3F1"/>
<path d="M6 24.8889V23.7778C6 22.7956 6.79556 22 7.77778 22H10C10.9822 22 11.7778 22.7956 11.7778 23.7778V24.8889H6Z" fill="#F3F3F1"/>
<path d="M20.2222 24.8889V23.7778C20.2222 22.7956 21.0178 22 22 22H24.2222C25.2044 22 26 22.7956 26 23.7778V24.8889H20.2222Z" fill="#F3F3F1"/>
<path d="M20.6667 6.88889V10.8889C20.6667 11.3796 20.2685 11.7778 19.7778 11.7778H17.5556L16 13.5556L14.6667 11.7778H12.2223C11.7316 11.7778 11.3334 11.3796 11.3334 10.8889V6.88889C11.3334 6.39822 11.7316 6 12.2223 6H19.7778C20.2685 6 20.6667 6.39822 20.6667 6.88889Z" fill="#D2E2F4"/>
<path d="M26.4445 7.77756V11.7776C26.4445 12.2682 26.0462 12.6665 25.5556 12.6665H24.8889L23.3333 14.4442L22 12.6665H21.3333C20.8427 12.6665 20.4445 12.2682 20.4445 11.7776V7.77756C20.4445 7.28689 20.8427 6.88867 21.3333 6.88867H25.5556C26.0462 6.88867 26.4445 7.28689 26.4445 7.77756Z" fill="#D2E2F4"/>
<path d="M11.7778 7.77756V11.7776C11.7778 12.2682 11.3795 12.6665 10.8889 12.6665H10.2222L8.66666 14.4442L7.33333 12.6665H6.66666C6.17599 12.6665 5.77777 12.2682 5.77777 11.7776V7.77756C5.77777 7.28689 6.17599 6.88867 6.66666 6.88867H10.8889C11.3795 6.88867 11.7778 7.28689 11.7778 7.77756Z" fill="#D2E2F4"/>
<path d="M24 18.6668C24 18.4979 24.0436 18.3423 24.1111 18.1992C23.9333 17.8214 23.5556 17.5557 23.1111 17.5557C22.4978 17.5557 22 18.0534 22 18.6668C22 19.2801 22.4978 19.7779 23.1111 19.7779C23.5556 19.7779 23.9333 19.5121 24.1111 19.1343C24.0436 18.9912 24 18.8357 24 18.6668Z" fill="#D5DBE1"/>
<path d="M9.77777 18.6668C9.77777 18.4979 9.82132 18.3423 9.88888 18.1992C9.7111 17.8214 9.33332 17.5557 8.88888 17.5557C8.27555 17.5557 7.77777 18.0534 7.77777 18.6668C7.77777 19.2801 8.27555 19.7779 8.88888 19.7779C9.33332 19.7779 9.7111 19.5121 9.88888 19.1343C9.82132 18.9912 9.77777 18.8357 9.77777 18.6668Z" fill="#D5DBE1"/>
<path d="M16 18.2227C16 17.484 16.4044 16.8467 17 16.5C16.7049 16.3284 16.3662 16.2227 16 16.2227C14.8951 16.2227 14 17.1178 14 18.2227C14 19.3275 14.8951 20.2227 16 20.2227C16.3662 20.2227 16.7049 20.1169 17 19.9453C16.4044 19.5987 16 18.9613 16 18.2227Z" fill="#D5DBE1"/>
<path d="M15.5555 22.8887H13.5555C12.5733 22.8887 11.7778 23.6842 11.7778 24.6664V26.6664H13.7778V24.6664C13.7778 23.6842 14.5733 22.8887 15.5555 22.8887Z" fill="#D5DBE1"/>
<path d="M9.77778 22H7.77778C6.79556 22 6 22.7956 6 23.7778V24.8889H8V23.7778C8 22.7956 8.79556 22 9.77778 22Z" fill="#D5DBE1"/>
<path d="M24 22H22C21.0178 22 20.2222 22.7956 20.2222 23.7778V24.8889H22.2222V23.7778C22.2222 22.7956 23.0178 22 24 22Z" fill="#D5DBE1"/>
<path d="M13.3334 10.8889V6.88889C13.3334 6.39822 13.7316 6 14.2223 6H12.2223C11.7316 6 11.3334 6.39822 11.3334 6.88889V10.8889C11.3334 11.3796 11.7316 11.7778 12.2223 11.7778H14.2223C13.7316 11.7778 13.3334 11.3796 13.3334 10.8889Z" fill="#D2E2F4"/>
<path d="M16.6666 11.7773H14.6666L16 13.5551L17.0773 12.324L16.6666 11.7773Z" fill="#D2E2F4"/>
<path d="M24 12.6665H23.3333C22.8427 12.6665 22.4445 12.2682 22.4445 11.7776V7.77756C22.4445 7.28689 22.8427 6.88867 23.3333 6.88867H21.3333C20.8427 6.88867 20.4445 7.28689 20.4445 7.77756V11.7776C20.4445 12.2682 20.8427 12.6665 21.3333 12.6665H22L23.3333 14.4442L24.4107 13.2131L24 12.6665Z" fill="#D2E2F4"/>
<path d="M9.33333 12.6665H8.66666C8.17599 12.6665 7.77777 12.2682 7.77777 11.7776V7.77756C7.77777 7.28689 8.17599 6.88867 8.66666 6.88867H6.66666C6.17599 6.88867 5.77777 7.28689 5.77777 7.77756V11.7776C5.77777 12.2682 6.17599 12.6665 6.66666 12.6665H7.33333L8.66666 14.4442L9.74399 13.2131L9.33333 12.6665Z" fill="#D2E2F4"/>
<path d="M16 14.2219C15.992 14.2219 15.9831 14.2219 15.9751 14.2219C15.7742 14.2139 15.5875 14.1161 15.4666 13.9561L14.3333 12.4441H12.2222C11.3644 12.4441 10.6666 11.7463 10.6666 10.8886V6.88856C10.6666 6.03079 11.3644 5.33301 12.2222 5.33301H19.7777C20.6355 5.33301 21.3333 6.03079 21.3333 6.88856V10.8886C21.3333 11.7463 20.6355 12.4441 19.7777 12.4441H17.8577L16.5013 13.9943C16.3751 14.1392 16.192 14.2219 16 14.2219ZM12.2222 6.66634C12.0995 6.66634 12 6.7659 12 6.88856V10.8886C12 11.0112 12.0995 11.1108 12.2222 11.1108H14.6666C14.8764 11.1108 15.0737 11.2095 15.2 11.3775L16.04 12.4975L17.0542 11.3392C17.1813 11.1943 17.3635 11.1117 17.5555 11.1117H19.7777C19.9004 11.1117 20 11.0121 20 10.8895V6.88945C20 6.76679 19.9004 6.66723 19.7777 6.66723H12.2222V6.66634Z" fill="#101521"/>
<path d="M23.1111 15.1115C23.1022 15.1115 23.0933 15.1115 23.0853 15.1115C22.8836 15.1035 22.6969 15.0049 22.5769 14.844L21.4764 13.3667L22.5458 12.5702L23.1538 13.3853L24.1662 12.2289C24.2933 12.084 24.4755 12.0013 24.6675 12.0013H25.112C25.2329 12.0013 25.3342 11.9 25.3342 11.7791V7.7791C25.3342 7.65821 25.2329 7.55688 25.112 7.55688H23.1111V6.22266H25.1111C25.9689 6.22266 26.6667 6.92043 26.6667 7.77821V11.7782C26.6667 12.636 25.9689 13.3338 25.1111 13.3338H24.9689L23.6124 14.884C23.4862 15.0289 23.3031 15.1115 23.1111 15.1115Z" fill="#101521"/>
<path d="M8.88893 15.1115C8.69693 15.1115 8.51382 15.0289 8.38759 14.884L7.03115 13.3338H6.88893C6.03115 13.3338 5.33337 12.636 5.33337 11.7782V7.77821C5.33337 6.92043 6.03115 6.22266 6.88893 6.22266H8.88893V7.55599H6.88893C6.76804 7.55599 6.66671 7.65732 6.66671 7.77821V11.7782C6.66671 11.8991 6.76804 12.0004 6.88893 12.0004H7.33337C7.52537 12.0004 7.70848 12.0831 7.83471 12.228L8.84715 13.3844L9.45515 12.5693L10.5245 13.3658L9.42404 14.8431C9.30315 15.0049 9.11648 15.1027 8.91559 15.1107C8.90671 15.1115 8.89782 15.1115 8.88893 15.1115Z" fill="#101521"/>
<path d="M23.1112 20.4442C22.1307 20.4442 21.3334 19.6469 21.3334 18.6665C21.3334 17.686 22.1307 16.8887 23.1112 16.8887C24.0916 16.8887 24.8889 17.686 24.8889 18.6665C24.8889 19.6469 24.0916 20.4442 23.1112 20.4442ZM23.1112 18.222C22.8658 18.222 22.6667 18.4211 22.6667 18.6665C22.6667 18.9118 22.8658 19.1109 23.1112 19.1109C23.3565 19.1109 23.5556 18.9118 23.5556 18.6665C23.5556 18.4211 23.3565 18.222 23.1112 18.222Z" fill="#101521"/>
<path d="M26.6667 24.8886H25.3334V23.7775C25.3334 23.165 24.8347 22.6663 24.2223 22.6663H21.3334V21.333H24.2223C25.5707 21.333 26.6667 22.429 26.6667 23.7775V24.8886Z" fill="#101521"/>
<path d="M8.88892 20.4442C7.90848 20.4442 7.11115 19.6469 7.11115 18.6665C7.11115 17.686 7.90848 16.8887 8.88892 16.8887C9.86937 16.8887 10.6667 17.686 10.6667 18.6665C10.6667 19.6469 9.86937 20.4442 8.88892 20.4442ZM8.88892 18.222C8.64359 18.222 8.44448 18.4211 8.44448 18.6665C8.44448 18.9118 8.64359 19.1109 8.88892 19.1109C9.13426 19.1109 9.33337 18.9118 9.33337 18.6665C9.33337 18.4211 9.13426 18.222 8.88892 18.222Z" fill="#101521"/>
<path d="M6.66671 24.8886H5.33337V23.7775C5.33337 22.429 6.42937 21.333 7.77782 21.333H10.6667V22.6663H7.77782C7.16537 22.6663 6.66671 23.165 6.66671 23.7775V24.8886Z" fill="#101521"/>
<path d="M16 20.889C14.5298 20.889 13.3334 19.6926 13.3334 18.2223C13.3334 16.7521 14.5298 15.5557 16 15.5557C17.4703 15.5557 18.6667 16.7521 18.6667 18.2223C18.6667 19.6926 17.4703 20.889 16 20.889ZM16 16.889C15.2649 16.889 14.6667 17.4872 14.6667 18.2223C14.6667 18.9574 15.2649 19.5557 16 19.5557C16.7352 19.5557 17.3334 18.9574 17.3334 18.2223C17.3334 17.4872 16.7352 16.889 16 16.889Z" fill="#101521"/>
<path d="M20.8889 26.6671H19.5555V24.6671C19.5555 24.0547 19.0569 23.556 18.4444 23.556H13.5555C12.9431 23.556 12.4444 24.0547 12.4444 24.6671V26.6671H11.1111V24.6671C11.1111 23.3187 12.2071 22.2227 13.5555 22.2227H18.4444C19.7929 22.2227 20.8889 23.3187 20.8889 24.6671V26.6671Z" fill="#101521"/>
<path d="M1.77777 25.333H30.2222V26.6663H1.77777V25.333Z" fill="#101521"/>
</svg>
