<svg width="80" height="80" viewBox="0 0 80 80" fill="none" xmlns="http://www.w3.org/2000/svg">
<path d="M9.25995 61.3844C9.25995 46.0133 1.29773 35.4578 1.29773 28.0511C1.29773 20.6444 5.55551 5.08887 39.6288 5.08887C73.7022 5.08887 78.7022 26.0155 78.7022 34.1622C78.7044 72.3111 9.25995 88.6066 9.25995 61.3844Z" fill="#EFEFEF"/>
<path d="M46.4445 36.6889C44.4889 38.4667 44.4889 41.5333 46.4445 43.3111L50.2001 46.6889C52.5556 48.8 53.889 51.8 53.889 54.9556V65H26.1111V54.9556C26.1111 51.8 27.4445 48.8 29.8 46.6889L33.5556 43.3111C35.5112 41.5333 35.5112 38.4667 33.5556 36.6889L29.8 33.3111C27.4445 31.2 26.1111 28.2 26.1111 25.0444V15H53.889V25.0444C53.889 28.2 52.5556 31.2 50.2001 33.3111L46.4445 36.6889Z" fill="#F3F3F1"/>
<path d="M31.1111 58.6111C31.1111 54.6844 32.4445 50.9511 34.8 48.3244L38.5556 44.12C40.5111 41.9067 40.5111 38.0911 38.5556 35.88L34.8 31.6756C32.4445 29.0489 31.1111 25.3156 31.1111 21.3889V15H26.1111V25.0444C26.1111 28.2 27.4445 31.2 29.8 33.3111L33.5556 36.6889C35.5111 38.4667 35.5111 41.5333 33.5556 43.3111L29.8 46.6889C27.4445 48.8 26.1111 51.8 26.1111 54.9556V65H31.1111V58.6111Z" fill="#BFD8F4"/>
<path d="M45.9198 52.0311L39.9999 46.1111L34.0799 52.0311C33.2465 52.8644 32.7776 53.9955 32.7776 55.1733V65H47.2221V55.1733C47.2221 53.9955 46.7532 52.8644 45.9198 52.0311Z" fill="#BFD8F4"/>
<path d="M7.22235 13.6111H11.6668V15.8333H7.22235V13.6111Z" fill="#B7B7B7"/>
<path d="M14.4447 19.1667H16.6669V23.6112H14.4447V19.1667Z" fill="#B7B7B7"/>
<path d="M14.4447 6.38892H16.6669V10.8334H14.4447V6.38892Z" fill="#B7B7B7"/>
<path d="M68.8891 25.5556C67.0513 25.5556 65.5558 24.06 65.5558 22.2222C65.5558 20.3845 67.0513 18.8889 68.8891 18.8889C70.7269 18.8889 72.2225 20.3845 72.2225 22.2222C72.2225 24.06 70.7269 25.5556 68.8891 25.5556ZM68.8891 21.1111C68.278 21.1111 67.778 21.6111 67.778 22.2222C67.778 22.8334 68.278 23.3334 68.8891 23.3334C69.5002 23.3334 70.0002 22.8334 70.0002 22.2222C70.0002 21.6111 69.5002 21.1111 68.8891 21.1111Z" fill="#B7B7B7"/>
<path d="M48.8889 65H45.5556V55.1734C45.5556 54.4422 45.2578 53.7267 44.7423 53.2089L40 48.4689L35.2578 53.2111C34.7423 53.7267 34.4445 54.4445 34.4445 55.1756V65.0022H31.1111V55.1756C31.1111 53.5445 31.7467 52.0089 32.9023 50.8556L38.8223 44.9356C39.4734 44.2845 40.5289 44.2845 41.18 44.9356L47.1 50.8556C48.2556 52.0111 48.8911 53.5445 48.8911 55.1756V65H48.8889Z" fill="#101521"/>
<path d="M21.6668 13.3333H58.3334V16.6666H21.6668V13.3333Z" fill="#101521"/>
<path d="M21.6668 63.3333H58.3334V66.6666H21.6668V63.3333Z" fill="#101521"/>
<path d="M27.7778 65H24.4445V54.9489C24.4445 51.3333 25.9845 47.8711 28.6734 45.4533L32.4356 42.0667C33.0311 41.5333 33.3556 40.8022 33.3556 40.0022C33.3556 39.2022 33.0311 38.4733 32.4356 37.9378L28.6734 34.5511C25.9845 32.1289 24.4445 28.6667 24.4445 25.0511V15H27.7778V25.0511C27.7778 27.7222 28.9178 30.2822 30.9045 32.0689L34.6667 35.4556C35.9511 36.6133 36.6889 38.2689 36.6889 39.9978C36.6889 41.7267 35.9511 43.3822 34.6667 44.54L30.9045 47.9267C28.9156 49.7156 27.7778 52.2733 27.7778 54.9444V65Z" fill="#101521"/>
<path d="M55.5554 65H52.222V54.9489C52.222 52.2778 51.082 49.7178 49.0954 47.9311L45.3331 44.5444C44.0487 43.3867 43.3109 41.7311 43.3109 40.0022C43.3109 38.2733 44.0487 36.6178 45.3331 35.46L49.0954 32.0733C51.0843 30.2844 52.222 27.7267 52.222 25.0556V15H55.5554V25.0511C55.5554 28.6667 54.0154 32.1289 51.3265 34.5467L47.5643 37.9333C46.9687 38.4667 46.6443 39.1978 46.6443 39.9978C46.6443 40.7978 46.9687 41.5267 47.5643 42.0622L51.3265 45.4489C54.0154 47.8711 55.5554 51.3333 55.5554 54.9489V65Z" fill="#101521"/>
</svg>
