<svg width="24" height="24" viewBox="0 0 24 24" fill="none" xmlns="http://www.w3.org/2000/svg">
<g clip-path="url(#clip0)">
<path d="M3.14688 18.1587C3.14688 13.7318 0.85376 10.6918 0.85376 8.55868C0.85376 6.42556 2.08 1.94556 11.8931 1.94556C21.7062 1.94556 23.1462 7.97244 23.1462 10.3187C23.1469 21.3056 3.14688 25.9987 3.14688 18.1587Z" fill="#EFEFEF"/>
<path d="M13.856 11.0465C13.2928 11.5585 13.2928 12.4417 13.856 12.9537L14.9376 13.9265C15.616 14.5345 16 15.3985 16 16.3073V19.2001H8V16.3073C8 15.3985 8.384 14.5345 9.0624 13.9265L10.144 12.9537C10.7072 12.4417 10.7072 11.5585 10.144 11.0465L9.0624 10.0736C8.384 9.46565 8 8.60165 8 7.69285V4.80005H16V7.69285C16 8.60165 15.616 9.46565 14.9376 10.0736L13.856 11.0465Z" fill="#F3F3F1"/>
<path d="M9.44 17.3601C9.44 16.2292 9.824 15.154 10.5024 14.3975L11.584 13.1866C12.1472 12.5492 12.1472 11.4503 11.584 10.8135L10.5024 9.60261C9.824 8.84613 9.44 7.77093 9.44 6.64005V4.80005H8V7.69285C8 8.60165 8.384 9.46565 9.0624 10.0736L10.144 11.0465C10.7072 11.5585 10.7072 12.4417 10.144 12.9537L9.0624 13.9265C8.384 14.5345 8 15.3985 8 16.3073V19.2001H9.44V17.3601Z" fill="#D5DBE1"/>
<path d="M13.7049 15.465L11.9999 13.76L10.295 15.465C10.055 15.705 9.91992 16.0307 9.91992 16.3699V19.2H14.0799V16.3699C14.0799 16.0307 13.9449 15.705 13.7049 15.465Z" fill="#A5A4F8"/>
<path d="M2.56006 4.40015H3.84006V5.04015H2.56006V4.40015Z" fill="#A4AFC1"/>
<path d="M4.64014 6H5.28014V7.28H4.64014V6Z" fill="#A4AFC1"/>
<path d="M4.64014 2.32007H5.28014V3.60007H4.64014V2.32007Z" fill="#A4AFC1"/>
<path d="M20.3201 7.84016C19.7908 7.84016 19.3601 7.40944 19.3601 6.88016C19.3601 6.35089 19.7908 5.92017 20.3201 5.92017C20.8494 5.92017 21.2801 6.35089 21.2801 6.88016C21.2801 7.40944 20.8494 7.84016 20.3201 7.84016ZM20.3201 6.56016C20.1441 6.56016 20.0001 6.70416 20.0001 6.88016C20.0001 7.05616 20.1441 7.20016 20.3201 7.20016C20.4961 7.20016 20.6401 7.05616 20.6401 6.88016C20.6401 6.70416 20.4961 6.56016 20.3201 6.56016Z" fill="#A4AFC1"/>
<path d="M14.5599 19.2H13.5999V16.3699C13.5999 16.1593 13.5142 15.9532 13.3657 15.8041L11.9999 14.439L10.6342 15.8048C10.4857 15.9532 10.3999 16.16 10.3999 16.3705V19.2006H9.43994V16.3705C9.43994 15.9008 9.62298 15.4585 9.95578 15.1264L11.6607 13.4214C11.8483 13.2339 12.1523 13.2339 12.3398 13.4214L14.0447 15.1264C14.3775 15.4592 14.5606 15.9008 14.5606 16.3705V19.2H14.5599Z" fill="#101521"/>
<path d="M6.71997 4.32007H17.28V5.28007H6.71997V4.32007Z" fill="#101521"/>
<path d="M6.71997 18.72H17.28V19.68H6.71997V18.72Z" fill="#101521"/>
<path d="M8.48002 19.2001H7.52002V16.3053C7.52002 15.2641 7.96354 14.2669 8.73794 13.5706L9.82146 12.5953C9.99298 12.4417 10.0864 12.2311 10.0864 12.0007C10.0864 11.7703 9.99298 11.5604 9.82146 11.4061L8.73794 10.4308C7.96354 9.73317 7.52002 8.73605 7.52002 7.69477V4.80005H8.48002V7.69477C8.48002 8.46405 8.80834 9.20133 9.3805 9.71589L10.464 10.6913C10.8339 11.0247 11.0464 11.5015 11.0464 11.9994C11.0464 12.4973 10.8339 12.9741 10.464 13.3076L9.3805 14.2829C8.8077 14.7981 8.48002 15.5348 8.48002 16.3041V19.2001Z" fill="#101521"/>
<path d="M16.4799 19.2001H15.5199V16.3053C15.5199 15.5361 15.1916 14.7988 14.6194 14.2842L13.5359 13.3089C13.166 12.9754 12.9535 12.4986 12.9535 12.0007C12.9535 11.5028 13.166 11.026 13.5359 10.6925L14.6194 9.71717C15.1922 9.20197 15.5199 8.46533 15.5199 7.69605V4.80005H16.4799V7.69477C16.4799 8.73605 16.0364 9.73317 15.262 10.4295L14.1785 11.4049C14.0069 11.5585 13.9135 11.769 13.9135 11.9994C13.9135 12.2298 14.0069 12.4397 14.1785 12.594L15.262 13.5693C16.0364 14.2669 16.4799 15.2641 16.4799 16.3053V19.2001Z" fill="#101521"/>
</g>
<defs>
<clipPath id="clip0">
<rect width="23.04" height="23.04" fill="white" transform="translate(0.47998 0.47998)"/>
</clipPath>
</defs>
</svg>
