<svg width="39" height="39" viewBox="0 0 39 39" fill="none" xmlns="http://www.w3.org/2000/svg">
<path d="M9.34236 4.89827C16.6436 4.89827 21.6575 1.11621 25.1757 1.11621C28.6939 1.11621 36.0827 3.13866 36.0827 19.3235C36.0827 35.5083 26.1426 37.8833 22.2729 37.8833C4.15219 37.8844 -3.5882 4.89827 9.34236 4.89827Z" fill="#EFEFEF"/>
<path d="M24.7462 8.68056C24.3873 8.04722 23.7118 7.625 22.9307 7.625H10.7918C9.63066 7.625 8.68066 8.575 8.68066 9.73611V26.0972C8.68066 26.3886 8.74083 26.6662 8.8485 26.9184L8.68066 27.1528C9.03955 27.7861 9.71511 28.2083 10.4962 28.2083H22.6351C23.7962 28.2083 24.7462 27.2583 24.7462 26.0972V9.73611C24.7462 9.44478 24.6861 9.16717 24.5784 8.91489L24.7462 8.68056Z" fill="#BFD8F4"/>
<path d="M30.3194 29.2643V13.9588C30.3194 12.7924 29.3746 11.8477 28.2082 11.8477H16.0694C14.903 11.8477 13.9583 12.7924 13.9583 13.9588V29.2643C13.9583 30.4307 14.903 31.3754 16.0694 31.3754H28.2082C29.3746 31.3754 30.3194 30.4307 30.3194 29.2643Z" fill="#F3F3F1"/>
<path d="M11.0557 27.1528L11.2235 26.9184C11.1158 26.6662 11.0557 26.3886 11.0557 26.0972V9.73611C11.0557 8.575 12.0057 7.625 13.1668 7.625H10.7918C9.63066 7.625 8.68066 8.575 8.68066 9.73611V26.0972C8.68066 26.3886 8.74083 26.6662 8.8485 26.9184L8.68066 27.1528C9.03955 27.7861 9.71511 28.2083 10.4962 28.2083H12.8712C12.0901 28.2083 11.4146 27.7861 11.0557 27.1528Z" fill="#BFD8F4"/>
<path d="M16.3333 29.2643V13.9588C16.3333 12.7924 17.278 11.8477 18.4444 11.8477H16.0694C14.903 11.8477 13.9583 12.7924 13.9583 13.9588V29.2643C13.9583 30.4307 14.903 31.3754 16.0694 31.3754H18.4444C17.278 31.3754 16.3333 30.4307 16.3333 29.2643Z" fill="#BFD8F4"/>
<path d="M18.1807 23.1943H26.0973V24.7777H18.1807V23.1943Z" fill="#101521"/>
<path d="M18.1807 27.417H26.0973V29.0003H18.1807V27.417Z" fill="#101521"/>
<path d="M18.1807 19.5H26.0973V21.0833H18.1807V19.5Z" fill="#101521"/>
<path d="M18.1807 15.2773H26.0973V16.8607H18.1807V15.2773Z" fill="#101521"/>
<path d="M11.5834 28.9997H10.7917C9.19042 28.9997 7.88892 27.6982 7.88892 26.0969V9.73579C7.88892 8.13451 9.19042 6.83301 10.7917 6.83301H22.9306C23.965 6.83301 24.9256 7.39034 25.4354 8.28967L25.826 8.9779L24.4485 9.75901L24.0579 9.07079C23.8257 8.66017 23.4035 8.41634 22.9306 8.41634H10.7917C10.0644 8.41634 9.47225 9.00851 9.47225 9.73579V26.0969C9.47225 26.8242 10.0644 27.4163 10.7917 27.4163H11.5834V28.9997Z" fill="#101521"/>
<path d="M28.2084 32.1668H16.0695C14.4682 32.1668 13.1667 30.8653 13.1667 29.264V13.9584C13.1667 12.3572 14.4682 11.0557 16.0695 11.0557H28.2084C29.8097 11.0557 31.1112 12.3572 31.1112 13.9584V29.264C31.1112 30.8653 29.8097 32.1668 28.2084 32.1668ZM16.0695 12.639C15.3422 12.639 14.7501 13.2312 14.7501 13.9584V29.264C14.7501 29.9913 15.3422 30.5834 16.0695 30.5834H28.2084C28.9357 30.5834 29.5279 29.9913 29.5279 29.264V13.9584C29.5279 13.2312 28.9357 12.639 28.2084 12.639H16.0695Z" fill="#101521"/>
<path d="M34.2777 30.319C33.4047 30.319 32.6943 29.6086 32.6943 28.7357C32.6943 27.8627 33.4047 27.1523 34.2777 27.1523C35.1506 27.1523 35.861 27.8627 35.861 28.7357C35.861 29.6086 35.1506 30.319 34.2777 30.319ZM34.2777 28.2079C33.9863 28.2079 33.7499 28.4454 33.7499 28.7357C33.7499 29.026 33.9863 29.2635 34.2777 29.2635C34.569 29.2635 34.8054 29.026 34.8054 28.7357C34.8054 28.4454 34.569 28.2079 34.2777 28.2079Z" fill="#B7B7B7"/>
<path d="M7.82373 5.06152L9.31651 3.56874L10.0629 4.31513L8.57012 5.80791L7.82373 5.06152Z" fill="#B7B7B7"/>
<path d="M3.53174 9.35254L5.02452 7.85976L5.77091 8.60615L4.27813 10.0989L3.53174 9.35254Z" fill="#B7B7B7"/>
<path d="M3.71899 4.31445L4.46538 3.56806L5.95816 5.06084L5.21177 5.80723L3.71899 4.31445Z" fill="#B7B7B7"/>
</svg>
