<svg width="50" height="50" viewBox="0 0 50 50" fill="none" xmlns="http://www.w3.org/2000/svg">
<circle cx="25" cy="25" r="25" fill="#FAFAFA"/>
<path d="M33.3707 12.4788C27.224 12.5935 22.9422 9.48772 19.9805 9.54372C17.0187 9.59972 10.8285 11.4184 11.0836 25.0459C11.3387 38.6735 19.7449 40.5162 23.0036 40.4557C38.2596 40.1704 44.2578 12.2753 33.3707 12.4788Z" fill="#EFEFEF"/>
<path d="M14.3333 17.5602C13.5982 17.5602 13 16.962 13 16.2269C13 15.4918 13.5982 14.8936 14.3333 14.8936C15.0684 14.8936 15.6667 15.4918 15.6667 16.2269C15.6667 16.962 15.0684 17.5602 14.3333 17.5602ZM14.3333 15.7824C14.088 15.7824 13.8889 15.9816 13.8889 16.2269C13.8889 16.4722 14.088 16.6713 14.3333 16.6713C14.5787 16.6713 14.7778 16.4722 14.7778 16.2269C14.7778 15.9816 14.5787 15.7824 14.3333 15.7824Z" fill="#A4AFC1"/>
<path d="M33.2223 23V24.3333C33.2223 25.3156 32.4267 26.1111 31.4445 26.1111H18.5556C17.5734 26.1111 16.7778 25.3156 16.7778 24.3333V23H33.2223Z" fill="#F3F3F1"/>
<path d="M28.7777 23.0001H22.1111C21.6204 23.0001 21.2222 22.6019 21.2222 22.1112V19.4446C21.2222 18.9539 21.6204 18.5557 22.1111 18.5557H28.7777C30.0053 18.5557 30.9999 19.5503 30.9999 20.7779C30.9999 22.0054 30.0053 23.0001 28.7777 23.0001Z" fill="#D2E2F4"/>
<path d="M18.5556 24.3333V23H16.7778V24.3333C16.7778 25.3156 17.5734 26.1111 18.5556 26.1111H20.3334C19.3512 26.1111 18.5556 25.3156 18.5556 24.3333Z" fill="#D5DBE1"/>
<path d="M31.4444 26.7775H18.5555C17.2071 26.7775 16.1111 25.6815 16.1111 24.333V22.333H17.4444V24.333C17.4444 24.9455 17.9431 25.4441 18.5555 25.4441H31.4444C32.0569 25.4441 32.5555 24.9455 32.5555 24.333V22.333H33.8889V24.333C33.8889 25.6815 32.7929 26.7775 31.4444 26.7775Z" fill="#101521"/>
<path d="M14.3333 22.333H35.6666V23.6663H14.3333V22.333Z" fill="#101521"/>
<path d="M17.8889 25.4443H19.2223V35.6666H17.8889V25.4443Z" fill="#101521"/>
<path d="M30.7778 25.4443H32.1112V35.6666H30.7778V25.4443Z" fill="#101521"/>
<path d="M28.7779 23.6664H22.1112C21.2534 23.6664 20.5557 22.9687 20.5557 22.1109V19.4442C20.5557 18.5864 21.2534 17.8887 22.1112 17.8887H28.7779C30.3708 17.8887 31.6668 19.1847 31.6668 20.7776C31.6668 22.3704 30.3708 23.6664 28.7779 23.6664ZM22.1112 19.222C21.9886 19.222 21.889 19.3216 21.889 19.4442V22.1109C21.889 22.2336 21.9886 22.3331 22.1112 22.3331H28.7779C29.6357 22.3331 30.3334 21.6353 30.3334 20.7776C30.3334 19.9198 29.6357 19.222 28.7779 19.222H22.1112Z" fill="#101521"/>
<path d="M20.5557 20.1113H28.5557V21.4447H20.5557V20.1113Z" fill="#101521"/>
</svg>
