<svg width="50" height="50" viewBox="0 0 50 50" fill="none" xmlns="http://www.w3.org/2000/svg">
<circle cx="25" cy="25" r="25" fill="#FAFAFA"/>
<path d="M33.5539 12.7044C27.4054 12.7044 23.1832 9.51953 20.2205 9.51953C17.2579 9.51953 11.0356 11.2226 11.0356 24.852C11.0356 38.4813 19.4063 40.4813 22.665 40.4813C37.9245 40.4822 44.4428 12.7044 33.5539 12.7044Z" fill="#EFEFEF"/>
<path d="M37.4444 13.8893C36.7093 13.8893 36.1111 13.2911 36.1111 12.556C36.1111 11.8209 36.7093 11.2227 37.4444 11.2227C38.1795 11.2227 38.7778 11.8209 38.7778 12.556C38.7778 13.2911 38.1795 13.8893 37.4444 13.8893ZM37.4444 12.1115C37.1991 12.1115 37 12.3107 37 12.556C37 12.8013 37.1991 13.0004 37.4444 13.0004C37.6898 13.0004 37.8889 12.8013 37.8889 12.556C37.8889 12.3107 37.6898 12.1115 37.4444 12.1115Z" fill="#A4AFC1"/>
<path d="M32.1111 28.7779C32.7248 28.7779 33.2222 28.2804 33.2222 27.6668C33.2222 27.0531 32.7248 26.5557 32.1111 26.5557C31.4975 26.5557 31 27.0531 31 27.6668C31 28.2804 31.4975 28.7779 32.1111 28.7779Z" fill="#F3F3F1"/>
<path d="M17.8889 28.7779C18.5026 28.7779 19.0001 28.2804 19.0001 27.6668C19.0001 27.0531 18.5026 26.5557 17.8889 26.5557C17.2753 26.5557 16.7778 27.0531 16.7778 27.6668C16.7778 28.2804 17.2753 28.7779 17.8889 28.7779Z" fill="#F3F3F1"/>
<path d="M25 29.2227C26.1046 29.2227 27 28.3272 27 27.2227C27 26.1181 26.1046 25.2227 25 25.2227C23.8954 25.2227 23 26.1181 23 27.2227C23 28.3272 23.8954 29.2227 25 29.2227Z" fill="#F3F3F1"/>
<path d="M29.2223 35.6664V33.6664C29.2223 32.6842 28.4267 31.8887 27.4445 31.8887H22.5556C21.5734 31.8887 20.7778 32.6842 20.7778 33.6664V35.6664H29.2223Z" fill="#F3F3F1"/>
<path d="M15 33.8889V32.7778C15 31.7956 15.7956 31 16.7778 31H19C19.9822 31 20.7778 31.7956 20.7778 32.7778V33.8889H15Z" fill="#F3F3F1"/>
<path d="M29.2222 33.8889V32.7778C29.2222 31.7956 30.0177 31 30.9999 31H33.2222C34.2044 31 34.9999 31.7956 34.9999 32.7778V33.8889H29.2222Z" fill="#F3F3F1"/>
<path d="M29.6666 15.8889V19.8889C29.6666 20.3796 29.2684 20.7778 28.7777 20.7778H26.5555L24.9999 22.5556L23.6666 20.7778H21.2221C20.7315 20.7778 20.3333 20.3796 20.3333 19.8889V15.8889C20.3333 15.3982 20.7315 15 21.2221 15H28.7777C29.2684 15 29.6666 15.3982 29.6666 15.8889Z" fill="#D2E2F4"/>
<path d="M35.4446 16.7776V20.7776C35.4446 21.2682 35.0464 21.6665 34.5557 21.6665H33.889L32.3335 23.4442L31.0001 21.6665H30.3335C29.8428 21.6665 29.4446 21.2682 29.4446 20.7776V16.7776C29.4446 16.2869 29.8428 15.8887 30.3335 15.8887H34.5557C35.0464 15.8887 35.4446 16.2869 35.4446 16.7776Z" fill="#D2E2F4"/>
<path d="M20.7778 16.7776V20.7776C20.7778 21.2682 20.3796 21.6665 19.8889 21.6665H19.2223L17.6667 23.4442L16.3334 21.6665H15.6667C15.1761 21.6665 14.7778 21.2682 14.7778 20.7776V16.7776C14.7778 16.2869 15.1761 15.8887 15.6667 15.8887H19.8889C20.3796 15.8887 20.7778 16.2869 20.7778 16.7776Z" fill="#D2E2F4"/>
<path d="M33 27.6668C33 27.4979 33.0436 27.3423 33.1111 27.1992C32.9333 26.8214 32.5556 26.5557 32.1111 26.5557C31.4978 26.5557 31 27.0534 31 27.6668C31 28.2801 31.4978 28.7779 32.1111 28.7779C32.5556 28.7779 32.9333 28.5121 33.1111 28.1343C33.0436 27.9912 33 27.8357 33 27.6668Z" fill="#D5DBE1"/>
<path d="M18.7778 27.6668C18.7778 27.4979 18.8214 27.3423 18.8889 27.1992C18.7112 26.8214 18.3334 26.5557 17.8889 26.5557C17.2756 26.5557 16.7778 27.0534 16.7778 27.6668C16.7778 28.2801 17.2756 28.7779 17.8889 28.7779C18.3334 28.7779 18.7112 28.5121 18.8889 28.1343C18.8214 27.9912 18.7778 27.8357 18.7778 27.6668Z" fill="#D5DBE1"/>
<path d="M25 27.2227C25 26.484 25.4044 25.8467 26 25.5C25.7049 25.3284 25.3662 25.2227 25 25.2227C23.8951 25.2227 23 26.1178 23 27.2227C23 28.3275 23.8951 29.2227 25 29.2227C25.3662 29.2227 25.7049 29.1169 26 28.9453C25.4044 28.5987 25 27.9613 25 27.2227Z" fill="#D5DBE1"/>
<path d="M24.5556 31.8887H22.5556C21.5734 31.8887 20.7778 32.6842 20.7778 33.6664V35.6664H22.7778V33.6664C22.7778 32.6842 23.5734 31.8887 24.5556 31.8887Z" fill="#D5DBE1"/>
<path d="M18.7778 31H16.7778C15.7956 31 15 31.7956 15 32.7778V33.8889H17V32.7778C17 31.7956 17.7956 31 18.7778 31Z" fill="#D5DBE1"/>
<path d="M32.9999 31H30.9999C30.0177 31 29.2222 31.7956 29.2222 32.7778V33.8889H31.2222V32.7778C31.2222 31.7956 32.0177 31 32.9999 31Z" fill="#D5DBE1"/>
<path d="M22.3333 19.8889V15.8889C22.3333 15.3982 22.7315 15 23.2221 15H21.2221C20.7315 15 20.3333 15.3982 20.3333 15.8889V19.8889C20.3333 20.3796 20.7315 20.7778 21.2221 20.7778H23.2221C22.7315 20.7778 22.3333 20.3796 22.3333 19.8889Z" fill="#D2E2F4"/>
<path d="M25.6667 20.7773H23.6667L25.0001 22.5551L26.0774 21.324L25.6667 20.7773Z" fill="#D2E2F4"/>
<path d="M33.0001 21.6665H32.3335C31.8428 21.6665 31.4446 21.2682 31.4446 20.7776V16.7776C31.4446 16.2869 31.8428 15.8887 32.3335 15.8887H30.3335C29.8428 15.8887 29.4446 16.2869 29.4446 16.7776V20.7776C29.4446 21.2682 29.8428 21.6665 30.3335 21.6665H31.0001L32.3335 23.4442L33.4108 22.2131L33.0001 21.6665Z" fill="#D2E2F4"/>
<path d="M18.3334 21.6665H17.6667C17.1761 21.6665 16.7778 21.2682 16.7778 20.7776V16.7776C16.7778 16.2869 17.1761 15.8887 17.6667 15.8887H15.6667C15.1761 15.8887 14.7778 16.2869 14.7778 16.7776V20.7776C14.7778 21.2682 15.1761 21.6665 15.6667 21.6665H16.3334L17.6667 23.4442L18.7441 22.2131L18.3334 21.6665Z" fill="#D2E2F4"/>
<path d="M25.0001 23.2219C24.9921 23.2219 24.9832 23.2219 24.9752 23.2219C24.7743 23.2139 24.5876 23.1161 24.4667 22.9561L23.3334 21.4441H21.2223C20.3645 21.4441 19.6667 20.7463 19.6667 19.8886V15.8886C19.6667 15.0308 20.3645 14.333 21.2223 14.333H28.7779C29.6356 14.333 30.3334 15.0308 30.3334 15.8886V19.8886C30.3334 20.7463 29.6356 21.4441 28.7779 21.4441H26.8579L25.5014 22.9943C25.3752 23.1392 25.1921 23.2219 25.0001 23.2219ZM21.2223 15.6663C21.0996 15.6663 21.0001 15.7659 21.0001 15.8886V19.8886C21.0001 20.0112 21.0996 20.1108 21.2223 20.1108H23.6667C23.8765 20.1108 24.0739 20.2095 24.2001 20.3775L25.0401 21.4975L26.0543 20.3392C26.1814 20.1943 26.3636 20.1117 26.5556 20.1117H28.7779C28.9005 20.1117 29.0001 20.0121 29.0001 19.8895V15.8895C29.0001 15.7668 28.9005 15.6672 28.7779 15.6672H21.2223V15.6663Z" fill="#101521"/>
<path d="M32.1112 24.1115C32.1023 24.1115 32.0935 24.1115 32.0855 24.1115C31.8837 24.1035 31.697 24.0049 31.577 23.844L30.4766 22.3667L31.5459 21.5702L32.1539 22.3853L33.1663 21.2289C33.2935 21.084 33.4757 21.0013 33.6677 21.0013H34.1121C34.233 21.0013 34.3343 20.9 34.3343 20.7791V16.7791C34.3343 16.6582 34.233 16.5569 34.1121 16.5569H32.1112V15.2227H34.1112C34.969 15.2227 35.6668 15.9204 35.6668 16.7782V20.7782C35.6668 21.636 34.969 22.3338 34.1112 22.3338H33.969L32.6126 23.884C32.4863 24.0289 32.3032 24.1115 32.1112 24.1115Z" fill="#101521"/>
<path d="M17.8888 24.1115C17.6968 24.1115 17.5137 24.0289 17.3875 23.884L16.031 22.3338H15.8888C15.031 22.3338 14.3333 21.636 14.3333 20.7782V16.7782C14.3333 15.9204 15.031 15.2227 15.8888 15.2227H17.8888V16.556H15.8888C15.7679 16.556 15.6666 16.6573 15.6666 16.7782V20.7782C15.6666 20.8991 15.7679 21.0004 15.8888 21.0004H16.3333C16.5253 21.0004 16.7084 21.0831 16.8346 21.228L17.847 22.3844L18.455 21.5693L19.5244 22.3658L18.4239 23.8431C18.303 24.0049 18.1164 24.1027 17.9155 24.1107C17.9066 24.1115 17.8977 24.1115 17.8888 24.1115Z" fill="#101521"/>
<path d="M32.111 29.4442C31.1306 29.4442 30.3333 28.6469 30.3333 27.6665C30.3333 26.686 31.1306 25.8887 32.111 25.8887C33.0915 25.8887 33.8888 26.686 33.8888 27.6665C33.8888 28.6469 33.0915 29.4442 32.111 29.4442ZM32.111 27.222C31.8657 27.222 31.6666 27.4211 31.6666 27.6665C31.6666 27.9118 31.8657 28.1109 32.111 28.1109C32.3564 28.1109 32.5555 27.9118 32.5555 27.6665C32.5555 27.4211 32.3564 27.222 32.111 27.222Z" fill="#101521"/>
<path d="M35.6666 33.8886H34.3333V32.7775C34.3333 32.165 33.8346 31.6663 33.2221 31.6663H30.3333V30.333H33.2221C34.5706 30.333 35.6666 31.429 35.6666 32.7775V33.8886Z" fill="#101521"/>
<path d="M17.8889 29.4442C16.9084 29.4442 16.1111 28.6469 16.1111 27.6665C16.1111 26.686 16.9084 25.8887 17.8889 25.8887C18.8693 25.8887 19.6666 26.686 19.6666 27.6665C19.6666 28.6469 18.8693 29.4442 17.8889 29.4442ZM17.8889 27.222C17.6435 27.222 17.4444 27.4211 17.4444 27.6665C17.4444 27.9118 17.6435 28.1109 17.8889 28.1109C18.1342 28.1109 18.3333 27.9118 18.3333 27.6665C18.3333 27.4211 18.1342 27.222 17.8889 27.222Z" fill="#101521"/>
<path d="M15.6666 33.8886H14.3333V32.7775C14.3333 31.429 15.4293 30.333 16.7777 30.333H19.6666V31.6663H16.7777C16.1653 31.6663 15.6666 32.165 15.6666 32.7775V33.8886Z" fill="#101521"/>
<path d="M24.9999 29.889C23.5297 29.889 22.3333 28.6926 22.3333 27.2223C22.3333 25.7521 23.5297 24.5557 24.9999 24.5557C26.4701 24.5557 27.6666 25.7521 27.6666 27.2223C27.6666 28.6926 26.4701 29.889 24.9999 29.889ZM24.9999 25.889C24.2648 25.889 23.6666 26.4872 23.6666 27.2223C23.6666 27.9574 24.2648 28.5557 24.9999 28.5557C25.735 28.5557 26.3333 27.9574 26.3333 27.2223C26.3333 26.4872 25.735 25.889 24.9999 25.889Z" fill="#101521"/>
<path d="M29.8889 35.6671H28.5555V33.6671C28.5555 33.0547 28.0569 32.556 27.4444 32.556H22.5555C21.9431 32.556 21.4444 33.0547 21.4444 33.6671V35.6671H20.1111V33.6671C20.1111 32.3187 21.2071 31.2227 22.5555 31.2227H27.4444C28.7929 31.2227 29.8889 32.3187 29.8889 33.6671V35.6671Z" fill="#101521"/>
<path d="M10.7778 34.333H39.2223V35.6663H10.7778V34.333Z" fill="#101521"/>
</svg>
