<svg width="50" height="50" viewBox="0 0 50 50" fill="none" xmlns="http://www.w3.org/2000/svg">
<circle cx="25" cy="25" r="25" fill="#FAFAFA"/>
<path d="M16.2125 13.9463C14.608 19.8814 10.4311 23.1258 9.65779 25.9863C8.88445 28.8467 8.9049 35.2974 22.0622 38.8547C35.2196 42.412 39.3351 34.8538 40.1849 31.7071C44.168 16.9765 19.0542 3.43426 16.2125 13.9463Z" fill="#EFEFEF"/>
<path d="M19.7158 13.9043L20.9729 12.6472L21.6014 13.2758L20.3444 14.5328L19.7158 13.9043Z" fill="#A4AFC1"/>
<path d="M16.1016 17.5176L17.3586 16.2605L17.9872 16.889L16.7301 18.1461L16.1016 17.5176Z" fill="#A4AFC1"/>
<path d="M16.1016 13.1182L16.7301 12.4896L17.9872 13.7467L17.3586 14.3752L16.1016 13.1182Z" fill="#A4AFC1"/>
<path d="M37.6471 35.444C36.9119 35.444 36.3137 34.8458 36.3137 34.1107C36.3137 33.3756 36.9119 32.7773 37.6471 32.7773C38.3822 32.7773 38.9804 33.3756 38.9804 34.1107C38.9804 34.8458 38.3822 35.444 37.6471 35.444ZM37.6471 33.6662C37.4017 33.6662 37.2026 33.8653 37.2026 34.1107C37.2026 34.356 37.4017 34.5551 37.6471 34.5551C37.8924 34.5551 38.0915 34.356 38.0915 34.1107C38.0915 33.8653 37.8915 33.6662 37.6471 33.6662Z" fill="#A4AFC1"/>
<path d="M21.1085 24.584L16.7778 32.3751L19.9645 32.1289L21.3778 35L24.9689 28.6267L21.1085 24.584Z" fill="#F3F3F1"/>
<path d="M28.8311 24.5918L33.2222 32.3785L29.9822 32.1287L28.56 34.9998L24.9689 28.6265L23.3884 25.838L28.8311 24.5918Z" fill="#F3F3F1"/>
<path d="M26.7466 28.6265L25.1662 25.838L29.0346 24.9518L28.8311 24.5918L23.3884 25.838L24.9689 28.6265L28.56 34.9998L29.392 33.3207L26.7466 28.6265Z" fill="#D5DBE1"/>
<path d="M22.2321 25.7609L21.1085 24.584L16.7778 32.3751L18.6356 32.232L22.2321 25.7609Z" fill="#D5DBE1"/>
<path d="M24.9999 26.1111C28.0681 26.1111 30.5555 23.6238 30.5555 20.5556C30.5555 17.4873 28.0681 15 24.9999 15C21.9316 15 19.4443 17.4873 19.4443 20.5556C19.4443 23.6238 21.9316 26.1111 24.9999 26.1111Z" fill="#D2E2F4"/>
<path d="M25 23.4457C26.5955 23.4457 27.8889 22.1523 27.8889 20.5569C27.8889 18.9614 26.5955 17.668 25 17.668C23.4045 17.668 22.1111 18.9614 22.1111 20.5569C22.1111 22.1523 23.4045 23.4457 25 23.4457Z" fill="#F3F3F1"/>
<path d="M23.8889 20.5569C23.8889 19.2733 24.7315 18.1986 25.8889 17.8217C25.6071 17.7302 25.312 17.668 25 17.668C23.4044 17.668 22.1111 18.9613 22.1111 20.5569C22.1111 22.1524 23.4044 23.4457 25 23.4457C25.312 23.4457 25.6071 23.3835 25.8889 23.292C24.7315 22.9151 23.8889 21.8395 23.8889 20.5569Z" fill="#D5DBE1"/>
<path d="M21.2221 20.5556C21.2221 17.7902 23.2443 15.504 25.8888 15.0773C25.599 15.0302 25.303 15 24.9999 15C21.9314 15 19.4443 17.4871 19.4443 20.5556C19.4443 23.624 21.9314 26.1111 24.9999 26.1111C25.303 26.1111 25.599 26.08 25.8888 26.0338C23.2443 25.6071 21.2221 23.3209 21.2221 20.5556Z" fill="#D2E2F4"/>
<path d="M24.9999 24.1111C23.039 24.1111 21.4443 22.5164 21.4443 20.5556C21.4443 18.5947 23.039 17 24.9999 17C26.9608 17 28.5555 18.5947 28.5555 20.5556C28.5555 22.5164 26.9608 24.1111 24.9999 24.1111ZM24.9999 18.3333C23.775 18.3333 22.7777 19.3307 22.7777 20.5556C22.7777 21.7804 23.775 22.7778 24.9999 22.7778C26.2248 22.7778 27.2221 21.7804 27.2221 20.5556C27.2221 19.3307 26.2248 18.3333 24.9999 18.3333Z" fill="#101521"/>
<path d="M21.3779 35.667C21.3717 35.667 21.3655 35.667 21.3593 35.667C21.1122 35.6607 20.889 35.5176 20.7797 35.2954L19.5655 32.8296L16.8286 33.0403C16.585 33.0581 16.3486 32.9425 16.2162 32.7354C16.0837 32.5283 16.0757 32.2661 16.1948 32.0519L20.5264 24.2607L21.6917 24.9087L17.9628 31.6163L19.913 31.4661C20.1842 31.4421 20.4419 31.5923 20.5619 31.8367L21.417 33.5736L24.3877 28.3016L25.5495 28.9559L21.9584 35.3292C21.8402 35.5372 21.6179 35.667 21.3779 35.667Z" fill="#101521"/>
<path d="M28.56 35.6662C28.3191 35.6662 28.0978 35.5365 27.9796 35.3267L22.8098 26.1658L23.9698 25.5089L28.5236 33.5738L29.3867 31.8325C29.5076 31.5889 29.7574 31.4342 30.0347 31.4636L32.0294 31.6165L28.2516 24.9178L29.4134 24.2627L33.8045 32.0494C33.9254 32.2636 33.9183 32.5276 33.7858 32.7347C33.6534 32.9418 33.4205 33.0645 33.1725 33.0414L30.3814 32.8262L29.1591 35.2938C29.0498 35.5151 28.8267 35.6574 28.5796 35.6645C28.5716 35.6662 28.5654 35.6662 28.56 35.6662Z" fill="#101521"/>
<path d="M24.9901 26.7782C24.0408 26.7782 23.0781 26.5604 22.175 26.1008C19.1181 24.5435 17.8977 20.7888 19.455 17.7319C21.0124 14.6742 24.7679 13.4555 27.8239 15.0119C28.2417 15.2253 28.6346 15.4839 28.9919 15.7826L28.1377 16.8057C27.8568 16.571 27.5466 16.3675 27.2177 16.1995C24.8177 14.9764 21.8675 15.9337 20.6444 18.3364C19.4204 20.739 20.3786 23.6884 22.7804 24.9115C25.183 26.1337 28.1324 25.1773 29.3555 22.7755C30.063 21.3862 30.0728 19.7862 29.3813 18.3862L30.5768 17.7959C31.4435 19.5506 31.431 21.6386 30.5439 23.3808C29.4461 25.5364 27.2568 26.7782 24.9901 26.7782Z" fill="#101521"/>
</svg>
