<svg width="12" height="18" viewBox="0 0 12 18" fill="none" xmlns="http://www.w3.org/2000/svg">
<path d="M9.81746 2.11499C9.12768 1.54768 8.31995 1.14151 7.4532 0.926123C6.58645 0.710734 5.68256 0.691557 4.80746 0.86999C3.64224 1.10536 2.5732 1.68155 1.73597 2.52545C0.89874 3.36936 0.33106 4.44294 0.104956 5.60999C-0.0601587 6.48503 -0.0301547 7.38573 0.192828 8.24784C0.41581 9.10995 0.826278 9.91224 1.39496 10.5975C1.92272 11.193 2.22523 11.9546 2.24996 12.75V15C2.24996 15.5967 2.48701 16.169 2.90897 16.591C3.33092 17.0129 3.90322 17.25 4.49996 17.25H7.49996C8.09669 17.25 8.66899 17.0129 9.09095 16.591C9.5129 16.169 9.74996 15.5967 9.74996 15V12.8925C9.77513 12.0144 10.0977 11.1708 10.665 10.5C11.6588 9.27058 12.1273 7.69861 11.9686 6.12571C11.8099 4.55281 11.0368 3.10611 9.81746 2.09999V2.11499ZM8.24996 15C8.24996 15.1989 8.17094 15.3897 8.03029 15.5303C7.88963 15.671 7.69887 15.75 7.49996 15.75H4.49996C4.30104 15.75 4.11028 15.671 3.96963 15.5303C3.82897 15.3897 3.74996 15.1989 3.74996 15V14.25H8.24996V15ZM9.50246 9.56999C8.74834 10.4644 8.30835 11.5815 8.24996 12.75H6.74996V10.5C6.74996 10.3011 6.67094 10.1103 6.53029 9.96966C6.38963 9.82901 6.19887 9.74999 5.99996 9.74999C5.80104 9.74999 5.61028 9.82901 5.46963 9.96966C5.32897 10.1103 5.24996 10.3011 5.24996 10.5V12.75H3.74996C3.73017 11.6011 3.30517 10.4961 2.54996 9.62999C2.05169 9.03299 1.71663 8.31706 1.57744 7.552C1.43825 6.78695 1.49969 5.99888 1.75577 5.26464C2.01185 4.5304 2.45382 3.87505 3.0386 3.36248C3.62337 2.84992 4.33099 2.49764 5.09246 2.33999C5.74687 2.20525 6.42308 2.21792 7.07198 2.37709C7.72089 2.53626 8.32621 2.83793 8.84399 3.2602C9.36178 3.68248 9.77903 4.21475 10.0655 4.81838C10.3519 5.42201 10.5003 6.08185 10.5 6.74999C10.5055 7.77739 10.1528 8.77459 9.50246 9.56999Z" fill="#333333"/>
</svg>
