<svg width="18" height="16" viewBox="0 0 18 16" fill="none" xmlns="http://www.w3.org/2000/svg">
<path fill-rule="evenodd" clip-rule="evenodd" d="M4.76662 0.56438C3.23214 0.843707 1.86175 1.89549 1.17002 3.32481C0.993393 3.68976 0.791937 4.34011 0.716834 4.78782C0.630095 5.30469 0.659592 6.33297 0.777695 6.91128C1.2024 8.99046 2.60707 11.171 4.67327 12.9586C5.8843 14.0063 7.3368 14.9295 8.45198 15.3603C8.93377 15.5465 9.08231 15.5465 9.56445 15.3607C11.5147 14.6089 13.8671 12.7655 15.3917 10.7942C16.0493 9.94388 16.7107 8.71437 17.0018 7.80112C17.276 6.94065 17.3319 6.5793 17.3333 5.65743C17.3345 4.93986 17.3242 4.80509 17.2427 4.46424C16.8129 2.66762 15.6078 1.31204 13.9363 0.745178C13.0155 0.432846 11.8979 0.418042 10.9643 0.705823C10.3795 0.886055 9.73369 1.23912 9.26415 1.63525C9.09931 1.77431 8.99868 1.83393 8.96864 1.81035C8.94358 1.79065 8.77902 1.66098 8.60297 1.52225C8.00802 1.0533 7.21492 0.700605 6.44454 0.562438C6.01879 0.486034 5.19156 0.487004 4.76662 0.56438ZM6.4538 2.3237C7.073 2.48723 7.66044 2.85967 8.0746 3.35122C8.59554 3.96953 8.72847 4.05281 9.11792 4.00505C9.36622 3.97455 9.53698 3.85875 9.74306 3.581C10.221 2.93692 10.8879 2.48946 11.661 2.29418C12.0547 2.19476 12.8081 2.20576 13.2109 2.31687C14.4165 2.64942 15.3105 3.58707 15.6246 4.84849C15.7162 5.21607 15.7185 6.00725 15.6293 6.48967C15.4259 7.59047 14.7866 8.86827 13.8803 9.98526C12.7435 11.3863 11.0603 12.7445 9.5132 13.5088C9.27081 13.6286 9.04312 13.7266 9.00724 13.7266C8.90443 13.7266 8.02199 13.2746 7.5602 12.9854C5.86916 11.9263 4.3167 10.4187 3.38791 8.93364C2.8939 8.14379 2.5301 7.25759 2.38732 6.49634C2.29155 5.98574 2.30078 5.18848 2.40725 4.77419C2.87495 2.95431 4.68681 1.85711 6.4538 2.3237Z" fill="#6D6D6D"/>
</svg>
