<svg width="169" height="31" viewBox="0 0 169 31" fill="none" xmlns="http://www.w3.org/2000/svg">
<path d="M158.397 14.3087C158.355 14.6777 159.073 14.8791 159.978 15.0707C158.483 15.5647 157.573 15.5542 156.702 15.054C156.495 14.9342 156.347 14.7987 156.308 14.6682C156.218 14.347 156.205 14.0239 156.156 13.6519C157.394 13.7861 158.435 13.9878 158.397 14.3087ZM144.271 18.87C141.712 18.9074 139.163 18.9842 136.609 19.0432C136.354 19.0491 136.063 19.0314 135.848 19.0586C132.949 19.4159 129.779 19.2627 126.763 19.4021C121.973 19.6242 117.181 19.8508 112.365 20.0276C109.414 20.1362 106.418 20.1569 103.438 20.2117C103.107 20.2176 102.711 20.2094 102.439 20.1661C100.513 19.8558 98.4777 19.6766 96.0906 19.8147C96.8549 19.4884 97.7618 19.3394 99.0249 19.2873C101.722 19.1767 104.436 19.0658 107.076 18.8851C110.127 18.6758 113.254 18.5521 116.281 18.3579C121.526 18.022 126.889 17.9768 132.135 17.6992C133.132 17.6471 134.177 17.6582 135.199 17.6454C137.756 17.6133 140.328 17.6195 142.868 17.5451C145.227 17.4752 147.364 17.6717 149.827 17.7347C148.593 18.435 146.99 18.8306 144.271 18.87ZM91.7388 12.0291C89.3441 12.5586 76.6073 12.5455 72.5844 12.0439C78.9688 12.1075 85.3544 11.9845 91.7388 12.0291ZM94.406 11.7811C98.4294 11.587 102.457 11.4039 106.49 11.2281C106.741 11.2176 107.042 11.2927 107.398 11.338C106.23 11.5522 97.2111 12.159 95.0835 12.1669C94.5696 12.1689 94.0538 12.1029 93.1452 12.0423C93.7954 11.9035 94.0678 11.7969 94.406 11.7811ZM43.1676 18.1372C41.9784 18.1339 40.9248 18.15 39.8852 18.125C38.0277 18.0801 36.1807 17.9827 34.3192 17.9561C31.2597 17.9115 27.412 17.2744 26.3485 16.5557C26.9929 16.5649 27.5675 16.5518 28.1024 16.5843C32.0921 16.8231 36.0911 17.0533 40.047 17.324C42.0372 17.4601 42.3323 17.5752 43.1676 18.1372ZM14.1717 14.3546C14.9901 14.3923 15.8068 14.43 17.0502 14.4871C15.3842 14.7076 15.3842 14.7076 14.1717 14.3546ZM16.4069 13.2619C16.5047 13.2229 16.6043 13.1845 16.7026 13.1461C17.2696 13.2429 17.8377 13.3396 18.4076 13.4364C18.2528 13.4873 18.1014 13.5375 17.9489 13.5886L16.4069 13.2619ZM18.2824 16.5469C18.6014 16.6492 18.602 16.8208 18.751 16.9602C18.2079 16.9979 17.6677 17.0668 17.1293 17.0645C16.6456 17.0622 16.1281 16.9989 15.6904 16.9323C14.358 16.7312 13.0314 16.5249 11.7572 16.3002C11.3904 16.2355 11.2082 16.0991 10.6582 15.8846C13.9802 15.8091 16.4389 15.9567 18.2824 16.5469ZM158.219 10.737C156.492 11.092 155.135 11.3705 153.827 11.6391C153.782 11.8251 153.744 11.9872 153.679 12.2424C151.984 11.8392 149.502 11.8871 148.564 11.1999C149.514 11.1707 150.156 11.1566 150.79 11.1303C151.457 11.1024 152.175 11.0946 152.767 11.0208C153.74 10.8997 154.293 10.4293 153.694 10.2633C152.931 10.0521 152.132 10.1751 151.385 10.2981C151.096 10.3463 150.838 10.41 150.531 10.4477C149.224 10.611 148.602 10.5572 147.768 10.2174C147.016 9.90872 146.35 9.61021 147.129 9.21295C147.35 9.10044 146.951 8.76519 146.796 8.76322C146.017 8.75403 145.098 8.76979 144.482 8.87837C144.031 8.95742 143.757 9.19787 143.797 9.35959C143.908 9.82376 142.943 10.0147 141.465 10.1111C140.885 10.1488 140.303 10.1853 139.715 10.2135C135.098 10.4382 130.487 10.6698 125.858 10.8761C124.588 10.9325 123.25 11.0568 121.622 10.8554C122.165 10.7518 122.447 10.6609 122.791 10.6389C125.105 10.49 127.433 10.3532 129.76 10.2171C130.844 10.1534 131.959 10.0275 133.013 10.0554C135.544 10.1213 137.457 9.78669 139.429 9.47407C139.786 9.41765 139.996 9.29628 140.274 9.20475C140.193 9.16211 140.112 9.11882 140.028 9.07585C139.155 9.11423 138.276 9.1444 137.409 9.19295C136.159 9.26315 134.93 9.36779 133.671 9.42126C126.341 9.73027 119.004 10.0327 111.667 10.3266C110.578 10.3703 109.458 10.3621 108.353 10.3716C107.762 10.3765 107.153 10.3424 106.582 10.3699C103.15 10.5389 99.7269 10.72 96.299 10.8974C95.8822 10.9197 95.4706 10.9509 95.0515 10.9719C92.8815 11.0785 90.7236 11.233 88.5379 11.2779C84.2991 11.3639 80.0451 11.3901 75.7952 11.4364C69.9592 11.4997 64.2209 11.2651 58.4925 11.0172C57.9255 10.9925 57.3277 10.9325 56.862 10.8466C54.625 10.4336 52.4747 9.9881 50.2011 9.59085C48.9798 9.37763 47.7912 9.09618 46.1049 9.11094C45.5985 9.45078 46.3988 9.61186 47.1928 9.73192C48.1469 9.87724 49.2412 9.95826 50.2046 10.1003C50.6347 10.1633 50.8961 10.3063 51.2343 10.4129C50.7436 10.4769 50.2721 10.5572 49.7564 10.5976C49.456 10.6212 49.073 10.5904 48.7476 10.5671C45.4622 10.3345 42.1187 10.1413 38.9189 9.84245C38.8764 9.83852 38.838 9.83098 38.7972 9.82704C37.1982 9.98549 35.5841 10.1318 33.9292 10.2535C28.0937 10.6826 22.1528 10.8499 16.205 11.0204C15.2963 11.067 14.3929 11.1146 13.4872 11.1638C10.1762 11.5177 6.93974 11.915 3.80981 12.3647C5.57065 12.4021 7.18771 12.5875 8.75879 12.7967C9.49747 12.8955 9.81703 13.0976 9.31468 13.3108C8.82921 13.5165 8.15923 13.4515 7.55211 13.3495C5.94843 13.0802 4.3564 12.8053 2.75913 12.5327C2.7696 12.5268 2.78067 12.5209 2.78998 12.5156C1.8499 12.6557 0.916218 12.7997 0 12.9506C0.335869 12.9988 0.655433 13.0572 0.939496 13.1471C1.42496 13.3003 2.00939 13.4673 2.68403 13.5375C5.63759 13.8455 7.52241 14.5298 10.0918 14.968C10.4667 15.032 10.7129 15.1481 11.2909 15.3213C8.43864 15.2764 6.19466 15.1166 4.17479 14.7509C3.68699 14.6623 3.18231 14.5524 2.63223 14.5245C2.22768 14.5035 1.55419 14.5678 1.33882 14.6541C1.13974 14.7322 1.25033 14.9175 1.48608 15.0071C1.81263 15.1307 2.3534 15.2226 2.85691 15.3039C4.82323 15.6218 6.81983 15.9259 8.78615 16.2437C9.28733 16.3248 9.87815 16.4143 10.1343 16.5406C10.3793 16.662 10.398 16.8536 10.2111 16.9825C10.0842 17.0681 9.40433 17.1508 8.99221 17.1445C6.39141 17.1042 3.79584 17.0389 1.16942 16.9818C2.1258 17.4634 3.71318 17.7429 5.50545 17.9797C7.33381 18.2208 8.90082 18.1979 10.4463 17.8236C10.948 17.7032 11.7863 17.5821 12.3876 17.6064C14.043 17.6737 15.5874 17.7868 17.0822 18.0735C19.3739 18.5138 21.8414 18.8818 24.994 18.9012C27.6635 18.9179 30.3161 19.18 32.967 19.3453C33.3506 19.3693 33.8273 19.4398 34.0014 19.5257C34.871 19.9565 36.4555 20.0555 38.0161 20.1815C40.3031 20.3662 42.5797 20.5568 44.8487 20.7549C45.9855 20.854 47.1072 20.9661 48.2097 21.0885C48.8861 21.164 49.3559 21.2893 48.9013 21.5819C47.6434 21.5271 46.6678 21.6163 45.8167 21.7649C64.9048 21.8325 83.9737 22.0913 103.054 22.2393C103.499 22.1248 103.937 22.0083 104.385 21.8948C105.103 21.7141 105.987 21.5425 106.912 21.4654C109.106 21.2834 111.444 21.2128 113.595 21.0035C118.231 20.5509 123.136 20.5322 127.911 20.3088C128.916 20.2619 129.929 20.2343 130.668 20.5187C131.249 20.7431 132 20.6312 132.703 20.5243C133.434 20.4137 134.154 20.2766 134.949 20.2228C138.524 19.9814 142.077 20.2743 145.645 20.2986C146.387 20.3038 147.078 20.5141 147.851 20.5899C148.381 20.6414 149.043 20.664 149.586 20.6309C151.749 20.4997 153.898 20.3531 156.028 20.1903C158.541 19.9981 160.899 19.7245 163.713 19.9591C166.175 20.1638 167.399 19.7701 166.915 19.0819C166.901 19.0616 166.946 19.0386 166.992 18.9832C167.192 18.9484 167.485 18.9048 167.747 18.8513C169 18.601 169.325 18.3159 168.67 18.0532C168.041 17.7993 166.948 17.8114 165.532 18.0801C164.503 18.2759 163.508 18.4934 162.387 18.643C161.889 18.7096 160.862 18.6998 160.515 18.6082C159.164 18.252 158.122 17.8249 158.469 17.2846C158.711 16.9103 159.161 16.5452 159.531 16.1608C162.315 16.0791 163.798 15.6671 164.437 14.9844C161.991 14.9634 161.133 14.683 161.685 14.0954C161.88 13.8862 162.129 13.7169 161.376 13.5457C161.152 13.4951 161.117 13.3534 161.165 13.259C161.372 12.8453 161.639 12.4339 161.933 11.9399C159.174 11.9786 158.368 11.4922 158.219 10.737Z" fill="url(#paint0_linear)"/>
<path fill-rule="evenodd" clip-rule="evenodd" d="M7.20093 0.268467C6.95885 0.412658 6.76056 0.80719 6.76056 1.14569C6.76056 1.48394 6.42085 2.79656 6.00565 4.0624C5.59044 5.32825 5.25073 6.7573 5.25073 7.23845C5.25073 7.71935 5.1302 8.23596 4.98299 8.38632C4.74192 8.63255 4.63673 9.46171 4.43417 12.7136C4.39894 13.279 4.2784 13.8864 4.16642 14.063C4.05444 14.2398 4.03331 14.5007 4.11937 14.6428C4.27991 14.9083 3.79551 16.634 3.43793 17.0701C3.32771 17.2043 3.23687 17.667 3.23612 18.0982C3.23536 18.5293 3.12061 19.3019 2.98121 19.8152C2.75901 20.632 2.56349 20.8081 1.40972 21.2303C0.225261 21.6637 0.084092 21.7966 0.0133816 22.5445C-0.107656 23.8242 0.527731 23.9941 4.60201 23.7713C8.30789 23.5688 8.37029 23.5351 7.66017 22.1322C7.46289 21.7426 7.00994 21.2882 6.65362 21.1224C5.91456 20.7785 5.88058 20.5569 6.35366 19.1685C6.79579 17.871 7.20395 17.6672 9.56029 17.5667C11.469 17.4855 11.5306 17.5019 12.0331 18.2224C12.8004 19.3232 12.6804 20.0102 11.5077 21.2309C10.3658 22.4193 10.3545 22.8218 11.4425 23.55C12.1937 24.0527 15.9459 24.309 16.2083 23.8756C16.2876 23.7443 16.5526 23.6371 16.7972 23.6371C17.0415 23.6371 17.5045 23.3513 17.8256 23.002C18.5662 22.197 18.265 21.7531 16.7068 21.3524C15.4041 21.0173 14.8125 20.2876 14.8143 19.0176C14.8153 18.125 14.3525 15.3478 13.6567 12.071C13.4614 11.1522 13.3022 10.1606 13.3024 9.8673C13.3029 9.57429 13.0349 8.41768 12.7073 7.29705C12.3721 6.15073 12.1632 4.90313 12.2299 4.44383C12.3703 3.47433 11.9453 1.98205 11.1997 0.828009C10.6904 0.0402295 10.5782 -0.00526376 9.15113 0.000390772C8.32072 0.00373209 7.44301 0.124276 7.20093 0.268467ZM94.4478 0.477171C93.6357 0.837519 93.2527 1.4644 93.4226 2.15503C93.5074 2.50098 93.7749 2.84257 94.0167 2.91428C94.2588 2.98599 94.9367 3.1713 95.5235 3.32603C96.3069 3.53268 96.6204 3.75886 96.7032 4.17678C96.8821 5.08125 97.1655 9.06384 97.091 9.62929C96.9963 10.3477 97.0321 19.5453 97.1375 21.6238C97.2336 23.5166 97.3655 23.7939 98.0316 23.5048C98.2797 23.3968 98.6808 23.2863 98.9231 23.2588C99.1652 23.2315 99.4398 23.1308 99.5334 23.0352C99.627 22.9396 99.9632 23.1102 100.28 23.4148C100.938 24.0458 102.897 24.336 103.893 23.9502C104.301 23.7924 104.722 23.7996 105.089 23.9705C105.724 24.2661 108.181 23.5847 109.008 22.8835C109.566 22.4098 110.971 19.8355 111.561 18.2036C111.892 17.2889 111.928 16.8882 111.717 16.4841C111.535 16.1369 111.527 15.9035 111.693 15.7984C112.098 15.5424 111.983 14.3213 111.472 13.4659C111.213 13.0315 110.816 12.0271 110.59 11.2339C110.285 10.1606 109.94 9.58971 109.244 9.00344C108.729 8.5701 108.114 8.21566 107.877 8.21566C107.64 8.21566 107.385 8.11645 107.312 7.99513C107.239 7.87382 106.387 7.57824 105.42 7.33818C104.124 7.01638 103.531 6.97295 103.165 7.17317C102.891 7.3225 102.419 7.44459 102.115 7.44459C101.811 7.44459 101.184 7.68285 100.723 7.97406L99.8839 8.50378L99.6866 7.78129C99.5782 7.38418 99.4893 5.65081 99.4893 3.92978V0.800508L98.8046 0.660686C97.3431 0.362024 94.9357 0.260756 94.4478 0.477171ZM140.687 0.648606C140.324 0.908201 140.129 1.31456 140.129 1.8083C140.129 2.9297 141.367 3.6653 142.926 3.46971C144.368 3.2885 144.641 3.57534 144.833 5.46653C144.955 6.67711 144.899 6.94159 144.419 7.43199C144.114 7.74351 143.732 7.94733 143.57 7.88487C143.407 7.82267 142.394 7.5605 141.318 7.30271C139.372 6.83595 139.354 6.83647 137.715 7.39549C136.547 7.79362 135.715 8.29868 134.854 9.13118C133.756 10.1924 133.589 10.5124 133.11 12.464C132.352 15.5496 132.406 17.0627 133.335 18.841C133.75 19.6358 134.09 20.4438 134.09 20.6364C134.09 21.3774 136.203 23.1179 138.064 23.909C139.673 24.593 140.118 24.6801 141.228 24.5269C142.002 24.42 142.953 24.052 143.602 23.6073C144.921 22.7034 145.084 22.6956 145.71 23.5086C146.146 24.0751 146.396 24.1512 147.826 24.1512C148.717 24.1512 149.643 24.044 149.883 23.9129C150.124 23.7818 150.519 23.6119 150.761 23.5353C151.252 23.3801 151.337 22.5769 150.941 21.821C150.767 21.4894 150.411 21.3226 149.871 21.32C147.901 21.3103 147.871 21.1458 147.835 10.369C147.815 4.45745 147.711 0.949325 147.549 0.784315C147.409 0.641152 145.933 0.462006 144.27 0.386441C141.786 0.273865 141.146 0.320643 140.687 0.648606ZM118.53 7.1377C116.51 7.82884 116.411 7.90003 115.825 9.0808C115.087 10.5679 115.055 11.6683 115.717 12.7778C116.17 13.5366 116.328 13.6132 117.444 13.6132C119.296 13.6132 119.998 12.9444 119.998 11.1802C119.998 9.67299 120.028 9.64343 121.834 9.36661C122.72 9.2309 123.157 9.29876 123.77 9.66733C125.158 10.5016 125.98 12.4129 125.219 13.0377C125.046 13.1798 124.29 13.4286 123.538 13.5906C122.786 13.7525 122.023 14.0103 121.842 14.164C121.661 14.3174 120.577 14.4706 119.433 14.5045C116.649 14.5868 115.526 15.1576 114.783 16.8676C113.701 19.3587 113.945 21.3445 115.507 22.7581C117.22 24.309 122.088 24.218 125.196 22.5769C125.65 22.3376 125.883 22.4016 126.604 22.9637C127.649 23.7777 128.713 23.8268 130.063 23.1231C130.826 22.7257 131.118 22.3774 131.349 21.5891C131.883 19.7697 130.738 19.1626 129.421 20.5665L128.685 21.3514L128.383 18.96C128.216 17.6451 128.087 15.3967 128.094 13.964C128.102 12.5311 127.969 10.9118 127.798 10.3657C127.14 8.26115 124.904 6.737 122.178 6.53523C120.942 6.44373 120.201 6.56608 118.53 7.1377ZM69.796 7.0683C69.3808 7.26261 68.7889 7.42659 68.4807 7.43302C68.1722 7.43945 67.2922 7.79157 66.5247 8.21566C65.7572 8.63975 64.9904 8.98596 64.8203 8.98519C64.6505 8.98416 64.3186 8.63718 64.083 8.21412C63.6034 7.35309 63.4597 7.32481 60.1079 7.43225C58.9315 7.47003 57.8276 7.61808 57.6544 7.76124C57.4816 7.9044 57.3399 8.35162 57.3399 8.75515C57.3399 9.79867 58.234 10.3297 59.8439 10.2426C60.545 10.2045 61.2327 10.2898 61.3724 10.4325C61.658 10.7242 61.9854 19.5175 61.74 20.3074C61.5241 21.0021 60.3387 21.5809 59.1321 21.5809C58.3507 21.5809 58.017 21.7292 57.6099 22.2582C56.9423 23.1249 56.9534 23.2781 57.7226 23.7926C58.2533 24.1481 58.5712 24.174 59.6723 23.9515C60.396 23.8055 61.1014 23.7597 61.24 23.8504C61.3784 23.9409 62.5959 24.043 63.9454 24.0774C66.2877 24.1373 66.3989 24.1157 66.3989 23.6017C66.3989 23.1817 66.5096 23.0979 66.9022 23.2215C67.179 23.3089 67.6037 23.4395 67.8458 23.5119C68.4865 23.7037 68.8662 23.3508 68.9593 22.4772C69.0177 21.9289 68.9331 21.7094 68.6636 21.7094C68.456 21.7094 68.2072 21.5133 68.1108 21.2738C67.9764 20.9404 67.641 20.8453 66.6779 20.8677C64.998 20.9067 64.541 20.5042 64.7232 19.1469C64.8 18.5745 64.7491 17.5899 64.6102 16.9581C64.3792 15.9087 64.4288 15.6604 65.1872 14.0666C65.6437 13.1079 66.195 12.2656 66.4127 12.1952C66.6304 12.1245 67.2406 11.6624 67.7693 11.1678C68.9696 10.0446 70.1732 9.9773 70.174 11.0334C70.174 11.392 70.3722 12.0903 70.6143 12.5851C71.032 13.4392 71.1324 13.4911 72.6038 13.6132L74.1534 13.7417L74.7216 12.6791L75.2895 11.6169L74.712 10.0395C74.0691 8.28377 73.1712 7.3482 71.7384 6.94185C70.6372 6.62956 70.7502 6.62211 69.796 7.0683ZM83.8877 7.08218C81.5664 7.64584 80.9617 7.8805 79.8306 8.65671C79.1215 9.14326 78.3945 9.82129 78.2153 10.1636C78.0359 10.506 77.7951 10.7859 77.6801 10.7859C77.5651 10.7859 77.471 11.0213 77.471 11.3089C77.471 11.5968 77.3147 12.0882 77.1235 12.4013C76.6612 13.1585 76.3947 14.3842 76.6924 14.3842C76.827 14.3842 76.8613 14.8011 76.7717 15.3481C76.3922 17.6616 76.5472 18.6275 77.5329 20.0892C78.1006 20.9312 78.898 21.7213 79.545 22.0832C80.1343 22.4127 80.8995 22.9365 81.2455 23.247C82.1766 24.0825 85.1598 25.0014 85.802 24.6506C86.0803 24.4984 86.6505 24.4509 87.0695 24.5449C87.6825 24.6824 88.0725 24.5478 89.0672 23.8551C89.7471 23.3819 90.3038 22.8529 90.304 22.68C90.3043 22.5067 90.6161 22.2001 90.9965 21.9981C91.377 21.7963 91.9213 21.3018 92.2059 20.899C92.8496 19.9881 93.5195 16.0906 93.1171 15.5956C92.9477 15.3872 92.9352 15.1286 93.0831 14.8896C93.4762 14.255 93.3561 13.5548 92.5554 11.814C91.7608 10.0863 91.0111 9.25943 90.2305 9.24941C89.9417 9.24581 89.8058 9.08183 89.8531 8.79396C90.0197 7.78052 85.8908 6.59563 83.8877 7.08218ZM159.351 7.1963C156.783 7.716 156.262 7.97406 154.803 9.45015C153.192 11.081 152.62 12.3311 152.664 14.1272C152.679 14.7634 152.575 15.8179 152.432 16.471C152.226 17.4166 152.253 17.8525 152.564 18.6141C153.162 20.0737 154.394 21.5144 155.691 22.2695C156.336 22.6447 157.089 23.1542 157.366 23.4017C157.643 23.6495 158.58 24.0951 159.449 24.3923C160.688 24.8161 161.142 24.8708 161.552 24.647C161.839 24.4897 162.44 24.4313 162.888 24.5169C163.902 24.7115 165.056 23.9707 167.117 21.8017C168.285 20.5726 168.564 20.1159 168.564 19.4307C168.564 18.9642 168.644 18.5007 168.742 18.401C168.839 18.301 168.948 17.101 168.984 15.7336C169.04 13.5384 168.973 13.077 168.406 11.7857C167.767 10.333 166.836 9.24376 166.231 9.24376C166.057 9.24376 165.804 8.98365 165.667 8.66571C165.123 7.40063 161.968 6.66657 159.351 7.1963ZM10.1383 10.0644C10.3306 11.2786 10.6119 12.5085 10.7634 12.7971C11.173 13.5795 11.1079 13.7805 10.3464 14.0799C8.14357 14.9461 7.34537 14.6048 7.6116 12.91C7.69515 12.3779 7.87155 11.0751 8.00341 10.0148C8.13526 8.9546 8.24926 8.06658 8.2568 8.04114C8.26435 8.01595 8.45636 7.80545 8.68384 7.5731C9.3469 6.89558 9.74374 7.57515 10.1383 10.0644ZM20.1983 7.93345C17.233 8.23031 17.0065 9.81589 19.8458 10.4037C21.5144 10.7491 21.6591 11.0699 21.5836 14.2514C21.5466 15.8089 21.5964 17.9505 21.694 19.0107C21.7917 20.0709 21.7839 22.6047 21.6764 24.6411L21.4814 28.3437L19.8458 28.882C18.0591 29.4698 17.6487 30.0568 18.6354 30.6125C19.3576 31.0194 26.1111 31.1553 26.5771 30.7724C27.5197 29.9977 26.4669 28.5206 24.9719 28.5206C24.2426 28.5206 24.1349 28.4126 23.7683 27.3141C23.4985 26.5053 23.4492 26.0223 23.6188 25.8491C23.758 25.7069 23.872 25.1651 23.872 24.6452C23.872 23.1752 24.2527 23.055 26.2077 23.907C27.7887 24.5958 28.0368 24.6333 29.6488 24.4267C30.6041 24.3041 31.5354 24.1124 31.7181 24.0008C32.5701 23.4801 33.6859 22.4515 33.6859 22.1867C33.6859 22.0251 33.8504 21.8284 34.0515 21.7498C34.6461 21.5167 35.4808 19.5348 35.8502 17.4788C36.2096 15.4789 36.0317 14.2634 35.0347 11.9037C34.8464 11.4583 34.6894 10.9378 34.6854 10.7471C34.6736 10.1559 33.3532 9.03814 31.8205 8.3213C30.0683 7.5019 28.7339 7.55459 25.9201 8.55416C24.2079 9.16228 24.1035 9.17128 23.8735 8.73228C23.6586 8.32258 22.2839 7.6371 21.8843 7.74068C21.801 7.76227 21.0426 7.84914 20.1983 7.93345ZM39.2438 7.94964C37.6069 8.1478 36.8492 8.65723 37.1197 9.37715C37.2637 9.76063 38.9849 10.5289 39.6995 10.5289C40.6613 10.5289 40.8045 11.1493 40.9021 15.7426C41.0315 21.839 40.9693 26.8659 40.7547 27.6863C40.6049 28.2579 40.3178 28.4507 39.044 28.8336C37.3402 29.3461 36.9952 29.7857 37.7491 30.4824C38.1847 30.8849 38.7619 30.9561 41.8719 30.9906C45.0733 31.0261 45.5355 30.9772 45.9007 30.565C46.7233 29.6368 45.7399 28.5206 44.0997 28.5206C43.1452 28.5206 42.6895 27.1879 42.958 25.1816C43.0732 24.3208 43.2705 23.5119 43.3966 23.3842C43.5332 23.2454 44.3095 23.4467 45.3234 23.8841C46.7806 24.5128 47.2442 24.5968 48.5947 24.4771C50.6098 24.2984 51.7263 23.7147 52.9355 22.2078C54.3014 20.5053 54.7553 19.4821 55.1147 17.2981C55.3889 15.6311 55.3759 15.2484 55.01 14.2403C54.78 13.6065 54.6491 12.9354 54.7191 12.7491C54.789 12.5627 54.6715 12.262 54.4576 12.0808C54.2435 11.8993 54.0686 11.4858 54.0686 11.1619C54.0686 10.3649 52.0995 8.62381 50.6126 8.10642C48.9847 7.53994 47.9628 7.60497 45.5833 8.42745L43.5149 9.14249L42.9411 8.55673C42.2398 7.84092 41.3498 7.69467 39.2438 7.94964ZM28.9948 10.3924C29.9199 10.2508 30.1823 10.3217 30.8461 10.8921C31.2714 11.2578 31.7166 11.5608 31.8348 11.5657C31.9533 11.5706 32.4327 12.4314 32.9003 13.4785C33.5432 14.9189 33.7058 15.5581 33.5674 16.104C33.4667 16.5011 33.3565 17.173 33.3228 17.597C33.2032 19.0914 32.168 20.7124 30.7684 21.5958C30.0487 22.0503 29.6946 22.105 28.4677 21.9526C26.7517 21.7395 26.019 21.3918 25.0169 20.3151C24.3126 19.5587 24.2708 19.3893 24.2049 17.0203C24.1128 13.7108 24.3924 12.7326 25.8436 11.2886C26.7517 10.3852 27.1194 10.1703 27.4674 10.3392C27.715 10.4592 28.4022 10.4831 28.9948 10.3924ZM48.2094 10.386C49.0021 10.2598 49.3619 10.3708 50.3569 11.0483C51.0145 11.4961 51.5522 12.0104 51.5522 12.1913C51.5522 12.3723 51.8391 13.0444 52.1896 13.6851C52.5401 14.3256 52.825 15.179 52.8227 15.5809C52.8152 16.9547 52.5084 18.7537 52.2817 18.7537C52.1574 18.7537 52.0555 18.9726 52.0555 19.2402C52.0555 19.5078 51.8856 19.7933 51.678 19.8748C51.4704 19.956 51.2981 20.1709 51.2953 20.3521C51.2923 20.533 50.8247 21.0175 50.2563 21.4288C49.2361 22.1662 49.1991 22.1723 47.4505 21.8958C45.6457 21.6105 44.7716 21.1422 43.9537 20.0228C43.5806 19.5121 43.4912 18.8737 43.4703 16.569C43.4557 14.9438 43.5707 13.414 43.7408 12.9706C44.1822 11.8212 46.2789 10.0089 46.8254 10.3045C47.063 10.4328 47.6858 10.4695 48.2094 10.386ZM105.78 10.3407C106.334 10.5158 107.135 11.0234 107.561 11.4691C108.437 12.3851 109.312 14.4673 109.023 14.9461C108.917 15.1204 108.86 15.7442 108.895 16.3325C108.976 17.6672 108.398 19.1271 107.626 19.5417C107.303 19.7152 106.667 20.1871 106.212 20.5906C105.298 21.401 103.68 21.6051 103.167 20.9743C103.008 20.7782 102.613 20.6775 102.267 20.7451C101.292 20.9355 100.318 19.9699 99.9184 18.4159C99.5749 17.0804 99.7231 15.3016 100.404 12.5851C100.975 10.3078 103.001 9.46223 105.78 10.3407ZM142.418 10.6736C143.942 11.3889 144.023 11.4549 144.469 12.3473C145.023 13.4543 145.03 15.1995 144.491 17.4156C144.164 18.7603 143.857 19.36 143.097 20.1436C142.179 21.0887 142.029 21.1496 140.559 21.1717C138.461 21.2034 137.29 20.4431 136.708 18.6712C136.485 17.9895 136.141 17.3688 135.944 17.2917C135.67 17.184 135.654 17.0689 135.876 16.7954C136.037 16.597 136.1 16.1042 136.017 15.6838C135.789 14.5176 136.51 12.4432 137.492 11.44C138.218 10.699 138.572 10.5407 139.684 10.4615C140.413 10.4096 141.134 10.3456 141.285 10.3194C141.437 10.2932 141.947 10.4528 142.418 10.6736ZM88.0841 11.1532C88.8639 11.486 89.0242 11.7181 89.3873 13.0395C89.615 13.8684 89.8012 14.8502 89.8012 15.2214C89.8012 15.5925 89.9147 15.9678 90.0536 16.0554C90.2222 16.1618 90.2222 16.3744 90.0536 16.6962C89.9147 16.9609 89.8012 17.423 89.8012 17.723C89.8012 18.0502 89.1923 18.8786 88.2773 19.7959C86.7642 21.3128 86.7426 21.3239 85.2702 21.3239C84.0485 21.3239 83.5966 21.192 82.705 20.5762C80.5465 19.0847 79.7395 17.7202 79.7372 15.5578C79.7352 13.526 80.4476 12.0299 81.8336 11.1558C82.806 10.5422 83.036 10.5047 85.038 10.6343C86.2245 10.7111 87.5951 10.9445 88.0841 11.1532ZM163.882 11.1434C164.57 11.4369 164.807 11.7449 165.121 12.7527C165.771 14.8387 166.029 16.5096 165.777 16.9912C165.649 17.2352 165.544 17.6639 165.544 17.944C165.544 18.2268 164.901 19.0893 164.097 19.8833C162.677 21.2869 162.623 21.3136 161.17 21.3188C159.448 21.3247 158.388 20.7926 156.926 19.188C154.642 16.6813 155.087 12.8154 157.869 10.9874C158.52 10.56 158.928 10.5117 160.828 10.6361C162.04 10.7155 163.414 10.944 163.882 11.1434ZM125.786 16.9208C125.786 18.2949 125.695 18.545 124.777 19.7229C123.934 20.8047 123.562 21.0674 122.502 21.327C120.061 21.9251 116.971 20.9875 116.773 19.5885C116.632 18.5902 118.295 17.1904 120.09 16.7969C120.939 16.6108 122.03 16.4515 122.514 16.4428C122.999 16.434 123.848 16.2081 124.402 15.9405C124.955 15.673 125.493 15.4445 125.597 15.4332C125.701 15.4216 125.786 16.0911 125.786 16.9208Z" fill="#101521"/>
<defs>
<linearGradient id="paint0_linear" x1="0" y1="22.2393" x2="2.13628" y2="-4.54689" gradientUnits="userSpaceOnUse">
<stop offset="0.0625" stop-color="#F6FA00"/>
<stop offset="0.880208" stop-color="#FFE835"/>
</linearGradient>
</defs>
</svg>
