<svg width="255" height="46" viewBox="0 0 255 46" fill="none" xmlns="http://www.w3.org/2000/svg">
<path d="M239.002 21.232C238.938 21.7796 240.022 22.0785 241.388 22.3628C239.131 23.0958 237.758 23.0803 236.444 22.3379C236.132 22.1603 235.909 21.9592 235.85 21.7655C235.713 21.289 235.694 20.8095 235.62 20.2575C237.488 20.4566 239.059 20.756 239.002 21.232ZM217.686 28.0005C213.826 28.056 209.979 28.1699 206.126 28.2575C205.741 28.2662 205.302 28.2399 204.977 28.2804C200.604 28.8104 195.821 28.5831 191.27 28.79C184.043 29.1195 176.812 29.4559 169.545 29.7182C165.091 29.8794 160.571 29.91 156.076 29.9913C155.576 30.0001 154.978 29.9879 154.568 29.9237C151.662 29.4632 148.591 29.1974 144.989 29.4023C146.142 28.918 147.51 28.697 149.416 28.6196C153.486 28.4556 157.58 28.2911 161.564 28.0229C166.167 27.7123 170.886 27.5288 175.453 27.2406C183.367 26.7422 191.46 26.675 199.375 26.2632C200.88 26.1858 202.456 26.2024 203.999 26.1834C207.857 26.1357 211.738 26.1449 215.57 26.0344C219.129 25.9307 222.354 26.2223 226.07 26.3158C224.208 27.355 221.79 27.942 217.686 28.0005ZM138.423 17.8495C134.809 18.6351 115.591 18.6157 109.521 17.8714C119.154 17.9658 128.789 17.7833 138.423 17.8495ZM142.447 17.4815C148.518 17.1934 154.595 16.9217 160.681 16.6608C161.058 16.6453 161.513 16.7567 162.05 16.8239C160.288 17.1418 146.679 18.0423 143.469 18.0539C142.694 18.0569 141.916 17.959 140.544 17.869C141.526 17.6631 141.937 17.5049 142.447 17.4815ZM65.1346 26.913C63.3402 26.9082 61.7504 26.932 60.1818 26.895C57.3791 26.8283 54.5922 26.6838 51.7834 26.6443C47.167 26.5781 41.3613 25.6328 39.7567 24.5663C40.729 24.58 41.5959 24.5605 42.403 24.6087C48.423 24.9631 54.4569 25.3048 60.4259 25.7063C63.4289 25.9083 63.8742 26.0792 65.1346 26.913ZM21.3833 21.3002C22.6182 21.3561 23.8505 21.4121 25.7266 21.4968C23.2128 21.8239 23.2128 21.8239 21.3833 21.3002ZM24.756 19.6788C24.9036 19.6208 25.0538 19.5639 25.2022 19.5069C26.0577 19.6505 26.9149 19.7941 27.7748 19.9377C27.5412 20.0132 27.3128 20.0876 27.0827 20.1636L24.756 19.6788ZM27.5859 24.5532C28.0673 24.7051 28.0681 24.9597 28.293 25.1665C27.4735 25.2225 26.6584 25.3247 25.846 25.3213C25.1161 25.3179 24.3353 25.224 23.6748 25.1252C21.6644 24.8268 19.6627 24.5206 17.7401 24.1872C17.1868 24.0913 16.9118 23.8888 16.0818 23.5704C21.0944 23.4585 24.8043 23.6775 27.5859 24.5532ZM238.733 15.9322C236.127 16.4588 234.079 16.8721 232.106 17.2708C232.038 17.5467 231.98 17.7872 231.883 18.1659C229.325 17.5677 225.58 17.6387 224.164 16.619C225.598 16.5756 226.566 16.5547 227.523 16.5158C228.53 16.4744 229.614 16.4627 230.507 16.3532C231.974 16.1736 232.808 15.4756 231.905 15.2293C230.754 14.9158 229.548 15.0983 228.421 15.2809C227.985 15.3524 227.596 15.4468 227.133 15.5028C225.16 15.7452 224.222 15.6654 222.964 15.1611C221.829 14.7031 220.824 14.2601 222 13.6706C222.333 13.5037 221.73 13.0062 221.497 13.0033C220.322 12.9897 218.935 13.013 218.005 13.1742C217.325 13.2915 216.912 13.6483 216.972 13.8882C217.139 14.577 215.683 14.8603 213.453 15.0034C212.578 15.0594 211.7 15.1134 210.813 15.1553C203.846 15.4887 196.888 15.8324 189.905 16.1385C187.988 16.2223 185.969 16.4067 183.513 16.1079C184.332 15.9541 184.758 15.8192 185.276 15.7866C188.768 15.5656 192.281 15.3626 195.792 15.1606C197.427 15.0662 199.11 14.8793 200.701 14.9207C204.519 15.0185 207.405 14.522 210.382 14.0581C210.919 13.9744 211.237 13.7943 211.656 13.6585C211.534 13.5952 211.411 13.531 211.285 13.4672C209.968 13.5241 208.642 13.5689 207.333 13.641C205.446 13.7451 203.592 13.9004 201.692 13.9797C190.634 14.4383 179.563 14.8871 168.491 15.3232C166.848 15.388 165.159 15.3758 163.491 15.3899C162.599 15.3972 161.681 15.3466 160.818 15.3875C155.64 15.6381 150.476 15.9068 145.303 16.1702C144.674 16.2033 144.053 16.2495 143.421 16.2807C140.147 16.4389 136.891 16.6681 133.593 16.7348C127.197 16.8624 120.778 16.9013 114.366 16.9699C105.56 17.0639 96.9013 16.7158 88.2578 16.3478C87.4024 16.3113 86.5003 16.2223 85.7977 16.0947C82.4223 15.4819 79.1778 14.8209 75.7472 14.2314C73.9045 13.915 72.111 13.4974 69.5665 13.5193C68.8024 14.0236 70.0101 14.2626 71.2081 14.4407C72.6476 14.6564 74.2988 14.7766 75.7524 14.9874C76.4015 15.0808 76.7959 15.293 77.3062 15.4512C76.5658 15.5461 75.8543 15.6654 75.0762 15.7253C74.623 15.7603 74.045 15.7146 73.554 15.68C68.5969 15.3349 63.5518 15.0482 58.7238 14.6047C58.6597 14.5989 58.6017 14.5877 58.5402 14.5819C56.1275 14.817 53.692 15.0341 51.1949 15.2147C42.3899 15.8514 33.4258 16.0996 24.4513 16.3527C23.0802 16.4218 21.7171 16.4924 20.3504 16.5654C15.3546 17.0907 10.4712 17.6801 5.74853 18.3475C8.40542 18.403 10.8454 18.678 13.2159 18.9885C14.3305 19.135 14.8127 19.4349 14.0547 19.7513C13.3222 20.0565 12.3113 19.9601 11.3952 19.8087C8.97545 19.4091 6.57326 19.0012 4.16318 18.5967C4.17899 18.5879 4.19568 18.5792 4.20973 18.5714C2.79126 18.7792 1.38246 18.9929 0 19.2168C0.506785 19.2884 0.988967 19.375 1.41758 19.5084C2.15009 19.7357 3.03191 19.9835 4.04987 20.0876C8.50642 20.5447 11.3504 21.5601 15.2272 22.2104C15.7929 22.3053 16.1644 22.4777 17.0366 22.7347C12.7329 22.668 9.34697 22.4309 6.29923 21.8882C5.56321 21.7568 4.80172 21.5937 3.97171 21.5523C3.36129 21.5212 2.34509 21.6166 2.02011 21.7446C1.71973 21.8604 1.88659 22.1355 2.24231 22.2683C2.73504 22.4519 3.55099 22.5881 4.31073 22.7089C7.27766 23.1805 10.2903 23.6318 13.2572 24.1034C14.0134 24.2237 14.9049 24.3566 15.2914 24.544C15.6611 24.7241 15.6892 25.0083 15.4073 25.1996C15.2158 25.3267 14.19 25.4493 13.5681 25.4401C9.64384 25.3802 5.72744 25.2833 1.76451 25.1987C3.20757 25.9132 5.60272 26.3279 8.30704 26.6794C11.0658 27.0372 13.4302 27.0031 15.7621 26.4477C16.5192 26.269 17.784 26.0894 18.6913 26.1255C21.1892 26.2252 23.5194 26.3932 25.7749 26.8186C29.2328 27.4718 32.956 28.018 37.7129 28.0467C41.7408 28.0715 45.7432 28.4605 49.7431 28.7058C50.3219 28.7413 51.0412 28.846 51.3038 28.9735C52.616 29.6126 55.0068 29.7596 57.3615 29.9465C60.8124 30.2206 64.2475 30.5034 67.6711 30.7974C69.3865 30.9444 71.0789 31.1109 72.7425 31.2924C73.7631 31.4044 74.4719 31.5903 73.7859 32.0245C71.8879 31.9432 70.4158 32.0756 69.1317 32.2961C97.9333 32.3964 126.706 32.7805 155.495 33C156.167 32.8301 156.828 32.6573 157.505 32.4889C158.587 32.2207 159.921 31.9661 161.317 31.8517C164.627 31.5816 168.156 31.4769 171.4 31.1664C178.395 30.4946 185.797 30.4669 193.002 30.1354C194.518 30.0658 196.047 30.0249 197.162 30.4469C198.039 30.7799 199.172 30.6139 200.232 30.4552C201.335 30.2912 202.421 30.0877 203.621 30.0079C209.016 29.6496 214.377 30.0843 219.76 30.1203C220.879 30.1281 221.923 30.4401 223.088 30.5526C223.888 30.629 224.888 30.6626 225.706 30.6134C228.971 30.4187 232.213 30.2011 235.427 29.9597C239.219 29.6744 242.776 29.2685 247.023 29.6165C250.737 29.9203 252.584 29.3361 251.854 28.3149C251.832 28.2847 251.9 28.2507 251.97 28.1684C252.272 28.1168 252.713 28.0521 253.11 27.9727C255 27.6013 255.49 27.1783 254.502 26.7884C253.553 26.4117 251.904 26.4297 249.768 26.8283C248.215 27.1189 246.714 27.4417 245.022 27.6636C244.271 27.7624 242.72 27.7478 242.197 27.612C240.158 27.0834 238.587 26.4496 239.11 25.6479C239.475 25.0925 240.154 24.5508 240.713 23.9803C244.913 23.8591 247.151 23.2477 248.115 22.2348C244.425 22.2036 243.129 21.7874 243.962 20.9156C244.257 20.6051 244.632 20.3539 243.496 20.0998C243.158 20.0249 243.106 19.8146 243.178 19.6744C243.49 19.0606 243.893 18.4502 244.336 17.7171C240.174 17.7745 238.957 17.0527 238.733 15.9322Z" fill="url(#paint0_linear)"/>
<path fill-rule="evenodd" clip-rule="evenodd" d="M10.8653 0.398371C10.5 0.612331 10.2008 1.19777 10.2008 1.70006C10.2008 2.20197 9.68827 4.14973 9.06178 6.02808C8.43529 7.90643 7.9227 10.027 7.9227 10.7409C7.9227 11.4545 7.74083 12.2211 7.51871 12.4442C7.15497 12.8096 6.99626 14.04 6.6906 18.8653C6.63745 19.7044 6.45558 20.6056 6.28661 20.8676C6.11765 21.13 6.08576 21.5171 6.21561 21.728C6.45785 22.122 5.72695 24.6827 5.18741 25.3299C5.0211 25.529 4.88403 26.2155 4.8829 26.8555C4.88176 27.4951 4.70862 28.6415 4.49827 29.4031C4.163 30.6152 3.86798 30.8765 2.1271 31.5031C0.339891 32.1461 0.126884 32.3433 0.0201912 33.4531C-0.16244 35.3521 0.79628 35.6042 6.94386 35.2735C12.5356 34.973 12.6297 34.923 11.5582 32.8414C11.2606 32.2632 10.5771 31.5889 10.0395 31.3429C8.92433 30.8326 8.87307 30.5038 9.58689 28.4436C10.254 26.5183 10.8699 26.2159 14.4253 26.0667C17.3053 25.9462 17.3983 25.9706 18.1565 27.0397C19.3142 28.6732 19.1331 29.6926 17.3637 31.5039C15.6407 33.2674 15.6236 33.8647 17.2654 34.9451C18.3988 35.6911 24.0603 36.0714 24.4564 35.4284C24.576 35.2335 24.9758 35.0744 25.3448 35.0744C25.7135 35.0744 26.4121 34.6503 26.8966 34.132C28.0141 32.9375 27.5596 32.2788 25.2085 31.6842C23.2429 31.1869 22.3502 30.1041 22.3529 28.2197C22.3544 26.8951 21.6561 22.7742 20.6063 17.9118C20.3116 16.5484 20.0713 15.077 20.0717 14.6418C20.0724 14.207 19.6681 12.4908 19.1737 10.8279C18.668 9.12688 18.3528 7.27561 18.4534 6.59407C18.6653 5.15546 18.024 2.9411 16.899 1.22866C16.1305 0.0596954 15.9611 -0.00781074 13.8079 0.000579856C12.5549 0.00553794 11.2306 0.18441 10.8653 0.398371ZM142.51 0.70806C141.285 1.24277 140.707 2.17298 140.963 3.19778C141.091 3.71113 141.495 4.218 141.86 4.32441C142.225 4.43082 143.248 4.7058 144.133 4.9354C145.315 5.24203 145.788 5.57766 145.913 6.1978C146.183 7.53991 146.611 13.4496 146.498 14.2886C146.355 15.3546 146.409 29.0027 146.568 32.087C146.713 34.8956 146.912 35.3071 147.917 34.878C148.292 34.7178 148.897 34.5538 149.263 34.513C149.628 34.4726 150.042 34.3231 150.183 34.1812C150.325 34.0393 150.832 34.2926 151.31 34.7445C152.303 35.6808 155.258 36.1114 156.762 35.539C157.377 35.3048 158.012 35.3155 158.566 35.5691C159.525 36.0077 163.231 34.9966 164.479 33.9562C165.322 33.2533 167.442 29.4333 168.332 27.0118C168.831 25.6545 168.886 25.0599 168.567 24.4603C168.292 23.9451 168.28 23.5988 168.531 23.4428C169.143 23.0629 168.968 21.2509 168.198 19.9816C167.806 19.3371 167.207 17.8466 166.867 16.6697C166.406 15.077 165.886 14.2299 164.835 13.3599C164.059 12.7169 163.13 12.191 162.773 12.191C162.415 12.191 162.031 12.0438 161.921 11.8637C161.81 11.6837 160.525 11.2451 159.066 10.8889C157.11 10.4114 156.215 10.347 155.663 10.6441C155.25 10.8656 154.538 11.0468 154.079 11.0468C153.62 11.0468 152.675 11.4004 151.978 11.8325L150.712 12.6185L150.415 11.5464C150.251 10.9572 150.117 8.38508 150.117 5.83128V1.18785L149.084 0.980373C146.879 0.537197 143.246 0.386929 142.51 0.70806ZM212.28 0.962448C211.732 1.34765 211.437 1.95063 211.437 2.68328C211.437 4.34729 213.306 5.43883 215.657 5.14859C217.833 4.87971 218.246 5.30535 218.534 8.11162C218.719 9.90797 218.635 10.3004 217.91 11.0281C217.45 11.4904 216.874 11.7928 216.629 11.7001C216.384 11.6078 214.855 11.2188 213.232 10.8363C210.295 10.1437 210.268 10.1444 207.795 10.974C206.033 11.5647 204.777 12.3142 203.478 13.5495C201.822 15.1243 201.569 15.5991 200.846 18.495C199.703 23.0736 199.784 25.3188 201.185 27.9577C201.812 29.1369 202.325 30.336 202.325 30.6217C202.325 31.7212 205.514 34.304 208.322 35.4779C210.749 36.4928 211.421 36.6221 213.095 36.3948C214.264 36.2361 215.698 35.69 216.677 35.0302C218.668 33.6888 218.914 33.6774 219.858 34.8837C220.517 35.7243 220.894 35.8372 223.05 35.8372C224.396 35.8372 225.793 35.6782 226.155 35.4837C226.518 35.2892 227.114 35.0371 227.479 34.9234C228.221 34.693 228.348 33.5012 227.751 32.3795C227.488 31.8875 226.951 31.64 226.137 31.6362C223.164 31.6217 223.118 31.3776 223.064 15.3863C223.035 6.61428 222.877 1.40868 222.633 1.16382C222.422 0.951387 220.195 0.685558 217.685 0.573429C213.938 0.40638 212.971 0.475793 212.28 0.962448ZM178.847 10.5914C175.799 11.617 175.65 11.7226 174.765 13.4747C173.652 15.6815 173.604 17.3142 174.603 18.9607C175.286 20.0865 175.525 20.2002 177.208 20.2002C180.003 20.2002 181.062 19.2078 181.062 16.5899C181.062 14.3535 181.107 14.3096 183.832 13.8988C185.17 13.6975 185.829 13.7982 186.754 14.3451C188.848 15.5831 190.087 18.4191 188.94 19.3463C188.68 19.5572 187.538 19.9263 186.403 20.1666C185.269 20.4069 184.118 20.7894 183.844 21.0175C183.571 21.2452 181.936 21.4725 180.21 21.5228C176.009 21.6449 174.315 22.492 173.194 25.0294C171.561 28.7258 171.929 31.6724 174.286 33.7701C176.871 36.0714 184.216 35.9364 188.906 33.5012C189.59 33.1461 189.941 33.2411 191.03 34.0752C192.607 35.2831 194.212 35.3559 196.249 34.3116C197.4 33.722 197.84 33.2052 198.189 32.0355C198.995 29.3356 197.268 28.4348 195.281 30.518L194.17 31.6827L193.714 28.1343C193.463 26.1831 193.267 22.8467 193.278 20.7208C193.29 18.5945 193.089 16.1918 192.831 15.3813C191.838 12.2585 188.464 9.99683 184.352 9.69744C182.487 9.56167 181.368 9.74321 178.847 10.5914ZM105.313 10.4884C104.687 10.7768 103.794 11.0201 103.329 11.0296C102.863 11.0392 101.536 11.5617 100.377 12.191C99.2194 12.8203 98.0625 13.334 97.8058 13.3329C97.5495 13.3313 97.0487 12.8165 96.6934 12.1887C95.9697 10.911 95.7529 10.8691 90.6954 11.0285C88.9203 11.0846 87.2546 11.3042 86.9934 11.5167C86.7325 11.7291 86.5188 12.3927 86.5188 12.9915C86.5188 14.54 87.8678 15.3279 90.2971 15.1986C91.3549 15.1422 92.3926 15.2688 92.6033 15.4805C93.0343 15.9134 93.5282 28.9615 93.158 30.1335C92.8323 31.1644 91.0435 32.0233 89.2229 32.0233C88.044 32.0233 87.5405 32.2434 86.9262 33.0283C85.9189 34.3143 85.9356 34.5416 87.0963 35.3052C87.897 35.8326 88.3766 35.8712 90.0381 35.5409C91.1301 35.3242 92.1944 35.2564 92.4036 35.391C92.6124 35.5252 94.4494 35.6766 96.4857 35.7278C100.02 35.8166 100.188 35.7846 100.188 35.0218C100.188 34.3986 100.355 34.2743 100.947 34.4577C101.365 34.5874 102.006 34.7811 102.371 34.8887C103.338 35.1732 103.911 34.6496 104.051 33.3532C104.139 32.5397 104.012 32.214 103.605 32.214C103.292 32.214 102.916 31.923 102.771 31.5675C102.568 31.0729 102.062 30.9318 100.609 30.9649C98.0739 31.0229 97.3844 30.4257 97.6593 28.4115C97.7751 27.5622 97.6984 26.1011 97.4888 25.1636C97.1402 23.6064 97.215 23.238 98.3594 20.873C99.0482 19.4504 99.8801 18.2006 100.209 18.0961C100.537 17.9912 101.458 17.3054 102.255 16.5716C104.067 14.905 105.883 14.805 105.884 16.3722C105.884 16.9042 106.183 17.9404 106.548 18.6746C107.179 19.942 107.33 20.019 109.55 20.2002L111.888 20.3909L112.746 18.8142L113.603 17.2379L112.731 14.8973C111.761 12.292 110.406 10.9038 108.244 10.3008C106.583 9.83741 106.753 9.82635 105.313 10.4884ZM126.576 10.509C123.074 11.3454 122.161 11.6936 120.454 12.8454C119.384 13.5674 118.288 14.5735 118.017 15.0815C117.746 15.5896 117.383 16.0049 117.21 16.0049C117.036 16.0049 116.894 16.3542 116.894 16.781C116.894 17.2082 116.658 17.9374 116.37 18.4019C115.672 19.5255 115.27 21.3444 115.719 21.3444C115.922 21.3444 115.974 21.963 115.839 22.7746C115.266 26.2075 115.5 27.6407 116.987 29.8097C117.844 31.0591 119.047 32.2315 120.023 32.7685C120.913 33.2575 122.067 34.0348 122.589 34.4955C123.994 35.7354 128.496 37.0989 129.464 36.5783C129.884 36.3525 130.745 36.2819 131.377 36.4215C132.302 36.6255 132.89 36.4257 134.391 35.3979C135.417 34.6957 136.257 33.9108 136.258 33.6541C136.258 33.3971 136.728 32.9421 137.302 32.6423C137.877 32.3429 138.698 31.6091 139.127 31.0115C140.098 29.6598 141.109 23.8764 140.502 23.1419C140.247 22.8325 140.228 22.4489 140.451 22.0942C141.044 21.1525 140.863 20.1136 139.655 17.5304C138.456 14.9667 137.324 13.7398 136.147 13.7249C135.711 13.7196 135.506 13.4763 135.577 13.0491C135.828 11.5453 129.599 9.78707 126.576 10.509ZM240.441 10.6784C236.566 11.4496 235.781 11.8325 233.579 14.0228C231.147 16.4427 230.284 18.2978 230.35 20.963C230.373 21.9069 230.217 23.4718 230.001 24.4409C229.69 25.844 229.731 26.4908 230.201 27.6209C231.102 29.7868 232.961 31.9245 234.919 33.0451C235.891 33.6019 237.028 34.3578 237.446 34.7251C237.864 35.0927 239.278 35.7541 240.589 36.195C242.458 36.8239 243.143 36.9051 243.761 36.5729C244.195 36.3395 245.102 36.2529 245.778 36.3799C247.308 36.6686 249.049 35.5695 252.159 32.3509C253.922 30.5271 254.342 29.8494 254.342 28.8326C254.342 28.1404 254.463 27.4527 254.61 27.3047C254.758 27.1564 254.922 25.3757 254.975 23.3467C255.061 20.0892 254.959 19.4046 254.103 17.4885C253.14 15.3329 251.734 13.7165 250.822 13.7165C250.56 13.7165 250.177 13.3306 249.971 12.8588C249.151 10.9816 244.39 9.89233 240.441 10.6784ZM15.2974 14.9343C15.5875 16.736 16.012 18.561 16.2406 18.9893C16.8587 20.1502 16.7604 20.4485 15.6114 20.8928C12.2876 22.1781 11.0833 21.6716 11.485 19.1567C11.611 18.3672 11.8772 16.434 12.0761 14.8607C12.2751 13.2875 12.4471 11.9698 12.4585 11.932C12.4699 11.8946 12.7596 11.5823 13.1028 11.2375C14.1033 10.2322 14.7021 11.2406 15.2974 14.9343ZM30.4767 11.7722C26.0025 12.2127 25.6607 14.5655 29.9448 15.4378C32.4625 15.9503 32.6808 16.4263 32.5669 21.1472C32.5111 23.4584 32.5863 26.6362 32.7336 28.2094C32.8809 29.7826 32.8692 33.5424 32.707 36.5641L32.4128 42.0585L29.9448 42.8571C27.249 43.7293 26.6297 44.6004 28.1185 45.425C29.2082 46.0287 39.3983 46.2305 40.1015 45.6622C41.5238 44.5127 39.9352 42.3209 37.6795 42.3209C36.5791 42.3209 36.4166 42.1607 35.8634 40.5306C35.4564 39.3304 35.382 38.6137 35.6379 38.3567C35.8478 38.1458 36.0198 37.3418 36.0198 36.5702C36.0198 34.3891 36.5943 34.2106 39.5441 35.4749C41.9297 36.497 42.3041 36.5527 44.7364 36.2461C46.1777 36.0641 47.583 35.7796 47.8586 35.6141C49.1442 34.8414 50.8278 33.3151 50.8278 32.9222C50.8278 32.6824 51.0761 32.3906 51.3795 32.2739C52.2767 31.928 53.5361 28.9871 54.0935 25.9363C54.6357 22.9687 54.3673 21.1651 52.8629 17.6636C52.5789 17.0026 52.342 16.2303 52.3359 15.9473C52.3181 15.0701 50.3258 13.4114 48.0131 12.3477C45.3694 11.1319 43.3559 11.21 39.1102 12.6933C36.5267 13.5956 36.3692 13.609 36.0221 12.9576C35.6979 12.3496 33.6236 11.3325 33.0207 11.4862C32.895 11.5182 31.7506 11.6471 30.4767 11.7722ZM59.214 11.7962C56.7441 12.0903 55.6009 12.8462 56.0091 13.9145C56.2262 14.4835 58.8233 15.6235 59.9017 15.6235C61.3528 15.6235 61.5689 16.5442 61.7162 23.36C61.9114 32.4062 61.8176 39.8655 61.4937 41.0829C61.2678 41.9311 60.8346 42.2171 58.9126 42.7854C56.3417 43.5459 55.8211 44.1981 56.9587 45.232C57.6159 45.8293 58.4869 45.9349 63.1795 45.986C68.01 46.0387 68.7075 45.9662 69.2584 45.3544C70.4996 43.9772 69.0158 42.3209 66.5409 42.3209C65.1008 42.3209 64.4131 40.3433 64.8183 37.3662C64.9922 36.0889 65.2899 34.8887 65.4801 34.6991C65.6862 34.4932 66.8576 34.7918 68.3874 35.4409C70.5862 36.3738 71.2856 36.4985 73.3234 36.3208C76.3639 36.0558 78.0486 35.1896 79.873 32.9535C81.934 30.4272 82.619 28.9089 83.1612 25.6682C83.575 23.1945 83.5553 22.6266 83.0032 21.1308C82.6562 20.1903 82.4587 19.1945 82.5643 18.9179C82.6698 18.6414 82.4925 18.1952 82.1698 17.9263C81.8467 17.6571 81.5828 17.0434 81.5828 16.5629C81.5828 15.3802 78.6117 12.7966 76.3681 12.0289C73.9119 11.1883 72.37 11.2848 68.7796 12.5052L65.6585 13.5663L64.7928 12.6971C63.7346 11.6349 62.3917 11.4179 59.214 11.7962ZM43.7496 15.421C45.1453 15.2108 45.5414 15.3161 46.543 16.1624C47.1847 16.7051 47.8563 17.1548 48.0348 17.162C48.2136 17.1693 48.9369 18.4466 49.6424 20.0003C50.6125 22.1377 50.8578 23.0862 50.649 23.8962C50.4971 24.4855 50.3308 25.4825 50.2799 26.1117C50.0996 28.3292 48.5375 30.7346 46.4257 32.0454C45.3397 32.7197 44.8055 32.801 42.9541 32.5748C40.365 32.2586 39.2594 31.7426 37.7474 30.145C36.6847 29.0225 36.6217 28.7712 36.5222 25.2559C36.3832 20.3451 36.805 18.8935 38.9947 16.7509C40.365 15.4103 40.9198 15.0915 41.4449 15.342C41.8185 15.5201 42.8554 15.5556 43.7496 15.421ZM72.7421 15.4114C73.9381 15.2242 74.481 15.3889 75.9823 16.3943C76.9745 17.0587 77.7859 17.8218 77.7859 18.0903C77.7859 18.3588 78.2187 19.3562 78.7476 20.307C79.2765 21.2574 79.7063 22.5236 79.7029 23.1201C79.6915 25.1586 79.2287 27.828 78.8866 27.828C78.699 27.828 78.5452 28.153 78.5452 28.55C78.5452 28.947 78.289 29.3707 77.9757 29.4916C77.6625 29.6122 77.4024 29.931 77.3982 30.1999C77.3937 30.4684 76.6882 31.1873 75.8305 31.7975C74.2912 32.8917 74.2354 32.9009 71.5969 32.4905C68.8738 32.0672 67.5547 31.3723 66.3207 29.7113C65.7576 28.9535 65.6228 28.0061 65.5913 24.5862C65.5693 22.1746 65.7428 19.9046 65.9995 19.2467C66.6655 17.5411 69.8291 14.8519 70.6538 15.2905C71.0122 15.4809 71.9519 15.5354 72.7421 15.4114ZM159.609 15.3443C160.445 15.604 161.654 16.3573 162.297 17.0186C163.618 18.3779 164.939 21.4675 164.502 22.1781C164.343 22.4367 164.256 23.3623 164.31 24.2353C164.431 26.2159 163.56 28.3822 162.394 28.9974C161.907 29.2548 160.947 29.955 160.26 30.5538C158.882 31.7563 156.44 32.0592 155.667 31.1232C155.426 30.8322 154.83 30.6827 154.308 30.783C152.837 31.0656 151.367 29.6327 150.764 27.3269C150.246 25.3451 150.47 22.7055 151.498 18.6746C152.359 15.2955 155.415 14.0407 159.609 15.3443ZM214.891 15.8382C217.191 16.8996 217.313 16.9976 217.986 18.3218C218.821 19.9645 218.832 22.5541 218.019 25.8425C217.525 27.8379 217.062 28.7277 215.915 29.8906C214.531 31.2929 214.304 31.3833 212.086 31.4161C208.92 31.463 207.153 30.3349 206.276 27.7056C205.939 26.6941 205.42 25.7731 205.123 25.6587C204.709 25.4988 204.685 25.328 205.02 24.9222C205.263 24.6278 205.358 23.8966 205.233 23.2727C204.889 21.5423 205.977 18.4641 207.458 16.9755C208.553 15.876 209.088 15.641 210.765 15.5236C211.866 15.4465 212.953 15.3516 213.182 15.3127C213.411 15.2738 214.18 15.5106 214.891 15.8382ZM132.908 16.5499C134.085 17.0438 134.326 17.3882 134.874 19.3489C135.218 20.5789 135.499 22.0358 135.499 22.5865C135.499 23.1373 135.67 23.6941 135.88 23.8242C136.134 23.9821 136.134 24.2975 135.88 24.775C135.67 25.1678 135.499 25.8535 135.499 26.2986C135.499 26.7841 134.58 28.0134 133.2 29.3745C130.916 31.6255 130.884 31.6419 128.662 31.6419C126.819 31.6419 126.137 31.4463 124.792 30.5324C121.535 28.3192 120.317 26.2944 120.314 23.0858C120.311 20.0709 121.385 17.8508 123.477 16.5537C124.944 15.6433 125.291 15.5876 128.312 15.7799C130.102 15.8939 132.17 16.2402 132.908 16.5499ZM247.278 16.5354C248.315 16.9709 248.673 17.4279 249.147 18.9233C250.127 22.0187 250.517 24.4981 250.136 25.2128C249.944 25.5747 249.786 26.2109 249.786 26.6266C249.786 27.0462 248.815 28.3261 247.603 29.5042C245.46 31.587 245.378 31.6267 243.186 31.6343C240.587 31.6431 238.988 30.8536 236.782 28.4726C233.335 24.7529 234.006 19.0163 238.205 16.3039C239.188 15.6696 239.802 15.5979 242.669 15.7825C244.498 15.9004 246.572 16.2394 247.278 16.5354ZM189.795 25.1083C189.795 27.1472 189.659 27.5183 188.273 29.2662C187.001 30.8715 186.439 31.2613 184.84 31.6465C181.156 32.534 176.495 31.1427 176.196 29.0668C175.983 27.5854 178.492 25.5084 181.2 24.9245C182.482 24.6483 184.128 24.4119 184.859 24.3989C185.59 24.386 186.871 24.0507 187.706 23.6537C188.542 23.2567 189.353 22.9176 189.51 22.9008C189.667 22.8837 189.795 23.8772 189.795 25.1083Z" fill="#101521"/>
<defs>
<linearGradient id="paint0_linear" x1="0" y1="33" x2="3.11807" y2="-6.75545" gradientUnits="userSpaceOnUse">
<stop offset="0.0625" stop-color="#F6FA00"/>
<stop offset="0.880208" stop-color="#FFE835"/>
</linearGradient>
</defs>
</svg>
