<svg width="27" height="27" viewBox="0 0 27 27" fill="none" xmlns="http://www.w3.org/2000/svg">
<path d="M26.0421 24.2077L21.2501 19.4544C23.1102 17.1351 24.011 14.1912 23.7673 11.2282C23.5235 8.26508 22.1538 5.50799 19.9397 3.52381C17.7256 1.53964 14.8354 0.479183 11.8634 0.560507C8.89144 0.64183 6.06358 1.85875 3.96128 3.96104C1.85899 6.06333 0.642075 8.8912 0.560751 11.8632C0.479427 14.8351 1.53988 17.7253 3.52406 19.9394C5.50824 22.1536 8.26532 23.5233 11.2284 23.767C14.1915 24.0108 17.1353 23.1099 19.4546 21.2498L24.208 26.0031C24.3281 26.1242 24.4709 26.2203 24.6283 26.2859C24.7857 26.3515 24.9545 26.3852 25.1251 26.3852C25.2956 26.3852 25.4644 26.3515 25.6218 26.2859C25.7792 26.2203 25.9221 26.1242 26.0421 26.0031C26.275 25.7623 26.4051 25.4404 26.4051 25.1054C26.4051 24.7705 26.275 24.4486 26.0421 24.2077ZM12.2084 21.2498C10.4201 21.2498 8.67201 20.7195 7.18511 19.726C5.69822 18.7325 4.53932 17.3204 3.85498 15.6682C3.17064 14.0161 2.99158 12.1981 3.34046 10.4442C3.68933 8.6903 4.55047 7.07922 5.81497 5.81472C7.07947 4.55023 8.69054 3.68909 10.4445 3.34021C12.1984 2.99134 14.0163 3.1704 15.6685 3.85474C17.3206 4.53908 18.7328 5.69797 19.7263 7.18487C20.7198 8.67176 21.2501 10.4199 21.2501 12.2081C21.2501 14.6061 20.2975 16.9059 18.6018 18.6016C16.9062 20.2972 14.6064 21.2498 12.2084 21.2498Z" fill="#333333"/>
</svg>
