<svg width="24" height="20" viewBox="0 0 24 20" fill="none" xmlns="http://www.w3.org/2000/svg">
<path d="M20.1667 0.666687H3.83337C2.90512 0.666687 2.01488 1.03544 1.3585 1.69181C0.702123 2.34819 0.333374 3.23843 0.333374 4.16669V15.8334C0.333374 16.7616 0.702123 17.6518 1.3585 18.3082C2.01488 18.9646 2.90512 19.3334 3.83337 19.3334H20.1667C21.095 19.3334 21.9852 18.9646 22.6416 18.3082C23.298 17.6518 23.6667 16.7616 23.6667 15.8334V4.16669C23.6667 3.23843 23.298 2.34819 22.6416 1.69181C21.9852 1.03544 21.095 0.666687 20.1667 0.666687ZM3.83337 3.00002H20.1667C20.4761 3.00002 20.7729 3.12294 20.9917 3.34173C21.2105 3.56052 21.3334 3.85727 21.3334 4.16669L12 9.86002L2.66671 4.16669C2.66671 3.85727 2.78962 3.56052 3.00842 3.34173C3.22721 3.12294 3.52396 3.00002 3.83337 3.00002ZM21.3334 15.8334C21.3334 16.1428 21.2105 16.4395 20.9917 16.6583C20.7729 16.8771 20.4761 17 20.1667 17H3.83337C3.52396 17 3.22721 16.8771 3.00842 16.6583C2.78962 16.4395 2.66671 16.1428 2.66671 15.8334V6.82669L11.3934 12.1584C11.5707 12.2607 11.7719 12.3147 11.9767 12.3147C12.1815 12.3147 12.3827 12.2607 12.56 12.1584L21.3334 6.82669V15.8334Z" fill="#101521"/>
</svg>
