<svg width="120" height="120" viewBox="0 0 120 120" fill="none" xmlns="http://www.w3.org/2000/svg">
<path d="M27.0467 18.5465C21.03 40.8032 5.3667 52.9698 2.4667 63.6965C-0.433304 74.4232 -0.356639 98.6132 48.9834 111.953C98.3234 125.293 113.757 96.9499 116.943 85.1498C131.88 29.9098 37.7034 -20.8735 27.0467 18.5465Z" fill="#EFEFEF"/>
<path d="M39.1667 80.833C39.1667 84.5163 42.15 87.4997 45.8334 87.4997H52.5V97.4996L61.6667 87.4997H91.6667C95.35 87.4997 98.3333 84.5163 98.3333 80.833V52.4997C98.3333 48.8163 95.35 45.833 91.6667 45.833H45.8334C42.15 45.833 39.1667 48.8163 39.1667 52.4997V80.833Z" fill="#F3F3F1"/>
<path d="M45.8334 80.833V52.4997C45.8334 48.8163 48.8167 45.833 52.5 45.833H45.8334C42.15 45.833 39.1667 48.8163 39.1667 52.4997V80.833C39.1667 84.5164 42.15 87.4997 45.8334 87.4997H52.5C48.8167 87.4997 45.8334 84.5164 45.8334 80.833Z" fill="#D5DBE1"/>
<path d="M59.1667 90.2267V87.5H52.5V97.5L59.1667 90.2267Z" fill="#D5DBE1"/>
<path d="M80.8333 29.1667V30L53.3333 45.7333C52.3 46.3 51.0333 46.3 50 45.7333L22.5 30V29.1667C22.5 25.5 25.5 22.5 29.1667 22.5H74.1667C77.8333 22.5 80.8333 25.5 80.8333 29.1667Z" fill="#D2E2F4"/>
<path d="M80.8333 30V57.5C80.8333 61.1667 77.8333 64.1667 74.1667 64.1667H29.1667C25.5 64.1667 22.5 61.1667 22.5 57.5V30L50 45.7333C51.0333 46.3 52.3 46.3 53.3333 45.7333L80.8333 30Z" fill="#F3F3F1"/>
<path d="M30 29.1667V28.3333C30 25.8133 31.4367 23.6333 33.5133 22.5H29.1667C25.5 22.5 22.5 25.5 22.5 29.1667V30L50 45.7333C51.0333 46.3 52.3 46.3 53.3333 45.7333L56.1467 44.1233L30 29.1667Z" fill="#D2E2F4"/>
<path d="M30 57.5V34.29L22.5 30V57.5C22.5 61.1667 25.5 64.1667 29.1667 64.1667H36.6667C33 64.1667 30 61.1667 30 57.5Z" fill="#D5DBE1"/>
<path d="M86.9432 21.5498C84.1866 21.5498 81.9432 19.3065 81.9432 16.5498C81.9432 13.7931 84.1866 11.5498 86.9432 11.5498C89.6999 11.5498 91.9433 13.7931 91.9433 16.5498C91.9433 19.3065 89.7032 21.5498 86.9432 21.5498ZM86.9432 14.8831C86.0232 14.8831 85.2766 15.6298 85.2766 16.5498C85.2766 17.4698 86.0232 18.2165 86.9432 18.2165C87.8632 18.2165 88.6099 17.4698 88.6099 16.5498C88.6099 15.6298 87.8632 14.8831 86.9432 14.8831Z" fill="#A4AFC1"/>
<path d="M9.9693 89.5366L12.3263 87.1796L17.0404 91.8936L14.6833 94.2507L9.9693 89.5366Z" fill="#A4AFC1"/>
<path d="M23.5204 103.09L25.8774 100.733L30.5915 105.447L28.2344 107.804L23.5204 103.09Z" fill="#A4AFC1"/>
<path d="M9.38104 105.446L14.0951 100.732L16.4521 103.089L11.7381 107.803L9.38104 105.446Z" fill="#A4AFC1"/>
<path d="M22.9344 91.895L27.6484 87.181L30.0055 89.538L25.2914 94.252L22.9344 91.895Z" fill="#A4AFC1"/>
<path d="M51.6667 48.6567C50.6667 48.6567 49.6633 48.4 48.7733 47.8933L21.26 32.17L23.74 27.8267L51.2533 43.5467C51.5067 43.6933 51.8267 43.6933 52.08 43.5467L79.5933 27.8267L82.0733 32.17L54.56 47.89C53.67 48.4033 52.6667 48.6567 51.6667 48.6567Z" fill="#101521"/>
<path d="M74.1667 66.6667H29.1667C24.1101 66.6667 20.0001 62.5567 20.0001 57.5V29.1667C20.0001 24.11 24.1101 20 29.1667 20H74.1667C79.2234 20 83.3334 24.11 83.3334 29.1667V57.5C83.3334 62.5567 79.2234 66.6667 74.1667 66.6667ZM29.1667 25C26.8701 25 25.0001 26.87 25.0001 29.1667V57.5C25.0001 59.7967 26.8701 61.6667 29.1667 61.6667H74.1667C76.4634 61.6667 78.3334 59.7967 78.3334 57.5V29.1667C78.3334 26.87 76.4634 25 74.1667 25H29.1667Z" fill="#101521"/>
<path d="M52.5 100C52.1967 100 51.8867 99.9435 51.5934 99.8302C50.6334 99.4569 50 98.5302 50 97.5002V90.0002H45.8334C40.7767 90.0002 36.6667 85.8902 36.6667 80.8335V72.5002H41.6667V80.8335C41.6667 83.1302 43.5367 85.0002 45.8334 85.0002H52.5C53.88 85.0002 55 86.1202 55 87.5002V91.0735L59.8234 85.8102C60.2967 85.2935 60.9667 85.0002 61.6667 85.0002H91.6667C93.9634 85.0002 95.8334 83.1302 95.8334 80.8335V52.5002C95.8334 50.2035 93.9634 48.3335 91.6667 48.3335H89.1667V43.3335H91.6667C96.7234 43.3335 100.833 47.4435 100.833 52.5002V80.8335C100.833 85.8902 96.7234 90.0002 91.6667 90.0002H62.7667L54.3434 99.1902C53.86 99.7169 53.1867 100 52.5 100Z" fill="#101521"/>
</svg>
