<svg width="141" height="141" viewBox="0 0 141 141" fill="none" xmlns="http://www.w3.org/2000/svg">
<path d="M124.68 32.8098C124.68 59.9014 138.713 78.5056 138.713 91.5598C138.713 104.614 131.209 132.031 71.1544 132.031C11.1001 132.031 2.28369 95.1475 2.28369 80.789C2.28369 13.5516 124.68 -15.1693 124.68 32.8098Z" fill="#EFEFEF"/>
<path d="M119.458 31.3335C116.219 31.3335 113.583 28.6976 113.583 25.4585C113.583 22.2194 116.219 19.5835 119.458 19.5835C122.698 19.5835 125.334 22.2194 125.334 25.4585C125.334 28.6976 122.698 31.3335 119.458 31.3335ZM119.458 23.5002C118.381 23.5002 117.5 24.3814 117.5 25.4585C117.5 26.5356 118.381 27.4168 119.458 27.4168C120.536 27.4168 121.417 26.5356 121.417 25.4585C121.417 24.3814 120.536 23.5002 119.458 23.5002Z" fill="#B7B7B7"/>
<path d="M79.3127 102.812H33.2918C28.9639 102.812 25.4585 99.3071 25.4585 94.9792V34.2708C25.4585 29.9429 28.9639 26.4375 33.2918 26.4375H79.3127C83.6406 26.4375 87.146 29.9429 87.146 34.2708V94.9792C87.146 99.3071 83.6406 102.812 79.3127 102.812Z" fill="#F3F3F1"/>
<path d="M94 114.562C94 114.562 114.563 105.82 114.563 88.3364C114.563 81.3412 114.563 72.5992 114.563 72.5992L94 65.604L73.4375 72.5992V88.3364C73.4375 105.82 94 114.562 94 114.562Z" fill="#BFD8F4"/>
<path d="M82.25 88.3364C82.25 77.8436 82.25 72.5992 82.25 72.5992L98.4063 67.1041L94 65.604L73.4375 72.5992V88.3364C73.4375 105.82 94 114.562 94 114.562C94 114.562 95.8448 113.767 98.4063 112.216C92.3668 108.558 82.25 100.611 82.25 88.3364Z" fill="#BFD8F4"/>
<path d="M34.271 94.9792V34.2708C34.271 29.9429 37.7764 26.4375 42.1043 26.4375H33.2918C28.9639 26.4375 25.4585 29.9429 25.4585 34.2708V94.9792C25.4585 99.3071 28.9639 102.812 33.2918 102.812H42.1043C37.7764 102.812 34.271 99.3071 34.271 94.9792Z" fill="#BFD8F4"/>
<path d="M94 117.5C93.6083 117.5 93.2167 117.422 92.8485 117.265C91.9398 116.878 70.5 107.54 70.5 88.3368V72.5996C70.5 71.3424 71.299 70.2262 72.4936 69.8188L93.0561 62.8237C93.6671 62.6161 94.3329 62.6161 94.9439 62.8237L115.506 69.8188C116.701 70.2262 117.5 71.3424 117.5 72.5996V88.3368C117.5 107.54 96.0602 116.878 95.1515 117.269C94.7833 117.422 94.3917 117.5 94 117.5ZM76.375 74.7029V88.3329C76.375 101.387 89.911 109.236 94 111.304C98.089 109.236 111.625 101.387 111.625 88.3329V74.7029L94 68.7065L76.375 74.7029Z" fill="#101521"/>
<path d="M93.021 99.8745C92.2455 99.8745 91.4935 99.569 90.9451 99.0128L83.1118 91.1795L87.2674 87.0239L92.7076 92.4641L102.421 79.5078L107.117 83.0328L95.3671 98.6995C94.8579 99.381 94.0785 99.804 93.2246 99.8666C93.1581 99.8706 93.0915 99.8745 93.021 99.8745Z" fill="#101521"/>
<path d="M64.9775 105.75H34.2708C28.3293 105.75 23.5 100.921 23.5 94.9792V34.2708C23.5 28.3293 28.3293 23.5 34.2708 23.5H79.3125C85.2541 23.5 90.0834 28.3293 90.0834 34.2708V55.5383H84.2084V34.2708C84.2084 31.5723 82.0111 29.375 79.3125 29.375H34.2708C31.5723 29.375 29.375 31.5723 29.375 34.2708V94.9792C29.375 97.6777 31.5723 99.875 34.2708 99.875H64.9775V105.75Z" fill="#101521"/>
<path d="M38.1875 54.8335H75.3958V60.7085H38.1875V54.8335Z" fill="#101521"/>
<path d="M38.1875 70.5H59.7292V76.375H38.1875V70.5Z" fill="#101521"/>
<path d="M38.1875 39.1665H55.8125V45.0415H38.1875V39.1665Z" fill="#101521"/>
</svg>
