<svg width="22" height="24" viewBox="0 0 22 24" fill="none" xmlns="http://www.w3.org/2000/svg">
<path d="M21.0964 16.8439C20.1908 15.8978 18.4962 14.4746 18.4962 9.81248C18.4962 6.27146 15.9425 3.43683 12.4991 2.74139V1.79165C12.4991 0.986373 11.8278 0.333313 11 0.333313C10.1722 0.333313 9.50094 0.986373 9.50094 1.79165V2.74139C6.05751 3.43683 3.50377 6.27146 3.50377 9.81248C3.50377 14.4746 1.80925 15.8978 0.903625 16.8439C0.622376 17.1379 0.497689 17.4892 0.500032 17.8333C0.505189 18.5807 1.10847 19.2916 2.00472 19.2916H19.9953C20.8915 19.2916 21.4953 18.5807 21.5 17.8333C21.5023 17.4892 21.3776 17.1374 21.0964 16.8439ZM3.66549 17.1041C4.66018 15.8295 5.74767 13.7167 5.75283 9.83891C5.75283 9.8298 5.75002 9.82159 5.75002 9.81248C5.75002 6.99334 8.10032 4.70831 11 4.70831C13.8997 4.70831 16.25 6.99334 16.25 9.81248C16.25 9.82159 16.2472 9.8298 16.2472 9.83891C16.2523 13.7172 17.3398 15.8299 18.3345 17.1041H3.66549ZM11 23.6666C12.6556 23.6666 13.9986 22.361 13.9986 20.75H8.00141C8.00141 22.361 9.34438 23.6666 11 23.6666Z" fill="#101521"/>
</svg>
