<svg width="22" height="18" viewBox="0 0 22 18" fill="none" xmlns="http://www.w3.org/2000/svg">
<path d="M21.4656 6.34296L20.4179 5.72111L10.9879 0.0678391H10.8727C10.8084 0.0385312 10.7418 0.0158179 10.6736 0H10.4745H10.2859C10.2143 0.0158283 10.1442 0.0385317 10.0764 0.0678391H9.96111L0.531166 5.72111C0.369916 5.81972 0.235793 5.96272 0.142479 6.13553C0.0491647 6.30834 0 6.50477 0 6.70477C0 6.90478 0.0491647 7.10121 0.142479 7.27401C0.235793 7.44682 0.369916 7.58983 0.531166 7.68844L3.14012 9.24874V14.608C3.14012 15.5076 3.47129 16.3704 4.06077 17.0065C4.65026 17.6426 5.44977 18 6.28343 18H14.6656C15.4993 18 16.2988 17.6426 16.8883 17.0065C17.4777 16.3704 17.8089 15.5076 17.8089 14.608V9.24874L19.9045 7.98241V11.2161C19.9045 11.5159 20.0148 11.8035 20.2113 12.0156C20.4078 12.2276 20.6743 12.3467 20.9522 12.3467C21.2301 12.3467 21.4966 12.2276 21.6931 12.0156C21.8896 11.8035 22 11.5159 22 11.2161V7.32663C21.9997 7.12629 21.95 6.92963 21.8561 6.75679C21.7622 6.58395 21.6275 6.44113 21.4656 6.34296ZM15.7134 14.608C15.7134 14.9079 15.603 15.1955 15.4065 15.4075C15.21 15.6196 14.9435 15.7387 14.6656 15.7387H6.28343C6.00554 15.7387 5.73904 15.6196 5.54254 15.4075C5.34605 15.1955 5.23566 14.9079 5.23566 14.608V10.5038L9.96111 13.3304L10.1183 13.3982H10.2126C10.2995 13.4101 10.3875 13.4101 10.4745 13.3982C10.5615 13.4101 10.6495 13.4101 10.7365 13.3982H10.8308C10.8864 13.3856 10.9396 13.3626 10.9879 13.3304L15.7134 10.5038V14.608ZM10.4745 11.0578L3.20298 6.69347L10.4745 2.32915L17.746 6.69347L10.4745 11.0578Z" fill="#6D6D6D"/>
</svg>
