<svg width="4" height="4" viewBox="0 0 4 4" fill="none" xmlns="http://www.w3.org/2000/svg">
<path d="M1.07397 0.61438C1.34805 0.431244 1.67028 0.333496 1.99992 0.333496C2.44195 0.333496 2.86587 0.509091 3.17843 0.821652C3.49099 1.13421 3.66658 1.55813 3.66658 2.00016C3.66658 2.3298 3.56884 2.65203 3.3857 2.92611C3.20257 3.20019 2.94227 3.41382 2.63773 3.53996C2.33318 3.66611 1.99807 3.69911 1.67477 3.6348C1.35147 3.5705 1.0545 3.41176 0.821408 3.17867C0.588321 2.94559 0.429586 2.64861 0.365277 2.32531C0.300969 2.00201 0.333974 1.6669 0.46012 1.36236C0.586266 1.05781 0.799886 0.797516 1.07397 0.61438Z" fill="#6D6D6D"/>
</svg>
