<svg width="32" height="32" viewBox="0 0 32 32" fill="none" xmlns="http://www.w3.org/2000/svg">
<path d="M7.44621 28.2963C13.5947 28.2963 17.8169 31.4812 20.7795 31.4812C23.7422 31.4812 29.9644 29.7781 29.9644 16.1488C29.9644 2.51944 21.5938 0.518555 18.3351 0.518555C3.07555 0.518555 -3.44268 28.2963 7.44621 28.2963Z" fill="#EFEFEF"/>
<path d="M2.65961 8.54688L3.28815 7.91834L4.54523 9.17541L3.91669 9.80395L2.65961 8.54688Z" fill="#A4AFC1"/>
<path d="M6.27319 12.1621L6.90173 11.5336L8.15881 12.7906L7.53027 13.4192L6.27319 12.1621Z" fill="#A4AFC1"/>
<path d="M2.50336 12.7861L3.76044 11.5291L4.38897 12.1576L3.1319 13.4147L2.50336 12.7861Z" fill="#A4AFC1"/>
<path d="M6.11755 9.17285L7.37463 7.91577L8.00317 8.54431L6.74609 9.80139L6.11755 9.17285Z" fill="#A4AFC1"/>
<path d="M16 11.2649L13.9396 12.6667L14.5716 10.1733L12.6667 8.54667L15.1174 8.40711L16 6L16.8827 8.40711L19.3334 8.54667L17.4285 10.1733L18.0605 12.6667L16 11.2649Z" fill="#F3F3F1"/>
<path d="M12.2222 15.7773H19.7778V25.9996H12.2222V15.7773Z" fill="#D2E2F4"/>
<path d="M19.7778 22.8887H26V25.9998H19.7778V22.8887Z" fill="#F3F3F1"/>
<path d="M6 21.1113H12.2222V26.0002H6V21.1113Z" fill="#F3F3F1"/>
<path d="M16 11.2649L16.2516 11.4356L16.5716 10.1733L14.6667 8.54667L17 8.41422L16.8827 8.40711L16 6L15.1174 8.40711L12.6667 8.54667L14.5716 10.1733L13.9396 12.6667L16 11.2649Z" fill="#D5DBE1"/>
<path d="M19.7778 22.8887H21.7778V25.9998H19.7778V22.8887Z" fill="#D5DBE1"/>
<path d="M6 21.1113H8V26.0002H6V21.1113Z" fill="#D5DBE1"/>
<path d="M12.2222 15.7773H14.2222V25.9996H12.2222V15.7773Z" fill="#D2E2F4"/>
<path d="M18.0604 13.333C17.9298 13.333 17.7991 13.2948 17.6853 13.2175L16 12.0708L14.3147 13.2175C14.0862 13.3739 13.784 13.3721 13.5573 13.2121C13.3307 13.053 13.2249 12.7712 13.2933 12.5019L13.824 10.4103L12.2338 9.05212C12.0267 8.87523 11.9484 8.5899 12.0355 8.33212C12.1227 8.07345 12.3573 7.89479 12.6293 7.87879L14.6427 7.76501L15.3751 5.76945C15.4702 5.50723 15.7209 5.33301 16 5.33301C16.2791 5.33301 16.5298 5.50723 16.6258 5.77034L17.3582 7.7659L19.3715 7.87967C19.6435 7.89567 19.8782 8.07434 19.9653 8.33301C20.0524 8.59079 19.9742 8.87523 19.7671 9.05301L18.1769 10.4112L18.7075 12.5028C18.776 12.7721 18.6702 13.0539 18.4435 13.213C18.328 13.293 18.1938 13.333 18.0604 13.333ZM16 10.5979C16.1307 10.5979 16.2613 10.6361 16.3751 10.7135L16.9822 11.1268L16.7822 10.3375C16.72 10.0912 16.8027 9.83167 16.9955 9.66634L17.6382 9.1179L16.8453 9.07256C16.5795 9.05656 16.3484 8.8859 16.2569 8.63612L16 7.93567L15.7431 8.63612C15.6515 8.8859 15.4204 9.05745 15.1547 9.07256L14.3618 9.1179L15.0044 9.66634C15.1973 9.83167 15.28 10.0912 15.2178 10.3375L15.0178 11.1268L15.6249 10.7135C15.7387 10.6361 15.8693 10.5979 16 10.5979Z" fill="#101521"/>
<path d="M19.7778 26.6669H12.2222C11.8542 26.6669 11.5555 26.3682 11.5555 26.0002V15.778C11.5555 15.41 11.8542 15.1113 12.2222 15.1113H19.7778C20.1458 15.1113 20.4444 15.41 20.4444 15.778V26.0002C20.4444 26.3682 20.1458 26.6669 19.7778 26.6669ZM12.8889 25.3335H19.1111V16.4447H12.8889V25.3335Z" fill="#101521"/>
<path d="M26 26.6671H19.7778C19.4098 26.6671 19.1111 26.3684 19.1111 26.0004V22.8893C19.1111 22.5213 19.4098 22.2227 19.7778 22.2227H26C26.368 22.2227 26.6666 22.5213 26.6666 22.8893V26.0004C26.6666 26.3684 26.368 26.6671 26 26.6671ZM20.4444 25.3338H25.3333V23.556H20.4444V25.3338Z" fill="#101521"/>
<path d="M12.2222 26.6666H5.99998C5.63198 26.6666 5.33331 26.3679 5.33331 25.9999V21.111C5.33331 20.743 5.63198 20.4443 5.99998 20.4443H12.2222C12.5902 20.4443 12.8889 20.743 12.8889 21.111V25.9999C12.8889 26.3679 12.5902 26.6666 12.2222 26.6666ZM6.66665 25.3332H11.5555V21.7777H6.66665V25.3332Z" fill="#101521"/>
<path d="M16.6666 23.1114H15.3333V20.0003H15.1111V18.667H16C16.368 18.667 16.6666 18.9657 16.6666 19.3337V23.1114Z" fill="#101521"/>
<path d="M1.77777 25.333H30.2222V26.6663H1.77777V25.333Z" fill="#101521"/>
</svg>
