<svg width="15" height="4" viewBox="0 0 15 4" fill="none" xmlns="http://www.w3.org/2000/svg">
<path d="M7.5 0C6.58333 0 5.83333 0.796874 5.83333 1.77083C5.83333 2.74479 6.58333 3.54166 7.5 3.54166C8.41667 3.54166 9.16667 2.74479 9.16667 1.77083C9.16667 0.796874 8.41667 0 7.5 0ZM1.66667 0C0.75 0 0 0.796874 0 1.77083C0 2.74479 0.75 3.54166 1.66667 3.54166C2.58333 3.54166 3.33333 2.74479 3.33333 1.77083C3.33333 0.796874 2.58333 0 1.66667 0ZM13.3333 0C12.4167 0 11.6667 0.796874 11.6667 1.77083C11.6667 2.74479 12.4167 3.54166 13.3333 3.54166C14.25 3.54166 15 2.74479 15 1.77083C15 0.796874 14.25 0 13.3333 0Z" fill="black"/>
</svg>
