<svg width="155" height="155" viewBox="0 0 155 155" fill="none" xmlns="http://www.w3.org/2000/svg">
<path d="M107.565 98.2859C107.607 98.6512 107.549 99.0278 107.391 99.4157C107.23 99.7705 107.016 100.114 106.751 100.447C106.482 100.747 106.176 101.017 105.834 101.258C105.487 101.466 105.147 101.588 104.815 101.626C104.582 101.653 104.348 101.662 104.111 101.656C103.875 101.649 103.64 101.659 103.408 101.685C103.109 101.719 102.921 101.842 102.844 102.052C102.763 102.23 102.684 102.424 102.607 102.634C102.563 102.841 102.468 103.037 102.321 103.222C102.177 103.44 101.889 103.574 101.457 103.623C101.191 103.653 100.905 103.652 100.598 103.62C100.292 103.587 99.9888 103.588 99.6897 103.622C99.0582 103.694 98.4566 103.88 97.8848 104.181C97.3501 104.511 96.7504 104.713 96.0857 104.789C95.5207 104.853 94.6618 104.85 93.5091 104.78C92.3602 104.742 91.1814 104.591 89.9727 104.324C88.801 104.088 87.7528 103.753 86.8281 103.32C85.8996 102.854 85.3937 102.256 85.3104 101.525C85.2461 100.961 85.4974 100.36 86.0645 99.7241C86.6611 99.0507 87.3184 98.32 88.0366 97.532C88.7509 96.7107 89.3727 95.8159 89.902 94.8475C90.4644 93.8754 90.6775 92.7916 90.5412 91.5963C90.4617 90.899 90.2345 90.2353 89.8597 89.6053C89.5181 88.9715 89.099 88.3969 88.6026 87.8816C88.1024 87.3332 87.5414 86.842 86.9196 86.4083C86.331 85.9707 85.7629 85.5645 85.2151 85.1896C85.0413 85.1421 84.7883 85.1373 84.4559 85.1751C83.5586 85.2773 82.6726 85.479 81.7979 85.7804C80.9195 86.0485 80.0316 86.2337 79.1342 86.3358C78.6689 86.3888 78.1795 86.3772 77.6658 86.3011C77.1853 86.2213 76.8317 85.9252 76.605 85.4128C75.7901 85.9428 74.9733 86.4562 74.1546 86.953C73.3321 87.4166 72.4892 87.8489 71.6259 88.2499C71.0837 88.5134 70.6852 88.7101 70.4307 88.84C70.2094 88.9661 70.0399 89.1031 69.9221 89.251C69.8375 89.3952 69.7772 89.6039 69.741 89.8771C69.738 90.1465 69.6653 90.5416 69.5226 91.0623C69.4276 91.4095 69.3952 91.7159 69.4255 91.9815C69.4558 92.2472 69.4898 92.546 69.5277 92.878C69.5769 93.3097 69.5336 93.6678 69.3977 93.9523C69.258 94.2037 69.1017 94.4569 68.9288 94.712C68.7854 94.9302 68.6438 95.1649 68.5041 95.4162C68.3645 95.6676 68.3154 95.9759 68.3571 96.3411C68.3912 96.6399 68.4713 96.8999 68.5975 97.121L68.5761 97.3757C68.6329 97.8737 68.8112 98.257 69.1112 98.5256C69.4074 98.761 69.7477 98.9409 70.1323 99.0653C70.5462 99.1527 70.9768 99.2382 71.424 99.3219C71.8712 99.4055 72.2724 99.528 72.6275 99.6894C72.9825 99.8508 73.3361 100.147 73.6883 100.578C74.0698 100.972 74.4073 101.421 74.7005 101.926C75.0232 102.393 75.2979 102.883 75.5246 103.396C75.7476 103.875 75.8799 104.297 75.9216 104.662L75.95 104.911L75.3019 104.985C73.9725 105.137 72.6506 105.354 71.3363 105.638C70.0515 105.886 68.7686 106.149 67.4875 106.43C66.2103 106.743 64.9126 107.025 63.5945 107.276C62.3135 107.557 61.0083 107.772 59.6788 107.924C59.2135 107.977 58.5303 108.038 57.6292 108.107C56.7613 108.172 55.8858 108.171 55.0027 108.103C54.1234 108.068 53.3325 107.923 52.6299 107.667C51.9568 107.373 51.5824 106.895 51.5067 106.23C51.4271 105.533 51.5104 104.935 51.7566 104.436C52.0359 103.933 52.4078 103.504 52.8723 103.149C53.3662 102.756 53.9175 102.424 54.5263 102.153C55.1645 101.845 55.7879 101.556 56.3967 101.285C57.0387 101.01 57.6308 100.74 58.1731 100.477C58.7486 100.21 59.2169 99.8872 59.5779 99.5098C59.9388 99.1324 60.2106 98.5633 60.3932 97.8025C60.572 97.0086 60.6952 96.1705 60.763 95.2883C60.8307 94.4061 60.8837 93.5423 60.922 92.6971C60.9565 91.8187 60.9952 91.1248 61.0381 90.6154C61.0524 90.4456 61.0463 90.2444 61.0198 90.012C61.0227 89.7426 61.0091 89.4751 60.9788 89.2094C60.9817 88.94 60.9699 88.6891 60.9434 88.4567C60.9502 88.2205 60.9811 88.0488 61.0362 87.9416C61.3042 87.3393 61.5156 86.9789 61.6704 86.8604C61.8585 86.7381 61.9819 86.6399 62.0408 86.566C62.133 86.4882 62.1639 86.3165 62.1336 86.0509C62.1328 85.7483 62.0812 85.1487 61.979 84.2522C61.9335 83.8538 61.9826 83.5455 62.126 83.3273C62.2657 83.076 62.4091 82.8578 62.5564 82.6729C62.7369 82.4842 62.9026 82.314 63.0537 82.1622C63.2009 81.9773 63.2594 81.752 63.2291 81.4864C63.1761 81.0215 62.9958 80.6216 62.6883 80.2867C62.377 79.9185 62.1948 79.5019 62.1418 79.0371C62.1115 78.7715 62.1515 78.5315 62.2617 78.3171C62.3719 78.1028 62.5006 77.9031 62.6479 77.7182C62.8284 77.5295 62.9756 77.3445 63.0896 77.1634C63.1998 76.949 63.2398 76.709 63.2095 76.4434C63.1679 76.0782 63.0431 75.7224 62.8353 75.3761C62.6607 75.0259 62.5526 74.6683 62.5109 74.303C62.4806 74.0374 62.5429 73.8453 62.6977 73.7268C62.882 73.5713 63.07 73.449 63.2619 73.3599C63.487 73.267 63.6807 73.1945 63.8431 73.1424C64.0349 73.0533 64.1252 72.9589 64.1138 72.8593C63.9914 72.6714 63.7972 72.5926 63.5313 72.6229C63.1325 72.6683 62.9577 72.9068 63.0069 73.3384C62.7554 73.1989 62.5351 73.039 62.3462 72.8587C62.1535 72.6452 62.0421 72.4056 62.0118 72.1399C61.9739 71.8079 62.0229 71.4996 62.1588 71.2151C62.2909 70.8973 62.4358 70.5445 62.5936 70.1565C62.7846 69.7648 62.9367 69.3271 63.0498 68.8433C63.163 68.3595 63.1817 67.7856 63.106 67.1215C63.0265 66.4243 62.8511 65.7715 62.5797 65.1634C62.3046 64.522 62.1291 63.8693 62.0534 63.2052C62.0155 62.8731 62.0441 62.5335 62.1392 62.1864C62.2675 61.8354 62.4143 61.4992 62.5797 61.1776C62.7745 60.8191 62.9545 60.4791 63.1199 60.1576C63.3147 59.7991 63.4411 59.4315 63.4991 59.0549C63.6266 58.4013 63.6506 57.7259 63.5711 57.0286C63.5248 56.3276 63.4619 55.6284 63.3824 54.9311C63.3361 54.2301 63.3083 53.5437 63.2991 52.8721C63.3193 52.1634 63.4615 51.4914 63.7257 50.8559C63.9642 50.2906 64.1476 49.8324 64.2759 49.4815C64.4042 49.1305 64.5178 48.7981 64.6167 48.4841C64.7118 48.1369 64.7883 47.7751 64.8464 47.3985C64.9007 46.9887 64.9417 46.4627 64.9695 45.8204C65.0258 44.8386 65.1691 43.8805 65.3992 42.9462C65.6626 42.0081 65.8058 41.05 65.8289 40.072C65.8121 39.3339 65.7753 38.7159 65.7185 38.2178C65.6912 37.6828 65.7212 37.2085 65.8087 36.7949C65.9295 36.3775 66.1556 35.9986 66.4871 35.6582C66.8519 35.314 67.416 34.947 68.1796 34.5574C69.0097 34.1602 69.8511 33.8626 70.7038 33.6647C71.5528 33.4335 72.4094 33.2688 73.2735 33.1704C74.2706 33.0569 75.3065 32.9895 76.3814 32.968C76.5455 33.5211 76.8202 34.0112 77.2056 34.4382C77.5872 34.8321 77.9854 35.224 78.4002 35.614C78.8482 36.0003 79.2649 36.4069 79.6503 36.8339C80.0651 37.224 80.3712 37.6937 80.5685 38.243C80.8218 38.9878 81.0048 39.7069 81.1175 40.4004C81.2597 41.0569 81.618 41.6888 82.1922 42.2962C82.4665 42.6349 82.6321 43.0533 82.6889 43.5514C82.776 44.3151 82.7596 45.0569 82.6397 45.7769C82.5198 46.4969 82.5015 47.2221 82.5848 47.9526C82.634 48.3842 82.8483 49.083 83.2278 50.0488C83.6073 51.0147 84.0461 52.0579 84.5442 53.1784C85.0385 54.2657 85.5143 55.3383 85.9717 56.3962C86.4252 57.4209 86.7691 58.2226 87.0034 58.8014C87.4464 60.0291 87.7437 61.307 87.8951 62.6352C88.0798 63.9596 88.4435 65.2299 88.9862 66.4463C89.5365 67.729 90.0369 69.0175 90.4875 70.3116C90.9343 71.5725 91.2871 72.8945 91.5458 74.2777C91.76 75.5651 92.07 76.8079 92.476 78.0062C92.8782 79.1713 93.2989 80.3511 93.7381 81.5456C94.1736 82.7069 94.5776 83.8886 94.9504 85.0906C95.3564 86.2889 95.6351 87.5521 95.7865 88.8803C95.8433 89.3783 95.8522 89.8987 95.8131 90.4413C95.8072 90.9801 95.6441 91.4695 95.324 91.9096C96.1166 92.6602 96.9999 93.4678 97.9738 94.3324C98.981 95.1932 99.9488 95.8566 100.877 96.3227C101.232 96.4841 101.765 96.5749 102.474 96.5951C103.183 96.6153 103.896 96.6686 104.613 96.7552C105.359 96.8048 106.016 96.9488 106.581 97.1871C107.177 97.3884 107.505 97.7547 107.565 98.2859ZM83.6153 73.8182C83.5813 73.5193 83.4214 73.1507 83.1357 72.7123C82.8463 72.2408 82.5179 71.7232 82.1506 71.1595C81.8166 70.5921 81.4935 69.973 81.1813 69.3022C80.8692 68.6314 80.6695 67.9142 80.5825 67.1505C80.4802 66.254 80.2469 65.3892 79.8826 64.5562C79.5145 63.69 79.2295 62.8143 79.0275 61.9291C78.8778 61.2062 78.7038 60.4187 78.5056 59.5668C78.3369 58.6779 78.0761 57.8667 77.7231 57.1333C77.3664 56.3666 76.8771 55.7664 76.2553 55.3327C75.6629 54.8619 74.8516 54.6852 73.8213 54.8025C73.7851 55.0757 73.6915 55.2881 73.5405 55.4399C73.3857 55.5584 73.1976 55.6807 72.9763 55.8068C72.7845 55.8959 72.576 55.9869 72.3509 56.0798C72.1259 56.1727 71.9563 56.3097 71.8423 56.4908C71.8869 56.5867 71.9206 56.7342 71.9433 56.9334C72.0114 57.5311 71.9429 58.1107 71.7376 58.6722C71.5617 59.1967 71.4044 59.736 71.2655 60.2899C71.0973 60.8809 70.9992 61.4975 70.9715 62.1397C70.9732 62.7449 71.0081 63.3464 71.0762 63.944C71.1368 64.4753 71.2121 64.9881 71.3022 65.4823C71.3922 65.9766 71.4656 66.4728 71.5224 66.9708C71.6095 67.7345 71.6187 68.4062 71.5502 68.9858C71.4778 69.5322 71.385 70.0472 71.2719 70.531C71.1587 71.0148 71.0603 71.48 70.9765 71.9268C70.889 72.3404 70.8718 72.7796 70.9248 73.2445C71.0384 74.2406 71.1701 75.1001 71.3198 75.823C71.4696 76.5459 71.6892 77.1432 71.9787 77.6148C72.2643 78.0531 72.6383 78.3806 73.1007 78.597C73.5593 78.7803 74.1708 78.8284 74.9352 78.7414C75.4669 78.6809 76.2238 78.5274 77.2057 78.2811C78.2209 78.0311 79.2099 77.6999 80.1729 77.2875C81.1654 76.8382 81.9988 76.3229 82.6732 75.7417C83.3808 75.1566 83.6949 74.5154 83.6153 73.8182Z" fill="#F2C94C"/>
<path fill-rule="evenodd" clip-rule="evenodd" d="M66.4291 0.265804C59.2032 1.10126 47.3707 5.09715 40.0134 9.18707C27.4688 16.1605 16.1569 27.4114 9.58245 39.454C6.24545 45.5668 4.49326 50.0719 1.78258 59.509C-0.568209 67.692 -0.599012 85.3423 1.72046 94.835C5.52055 110.385 11.6822 121.499 22.5295 132.368C27.0951 136.942 31.2473 140.357 35.3149 142.882C39.0241 145.185 43.7514 147.842 44.9522 148.298C45.751 148.603 47.1017 149.174 47.9529 149.568C50.9249 150.946 57.7545 152.952 62.8488 153.946C69.529 155.249 85.8382 155.371 91.4972 154.16C100.828 152.163 104.587 150.912 111.877 147.375C127.439 139.824 139.779 127.462 147.454 111.733C153.224 99.9058 155.002 91.8862 155 77.6943C154.998 67.9006 154.271 61.7374 152.447 56.0367C150.708 50.6016 150.212 49.2036 149.306 47.1848C148.767 45.9866 148.328 44.8583 148.328 44.6769C148.328 43.9026 142.759 34.6628 140.159 31.1226C134.424 23.3143 125.764 15.397 118.038 10.8991C116.202 9.83088 114.354 8.7416 113.931 8.47802C110.671 6.45309 102.358 3.38565 95.0786 1.52258C90.7724 0.419947 88.6341 0.209285 80.0472 0.0428106C74.5411 -0.0640617 68.4129 0.0361311 66.4291 0.265804ZM89.55 3.3502C114.21 7.66928 134.512 22.8893 145.1 44.9955C153.627 62.7995 154.811 82.0288 148.596 101.771C147.701 104.616 141.959 116.528 140.987 117.559C140.648 117.919 139.478 119.601 138.387 121.296C135.717 125.448 124.858 136.063 119.811 139.455C107.068 148.021 92.6015 152.459 77.4803 152.443C65.9573 152.43 55.7122 150.083 45.137 145.032C23.1867 134.548 7.83592 114.1 3.56147 89.6511C0.119728 69.963 5.22329 49.3161 17.7114 32.4071C21.2533 27.6112 30.6051 18.636 35.3801 15.4499C51.6175 4.6152 71.4644 0.182053 89.55 3.3502ZM63.6189 4.75393C55.2671 6.62522 51.4639 7.95958 44.0404 11.6215C37.0455 15.0717 31.7571 18.9546 25.4373 25.2796C14.3123 36.4138 8.30669 47.7202 4.86701 64.0064C3.62975 69.8633 3.74885 85.4436 5.07903 91.8199C7.23936 102.173 12.0595 113.406 17.4142 120.567C22.2918 127.09 26.4646 131.462 31.2756 135.089C32.8286 136.26 34.2147 137.351 34.3559 137.512C35.8103 139.177 44.7268 143.962 51.0409 146.468C75.8708 156.319 105.586 151.158 125.862 133.473C148.777 113.486 157.294 81.8212 147.45 53.2164C146.245 49.7153 141.012 38.8298 140.533 38.8298C140.302 38.8298 140.113 38.5739 140.113 38.261C140.113 37.4759 133.543 28.8089 130.805 25.9814C128.928 24.0439 125.946 21.4589 121.04 17.5134C117.766 14.8821 110.799 11.0758 105.203 8.86183C94.977 4.81559 89.5869 3.87634 77.0136 3.94828C70.2775 3.98681 65.8536 4.25296 63.6189 4.75393ZM90.5716 6.81533C93.1129 7.27005 97.5023 8.41019 100.326 9.34841C105.495 11.0666 114.848 15.5527 116.754 17.2282C117.319 17.7245 119.167 19.0687 120.861 20.2155C124.438 22.636 132.216 30.4598 135.671 35.1103C136.985 36.8799 138.06 38.4372 138.06 38.5708C138.06 38.7049 138.782 39.9894 139.665 41.4255C141.951 45.1429 145.45 53.3068 146.749 57.9532C151.253 74.0534 149.915 92.2474 143.177 106.547C142.339 108.326 141.654 109.88 141.654 110.001C141.654 110.741 136.542 118.657 133.77 122.21C123.089 135.898 105.743 145.949 88.2614 148.58C83.3729 149.316 70.8037 149.675 69.8837 149.106C69.6763 148.978 67.7778 148.632 65.6642 148.338C59.3875 147.464 50.9993 144.653 44.7396 141.328C32.3876 134.766 23.5368 126.36 15.5028 113.561C12.172 108.255 8.45968 98.2965 6.94262 90.5966C5.63914 83.9808 5.7336 70.0324 7.12642 63.4926C8.94586 54.9515 9.31755 53.9111 13.7748 44.8865C20.5504 31.1678 31.8336 20.0295 45.924 13.1501C53.3209 9.53852 52.6719 9.81444 56.1809 8.78168C67.1884 5.54211 79.5164 4.83716 90.5716 6.81533ZM76.1362 7.58553C75.9283 7.92208 76.0305 8.28842 76.3626 8.39889C76.7477 8.52734 76.9669 9.87558 76.9669 12.1117C76.9669 14.3478 76.7477 15.696 76.3626 15.8245C75.0309 16.2684 76.6501 17.2498 78.7145 17.2498C81.534 17.2498 82.6932 16.0274 82.974 12.7591C83.1321 10.9212 82.9242 9.89819 82.1367 8.64346C81.21 7.16626 80.825 6.97358 78.8017 6.97358C77.5434 6.97358 76.3442 7.24899 76.1362 7.58553ZM68.0514 9.0689C67.8728 9.96498 67.726 12.011 67.726 13.6146C67.726 15.2182 67.4487 16.8079 67.1099 17.147C66.6309 17.6264 66.8609 17.7636 68.1464 17.7636C69.6527 17.7636 69.7708 17.65 69.4771 16.4791C69.206 15.398 69.3354 15.1945 70.2929 15.1945C71.2503 15.1945 71.3797 15.398 71.1087 16.4791C70.8556 17.4882 70.9813 17.762 71.6949 17.7559C72.1945 17.7512 72.9497 17.52 73.3732 17.2421C74.0565 16.793 74.0565 16.6805 73.3758 16.2422C72.9532 15.9709 72.0292 13.9475 71.3222 11.7464C69.8914 7.29369 68.6151 6.2486 68.0514 9.0689ZM87.4682 9.2626C86.4152 10.3159 86.2078 11.0219 86.2078 13.5503C86.2078 16.9312 87.1104 18.2774 89.3775 18.2774C90.7816 18.2774 91.8269 17.2842 92.7828 15.0419C93.6904 12.9122 93.5292 10.879 92.331 9.35509C90.9849 7.64154 89.1228 7.60608 87.4682 9.2626ZM81.3764 10.3133C81.9565 12.627 80.7218 15.7083 79.2145 15.7083C78.6862 15.7083 78.507 14.8626 78.507 12.3686C78.507 9.15573 78.5553 9.02882 79.7808 9.02882C80.711 9.02882 81.1412 9.37513 81.3764 10.3133ZM56.9449 10.1921C55.089 11.0311 55.0546 11.0984 56.0926 11.8584C57.2036 12.6712 58.1287 15.6934 58.0969 18.4058C58.0846 19.4658 58.1323 20.3326 58.2032 20.3326C58.9075 20.3326 62.0186 18.989 62.7204 18.3817C63.6902 17.5426 63.9428 14.9417 63.1055 14.4238C62.8231 14.2491 62.5921 13.443 62.5921 12.6317C62.5921 9.88226 60.0555 8.7863 56.9449 10.1921ZM91.5707 11.5218C91.9542 13.3381 91.2447 15.7566 90.1281 16.4395C88.8302 17.2338 87.0426 15.0152 87.4944 13.1717C88.3558 9.65927 90.9551 8.60698 91.5707 11.5218ZM60.8815 12.8423C60.4657 13.9275 58.6806 13.8766 58.2555 12.7673C57.7504 11.4509 59.4661 10.3041 60.4569 11.2963C60.8615 11.7006 61.0525 12.3968 60.8815 12.8423ZM70.2852 13.0108C70.2893 13.3643 70.0619 13.6531 69.7795 13.6531C69.4971 13.6531 69.2697 13.017 69.2738 12.2401C69.28 11.139 69.3919 10.9972 69.7795 11.5979C70.0531 12.0218 70.2806 12.6579 70.2852 13.0108ZM48.1244 13.4147C46.2136 14.4531 45.9322 15.8157 47.0966 18.392C48.6285 21.7811 50.0896 23.0666 51.9809 22.6879C54.0868 22.2661 54.4626 21.5714 54.21 18.5661C54.0314 16.4441 53.6931 15.7505 52.1411 14.3272C50.0414 12.401 50.0049 12.3927 48.1244 13.4147ZM51.7391 15.7494C52.7998 16.8891 53.4128 19.0609 52.9866 20.1718C52.7038 20.9091 50.8941 21.0638 49.9058 20.4354C49.5639 20.2175 48.9068 19.136 48.4452 18.0313C47.6567 16.1415 47.6613 15.9827 48.5238 15.3518C49.8037 14.4146 50.5866 14.5117 51.7391 15.7494ZM62.5921 16.4791C62.5921 17.2128 61.0925 18.2774 60.0591 18.2774C59.2879 18.2774 59.3742 15.3297 60.1535 15.0496C61.0704 14.7208 62.5921 15.6123 62.5921 16.4791ZM109.232 17.1213C108.519 17.8987 107.42 19.2855 106.791 20.2042C106.162 21.1229 105.297 21.8741 104.869 21.8741C103.83 21.8741 104.221 22.8924 105.616 23.8193C106.658 24.5114 106.743 24.4857 106.743 23.4782C106.743 22.7414 107.066 22.3879 107.74 22.3879C109.107 22.3879 109.523 23.2454 108.447 23.8481C107.7 24.2663 107.668 24.4719 108.242 25.164C109.175 26.2887 110.483 26.2342 110.13 25.0854C109.977 24.5911 110.423 22.5677 111.119 20.5895C111.816 18.6114 112.387 16.7041 112.388 16.3506C112.392 15.2182 110.571 15.6631 109.232 17.1213ZM39.2176 18.5857C36.222 20.141 34.9817 21.8741 36.8643 21.8741C37.4588 21.8741 38.1488 22.541 38.6519 23.6015C39.1021 24.5515 39.8363 25.6331 40.2834 26.004C40.8014 26.4346 40.9873 27.1113 40.7963 27.8733C40.4508 29.2524 41.2743 29.4332 42.7626 28.3049C43.7077 27.5892 43.5845 25.6141 42.6317 26.2034C41.9509 26.6242 40.8687 25.091 41.2132 24.1929C41.665 23.0137 42.8642 23.2608 43.8268 24.7313C44.4023 25.61 45.0615 25.9943 45.8111 25.8874C47.286 25.6773 47.4026 23.6308 45.9327 23.7608C44.7843 23.8625 43.0834 22.1294 43.0834 20.8572C43.0834 20.3845 42.5562 19.5023 41.9119 18.8965C40.8132 17.8633 40.6459 17.8442 39.2176 18.5857ZM65.9291 19.9981C52.2669 23.1524 44.2416 27.6601 34.7199 37.5283C27.5946 44.9127 23.0629 53.6285 20.152 65.5478C18.8198 71.003 18.8357 83.229 20.1828 88.9262C21.5556 94.7348 22.8006 98.3839 24.8716 102.672C30.391 114.1 38.7063 122.763 49.8668 128.712C58.3746 133.248 64.2123 134.833 73.8866 135.234C83.3411 135.625 89.1778 134.949 95.7055 132.705C104.583 129.653 111.37 125.588 117.71 119.527C125.347 112.225 130.069 104.252 133.896 92.1986C135.768 86.3027 135.944 69.6635 134.197 63.7192C130.826 52.2515 127.964 46.7671 120.748 37.9547C118.916 35.7161 111.388 29.48 108.16 27.5249C98.9886 21.9717 89.9227 19.3533 78.7637 19.0337C72.044 18.841 70.4089 18.9638 65.9291 19.9981ZM109.972 19.8188C109.825 20.384 109.348 20.8464 108.914 20.8464C108.25 20.8464 108.272 20.683 109.054 19.8188C109.564 19.2536 110.041 18.7912 110.112 18.7912C110.183 18.7912 110.12 19.2536 109.972 19.8188ZM41.4406 20.441C41.5253 20.8783 41.2111 21.6197 40.7419 22.0888C39.9472 22.8842 39.8435 22.8796 39.2151 22.0225C38.6498 21.2513 38.6735 20.9564 39.3629 20.1918C40.2958 19.157 41.2127 19.267 41.4406 20.441ZM117.096 20.4611C117.404 21.9768 114.486 25.78 112.397 26.5867L111.119 27.08L112.397 28.0613C113.825 29.1594 114.77 29.1008 114.566 27.9267C114.32 26.5163 115.772 25.8098 117.604 26.449C119.038 26.9495 119.395 26.8806 120.438 25.8997C122.085 24.3516 121.936 23.2757 119.817 21.4137C117.914 19.7412 116.876 19.378 117.096 20.4611ZM83.3842 22.132C87.4605 22.4305 93.1806 23.6863 96.2189 24.9497C105.379 28.7596 111.231 32.6168 117.073 38.6967C125.076 47.0255 129.54 55.4279 131.884 66.5755C133.713 75.2799 133.089 85.3192 130.116 95.0133C129.294 97.6923 125.984 104.525 125.1 105.368C124.741 105.711 124.642 105.711 124.805 105.368C128.687 97.1882 129.213 95.8307 130.863 89.7072C132.363 84.1426 132.345 71.3955 130.828 65.2293C128.893 57.3608 125.031 49.0546 121.018 44.1312C119.431 42.1824 113.05 35.8271 110.941 34.0935C102.608 27.2439 89.762 22.9212 77.737 22.9202C63.3339 22.9186 50.3699 28.0182 39.7762 37.852C34.0253 43.1899 27.8159 53.1399 25.5375 60.6667C22.1486 71.8631 22.2964 85.1378 25.9215 95.0944C26.6407 97.0711 27.3718 99.151 27.5453 99.7162C28.1301 101.619 32.212 108.136 35.0192 111.647C41.0325 119.168 48.1316 124.509 56.7231 127.975C65.0271 131.326 68.7471 131.947 79.3305 131.749C85.4254 131.635 88.266 131.737 87.3573 132.038C86.5842 132.294 82.2548 132.525 77.737 132.552C71.4875 132.589 68.6018 132.38 65.6724 131.68C54.6931 129.058 46.3753 124.41 38.4229 116.453C28.626 106.652 23.2981 95.5199 22.1732 82.5035C20.9755 68.6466 24.3515 56.2073 32.3958 44.8357C39.6099 34.6381 50.4844 27.1324 63.3622 23.4627C66.693 22.5137 76.2286 21.3351 77.9937 21.6541C78.4172 21.7307 80.843 21.946 83.3842 22.132ZM119.572 23.1519C120.219 23.9324 119.958 25.4707 119.179 25.4707C118.941 25.4707 118.308 25.1491 117.77 24.7555C116.94 24.1482 116.896 23.9164 117.478 23.2141C118.328 22.189 118.763 22.1762 119.572 23.1519ZM30.0342 26.0164C28.2245 27.6066 27.5263 29.2919 28.8945 28.7668C29.661 28.4724 34.34 33.0268 34.3497 34.077C34.3579 34.9351 34.6613 34.8873 35.8904 33.8345C37.2113 32.7021 37.1939 32.2622 35.8201 32.0578C34.1459 31.808 33.4698 30.3946 34.5212 29.3423C36.0783 27.7839 35.2892 25.4137 32.9862 24.7308C32.1735 24.4899 31.3767 24.8367 30.0342 26.0164ZM86.4645 25.7364C88.7234 26.1109 91.7627 26.7552 93.2181 27.1689C99.253 28.884 108.312 34.2024 113.744 39.2197C116.489 41.7559 123.172 50.3108 123.172 51.2891C123.172 51.5979 123.484 52.216 123.866 52.662C125.014 54.0036 127.864 61.422 128.902 65.7683C130.304 71.6442 130.27 83.4325 128.833 89.3819C124.082 109.051 109.061 124.015 89.2882 128.778C83.2887 130.223 71.8233 130.254 65.9291 128.84C61.5515 127.791 54.1402 124.94 52.7972 123.789C52.3516 123.407 51.7458 123.094 51.4511 123.094C50.5414 123.094 42.032 116.507 39.6422 113.952C38.3978 112.622 36.6523 110.493 35.7636 109.222C34.8749 107.95 33.902 106.658 33.6017 106.35C32.5549 105.279 28.1367 95.9952 27.3641 93.2417C24.1934 81.9486 24.4013 70.7918 27.9801 60.1528C32.0467 48.0655 41.0376 37.6454 53.3512 30.7506C58.3022 27.9781 68.493 25.2076 75.17 24.8197C78.063 24.6512 81.6947 24.9461 86.4645 25.7364ZM33.6721 26.7953C33.843 27.2408 33.6048 27.9843 33.1427 28.4467C32.3645 29.2251 32.2402 29.2251 31.4619 28.4467C30.4126 27.396 30.8941 25.9845 32.3023 25.9845C32.885 25.9845 33.5011 26.3493 33.6721 26.7953ZM124.712 27.3148C124.712 28.4405 121.109 32.1502 120.016 32.1502C118.558 32.1502 118.39 33.1373 119.667 34.2029C121.16 35.4479 121.627 35.4787 121.648 34.3339C121.657 33.8391 121.953 33.0545 122.307 32.5895C122.865 31.8558 123.079 31.8389 123.929 32.4611C126.196 34.1207 129.177 32.6337 128.561 30.1495C127.932 27.6102 124.712 25.2385 124.712 27.3148ZM127.04 31.0651C126.635 32.3414 126.28 32.4025 124.945 31.4258C123.969 30.7116 123.969 30.6864 124.941 29.6115C125.792 28.6702 126.026 28.6209 126.655 29.2508C127.101 29.6963 127.25 30.4028 127.04 31.0651ZM23.2934 32.996C22.6014 33.7436 22.0346 34.5528 22.0346 34.7943C22.0346 35.0358 22.0367 35.4042 22.0392 35.6128C22.0413 35.8219 22.3303 35.9956 22.681 35.9982C23.8073 36.0079 28.1547 39.5696 28.1752 40.4996C28.2009 41.6578 28.8421 41.6429 29.9125 40.459C31.0841 39.1632 31.003 38.133 29.7544 38.4598C28.2317 38.8585 27.3708 37.5457 28.1716 36.0475C28.8503 34.7784 28.494 32.6954 27.4842 32.0295C26.3173 31.2603 24.5163 31.6755 23.2934 32.996ZM27.1685 34.4948C27.1685 35.4525 26.3065 35.8687 25.1103 35.4885C23.8731 35.0954 23.8197 34.5477 24.9127 33.4538C25.5493 32.8167 25.9004 32.7642 26.4528 33.2231C26.8466 33.5499 27.1685 34.1222 27.1685 34.4948ZM131.835 33.9486C131.8 34.0899 131.742 34.3956 131.707 34.6273C131.516 35.881 126.899 38.9844 125.694 38.6695C124.511 38.3596 124.359 39.5779 125.445 40.6646C126.482 41.7025 127.279 41.575 127.279 40.3712C127.279 39.806 127.491 39.3436 127.75 39.3436C128.009 39.3436 128.585 39.2038 129.029 39.0332C130.574 38.4403 130.615 40.3851 129.084 41.6069C127.977 42.4901 127.742 43.0009 128.027 43.8985C128.463 45.274 130.142 45.1661 130.023 43.7705C129.925 42.6222 131.588 40.8876 132.798 40.8773C135.43 40.8542 136.153 38.0863 134.197 35.5193C132.941 33.871 132.009 33.2513 131.835 33.9486ZM133.337 36.8773C134.188 37.7292 134.111 39.3436 133.219 39.3436C132.816 39.3436 132.115 38.9721 131.661 38.5184C131.025 37.8813 130.973 37.5298 131.431 36.977C132.158 36.0999 132.54 36.0798 133.337 36.8773ZM17.4208 41.2704C17.4244 41.7651 18.8034 43.4052 20.4852 44.9153C22.1666 46.4254 23.4921 47.8127 23.4305 47.9982C23.1148 48.9461 24.3243 48.6908 25.0046 47.6657C25.7372 46.5616 25.7161 46.4634 24.6822 46.1932C23.4896 45.8808 23.2051 44.7709 24.1662 44.1765C24.4912 43.9756 25.0349 44.1908 25.3742 44.6553C25.9394 45.4286 26.0693 45.4132 26.919 44.474C28.0217 43.2542 27.7245 42.8323 25.6468 42.6684C24.7987 42.6016 23.0634 42.0575 21.7918 41.4594C18.941 40.1184 17.4116 40.0521 17.4208 41.2704ZM22.548 43.454C22.548 43.7366 22.3308 43.9678 22.0649 43.9678C21.799 43.9678 21.4391 43.7366 21.2645 43.454C21.09 43.1714 21.3077 42.9402 21.7476 42.9402C22.1876 42.9402 22.548 43.1714 22.548 43.454ZM134.141 44.94C130.931 46.9258 130.084 49.3449 131.947 51.2095C133.251 52.5146 135.853 52.2258 138.417 50.4917C140.843 48.8501 141.447 47.1946 140.222 45.5452C138.955 43.8394 136.34 43.5794 134.141 44.94ZM138.861 46.635C139.598 48.9595 133.963 52.0979 133.099 49.8438C132.652 48.679 133.758 46.5821 135.104 46.0406C137.146 45.219 138.479 45.4302 138.861 46.635ZM142.68 53.3716C142.68 54.1957 137.96 55.9535 135.904 55.8949C134.476 55.8543 134.417 55.9355 134.75 57.4887C134.943 58.3889 135.299 59.5034 135.54 59.9653C136.206 61.2401 138.478 61.6182 139.893 60.6903C140.559 60.2535 141.673 59.8959 142.369 59.8959C143.69 59.8959 145.247 58.7039 145.247 57.6927C145.247 56.6276 143.577 52.7026 143.124 52.7026C142.88 52.7026 142.68 53.0037 142.68 53.3716ZM143.194 57.0397C143.194 58.7296 142.493 59.0533 141.415 57.8607C140.393 56.7304 140.749 55.7855 142.197 55.7855C142.911 55.7855 143.194 56.1405 143.194 57.0397ZM139.343 58.3617C139.343 60.1498 137.214 60.4693 136.58 58.7758C136.242 57.8715 136.335 57.498 136.969 57.2288C138.444 56.6004 139.343 57.0294 139.343 58.3617ZM136.717 65.6388C137.091 67.506 137.582 68.1534 137.916 67.2177C138.296 66.1521 139.6 66.4968 139.6 67.6632C139.6 68.4976 139.361 68.6882 138.573 68.4817C137.772 68.2721 137.546 68.4663 137.546 69.3639C137.546 70.8627 138.071 71.3539 138.779 70.5164C139.09 70.1495 141.018 69.3177 143.065 68.6682C145.878 67.7757 146.787 67.2604 146.787 66.5585C146.787 65.4425 145.098 64.9986 141.234 65.0993C139.732 65.1378 138.242 64.9081 137.922 64.588C136.878 63.5435 136.385 63.974 136.717 65.6388ZM143.194 67.0893C142.189 67.7387 141.14 67.7387 141.14 67.0893C141.14 66.8067 141.776 66.5791 142.552 66.5832C143.652 66.5893 143.794 66.7013 143.194 67.0893ZM8.27024 70.1922C6.77577 71.5856 6.85073 73.3115 8.47149 74.8355C9.53573 75.8358 10.3412 76.0809 12.5668 76.0809C14.8806 76.0809 15.5619 75.8559 16.7005 74.7168C19.3876 72.0275 16.8987 69.1445 11.8891 69.1445C10.0871 69.1445 9.08139 69.4358 8.27024 70.1922ZM15.5316 71.7988C16.7324 73.7046 14.0638 75.1849 10.9363 74.3479C9.7339 74.0262 9.45667 73.6707 9.45667 72.4524C9.45667 71.1931 9.7031 70.9069 10.9968 70.6638C12.9677 70.2944 14.8857 70.7743 15.5316 71.7988ZM146.383 73.5556C145.971 74.2929 145.295 74.3879 141.978 74.1747L138.06 73.9229V76.0784C138.06 79.5404 141.065 81.2309 144.943 79.9504C147.167 79.2157 148.328 77.6948 148.328 75.5157C148.328 73.4944 147.106 72.2628 146.383 73.5556ZM146.274 76.5583C146.274 77.8644 144.709 78.9069 142.747 78.9069C140.654 78.9069 139.6 78.1834 139.6 76.7489C139.6 75.953 140.066 75.824 142.937 75.824C145.487 75.824 146.274 75.9972 146.274 76.5583ZM8.49972 80.7751C7.59411 81.6815 7.14644 82.6808 7.14644 83.7953C7.14644 85.6743 8.48946 87.2511 9.16199 86.1619C9.38018 85.8079 10.9224 85.3305 12.5883 85.1009C15.0023 84.7684 15.7041 84.8332 16.0439 85.4204C16.3761 85.9944 16.6312 86.0237 17.199 85.552C18.2561 84.6739 18.0918 82.3376 16.8633 80.7746C15.933 79.5902 15.4268 79.4207 12.8265 79.4207C10.2986 79.4207 9.65073 79.6236 8.49972 80.7751ZM14.7327 81.2483C16.1209 82.221 16.2277 83.5312 14.9191 83.5312C14.3934 83.5312 12.8917 83.6781 11.5821 83.8579C9.2852 84.1729 9.19998 84.138 9.19998 82.873C9.19998 81.9101 9.57527 81.4246 10.6118 81.0454C12.6381 80.305 13.4436 80.3445 14.7327 81.2483ZM138.238 84.2859C136.693 85.3696 136.454 86.9059 137.604 88.3692C139.522 90.8093 144.351 91.3354 146.362 89.3233C147.192 88.4925 147.29 88.0029 146.919 86.5647C146.648 85.5201 145.962 84.5603 145.215 84.1811C143.498 83.3102 139.546 83.3698 138.238 84.2859ZM143.589 85.1086C145.42 85.7472 145.792 86.4229 145.196 88.027C144.388 90.204 138.573 89.1743 138.573 86.854C138.573 86.1737 140.53 84.6297 141.449 84.5855C141.759 84.5711 142.723 84.8059 143.589 85.1086ZM16.9008 88.6276C16.9008 88.9344 15.1511 89.9939 13.0129 90.9824C10.0614 92.3466 9.16815 92.9966 9.3042 93.6789C9.45873 94.4501 10.102 94.5781 13.8343 94.5781C16.2267 94.5781 18.4733 94.7651 18.826 94.9937C19.594 95.4911 19.7146 93.4518 18.9856 92.2988C18.5893 91.672 18.3916 91.6673 17.6708 92.2659C16.9516 92.8635 16.7555 92.8619 16.3822 92.2572C15.7544 91.2404 16.3001 90.6274 17.4958 91.0076C18.3706 91.2851 18.4938 91.1268 18.3511 89.9117C18.194 88.5742 16.9008 87.4289 16.9008 88.6276ZM14.8472 92.2659C14.8472 92.5485 14.4427 92.7761 13.9488 92.772C13.1808 92.7654 13.1623 92.6914 13.8205 92.2659C14.7892 91.6391 14.8472 91.6391 14.8472 92.2659ZM16.2015 98.6885C16.0393 99.1124 15.357 99.4593 14.686 99.4593C13.3163 99.4593 11.7669 100.904 11.7669 102.18C11.7669 103.29 13.382 106.653 13.9154 106.653C14.1454 106.653 14.3338 106.338 14.3338 105.953C14.3338 105.165 19.4123 103.056 21.3102 103.056C21.991 103.056 22.548 102.813 22.548 102.516C22.548 101.722 20.955 98.7481 20.2942 98.3109C19.2634 97.6286 16.5111 97.8824 16.2015 98.6885ZM19.9631 99.9392C20.6844 101.289 20.6567 101.392 19.3799 102.075C18.4604 102.568 18.1498 102.513 17.6031 101.765C17.1359 101.126 17.0912 100.577 17.4521 99.9022C18.1149 98.6628 19.2896 98.6803 19.9631 99.9392ZM15.7903 102.23C15.9993 103.315 15.03 104.122 13.9955 103.724C13.267 103.444 13.0601 101.933 13.667 101.325C14.3041 100.688 15.5998 101.24 15.7903 102.23ZM132.431 102.508C131.638 103.991 131.782 104.597 132.926 104.597C134.048 104.597 134.185 104.976 133.471 106.106C133.071 106.738 132.881 106.741 132.139 106.125C131.387 105.5 131.181 105.534 130.56 106.385C129.599 107.7 129.659 108.376 130.7 107.976C131.171 107.795 133.237 108.147 135.292 108.758C141.318 110.548 142.242 109.491 137.675 106.03C136.051 104.801 134.495 103.281 134.216 102.655C133.593 101.253 133.123 101.214 132.431 102.508ZM123.922 107.552C120.127 113.461 113.687 119.902 107.642 123.835C105.2 125.425 106.11 124.253 108.668 122.515C112.223 120.099 119.884 112.512 122.219 109.093C124.23 106.149 125.647 104.866 123.922 107.552ZM20.1921 107.624C18.3927 108.722 16.3874 111.08 16.3874 112.097C16.3874 113.306 18.5724 114.874 20.2578 114.874C21.2471 114.874 22.7123 114.27 24.0112 113.329C25.8907 111.966 26.1417 111.545 26.1417 109.75C26.1417 108.265 25.8737 107.573 25.1488 107.184C23.6662 106.391 21.9669 106.541 20.1921 107.624ZM136.776 107.166C136.951 107.449 136.747 107.68 136.324 107.68C135.9 107.68 135.411 107.449 135.236 107.166C135.062 106.884 135.265 106.653 135.689 106.653C136.113 106.653 136.602 106.884 136.776 107.166ZM24.4973 109.52C24.7545 111.321 23.0116 112.931 20.7229 113.008C19.0252 113.064 18.6725 112.899 18.5426 111.987C18.328 110.481 21.2204 108.088 23.0049 108.295C23.9064 108.4 24.3947 108.801 24.4973 109.52ZM127.813 110.998C126.611 112.278 126.82 113.618 128.142 113.11C129.294 112.668 130.909 113.986 130.333 114.898C129.664 115.957 129.735 118.154 130.462 118.881C131.841 120.261 133.972 119.41 135.628 116.818C136.737 115.083 136.737 114.925 135.621 114.988C134.266 115.064 129.247 111.726 129.546 110.947C130.015 109.723 128.981 109.753 127.813 110.998ZM27.6819 113.893C27.1151 114.294 27.0781 114.506 27.5407 114.694C28.5639 115.111 26.1561 117.956 24.7797 117.956C23.6251 117.956 22.548 119.264 22.548 120.666C22.548 121.493 25.5323 125.15 26.2069 125.15C26.4533 125.15 26.6551 124.707 26.6551 124.166C26.6551 122.764 31.7161 118.798 32.5847 119.519C33.8261 120.55 33.9934 118.954 32.7798 117.661C31.3762 116.166 30.7622 116.08 30.7622 117.38C30.7622 118.613 29.4659 119.701 28.4586 119.314C27.3733 118.898 27.4909 117.835 28.7415 116.763C30.5091 115.248 29.527 112.589 27.6819 113.893ZM133.269 115.658C134.256 116.645 133.793 117.956 132.459 117.956C131.153 117.956 130.889 117.462 131.429 116.03C131.945 114.665 132.222 114.609 133.269 115.658ZM122.431 118.071C121.329 119.645 121.423 120.012 122.931 120.012C124.622 120.012 125.012 121.131 123.908 122.817C121.705 126.181 126.079 128.279 128.98 125.25C130.443 123.721 130.83 122.29 129.658 122.74C128.705 123.106 124.198 119.11 124.198 117.899C124.198 116.597 123.409 116.673 122.431 118.071ZM27.1387 120.233C27.6269 120.821 27.5304 121.084 26.6556 121.553C25.4394 122.204 24.0882 121.495 24.0882 120.206C24.0882 119.269 26.3563 119.289 27.1387 120.233ZM127.402 123.292C128.25 123.936 128.247 124.016 127.362 124.817C125.668 126.352 124.198 125.529 125.22 123.619C125.864 122.413 126.183 122.365 127.402 123.292ZM36.9228 124.059C36.9228 125.807 35.6927 126.305 33.8779 125.29C32.2531 124.381 32.2479 124.382 30.9927 125.821C30.3012 126.614 29.7354 127.473 29.7354 127.73C29.7354 128.556 32.8958 131.829 33.6941 131.829C34.149 131.829 34.3513 131.53 34.1865 131.101C34.033 130.7 34.4878 129.717 35.1973 128.917C35.9068 128.117 36.8427 126.942 37.2776 126.306C37.7119 125.67 38.503 125.15 39.0354 125.15C40.2439 125.15 40.2675 124.693 39.1047 123.81C37.8228 122.836 36.9228 122.939 36.9228 124.059ZM116.074 124.283C114.705 125.742 114.67 126.177 115.922 126.177C117.403 126.177 118.323 127.527 117.509 128.507C116.934 129.201 116.672 129.109 115.341 127.747C114.093 126.469 113.651 126.291 112.821 126.735C111.564 127.409 111.804 128.992 113.17 129.035C114.926 129.09 115.984 129.841 115.984 131.034C115.984 132.41 117.478 133.89 118.848 133.871C120.213 133.852 123.422 131.108 122.958 130.357C122.754 130.027 122.387 129.881 122.141 130.033C121.896 130.185 121.277 129.712 120.765 128.982C120.253 128.252 119.29 126.971 118.625 126.135C117.643 124.901 117.534 124.473 118.046 123.855C119.134 122.543 117.342 122.933 116.074 124.283ZM105.716 124.854C105.716 125.295 99.8413 128.242 99.3223 128.062C99.0271 127.96 100.287 127.157 102.123 126.278C105.814 124.51 105.716 124.548 105.716 124.854ZM33.5694 126.873C34.4308 127.503 34.4473 127.671 33.7475 128.671C32.9815 129.766 32.9682 129.766 32.0631 128.766C31.5615 128.211 31.2874 127.402 31.4537 126.967C31.8264 125.995 32.3388 125.972 33.5694 126.873ZM44.0142 129.902C43.8545 131.559 43.835 131.571 41.3929 131.399C36.9685 131.088 35.9874 133.677 39.4805 136.446C41.3112 137.897 43.0701 138.192 42.282 136.916C41.8318 136.187 44.4644 131.957 45.9923 130.955L47.3137 130.089L46.1684 129.161C44.5666 127.863 44.1985 127.989 44.0142 129.902ZM98.2467 128.679C97.5177 129.347 91.3001 131.322 90.087 131.272C89.5063 131.248 90.8796 130.587 93.1385 129.803C97.5285 128.281 99.0471 127.946 98.2467 128.679ZM120.605 130.936C120.605 131.716 118.948 132.78 118.188 132.488C117.288 132.142 117.354 131.328 118.372 130.201C119.017 129.489 119.386 129.402 119.913 129.839C120.293 130.155 120.605 130.649 120.605 130.936ZM105.737 130.899C104.493 132.234 104.435 133.149 105.441 135.558C106.208 137.395 108.901 140.05 109.997 140.05C110.869 140.05 113.417 137.572 113.417 136.723C113.417 134.17 109.956 129.774 107.946 129.774C107.306 129.774 106.312 130.28 105.737 130.899ZM48.9458 132.728C48.9227 133.505 48.5289 135.479 48.0705 137.114C47.2116 140.178 47.3343 141.592 48.4591 141.592C49.0495 141.592 50.2216 140.068 52.5107 136.325C52.9861 135.548 53.7023 134.912 54.1027 134.912C55.1649 134.912 55.6527 133.843 54.8287 133.321C53.6556 132.577 52.1781 132.762 52.5036 133.611C52.8609 134.542 52.177 135.021 51.0871 134.602C50.1348 134.236 49.9977 133.034 50.8751 132.741C51.7237 132.458 50.9064 131.315 49.8555 131.315C49.261 131.315 48.974 131.76 48.9458 132.728ZM110.325 133.215C111.668 134.924 111.574 137.641 110.163 137.909C108.285 138.265 105.491 133.956 106.519 132.29C107.109 131.335 109.258 131.858 110.325 133.215ZM41.5648 133.139C42.1101 133.798 42.0767 134.085 41.3708 134.791C40.6022 135.56 40.4374 135.567 39.7274 134.857C38.8608 133.989 39.2043 132.343 40.2521 132.343C40.6105 132.343 41.2014 132.702 41.5648 133.139ZM99.0425 133.733C96.3955 134.702 95.0324 138.124 96.7322 139.536C97.1558 139.888 97.5023 140.69 97.5023 141.318C97.5023 142.644 98.9742 144.163 100.079 143.976C101.255 143.777 104.69 142.563 104.69 142.346C104.69 142.24 104.127 141.588 103.438 140.899C102.633 140.094 101.954 138.524 101.538 136.508C100.907 133.45 100.637 133.15 99.0425 133.733ZM100.318 138.007C99.809 138.832 97.4967 138.578 97.144 137.658C96.9335 137.11 97.2477 136.459 98.027 135.827C99.2319 134.851 99.2391 134.852 99.9322 136.176C100.315 136.907 100.489 137.731 100.318 138.007ZM50.2708 136.967C49.9685 137.533 49.6358 137.995 49.5305 137.995C49.4258 137.995 49.4612 137.533 49.6086 136.967C49.7564 136.402 50.0896 135.94 50.3489 135.94C50.6092 135.94 50.5742 136.4 50.2708 136.967ZM90.0228 137.025C89.8288 137.339 89.9864 137.792 90.3735 138.031C90.9115 138.364 90.9351 138.607 90.4736 139.069C89.5592 139.984 88.2922 139.272 88.6177 138.026C88.8451 137.156 88.6552 136.967 87.5514 136.967C86.2191 136.967 85.618 138.226 86.7674 138.61C87.0749 138.712 87.8856 140.395 88.5684 142.35C90.6343 148.262 92.0974 148.212 92.1446 142.228C92.1657 139.606 92.4255 137.775 92.8495 137.263C93.4358 136.556 93.3218 136.454 91.948 136.454C91.0835 136.454 90.2169 136.71 90.0228 137.025ZM68.4955 138.301C66.2156 140.763 66.329 146.77 68.6665 147.363C70.2888 147.774 72.674 146.776 73.2875 145.429C74.497 142.771 73.8399 139.134 71.8777 137.626C70.6435 136.678 69.8524 136.836 68.4955 138.301ZM80.0924 137.887C77.5855 138.295 76.5074 141.059 77.4664 144.623C78.1087 147.01 79.4835 147.995 82.0366 147.899C84.3201 147.813 85.1842 146.964 83.9253 146.043C83.1116 145.447 83.0161 144.821 83.2302 141.481C83.5023 137.24 83.5737 137.321 80.0924 137.887ZM72.0558 140.656C72.5492 141.832 72.6005 142.697 72.2371 143.74C71.6071 145.548 71.0814 145.882 69.4935 145.484C68.3821 145.205 68.2393 144.889 68.2393 142.712C68.2393 141.361 68.5166 139.978 68.8554 139.639C69.9761 138.518 71.3392 138.951 72.0558 140.656ZM81.5874 142.589C81.5874 144.268 81.342 145.794 81.0416 145.979C80.0246 146.608 78.507 144.61 78.507 142.642C78.507 140.589 79.2376 139.536 80.6633 139.536C81.4493 139.536 81.5874 139.992 81.5874 142.589ZM101.513 141.214C101.734 142.359 100.291 142.929 99.2863 142.095C98.6888 141.598 98.6508 141.293 99.1174 140.73C99.8983 139.789 101.293 140.07 101.513 141.214ZM90.8206 141.977C90.8144 143.078 90.7025 143.22 90.3149 142.619C89.666 141.614 89.666 140.564 90.3149 140.564C90.5973 140.564 90.8247 141.2 90.8206 141.977Z" fill="#F2C94C"/>

</svg>
