<svg width="25" height="25" viewBox="0 0 25 25" fill="none" xmlns="http://www.w3.org/2000/svg">
<path d="M12.3734 0.333328C10.0337 0.337773 7.7459 1.0225 5.78851 2.30409C3.83111 3.58569 2.28865 5.40885 1.34901 7.5515C0.409361 9.69415 0.113084 12.0638 0.496262 14.3718C0.879441 16.6799 1.92554 18.8267 3.50713 20.5508C4.63673 21.7752 6.0077 22.7524 7.53366 23.4208C9.05961 24.0892 10.7075 24.4342 12.3734 24.4342C14.0393 24.4342 15.6871 24.0892 17.2131 23.4208C18.739 22.7524 20.11 21.7752 21.2396 20.5508C22.8212 18.8267 23.8673 16.6799 24.2505 14.3718C24.6337 12.0638 24.3374 9.69415 23.3977 7.5515C22.4581 5.40885 20.9156 3.58569 18.9582 2.30409C17.0008 1.0225 14.713 0.337773 12.3734 0.333328ZM12.3734 22.0466C9.8745 22.0428 7.47452 21.0698 5.67846 19.3324C6.22375 18.0049 7.15138 16.8695 8.34346 16.0705C9.53554 15.2714 10.9383 14.8448 12.3734 14.8448C13.8085 14.8448 15.2112 15.2714 16.4033 16.0705C17.5954 16.8695 18.523 18.0049 19.0683 19.3324C17.2722 21.0698 14.8722 22.0428 12.3734 22.0466ZM9.96079 9.98366C9.96079 9.50649 10.1023 9.04005 10.3674 8.6433C10.6325 8.24655 11.0093 7.93733 11.4501 7.75472C11.891 7.57212 12.376 7.52434 12.844 7.61743C13.312 7.71052 13.7419 7.9403 14.0793 8.27771C14.4167 8.61511 14.6465 9.04499 14.7396 9.51299C14.8327 9.98098 14.7849 10.4661 14.6023 10.9069C14.4197 11.3478 14.1105 11.7245 13.7137 11.9896C13.317 12.2547 12.8505 12.3962 12.3734 12.3962C11.7335 12.3962 11.1199 12.1421 10.6674 11.6896C10.215 11.2372 9.96079 10.6235 9.96079 9.98366ZM20.7088 17.2214C19.6311 15.3779 17.9723 13.9439 15.9922 13.1441C16.6065 12.4477 17.0067 11.5888 17.1448 10.6706C17.283 9.75231 17.1533 8.81369 16.7712 7.96734C16.3892 7.12099 15.771 6.40285 14.9909 5.89911C14.2108 5.39538 13.302 5.12743 12.3734 5.12743C11.4448 5.12743 10.5359 5.39538 9.75583 5.89911C8.97575 6.40285 8.35759 7.12099 7.97554 7.96734C7.59348 8.81369 7.46375 9.75231 7.60192 10.6706C7.7401 11.5888 8.14029 12.4477 8.7545 13.1441C6.77449 13.9439 5.11568 15.3779 4.0379 17.2214C3.17895 15.7583 2.72512 14.0928 2.72304 12.3962C2.72304 9.83681 3.73977 7.38222 5.54956 5.57243C7.35935 3.76264 9.81395 2.74591 12.3734 2.74591C14.9328 2.74591 17.3874 3.76264 19.1972 5.57243C21.007 7.38222 22.0237 9.83681 22.0237 12.3962C22.0216 14.0928 21.5678 15.7583 20.7088 17.2214Z" fill="#FFE835"/>
</svg>
