<svg width="80" height="80" viewBox="0 0 80 80" fill="none" xmlns="http://www.w3.org/2000/svg">
<path d="M18.6154 70.74C33.9866 70.74 44.5421 78.7022 51.9488 78.7022C59.3554 78.7022 74.911 74.4444 74.911 40.3711C74.911 6.29775 53.9843 1.29553 45.8377 1.29553C7.68878 1.29553 -8.60678 70.74 18.6154 70.74Z" fill="#EFEFEF"/>
<path d="M14.1667 52.7089H16.389V57.1533H14.1667V52.7089Z" fill="#B7B7B7"/>
<path d="M14.1667 65.4866H16.389V69.931H14.1667V65.4866Z" fill="#B7B7B7"/>
<path d="M6.38892 59.9312H10.8334V62.1534H6.38892V59.9312Z" fill="#B7B7B7"/>
<path d="M19.1667 59.9312H23.6112V62.1534H19.1667V59.9312Z" fill="#B7B7B7"/>
<path d="M32.7778 60.5556V46.1111C32.7778 43.6667 34.7778 41.6667 37.2223 41.6667H49.4445L56.1112 35V41.6667H60.5556C63.0001 41.6667 65.0001 43.6667 65.0001 46.1111V60.5556C65.0001 63 63.0001 65 60.5556 65H37.2223C34.7778 65 32.7778 63 32.7778 60.5556Z" fill="#F3F3F1"/>
<path d="M47.2222 19.4444V33.8889C47.2222 36.3333 45.2222 38.3333 42.7778 38.3333H30.5556L23.8889 45V38.3333H19.4444C17 38.3333 15 36.3333 15 33.8889V19.4444C15 17 17 15 19.4444 15H42.7778C45.2222 15 47.2222 17 47.2222 19.4444Z" fill="#BFD8F4"/>
<path d="M37.2223 60.5556V46.1112C37.2223 43.6667 39.2223 41.6667 41.6667 41.6667H37.2223C34.7778 41.6667 32.7778 43.6667 32.7778 46.1112V60.5556C32.7778 63.0001 34.7778 65.0001 37.2223 65.0001H41.6667C39.2223 65.0001 37.2223 63.0001 37.2223 60.5556Z" fill="#BFD8F4"/>
<path d="M19.4444 33.8889V19.4444C19.4444 17 21.4444 15 23.8889 15H19.4444C17 15 15 17 15 19.4444V33.8889C15 36.3333 17 38.3333 19.4444 38.3333H23.8889C21.4444 38.3333 19.4444 36.3333 19.4444 33.8889Z" fill="#BFD8F4"/>
<path d="M53.3332 60.0001H49.9999V51.1112C49.9999 50.4979 49.5021 50.0001 48.8888 50.0001C48.2754 50.0001 47.7777 50.4979 47.7777 51.1112V60.0001H44.4443V51.1112C44.4443 48.6601 46.4377 46.6667 48.8888 46.6667C51.3399 46.6667 53.3332 48.6601 53.3332 51.1112V60.0001Z" fill="#101521"/>
<path d="M44.4443 53.3333H53.3332V56.6666H44.4443V53.3333Z" fill="#101521"/>
<path d="M23.8888 46.6667C23.6733 46.6667 23.4577 46.6245 23.251 46.5401C22.6288 46.2823 22.2221 45.6734 22.2221 45V40H19.4444C16.0733 40 13.3333 37.26 13.3333 33.8889V19.4445C13.3333 16.0734 16.0733 13.3334 19.4444 13.3334H42.7777C46.1488 13.3334 48.8888 16.0734 48.8888 19.4445V33.8889C48.8888 37.26 46.1488 40 42.7777 40H31.2466L25.0688 46.1778C24.7488 46.4978 24.3221 46.6667 23.8888 46.6667ZM19.4444 16.6667C17.9133 16.6667 16.6666 17.9134 16.6666 19.4445V33.8889C16.6666 35.42 17.9133 36.6667 19.4444 36.6667H23.8888C24.8088 36.6667 25.5555 37.4134 25.5555 38.3334V40.9756L29.3777 37.1534C29.691 36.84 30.1155 36.6645 30.5555 36.6645H42.7777C44.3088 36.6645 45.5555 35.4178 45.5555 33.8867V19.4423C45.5555 17.9112 44.3088 16.6645 42.7777 16.6645H19.4444V16.6667Z" fill="#101521"/>
<path d="M60.5555 66.6666H37.2222C33.8511 66.6666 31.1111 63.9266 31.1111 60.5555V44.6666H34.4444V60.5555C34.4444 62.0866 35.6911 63.3333 37.2222 63.3333H60.5555C62.0866 63.3333 63.3333 62.0866 63.3333 60.5555V46.1111C63.3333 44.58 62.0866 43.3333 60.5555 43.3333H56.1111C55.1911 43.3333 54.4444 42.5866 54.4444 41.6666V39.0244L53.9555 39.5133L51.5978 37.1555L54.9311 33.8222C55.4089 33.3444 56.1244 33.2022 56.7466 33.46C57.3711 33.7177 57.7778 34.3266 57.7778 35V40H60.5555C63.9266 40 66.6666 42.74 66.6666 46.1111V60.5555C66.6666 63.9266 63.9266 66.6666 60.5555 66.6666Z" fill="#101521"/>
<path d="M31.6667 33.3333H30.5556C28.4112 33.3333 26.6667 31.5889 26.6667 29.4444V23.8889C26.6667 21.7444 28.4112 20 30.5556 20H31.6667C33.8112 20 35.5556 21.7444 35.5556 23.8889V29.4444C35.5556 31.5889 33.8112 33.3333 31.6667 33.3333ZM30.5556 23.3333C30.249 23.3333 30.0001 23.5822 30.0001 23.8889V29.4444C30.0001 29.7511 30.249 30 30.5556 30H31.6667C31.9734 30 32.2223 29.7511 32.2223 29.4444V23.8889C32.2223 23.5822 31.9734 23.3333 31.6667 23.3333H30.5556Z" fill="#101521"/>
<path d="M29.3025 29.4448L31.6595 27.0878L36.2384 31.6667L33.8814 34.0237L29.3025 29.4448Z" fill="#101521"/>
</svg>
