<svg width="18" height="18" viewBox="0 0 18 18" fill="none" xmlns="http://www.w3.org/2000/svg">
<path d="M9.00008 8.1665C8.77907 8.1665 8.56711 8.2543 8.41083 8.41058C8.25455 8.56686 8.16675 8.77882 8.16675 8.99984V12.3332C8.16675 12.5542 8.25455 12.7661 8.41083 12.9224C8.56711 13.0787 8.77907 13.1665 9.00008 13.1665C9.2211 13.1665 9.43306 13.0787 9.58934 12.9224C9.74562 12.7661 9.83342 12.5542 9.83342 12.3332V8.99984C9.83342 8.77882 9.74562 8.56686 9.58934 8.41058C9.43306 8.2543 9.2211 8.1665 9.00008 8.1665ZM9.31675 4.89984C9.11387 4.81649 8.8863 4.81649 8.68342 4.89984C8.58113 4.9395 8.48767 4.99897 8.40842 5.07484C8.33481 5.15584 8.27562 5.24885 8.23342 5.34984C8.18677 5.44874 8.16394 5.55719 8.16675 5.6665C8.16612 5.77618 8.18714 5.88489 8.22861 5.98643C8.27008 6.08796 8.33118 6.1803 8.40842 6.25817C8.48942 6.33178 8.58243 6.39097 8.68342 6.43317C8.80967 6.48504 8.94672 6.5051 9.08254 6.4916C9.21836 6.47809 9.34878 6.43144 9.46235 6.35573C9.57591 6.28002 9.66914 6.17757 9.73384 6.0574C9.79854 5.93722 9.83274 5.80299 9.83342 5.6665C9.83035 5.44587 9.74403 5.23453 9.59175 5.07484C9.5125 4.99897 9.41904 4.9395 9.31675 4.89984ZM9.00008 0.666504C7.35191 0.666504 5.74074 1.15525 4.37033 2.07092C2.99992 2.9866 1.93182 4.28809 1.30109 5.81081C0.670359 7.33353 0.505331 9.00908 0.826874 10.6256C1.14842 12.2421 1.94209 13.727 3.10753 14.8924C4.27297 16.0578 5.75782 16.8515 7.37433 17.173C8.99084 17.4946 10.6664 17.3296 12.1891 16.6988C13.7118 16.0681 15.0133 15 15.929 13.6296C16.8447 12.2592 17.3334 10.648 17.3334 8.99984C17.3334 7.90549 17.1179 6.82186 16.6991 5.81081C16.2803 4.79976 15.6665 3.8811 14.8926 3.10728C14.1188 2.33346 13.2002 1.71963 12.1891 1.30084C11.1781 0.882052 10.0944 0.666504 9.00008 0.666504ZM9.00008 15.6665C7.68154 15.6665 6.39261 15.2755 5.29628 14.543C4.19996 13.8104 3.34547 12.7692 2.84089 11.5511C2.3363 10.3329 2.20428 8.99244 2.46152 7.69924C2.71875 6.40603 3.35369 5.21814 4.28604 4.28579C5.21839 3.35344 6.40628 2.7185 7.69948 2.46127C8.99269 2.20403 10.3331 2.33606 11.5513 2.84064C12.7695 3.34522 13.8107 4.19971 14.5432 5.29604C15.2758 6.39236 15.6668 7.6813 15.6668 8.99984C15.6668 10.7679 14.9644 12.4636 13.7141 13.7139C12.4639 14.9641 10.7682 15.6665 9.00008 15.6665Z" fill="#6D6D6D"/>
</svg>
