<svg width="100" height="100" viewBox="0 0 100 100" fill="none" xmlns="http://www.w3.org/2000/svg">
<path d="M23.2695 88.4249C42.4834 88.4249 55.6779 98.3777 64.9362 98.3777C74.1945 98.3777 93.639 93.0555 93.639 50.4638C93.639 7.87216 67.4807 1.61938 57.2973 1.61938C9.61122 1.61938 -10.7582 88.4249 23.2695 88.4249Z" fill="#EFEFEF"/>
<path d="M8.31152 26.709L10.2757 24.7448L14.2041 28.6732L12.2399 30.6374L8.31152 26.709Z" fill="#A4AFC1"/>
<path d="M19.604 38.0061L21.5682 36.0419L25.4966 39.9703L23.5324 41.9345L19.604 38.0061Z" fill="#A4AFC1"/>
<path d="M7.82324 39.9592L11.7516 36.0309L13.7158 37.995L9.78743 41.9234L7.82324 39.9592Z" fill="#A4AFC1"/>
<path d="M19.1177 28.6665L23.0461 24.7381L25.0102 26.7023L21.0819 30.6307L19.1177 28.6665Z" fill="#A4AFC1"/>
<path d="M50.0002 35.2028L43.5613 39.5833L45.5363 31.7917L39.5835 26.7083L47.2418 26.2722L50.0002 18.75L52.7585 26.2722L60.4168 26.7083L54.4641 31.7917L56.4391 39.5833L50.0002 35.2028Z" fill="#F3F3F1"/>
<path d="M38.1943 49.3054H61.8055V81.2499H38.1943V49.3054Z" fill="#BFD8F4"/>
<path d="M61.8057 71.5278H81.2501V81.2501H61.8057V71.5278Z" fill="#F3F3F1"/>
<path d="M18.75 65.9722H38.1944V81.2499H18.75V65.9722Z" fill="#F3F3F1"/>
<path d="M50.0002 35.2028L50.7863 35.7361L51.7863 31.7917L45.8335 26.7083L53.1252 26.2944L52.7585 26.2722L50.0002 18.75L47.2418 26.2722L39.5835 26.7083L45.5363 31.7917L43.5613 39.5833L50.0002 35.2028Z" fill="#D5DBE1"/>
<path d="M61.8057 71.5278H68.0557V81.2501H61.8057V71.5278Z" fill="#D5DBE1"/>
<path d="M18.75 65.9722H25V81.2499H18.75V65.9722Z" fill="#D5DBE1"/>
<path d="M38.1943 49.3054H44.4443V81.2499H38.1943V49.3054Z" fill="#BFD8F4"/>
<path d="M56.439 41.6667C56.0307 41.6667 55.6223 41.5473 55.2668 41.3056L50.0001 37.7223L44.7334 41.3056C44.0195 41.7945 43.0751 41.789 42.3668 41.289C41.6584 40.7917 41.3279 39.9112 41.5418 39.0695L43.2001 32.5334L38.2307 28.289C37.5834 27.7362 37.339 26.8445 37.6112 26.039C37.8834 25.2306 38.6168 24.6723 39.4668 24.6223L45.7584 24.2667L48.0473 18.0306C48.3446 17.2112 49.1279 16.6667 50.0001 16.6667C50.8723 16.6667 51.6557 17.2112 51.9557 18.0334L54.2445 24.2695L60.5362 24.6251C61.3862 24.6751 62.1195 25.2334 62.3918 26.0417C62.664 26.8473 62.4195 27.7362 61.7723 28.2917L56.8029 32.5362L58.4612 39.0723C58.6751 39.914 58.3445 40.7945 57.6362 41.2917C57.2751 41.5417 56.8557 41.6667 56.439 41.6667ZM50.0001 33.1195C50.4084 33.1195 50.8168 33.239 51.1723 33.4806L53.0695 34.7723L52.4445 32.3056C52.2501 31.5362 52.5084 30.7251 53.1112 30.2084L55.1195 28.4945L52.6418 28.3529C51.8112 28.3029 51.089 27.7695 50.8029 26.989L50.0001 24.8001L49.1973 26.989C48.9112 27.7695 48.189 28.3056 47.3584 28.3529L44.8807 28.4945L46.889 30.2084C47.4918 30.7251 47.7501 31.5362 47.5557 32.3056L46.9307 34.7723L48.8279 33.4806C49.1834 33.239 49.5918 33.1195 50.0001 33.1195Z" fill="black"/>
<path d="M61.8053 83.3333H38.1942C37.0442 83.3333 36.1108 82.3999 36.1108 81.2499V49.3055C36.1108 48.1555 37.0442 47.2222 38.1942 47.2222H61.8053C62.9553 47.2222 63.8886 48.1555 63.8886 49.3055V81.2499C63.8886 82.3999 62.9553 83.3333 61.8053 83.3333ZM40.2775 79.1666H59.7219V51.3888H40.2775V79.1666Z" fill="black"/>
<path d="M81.2499 83.3335H61.8055C60.6555 83.3335 59.7222 82.4001 59.7222 81.2501V71.5279C59.7222 70.3779 60.6555 69.4446 61.8055 69.4446H81.2499C82.3999 69.4446 83.3333 70.3779 83.3333 71.5279V81.2501C83.3333 82.4001 82.3999 83.3335 81.2499 83.3335ZM63.8888 79.1668H79.1666V73.6112H63.8888V79.1668Z" fill="black"/>
<path d="M38.1943 83.3334H18.7498C17.5998 83.3334 16.6665 82.4 16.6665 81.25V65.9723C16.6665 64.8223 17.5998 63.8889 18.7498 63.8889H38.1943C39.3443 63.8889 40.2776 64.8223 40.2776 65.9723V81.25C40.2776 82.4 39.3443 83.3334 38.1943 83.3334ZM20.8332 79.1667H36.111V68.0556H20.8332V79.1667Z" fill="black"/>
<path d="M52.0833 72.2221H47.9166V62.4999H47.2222V58.3333H49.9999C51.1499 58.3333 52.0833 59.2666 52.0833 60.4166V72.2221Z" fill="black"/>
<path d="M5.55566 79.1667H94.4446V83.3334H5.55566V79.1667Z" fill="black"/>
</svg>
