<svg width="22" height="17" viewBox="0 0 22 17" fill="none" xmlns="http://www.w3.org/2000/svg">
<path d="M17.6346 1.05113C17.6488 0.409899 17.6232 0.00473479 17.6232 0.00473479L11.0334 0H11H10.9666L4.3761 0.00473479C4.3761 0.00473479 4.3512 0.409899 4.36543 1.05113H0V1.73565C0 1.89189 0.0277419 5.57761 2.41994 7.59667C3.41794 8.43878 4.66277 8.86221 6.13024 8.86289C6.35217 8.86289 6.58051 8.84868 6.81169 8.82975C7.64537 9.91537 8.60851 10.6756 9.69187 11.0544V14.061H6.51151V15.9441H5.46088V17H10.9666H11.0334H16.5391V15.9448H15.4878V14.0617H12.3074V11.0551C13.3901 10.6763 14.3539 9.91605 15.1876 8.83042C15.4202 8.84936 15.6485 8.86289 15.8705 8.86289C17.3372 8.86154 18.5821 8.43878 19.5801 7.59599C21.9723 5.57693 22 1.89122 22 1.73497V1.05113H17.6346ZM3.38024 6.57598C2.01377 5.42609 1.60974 3.45776 1.49024 2.42016H4.44794C4.57314 3.71277 4.86763 5.32328 5.54695 6.73899C5.67143 6.99873 5.80232 7.24494 5.93605 7.48573C4.91671 7.44853 4.05885 7.14618 3.38024 6.57598ZM18.6198 6.57598C17.9419 7.14686 17.0833 7.44853 16.0647 7.48573C16.1984 7.24561 16.3293 6.99873 16.4538 6.73899C17.1331 5.32328 17.4276 3.71277 17.5521 2.42016H20.5098C20.3903 3.45709 19.9869 5.42542 18.6198 6.57598Z" fill="url(#paint0_linear)"/>
<defs>
<linearGradient id="paint0_linear" x1="11" y1="0" x2="11" y2="17" gradientUnits="userSpaceOnUse">
<stop stop-color="#808284"/>
<stop offset="1" stop-color="#A9B1B9"/>
</linearGradient>
</defs>
</svg>
