<svg width="8" height="5" viewBox="0 0 8 5" fill="none" xmlns="http://www.w3.org/2000/svg">
<path d="M7.75002 0.377518C7.6095 0.23783 7.41941 0.159424 7.22127 0.159424C7.02313 0.159424 6.83305 0.23783 6.69252 
0.377518L4.00002 3.03252L1.34502 0.377518C1.2045 0.23783 1.01441 0.159424 0.816273 0.159424C0.618133 0.159424 0.428044
0.23783 0.287523 0.377518C0.217226 0.44724 0.16143 0.530191 0.123354 0.621586C0.0852773 0.71298 0.0656738 0.811009
  0.0656738 0.910018C0.0656738 1.00903 0.0852773 1.10706 0.123354 1.19845C0.16143 1.28985 0.217226 1.3728 0.287523
 1.44252L3.46752 4.62252C3.53724 4.69281 3.6202 4.74861 3.71159 4.78669C3.80298 4.82476 3.90101 4.84437 4.00002  
 4.84437C4.09903 4.84437 4.19706 4.82476 4.28846 4.78669C4.37985 4.74861 4.4628 4.69281 4.53252  
 4.62252L7.75002 1.44252C7.82032 1.3728 7.87611 1.28985 7.91419 1.19845C7.95227 1.10706 7.97187  
 1.00903 7.97187 0.910018C7.97187 0.811009 7.95227 0.71298 7.91419  
0.621586C7.87611 0.530191 7.82032 0.44724 7.75002 0.377518Z" fill="#333333"/>
</svg>