<svg width="21" height="18" viewBox="0 0 21 18" fill="none" xmlns="http://www.w3.org/2000/svg">
<path d="M19.17 6.23015L5.17001 0.450151C4.64029 0.230938 4.05884 0.168095 3.49451 0.269064C2.93018 0.370032 2.4066 0.630583 1.98575 1.01987C1.5649 1.40916 1.2644 1.91088 1.11983 2.46565C0.975262 3.02041 0.992675 3.60498 1.17001 4.15015L2.71001 9.00015L1.13001 13.8502C0.947881 14.3975 0.927422 14.9858 1.07108 15.5444C1.21475 16.1031 1.51644 16.6085 1.94001 17.0002C2.48465 17.5052 3.19729 17.7903 3.94001 17.8001C4.33474 17.7999 4.72554 17.7217 5.09001 17.5702L19.14 11.7902C19.6872 11.5626 20.1547 11.1781 20.4836 10.6851C20.8125 10.1921 20.988 9.61277 20.988 9.02015C20.988 8.42754 20.8125 7.84819 20.4836 7.35522C20.1547 6.86224 19.6872 6.47772 19.14 6.25015L19.17 6.23015ZM4.36001 15.7002C4.18361 15.7729 3.99007 15.7937 3.80225 15.76C3.61442 15.7264 3.44015 15.6397 3.30001 15.5102C3.168 15.384 3.07304 15.2241 3.02545 15.0478C2.97785 14.8715 2.97943 14.6856 3.03001 14.5102L4.49001 10.0002H18.22L4.36001 15.7002ZM4.49001 8.00015L3.00001 3.53015C2.94943 3.3547 2.94785 3.16875 2.99545 2.99247C3.04304 2.81619 3.138 2.6563 3.27001 2.53015C3.36412 2.43143 3.47742 2.353 3.60296 2.29969C3.7285 2.24638 3.86362 2.21931 4.00001 2.22015C4.13406 2.22041 4.26669 2.24761 4.39001 2.30015L18.22 8.00015H4.49001Z" fill="#2280ED"/>
</svg>
