<svg width="44" height="44" viewBox="0 0 44 44" fill="none" xmlns="http://www.w3.org/2000/svg">
<rect width="44" height="44" rx="22" fill="white"/>
<path d="M30.1934 19.2297L16.1934 13.4497C15.6637 13.2304 15.0823 13.1676 14.518 13.2686C13.9536 13.3695 13.43 13.6301 13.0092 14.0194C12.5883 14.4087 12.2878 14.9104 12.1433 15.4652C11.9987 16.0199 12.0161 16.6045 12.1934 17.1497L13.7334 21.9997L12.1534 26.8497C11.9713 27.397 11.9509 27.9853 12.0945 28.544C12.2382 29.1026 12.5399 29.6081 12.9634 29.9997C13.5081 30.5047 14.2207 30.7898 14.9634 30.7997C15.3582 30.7994 15.749 30.7212 16.1134 30.5697L30.1634 24.7897C30.7106 24.5621 31.1782 24.1776 31.507 23.6846C31.8359 23.1916 32.0114 22.6123 32.0114 22.0197C32.0114 21.427 31.8359 20.8477 31.507 20.3547C31.1782 19.8618 30.7106 19.4772 30.1634 19.2497L30.1934 19.2297ZM15.3834 28.6997C15.207 28.7724 15.0135 28.7932 14.8257 28.7595C14.6379 28.7259 14.4636 28.6392 14.3234 28.5097C14.1914 28.3835 14.0965 28.2236 14.0489 28.0473C14.0013 27.8711 14.0029 27.6851 14.0534 27.5097L15.5134 22.9997H29.2434L15.3834 28.6997ZM15.5134 20.9997L14.0234 16.5297C13.9729 16.3542 13.9713 16.1683 14.0189 15.992C14.0665 15.8157 14.1614 15.6558 14.2934 15.5297C14.3876 15.4309 14.5009 15.3525 14.6264 15.2992C14.7519 15.2459 14.8871 15.2188 15.0234 15.2197C15.1575 15.2199 15.2901 15.2471 15.4134 15.2997L29.2434 20.9997H15.5134Z" fill="#2280ED"/>
</svg>
