<svg width="20" height="20" viewBox="0 0 20 20" fill="none" xmlns="http://www.w3.org/2000/svg">
<path d="M19.2168 4.66113V5.85645C19.2168 5.93392 19.2002 6.00863 19.167 6.08057C19.1393 6.15251 19.0978 6.21891 19.0425 6.27979C18.9871 6.33512 18.9235 6.38216 18.8516 6.4209C18.7852 6.4541 18.7132 6.4707 18.6357 6.4707C18.6136 6.4707 18.5942 6.4707 18.5776 6.4707C18.561 6.46517 18.5417 6.45964 18.5195 6.4541C18.752 7.02409 18.9263 7.61068 19.0425 8.21387C19.1587 8.81152 19.2168 9.41748 19.2168 10.0317C19.2168 10.9116 19.1034 11.7583 18.8765 12.5718C18.6496 13.3853 18.3286 14.1462 17.9136 14.8545C17.4985 15.5573 17.0005 16.1992 16.4194 16.7803C15.8384 17.3613 15.1937 17.8594 14.4854 18.2744C13.7826 18.6895 13.0244 19.0104 12.2109 19.2373C11.3975 19.4642 10.5508 19.5776 9.6709 19.5776C8.79102 19.5776 7.94434 19.4642 7.13086 19.2373C6.31738 19.0104 5.55648 18.6895 4.84814 18.2744C4.14535 17.8594 3.50342 17.3613 2.92236 16.7803C2.34131 16.1992 1.84326 15.5573 1.42822 14.8545C1.01318 14.1462 0.69222 13.3853 0.465332 12.5718C0.238444 11.7583 0.125 10.9116 0.125 10.0317C0.125 9.41748 0.183105 8.81152 0.299316 8.21387C0.415527 7.61068 0.589844 7.02409 0.822266 6.4541H0.780762C0.603678 6.4541 0.44873 6.4043 0.315918 6.30469C0.188639 6.19954 0.125 6.05013 0.125 5.85645V4.66113H1.77686C2.2251 4.00814 2.73975 3.42432 3.3208 2.90967C3.90186 2.39502 4.52995 1.95785 5.20508 1.59814C5.88574 1.23844 6.60238 0.964518 7.35498 0.776367C8.10758 0.582682 8.87956 0.48584 9.6709 0.48584C10.4622 0.48584 11.2342 0.582682 11.9868 0.776367C12.7394 0.964518 13.4533 1.23844 14.1284 1.59814C14.8091 1.95785 15.4399 2.39502 16.021 2.90967C16.6021 3.42432 17.1167 4.00814 17.5649 4.66113H19.2168ZM9.6709 18.3823C10.4401 18.3823 11.1789 18.2827 11.8872 18.0835C12.6011 17.8843 13.2679 17.6021 13.8877 17.2368C14.5075 16.8771 15.0692 16.4455 15.5728 15.9419C16.0819 15.4328 16.5163 14.8683 16.876 14.2485C17.2412 13.6287 17.5234 12.9647 17.7227 12.2563C17.9219 11.5425 18.0215 10.8009 18.0215 10.0317C18.0215 9.45068 17.9606 8.87793 17.8389 8.31348C17.7227 7.74902 17.5483 7.20117 17.3159 6.66992L16.2451 8.77002C16.1842 8.89176 16.1123 9.02734 16.0293 9.17676C15.9518 9.32064 15.8633 9.45622 15.7637 9.5835C15.6641 9.71077 15.5534 9.81868 15.4316 9.90723C15.3154 9.99023 15.1854 10.0317 15.0415 10.0317H12.0532C11.8872 10.0317 11.7323 10.0013 11.5884 9.94043C11.4445 9.87402 11.3172 9.78825 11.2065 9.68311C11.1014 9.57243 11.0184 9.44515 10.9575 9.30127C10.8966 9.15739 10.8662 9.00244 10.8662 8.83643V8.23877C10.8662 8.07275 10.833 7.91781 10.7666 7.77393C10.7057 7.63005 10.62 7.50553 10.5093 7.40039C10.4041 7.28971 10.2796 7.20394 10.1357 7.14307C9.99186 7.08219 9.83691 7.05176 9.6709 7.05176C9.50488 7.05176 9.34993 7.08219 9.20605 7.14307C9.06217 7.20394 8.9349 7.28971 8.82422 7.40039C8.71908 7.50553 8.6333 7.63005 8.56689 7.77393C8.50602 7.91781 8.47559 8.07275 8.47559 8.23877V8.83643C8.47559 9.00244 8.44238 9.16016 8.37598 9.30957C8.3151 9.45345 8.22933 9.58073 8.11865 9.69141C8.01351 9.79655 7.889 9.87956 7.74512 9.94043C7.60124 10.0013 7.44629 10.0317 7.28027 10.0317H4.30029C4.25049 10.0317 4.19515 10.0096 4.13428 9.96533C4.0734 9.91553 4.0153 9.85742 3.95996 9.79102C3.90462 9.72461 3.85205 9.6582 3.80225 9.5918C3.75798 9.52539 3.72477 9.47282 3.70264 9.43408C3.59749 9.2736 3.49788 9.11312 3.40381 8.95264C3.30973 8.78662 3.21566 8.62337 3.12158 8.46289C2.9445 8.15299 2.76188 7.84863 2.57373 7.5498C2.39111 7.25098 2.21126 6.94938 2.03418 6.64502C1.79622 7.1818 1.61637 7.73519 1.49463 8.30518C1.37842 8.86963 1.32031 9.44515 1.32031 10.0317C1.32031 10.8009 1.41992 11.5425 1.61914 12.2563C1.81836 12.9647 2.09782 13.6287 2.45752 14.2485C2.82275 14.8683 3.25716 15.4328 3.76074 15.9419C4.26986 16.4455 4.83431 16.8771 5.4541 17.2368C6.07389 17.6021 6.73796 17.8843 7.44629 18.0835C8.16016 18.2827 8.90169 18.3823 9.6709 18.3823ZM9.6709 1.68115C9.05111 1.68115 8.44515 1.74756 7.85303 1.88037C7.2609 2.01318 6.69092 2.20687 6.14307 2.46143C5.60075 2.71598 5.0861 3.02865 4.59912 3.39941C4.11214 3.77018 3.66943 4.19076 3.271 4.66113H7.86963L8.46729 5.25879H10.8745L11.4639 4.66113H16.0708C15.6724 4.19076 15.2297 3.77018 14.7427 3.39941C14.2557 3.02865 13.7383 2.71598 13.1904 2.46143C12.6481 2.20687 12.0809 2.01318 11.4888 1.88037C10.8966 1.74756 10.2907 1.68115 9.6709 1.68115ZM13.2402 12.1816C13.4007 12.1816 13.5391 12.2425 13.6553 12.3643C13.777 12.4805 13.8379 12.6188 13.8379 12.7793C13.8379 12.8402 13.8296 12.8927 13.813 12.937C13.8019 12.9813 13.7826 13.0311 13.7549 13.0864C13.5667 13.4406 13.3205 13.7616 13.0161 14.0493C12.7173 14.3315 12.3853 14.575 12.02 14.7798C11.6548 14.979 11.2702 15.134 10.8662 15.2446C10.4622 15.3498 10.0638 15.4023 9.6709 15.4023C9.27799 15.4023 8.87956 15.3498 8.47559 15.2446C8.07161 15.134 7.68424 14.979 7.31348 14.7798C6.94824 14.575 6.61344 14.3315 6.30908 14.0493C6.01025 13.7616 5.76676 13.4406 5.57861 13.0864C5.55094 13.0311 5.52881 12.9813 5.51221 12.937C5.50114 12.8927 5.49561 12.8402 5.49561 12.7793C5.49561 12.6188 5.55371 12.4805 5.66992 12.3643C5.78613 12.2425 5.92448 12.1816 6.08496 12.1816C6.20671 12.1816 6.30355 12.2093 6.37549 12.2646C6.44743 12.3145 6.52214 12.3836 6.59961 12.4722C6.67708 12.5662 6.74902 12.6631 6.81543 12.7627C6.88184 12.8623 6.95378 12.9591 7.03125 13.0532C7.1862 13.2358 7.36605 13.3991 7.5708 13.543C7.77555 13.6868 7.99414 13.8086 8.22656 13.9082C8.45898 14.0078 8.69694 14.0825 8.94043 14.1323C9.18945 14.1821 9.43294 14.207 9.6709 14.207C9.90885 14.207 10.1496 14.1821 10.3931 14.1323C10.6366 14.077 10.8745 14.0023 11.1069 13.9082C11.3394 13.8086 11.5579 13.6868 11.7627 13.543C11.9674 13.3991 12.1473 13.2358 12.3022 13.0532C12.3797 12.9591 12.4517 12.8623 12.5181 12.7627C12.5845 12.6631 12.6564 12.5662 12.7339 12.4722C12.8114 12.3781 12.8833 12.3062 12.9497 12.2563C13.0161 12.2065 13.113 12.1816 13.2402 12.1816ZM7.28027 8.83643L5.49561 5.85645H3.70264L5.49561 8.83643H7.28027ZM15.0415 8.83643L13.2485 5.85645H11.4639L13.2485 8.83643H15.0415Z" fill="#101521"/>
</svg>
