<svg width="252" height="36" viewBox="0 0 252 36" fill="none" xmlns="http://www.w3.org/2000/svg">
<line x1="126" y1="17.5" x2="252" y2="17.5" stroke="#B7B7B7"/>
<line y1="17.5" x2="126" y2="17.5" stroke="#B7B7B7"/>
<rect x="0.5" y="0.5" width="35" height="35" rx="17.5" fill="#F8F8FC"/>
<path d="M20.125 11.6836V26H17.0488V15.1602C16.8796 15.3099 16.6777 15.4531 16.4434 15.5898C16.2155 15.7201 15.9714 15.8405 15.7109 15.9512C15.4505 16.0553 15.1803 16.1465 14.9004 16.2246C14.6204 16.2962 14.3438 16.3483 14.0703 16.3809V13.7832C14.8711 13.5488 15.6263 13.2493 16.3359 12.8848C17.0456 12.5202 17.6868 12.1198 18.2598 11.6836H20.125Z" fill="#2280ED"/>
<rect x="0.5" y="0.5" width="35" height="35" rx="17.5" stroke="#2280ED"/>
<rect x="108.5" y="0.5" width="35" height="35" rx="17.5" fill="#F8F8FC"/>
<path d="M124.438 24.4414H130.375V27H121.059V25.9453C121.059 25.2292 121.179 24.5879 121.42 24.0215C121.661 23.4486 121.964 22.9375 122.328 22.4883C122.693 22.0326 123.09 21.6322 123.52 21.2871C123.956 20.9355 124.369 20.6198 124.76 20.3398C125.17 20.0469 125.528 19.7669 125.834 19.5C126.146 19.2331 126.407 18.9694 126.615 18.709C126.83 18.4421 126.99 18.1751 127.094 17.9082C127.198 17.6348 127.25 17.3451 127.25 17.0391C127.25 16.4401 127.081 15.9876 126.742 15.6816C126.404 15.3757 125.886 15.2227 125.189 15.2227C123.985 15.2227 122.833 15.7012 121.732 16.6582V13.9434C122.95 13.1556 124.324 12.7617 125.854 12.7617C126.563 12.7617 127.198 12.8561 127.758 13.0449C128.324 13.2272 128.803 13.4909 129.193 13.8359C129.584 14.181 129.88 14.6009 130.082 15.0957C130.29 15.584 130.395 16.1309 130.395 16.7363C130.395 17.3809 130.294 17.9538 130.092 18.4551C129.896 18.9564 129.633 19.4121 129.301 19.8223C128.975 20.2324 128.598 20.61 128.168 20.9551C127.738 21.2936 127.292 21.6224 126.83 21.9414C126.518 22.1628 126.215 22.3841 125.922 22.6055C125.635 22.8203 125.382 23.0352 125.16 23.25C124.939 23.4583 124.763 23.6634 124.633 23.8652C124.503 24.0671 124.438 24.2591 124.438 24.4414Z" fill="#B7B7B7"/>
<rect x="108.5" y="0.5" width="35" height="35" rx="17.5" stroke="#B7B7B7"/>
<rect x="216.5" y="0.5" width="35" height="35" rx="17.5" fill="#F8F8FC"/>
<path d="M229.391 26.541V23.8555C230.328 24.5391 231.422 24.8809 232.672 24.8809C233.46 24.8809 234.072 24.7116 234.508 24.373C234.951 24.0345 235.172 23.5625 235.172 22.957C235.172 22.332 234.898 21.8503 234.352 21.5117C233.811 21.1732 233.066 21.0039 232.115 21.0039H230.816V18.6406H232.018C233.84 18.6406 234.752 18.0352 234.752 16.8242C234.752 15.6849 234.052 15.1152 232.652 15.1152C231.715 15.1152 230.803 15.418 229.918 16.0234V13.5039C230.901 13.0091 232.047 12.7617 233.355 12.7617C234.788 12.7617 235.901 13.084 236.695 13.7285C237.496 14.373 237.896 15.2096 237.896 16.2383C237.896 18.0677 236.969 19.2135 235.113 19.6758V19.7246C236.103 19.8483 236.884 20.2096 237.457 20.8086C238.03 21.401 238.316 22.1302 238.316 22.9961C238.316 24.3047 237.838 25.3398 236.881 26.1016C235.924 26.8633 234.602 27.2441 232.916 27.2441C231.471 27.2441 230.296 27.0098 229.391 26.541Z" fill="#B7B7B7"/>
<rect x="216.5" y="0.5" width="35" height="35" rx="17.5" stroke="#B7B7B7"/>
</svg>
