<svg width="148" height="148" viewBox="0 0 148 148" fill="none" xmlns="http://www.w3.org/2000/svg">
<path d="M74.0001 0.666626C33.6667 0.666626 0.666748 33.6666 0.666748 74C0.666748 114.333 33.6667 147.333 74.0001 147.333C114.333 147.333 147.333 114.333 147.333 74C147.333 33.6666 114.333 0.666626 74.0001 0.666626ZM104.8 61.5333L69.6001 96.7333C66.6667 99.6666 62.2668 99.6666 59.3334 96.7333L43.2001 80.6C40.2668 77.6666 40.2668 73.2666 43.2001 70.3333C46.1334 67.4 50.5334 67.4 53.4667 70.3333L64.4667 81.3333L94.5334 51.2666C97.4668 48.3333 101.867 48.3333 104.8 51.2666C107.733 54.2 107.733 58.6 104.8 61.5333Z" fill="#03C22D"/>
</svg>
