<svg width="22" height="17" viewBox="0 0 22 17" fill="none" xmlns="http://www.w3.org/2000/svg">
<path d="M17.333 1.05113C17.3466 0.409899 17.3221 0.00473479 17.3221 0.00473479L11.0319 0H11H10.9681L4.67719 0.00473479C4.67719 0.00473479 4.65342 0.409899 4.667 1.05113H0.5V1.73565C0.5 1.89189 0.526481 5.57761 2.80995 7.59667C3.76258 8.43878 4.95082 8.86221 6.35159 8.86289C6.56344 8.86289 6.7814 8.84868 7.00207 8.82975C7.79785 9.91537 8.71721 10.6756 9.75133 11.0544V14.061H6.71553V15.9441H5.71266V17H10.9681H11.0319H16.2873V15.9448H15.2838V14.0617H12.248V11.0551C13.2814 10.6763 14.2015 9.91605 14.9973 8.83042C15.2193 8.84936 15.4372 8.86289 15.6491 8.86289C17.0492 8.86154 18.2374 8.43878 19.1901 7.59599C21.4735 5.57693 21.5 1.89122 21.5 1.73497V1.05113H17.333ZM3.72659 6.57598C2.42224 5.42609 2.03657 3.45776 1.9225 2.42016H4.74576C4.86527 3.71277 5.14637 5.32328 5.79481 6.73899C5.91364 6.99873 6.03857 7.24494 6.16622 7.48573C5.19322 7.44853 4.37435 7.14618 3.72659 6.57598ZM18.2734 6.57598C17.6263 7.14686 16.8068 7.44853 15.8345 7.48573C15.9621 7.24561 16.087 6.99873 16.2059 6.73899C16.8543 5.32328 17.1354 3.71277 17.2542 2.42016H20.0775C19.9634 3.45709 19.5784 5.42542 18.2734 6.57598Z" fill="url(#paint0_linear)"/>
<defs>
<linearGradient id="paint0_linear" x1="11" y1="0" x2="11" y2="17" gradientUnits="userSpaceOnUse">
<stop stop-color="#9D4320"/>
<stop offset="1" stop-color="#885342"/>
</linearGradient>
</defs>
</svg>
