<svg width="17" height="20" viewBox="0 0 17 20" fill="none" xmlns="http://www.w3.org/2000/svg">
<path d="M6.41667 15.4997C6.65978 15.4997 6.89294 15.4031 7.06485 15.2312C7.23676 15.0593 7.33333 14.8261 7.33333 14.583V9.08301C7.33333 8.83989 7.23676 8.60674 7.06485 8.43483C6.89294 8.26292 6.65978 8.16634 6.41667 8.16634C6.17355 8.16634 5.94039 8.26292 5.76849 8.43483C5.59658 8.60674 5.5 8.83989 5.5 9.08301V14.583C5.5 14.8261 5.59658 15.0593 5.76849 15.2312C5.94039 15.4031 6.17355 15.4997 6.41667 15.4997ZM15.5833 4.49967H11.9167V3.58301C11.9167 2.85366 11.6269 2.15419 11.1112 1.63846C10.5955 1.12274 9.89601 0.833008 9.16667 0.833008H7.33333C6.60399 0.833008 5.90451 1.12274 5.38879 1.63846C4.87306 2.15419 4.58333 2.85366 4.58333 3.58301V4.49967H0.916667C0.673552 4.49967 0.440394 4.59625 0.268485 4.76816C0.0965771 4.94007 0 5.17323 0 5.41634C0 5.65946 0.0965771 5.89261 0.268485 6.06452C0.440394 6.23643 0.673552 6.33301 0.916667 6.33301H1.83333V16.4163C1.83333 17.1457 2.12306 17.8452 2.63879 18.3609C3.15451 18.8766 3.85399 19.1663 4.58333 19.1663H11.9167C12.646 19.1663 13.3455 18.8766 13.8612 18.3609C14.3769 17.8452 14.6667 17.1457 14.6667 16.4163V6.33301H15.5833C15.8264 6.33301 16.0596 6.23643 16.2315 6.06452C16.4034 5.89261 16.5 5.65946 16.5 5.41634C16.5 5.17323 16.4034 4.94007 16.2315 4.76816C16.0596 4.59625 15.8264 4.49967 15.5833 4.49967ZM6.41667 3.58301C6.41667 3.33989 6.51324 3.10674 6.68515 2.93483C6.85706 2.76292 7.09022 2.66634 7.33333 2.66634H9.16667C9.40978 2.66634 9.64294 2.76292 9.81485 2.93483C9.98676 3.10674 10.0833 3.33989 10.0833 3.58301V4.49967H6.41667V3.58301ZM12.8333 16.4163C12.8333 16.6595 12.7368 16.8926 12.5648 17.0645C12.3929 17.2364 12.1598 17.333 11.9167 17.333H4.58333C4.34022 17.333 4.10706 17.2364 3.93515 17.0645C3.76324 16.8926 3.66667 16.6595 3.66667 16.4163V6.33301H12.8333V16.4163ZM10.0833 15.4997C10.3264 15.4997 10.5596 15.4031 10.7315 15.2312C10.9034 15.0593 11 14.8261 11 14.583V9.08301C11 8.83989 10.9034 8.60674 10.7315 8.43483C10.5596 8.26292 10.3264 8.16634 10.0833 8.16634C9.84022 8.16634 9.60706 8.26292 9.43515 8.43483C9.26324 8.60674 9.16667 8.83989 9.16667 9.08301V14.583C9.16667 14.8261 9.26324 15.0593 9.43515 15.2312C9.60706 15.4031 9.84022 15.4997 10.0833 15.4997Z" fill="black"/>
</svg>
