<svg width="26" height="24" viewBox="0 0 26 24" fill="none" xmlns="http://www.w3.org/2000/svg">
<path d="M25.7916 14.1264C25.787 14.0578 25.776 13.9897 25.7587 13.9232L23.0699 6.76324C23.5593 6.44673 23.9617 6.01287 24.2406 5.50115C24.5194 4.98944 24.6659 4.4161 24.6667 3.83333C24.6667 3.52391 24.5438 3.22716 24.325 3.00837C24.1062 2.78958 23.8094 2.66666 23.5 2.66666C23.1906 2.66666 22.8939 2.78958 22.6751 3.00837C22.4563 3.22716 22.3334 3.52391 22.3334 3.83333C22.3333 4.09332 22.2464 4.34583 22.0864 4.55081C21.9265 4.7558 21.7027 4.90151 21.4506 4.96484C21.1984 5.02818 20.9323 5.0055 20.6945 4.90042C20.4567 4.79533 20.2608 4.61385 20.1379 4.38477C19.8385 3.85336 19.4007 3.413 18.8711 3.11048C18.3415 2.80796 17.7398 2.65459 17.13 2.66666H14.1667V1.49999C14.1667 1.19058 14.0438 0.893829 13.825 0.675037C13.6062 0.456245 13.3094 0.333328 13 0.333328C12.6906 0.333328 12.3939 0.456245 12.1751 0.675037C11.9563 0.893829 11.8334 1.19058 11.8334 1.49999V2.66666H8.87002C8.26021 2.65459 7.65853 2.80796 7.12891 3.11048C6.5993 3.413 6.16154 3.85336 5.86217 4.38477C5.73923 4.61385 5.54332 4.79533 5.30552 4.90042C5.06772 5.0055 4.80163 5.02818 4.54948 4.96484C4.29732 4.90151 4.07353 4.7558 3.91361 4.55081C3.75368 4.34583 3.66678 4.09332 3.66669 3.83333C3.66669 3.52391 3.54377 3.22716 3.32498 3.00837C3.10619 2.78958 2.80944 2.66666 2.50002 2.66666C2.1906 2.66666 1.89385 2.78958 1.67506 3.00837C1.45627 3.22716 1.33335 3.52391 1.33335 3.83333C1.33412 4.4161 1.4806 4.98944 1.75948 5.50115C2.03836 6.01287 2.44078 6.44673 2.93011 6.76324L0.241354 13.9232C0.224094 13.9897 0.213084 14.0578 0.208465 14.1264C0.187977 14.1939 0.173987 14.2632 0.166687 14.3333C0.166687 14.3442 0.169825 14.3541 0.169895 14.3649C0.170245 14.3803 0.173395 14.3945 0.174445 14.4098C0.19261 15.6334 0.69145 16.8008 1.56319 17.6597C2.43493 18.5186 3.60958 19.0001 4.83335 19.0001C6.05713 19.0001 7.23178 18.5186 8.10352 17.6597C8.97526 16.8008 9.4741 15.6334 9.49226 14.4098C9.49325 14.3945 9.49646 14.3803 9.49681 14.3649C9.49688 14.3541 9.50002 14.3442 9.50002 14.3333C9.49273 14.2632 9.47876 14.1939 9.45829 14.1264C9.45367 14.0578 9.44266 13.9897 9.4254 13.9232L6.73346 6.75491C7.22784 6.4394 7.63469 6.00432 7.91636 5.4899C8.01817 5.33156 8.15995 5.20288 8.32739 5.11687C8.49484 5.03085 8.68201 4.99053 8.87002 5H11.8334V21.3333H8.33335C8.02393 21.3333 7.72719 21.4562 7.5084 21.675C7.2896 21.8938 7.16669 22.1906 7.16669 22.5C7.16669 22.8094 7.2896 23.1062 7.5084 23.325C7.72719 23.5437 8.02393 23.6667 8.33335 23.6667H17.6667C17.9761 23.6667 18.2729 23.5437 18.4916 23.325C18.7104 23.1062 18.8334 22.8094 18.8334 22.5C18.8334 22.1906 18.7104 21.8938 18.4916 21.675C18.2729 21.4562 17.9761 21.3333 17.6667 21.3333H14.1667V5H17.13C17.318 4.99054 17.5052 5.03086 17.6726 5.11688C17.8401 5.2029 17.9818 5.33157 18.0836 5.4899C18.3653 6.00432 18.7722 6.4394 19.2665 6.75491L16.5747 13.9232C16.5574 13.9897 16.5464 14.0578 16.5418 14.1264C16.5213 14.1939 16.5073 14.2632 16.5 14.3333C16.5 14.3442 16.5032 14.3541 16.5032 14.3649C16.5036 14.3803 16.5067 14.3945 16.5078 14.4098C16.5259 15.6334 17.0248 16.8008 17.8965 17.6597C18.7683 18.5186 19.9429 19.0001 21.1667 19.0001C22.3905 19.0001 23.5651 18.5186 24.4368 17.6597C25.3086 16.8008 25.8074 15.6334 25.8256 14.4098C25.8266 14.3945 25.8298 14.3803 25.8301 14.3649C25.8302 14.3541 25.8334 14.3442 25.8334 14.3333C25.8261 14.2632 25.8121 14.1939 25.7916 14.1264ZM4.83335 8.33145L6.64915 13.1667H3.01755L4.83335 8.33145ZM6.84312 15.5C6.63723 15.8513 6.34394 16.1434 5.99177 16.3478C5.6396 16.5522 5.24053 16.6621 4.83335 16.6667C4.42389 16.6665 4.02168 16.5586 3.66711 16.3538C3.31253 16.1491 3.01808 15.8546 2.81333 15.5H6.84312ZM21.1667 8.33145L22.9825 13.1667H19.3509L21.1667 8.33145ZM21.1667 16.6667C20.7572 16.6665 20.355 16.5586 20.0004 16.3538C19.6459 16.1491 19.3514 15.8546 19.1467 15.5H23.1765C22.9706 15.8513 22.6773 16.1434 22.3251 16.3478C21.9729 16.5522 21.5739 16.6621 21.1667 16.6667Z" fill="#FFE835"/>
</svg>
