<svg v-if="type == 2" width="335" height="201" viewBox="0 0 335 201" fill="none" xmlns="http://www.w3.org/2000/svg">
<g filter="url(#filter0_d_295:1345)">
<g clip-path="url(#clip0_295:1345)">
<rect x="12" y="10" width="311" height="177" rx="12" fill="#FCD76C"/>
<path d="M243.07 113.333H293.94C294.967 113.333 295.8 112.501 295.8 111.473C295.8 110.446 294.967 109.613 293.94 109.613H243.07C242.043 109.613 241.21 110.446 241.21 111.473C241.21 112.501 242.043 113.333 243.07 113.333Z" fill="black"/>
<path d="M243.07 122.509H286.252C287.279 122.509 288.112 121.677 288.112 120.649C288.112 119.622 287.279 118.789 286.252 118.789H243.07C242.043 118.789 241.21 119.622 241.21 120.649C241.21 121.677 242.043 122.509 243.07 122.509Z" fill="black"/>
<path d="M243.07 131.686H286.252C287.279 131.686 288.112 130.853 288.112 129.826C288.112 128.799 287.279 127.966 286.252 127.966H243.07C242.043 127.966 241.21 128.799 241.21 129.826C241.21 130.853 242.043 131.686 243.07 131.686Z" fill="black"/>
<path d="M243.07 140.862H286.252C287.279 140.862 288.112 140.029 288.112 139.002C288.112 137.974 287.279 137.142 286.252 137.142H243.07C242.043 137.142 241.21 137.974 241.21 139.002C241.21 140.029 242.043 140.862 243.07 140.862Z" fill="black"/>
<path d="M243.07 150.038H293.94C294.967 150.038 295.8 149.205 295.8 148.178C295.8 147.151 294.967 146.318 293.94 146.318H243.07C242.043 146.318 241.21 147.151 241.21 148.178C241.21 149.205 242.043 150.038 243.07 150.038Z" fill="black"/>
<path d="M260.133 100.622L261.338 97.4565H269.491L270.684 100.616C270.965 101.361 271.673 101.82 272.424 101.82C272.642 101.82 272.864 101.781 273.081 101.7C274.041 101.337 274.527 100.264 274.164 99.3029L267.552 81.7831C267.546 81.7665 267.539 81.7496 267.532 81.733C267.182 80.8807 266.361 80.3306 265.44 80.3306C265.439 80.3306 265.438 80.3306 265.438 80.3306C264.515 80.3313 263.694 80.8835 263.345 81.737C263.339 81.7511 263.334 81.765 263.329 81.7792L256.656 99.298C256.291 100.258 256.773 101.332 257.733 101.698C258.691 102.064 259.767 101.582 260.133 100.622ZM265.433 86.7046L268.087 93.7368H262.755L265.433 86.7046Z" fill="black"/>
<path d="M279.471 101.481C279.797 101.71 280.171 101.821 280.541 101.821C281.126 101.821 281.701 101.546 282.064 101.031L287.245 93.6759L292.419 101.031C292.781 101.545 293.357 101.821 293.942 101.821C294.312 101.821 294.685 101.711 295.011 101.481C295.851 100.891 296.053 99.7302 295.462 98.8901L289.521 90.4456L294.581 83.2624C295.173 82.4225 294.972 81.2622 294.132 80.6706C293.292 80.079 292.132 80.2806 291.54 81.12L287.247 87.2135L282.961 81.121C282.371 80.2814 281.211 80.0785 280.37 80.6701C279.53 81.2609 279.328 82.4213 279.919 83.2614L284.972 90.4439L279.022 98.8891C278.431 99.729 278.632 100.889 279.471 101.481Z" fill="black"/>
<path d="M247.957 101.82C248.984 101.82 249.817 100.987 249.817 99.96V84.0508H252.883C253.91 84.0508 254.743 83.2181 254.743 82.1907C254.743 81.1633 253.91 80.3306 252.883 80.3306H243.07C242.043 80.3306 241.21 81.1633 241.21 82.1907C241.21 83.2181 242.043 84.0508 243.07 84.0508H246.096V99.96C246.096 100.987 246.929 101.82 247.957 101.82Z" fill="black"/>
<path d="M342.068 121.289C341.681 120.338 340.597 119.878 339.644 120.266C338.693 120.653 338.234 121.738 338.621 122.689C339.542 124.956 340.009 127.356 340.009 129.826C340.009 140.287 331.498 148.798 321.037 148.798C310.575 148.798 302.064 140.287 302.064 129.826C302.064 119.364 310.575 110.853 321.037 110.853C325.968 110.853 330.641 112.736 334.193 116.156C334.933 116.869 336.111 116.846 336.823 116.106C337.536 115.366 337.513 114.188 336.773 113.476C332.974 109.819 328.102 107.636 322.897 107.214V75.1325C322.896 71.7511 320.145 69 316.763 69H235.404C232.022 69 229.271 71.7511 229.271 75.1325V173.472C229.271 174.5 230.104 175.332 231.131 175.332C232.159 175.332 232.991 174.5 232.991 173.472V75.1325C232.991 73.8022 234.074 72.72 235.404 72.72H316.764C318.094 72.72 319.176 73.8022 319.176 75.1325V107.21C307.531 108.159 298.344 117.939 298.344 129.826C298.344 141.712 307.531 151.492 319.176 152.441V174.095H308.759C305.03 174.095 301.997 177.129 301.997 180.857V192.28H235.404C234.074 192.28 232.991 191.198 232.991 189.867V182.173C232.991 181.146 232.159 180.313 231.131 180.313C230.104 180.313 229.271 181.146 229.271 182.173V189.867C229.271 193.249 232.022 196 235.404 196H303.857C304.506 196 304.982 195.657 305.411 195.203C305.748 194.846 319.553 180.234 321.483 178.191C322.098 177.539 322.896 176.932 322.896 175.955C322.896 175.915 322.896 152.441 322.896 152.441C334.542 151.492 343.728 141.712 343.728 129.826C343.729 126.874 343.17 124.002 342.068 121.289ZM308.759 177.816H316.72L305.717 189.462V180.858C305.717 179.18 307.082 177.816 308.759 177.816Z" fill="black"/>
<path d="M315.895 142.078C316.13 142.176 316.374 142.223 316.614 142.223C317.34 142.223 318.031 141.794 318.33 141.082L327.173 120.01C327.571 119.062 327.125 117.972 326.178 117.575C325.231 117.178 324.14 117.623 323.743 118.57L314.899 139.642C314.502 140.59 314.947 141.68 315.895 142.078Z" fill="black"/>
<path d="M317.242 123.287C317.808 121.92 317.159 120.352 315.792 119.785C314.424 119.218 312.856 119.867 312.29 121.234C311.723 122.602 312.372 124.17 313.739 124.737C315.107 125.304 316.675 124.655 317.242 123.287Z" fill="black"/>
<g filter="url(#filter1_f_295:1345)">
<path d="M353.5 112C353.5 175.789 296.882 237 233.093 237C169.304 237 85.5933 163.289 85.5933 99.5C85.5933 35.7112 169.304 41.0001 233.093 41.0001C296.882 41.0001 353.5 48.2112 353.5 112Z" fill="url(#paint0_linear_295:1345)"/>
</g>

</g>
</g>
<defs>
<filter id="filter0_d_295:1345" x="0" y="0" width="335" height="201" filterUnits="userSpaceOnUse" color-interpolation-filters="sRGB">
<feFlood flood-opacity="0" result="BackgroundImageFix"/>
<feColorMatrix in="SourceAlpha" type="matrix" values="0 0 0 0 0 0 0 0 0 0 0 0 0 0 0 0 0 0 127 0" result="hardAlpha"/>
<feOffset dy="2"/>
<feGaussianBlur stdDeviation="6"/>
<feColorMatrix type="matrix" values="0 0 0 0 0 0 0 0 0 0 0 0 0 0 0 0 0 0 0.12 0"/>
<feBlend mode="normal" in2="BackgroundImageFix" result="effect1_dropShadow_295:1345"/>
<feBlend mode="normal" in="SourceGraphic" in2="effect1_dropShadow_295:1345" result="shape"/>
</filter>
<filter id="filter1_f_295:1345" x="-16.4067" y="-61.1069" width="471.907" height="400.107" filterUnits="userSpaceOnUse" color-interpolation-filters="sRGB">
<feFlood flood-opacity="0" result="BackgroundImageFix"/>
<feBlend mode="normal" in="SourceGraphic" in2="BackgroundImageFix" result="shape"/>
<feGaussianBlur stdDeviation="51" result="effect1_foregroundBlur_295:1345"/>
</filter>
<linearGradient id="paint0_linear_295:1345" x1="58.6425" y1="-20.614" x2="95.6425" y2="138.386" gradientUnits="userSpaceOnUse">
<stop stop-color="#B7B7B7"/>
<stop offset="1" stop-color="#FFE835"/>
</linearGradient>
<clipPath id="clip0_295:1345">
<rect x="12" y="10" width="311" height="177" rx="12" fill="white"/>
</clipPath>
</defs>
</svg>