<svg width="40" height="40" viewBox="0 0 40 40" fill="none" xmlns="http://www.w3.org/2000/svg">
<rect width="40" height="40" rx="10" fill="#2C9DF2"/>
<path d="M30 13.9241C29.2641 14.2504 28.4733 14.4709 27.6433 14.5702C28.4905 14.0623 29.1411 13.2582 29.4474 12.3001C28.642 12.778 27.7608 13.1148 26.8419 13.2958C26.0934 12.4984 25.027 12 23.8468 12C21.5807 12 19.7434 13.8372 19.7434 16.1031C19.7434 16.4248 19.7798 16.7379 19.8497 17.0383C16.4395 16.8671 13.4161 15.2336 11.3923 12.7511C11.0391 13.3571 10.8368 14.062 10.8368 14.8139C10.8368 16.2375 11.5612 17.4934 12.6622 18.2292C12.0106 18.2088 11.3733 18.0328 10.8036 17.7159C10.8034 17.7331 10.8034 17.7503 10.8034 17.7676C10.8034 19.7556 12.2177 21.4141 14.0948 21.791C13.4905 21.9553 12.8567 21.9794 12.2418 21.8613C12.7639 23.4915 14.2793 24.6777 16.0748 24.7109C14.6705 25.8114 12.9012 26.4674 10.9788 26.4674C10.6476 26.4674 10.321 26.448 10 26.4101C11.8159 27.5743 13.9727 28.2536 16.2898 28.2536C23.8373 28.2536 27.9644 22.0012 27.9644 16.579C27.9644 16.401 27.9605 16.2241 27.9525 16.0481C28.7558 15.4674 29.4492 14.7481 30 13.9241Z" fill="white"/>
</svg>
