<svg width="147" height="37" viewBox="0 0 147 37" fill="none" xmlns="http://www.w3.org/2000/svg">
<path d="M66.5391 25H64.3672L62.5781 22C62.4167 21.724 62.2578 21.4896 62.1016 21.2969C61.9505 21.099 61.7943 20.9375 61.6328 20.8125C61.4766 20.6875 61.3047 20.5964 61.1172 20.5391C60.9297 20.4818 60.7188 20.4531 60.4844 20.4531H59.7344V25H57.8828V13.7969H61.5703C62.0964 13.7969 62.5807 13.8594 63.0234 13.9844C63.4661 14.1094 63.8516 14.2995 64.1797 14.5547C64.5078 14.8047 64.763 15.1198 64.9453 15.5C65.1328 15.875 65.2266 16.3151 65.2266 16.8203C65.2266 17.2161 65.1667 17.5807 65.0469 17.9141C64.9323 18.2422 64.7656 18.5365 64.5469 18.7969C64.3333 19.0521 64.0729 19.2708 63.7656 19.4531C63.4635 19.6354 63.1224 19.776 62.7422 19.875V19.9062C62.9453 20.0208 63.1224 20.1484 63.2734 20.2891C63.4245 20.4245 63.5677 20.5651 63.7031 20.7109C63.8385 20.8568 63.9714 21.0234 64.1016 21.2109C64.237 21.3932 64.3854 21.6068 64.5469 21.8516L66.5391 25ZM59.7344 15.3047V18.9453H61.2812C61.5677 18.9453 61.8307 18.901 62.0703 18.8125C62.3151 18.724 62.526 18.5964 62.7031 18.4297C62.8802 18.263 63.0182 18.0599 63.1172 17.8203C63.2161 17.5807 63.2656 17.3125 63.2656 17.0156C63.2656 16.4792 63.0964 16.0599 62.7578 15.7578C62.4193 15.4557 61.9323 15.3047 61.2969 15.3047H59.7344ZM74 21.4922H68.5469C68.5677 22.2318 68.7943 22.8021 69.2266 23.2031C69.6641 23.6042 70.263 23.8047 71.0234 23.8047C71.8776 23.8047 72.6615 23.5495 73.375 23.0391V24.5C72.6458 24.9583 71.6823 25.1875 70.4844 25.1875C69.3073 25.1875 68.3828 24.8255 67.7109 24.1016C67.0443 23.3724 66.7109 22.349 66.7109 21.0312C66.7109 19.7865 67.0781 18.7734 67.8125 17.9922C68.5521 17.2057 69.4688 16.8125 70.5625 16.8125C71.6562 16.8125 72.5026 17.1641 73.1016 17.8672C73.7005 18.5703 74 19.5469 74 20.7969V21.4922ZM72.25 20.2109C72.2448 19.5599 72.0911 19.0547 71.7891 18.6953C71.487 18.3307 71.0703 18.1484 70.5391 18.1484C70.0182 18.1484 69.5755 18.3385 69.2109 18.7188C68.8516 19.099 68.6302 19.5964 68.5469 20.2109H72.25ZM79.9453 24.9141C79.5911 25.0911 79.125 25.1797 78.5469 25.1797C76.9948 25.1797 76.2188 24.4349 76.2188 22.9453V18.4219H74.8828V17H76.2188V15.1484L78.0312 14.6328V17H79.9453V18.4219H78.0312V22.4219C78.0312 22.8958 78.1172 23.2344 78.2891 23.4375C78.4609 23.6406 78.7474 23.7422 79.1484 23.7422C79.4557 23.7422 79.7214 23.6536 79.9453 23.4766V24.9141ZM84.9609 25.1875C83.7266 25.1875 82.7396 24.8151 82 24.0703C81.2656 23.3203 80.8984 22.3281 80.8984 21.0938C80.8984 19.75 81.2812 18.7005 82.0469 17.9453C82.8177 17.1901 83.8542 16.8125 85.1562 16.8125C86.4062 16.8125 87.3802 17.1797 88.0781 17.9141C88.776 18.6484 89.125 19.6667 89.125 20.9688C89.125 22.2448 88.7474 23.2682 87.9922 24.0391C87.2422 24.8047 86.2318 25.1875 84.9609 25.1875ZM85.0469 18.2578C84.3385 18.2578 83.7786 18.5052 83.3672 19C82.9557 19.4948 82.75 20.1771 82.75 21.0469C82.75 21.8854 82.9583 22.5469 83.375 23.0312C83.7917 23.5104 84.349 23.75 85.0469 23.75C85.7604 23.75 86.3073 23.513 86.6875 23.0391C87.0729 22.5651 87.2656 21.8906 87.2656 21.0156C87.2656 20.1354 87.0729 19.4557 86.6875 18.9766C86.3073 18.4974 85.7604 18.2578 85.0469 18.2578Z" fill="#333333"/>
<rect x="0.5" y="0.5" width="146" height="36" rx="3.5" stroke="#333333"/>
</svg>
