<svg width="147" height="37" viewBox="0 0 147 37" fill="none" xmlns="http://www.w3.org/2000/svg">
<path d="M47.7344 20.9375V25H45.8828V13.7969H49.2812C50.5677 13.7969 51.5651 14.0964 52.2734 14.6953C52.9818 15.2943 53.3359 16.138 53.3359 17.2266C53.3359 18.3151 52.9661 19.2057 52.2266 19.8984C51.487 20.5911 50.487 20.9375 49.2266 20.9375H47.7344ZM47.7344 15.3281V19.4219H48.9375C49.7344 19.4219 50.3411 19.237 50.7578 18.8672C51.1745 18.4974 51.3828 17.9766 51.3828 17.3047C51.3828 15.987 50.6172 15.3281 49.0859 15.3281H47.7344ZM59.6797 18.7266C59.4609 18.5547 59.1458 18.4688 58.7344 18.4688C58.1979 18.4688 57.75 18.7109 57.3906 19.1953C57.0312 19.6797 56.8516 20.3385 56.8516 21.1719V25H55.0391V17H56.8516V18.6484H56.8828C57.0599 18.0859 57.3307 17.6484 57.6953 17.3359C58.0651 17.0182 58.4766 16.8594 58.9297 16.8594C59.2578 16.8594 59.5078 16.9089 59.6797 17.0078V18.7266ZM67.1016 25H65.3438V23.75H65.3125C64.7604 24.7083 63.9505 25.1875 62.8828 25.1875C62.0964 25.1875 61.4792 24.974 61.0312 24.5469C60.5885 24.1198 60.3672 23.5547 60.3672 22.8516C60.3672 21.3411 61.237 20.4609 62.9766 20.2109L65.3516 19.875C65.3516 18.7344 64.8099 18.1641 63.7266 18.1641C62.7734 18.1641 61.9141 18.4922 61.1484 19.1484V17.5625C61.9922 17.0625 62.9661 16.8125 64.0703 16.8125C66.0911 16.8125 67.1016 17.8073 67.1016 19.7969V25ZM65.3516 21.0703L63.6719 21.3047C63.151 21.3724 62.7578 21.5 62.4922 21.6875C62.2318 21.8698 62.1016 22.1927 62.1016 22.6562C62.1016 22.9948 62.2214 23.2734 62.4609 23.4922C62.7057 23.7057 63.0312 23.8125 63.4375 23.8125C63.9896 23.8125 64.4453 23.6198 64.8047 23.2344C65.1693 22.8438 65.3516 22.3542 65.3516 21.7656V21.0703ZM66.25 12.9219L64.0156 15.4844H62.6719L64.5625 12.9219H66.25ZM75.0469 24.6328C74.4062 25.0026 73.6484 25.1875 72.7734 25.1875C71.5859 25.1875 70.6276 24.8177 69.8984 24.0781C69.1693 23.3333 68.8047 22.3698 68.8047 21.1875C68.8047 19.8698 69.1953 18.8125 69.9766 18.0156C70.763 17.2135 71.8125 16.8125 73.125 16.8125C73.8542 16.8125 74.4974 16.9401 75.0547 17.1953V18.8828C74.4974 18.4661 73.9036 18.2578 73.2734 18.2578C72.5078 18.2578 71.8802 18.5182 71.3906 19.0391C70.901 19.5547 70.6562 20.2318 70.6562 21.0703C70.6562 21.8984 70.8854 22.5521 71.3438 23.0312C71.8073 23.5104 72.4271 23.75 73.2031 23.75C73.8542 23.75 74.4688 23.5182 75.0469 23.0547V24.6328ZM81.0703 24.9141C80.7161 25.0911 80.25 25.1797 79.6719 25.1797C78.1198 25.1797 77.3438 24.4349 77.3438 22.9453V18.4219H76.0078V17H77.3438V15.1484L79.1562 14.6328V17H81.0703V18.4219H79.1562V22.4219C79.1562 22.8958 79.2422 23.2344 79.4141 23.4375C79.5859 23.6406 79.8724 23.7422 80.2734 23.7422C80.5807 23.7422 80.8464 23.6536 81.0703 23.4766V24.9141ZM83.5469 15.3203C83.25 15.3203 82.9948 15.224 82.7812 15.0312C82.5729 14.8385 82.4688 14.5938 82.4688 14.2969C82.4688 14 82.5729 13.7526 82.7812 13.5547C82.9948 13.3568 83.25 13.2578 83.5469 13.2578C83.8542 13.2578 84.1146 13.3568 84.3281 13.5547C84.5417 13.7526 84.6484 14 84.6484 14.2969C84.6484 14.5781 84.5417 14.8203 84.3281 15.0234C84.1146 15.2214 83.8542 15.3203 83.5469 15.3203ZM84.4453 25H82.6328V17H84.4453V25ZM92.5469 24.6328C91.9062 25.0026 91.1484 25.1875 90.2734 25.1875C89.0859 25.1875 88.1276 24.8177 87.3984 24.0781C86.6693 23.3333 86.3047 22.3698 86.3047 21.1875C86.3047 19.8698 86.6953 18.8125 87.4766 18.0156C88.263 17.2135 89.3125 16.8125 90.625 16.8125C91.3542 16.8125 91.9974 16.9401 92.5547 17.1953V18.8828C91.9974 18.4661 91.4036 18.2578 90.7734 18.2578C90.0078 18.2578 89.3802 18.5182 88.8906 19.0391C88.401 19.5547 88.1562 20.2318 88.1562 21.0703C88.1562 21.8984 88.3854 22.5521 88.8438 23.0312C89.3073 23.5104 89.9271 23.75 90.7031 23.75C91.3542 23.75 91.9688 23.5182 92.5469 23.0547V24.6328ZM100.492 25H98.7344V23.75H98.7031C98.151 24.7083 97.3411 25.1875 96.2734 25.1875C95.487 25.1875 94.8698 24.974 94.4219 24.5469C93.9792 24.1198 93.7578 23.5547 93.7578 22.8516C93.7578 21.3411 94.6276 20.4609 96.3672 20.2109L98.7422 19.875C98.7422 18.7344 98.2005 18.1641 97.1172 18.1641C96.1641 18.1641 95.3047 18.4922 94.5391 19.1484V17.5625C95.3828 17.0625 96.3568 16.8125 97.4609 16.8125C99.4818 16.8125 100.492 17.8073 100.492 19.7969V25ZM98.7422 21.0703L97.0625 21.3047C96.5417 21.3724 96.1484 21.5 95.8828 21.6875C95.6224 21.8698 95.4922 22.1927 95.4922 22.6562C95.4922 22.9948 95.612 23.2734 95.8516 23.4922C96.0964 23.7057 96.4219 23.8125 96.8281 23.8125C97.3802 23.8125 97.8359 23.6198 98.1953 23.2344C98.5599 22.8438 98.7422 22.3542 98.7422 21.7656V21.0703Z" fill="#333333"/>
<rect x="0.5" y="0.5" width="146" height="36" rx="3.5" stroke="#333333"/>
</svg>
