<svg width="20" height="20" viewBox="0 0 20 20" fill="none" xmlns="http://www.w3.org/2000/svg">
<path d="M13.401 10.6507C14.2996 9.9436 14.9556 8.97401 15.2776 7.87678C15.5996 6.77955 15.5715 5.60924 15.1974 4.52868C14.8233 3.44811 14.1217 2.51102 13.1902 1.84778C12.2587 1.18454 11.1436 0.828125 10.0001 0.828125C8.85662 0.828125 7.74156 1.18454 6.81005 1.84778C5.87855 2.51102 5.17693 3.44811 4.80281 4.52868C4.42869 5.60924 4.40067 6.77955 4.72265 7.87678C5.04463 8.97401 5.70059 9.9436 6.59929 10.6507C5.05936 11.2676 3.71572 12.2909 2.7116 13.6114C1.70749 14.9319 1.08055 16.5002 0.897619 18.149C0.884377 18.2694 0.894976 18.3912 0.928809 18.5075C0.962642 18.6238 1.01905 18.7322 1.0948 18.8267C1.2478 19.0175 1.47034 19.1398 1.71345 19.1665C1.95657 19.1932 2.20035 19.1223 2.39117 18.9693C2.58199 18.8163 2.70421 18.5938 2.73095 18.3507C2.93224 16.5588 3.78666 14.9038 5.13099 13.7021C6.47531 12.5003 8.21528 11.8359 10.0185 11.8359C11.8216 11.8359 13.5616 12.5003 14.9059 13.7021C16.2502 14.9038 17.1047 16.5588 17.306 18.3507C17.3309 18.5759 17.4383 18.7839 17.6076 18.9346C17.7769 19.0853 17.996 19.1679 18.2226 19.1665H18.3235C18.5637 19.1388 18.7834 19.0174 18.9345 18.8285C19.0856 18.6396 19.1559 18.3987 19.1301 18.1582C18.9463 16.5047 18.316 14.9324 17.3067 13.6099C16.2975 12.2873 14.9473 11.2644 13.401 10.6507ZM10.0001 9.99983C9.27492 9.99983 8.56601 9.78478 7.96303 9.38189C7.36005 8.97899 6.89008 8.40633 6.61256 7.73634C6.33504 7.06634 6.26243 6.3291 6.40391 5.61783C6.54538 4.90657 6.8946 4.25323 7.40739 3.74044C7.92019 3.22765 8.57352 2.87843 9.28479 2.73695C9.99605 2.59547 10.7333 2.66808 11.4033 2.94561C12.0733 3.22313 12.6459 3.69309 13.0488 4.29607C13.4517 4.89905 13.6668 5.60797 13.6668 6.33316C13.6668 7.30562 13.2805 8.23826 12.5928 8.92589C11.9052 9.61352 10.9726 9.99983 10.0001 9.99983Z" fill="black"/>
</svg>
