<svg width="16" height="12" viewBox="0 0 16 12" fill="none" xmlns="http://www.w3.org/2000/svg">
<path d="M15.1475 1.75625C15.0335 1.67945 14.9042 1.63902 14.7725 1.63902C14.6408 1.63902 14.5115 1.67945 14.3975 1.75625L11.75 3.27875C11.7286 2.59937 11.4822 1.95616 11.0625 1.48451C10.6429 1.01285 10.0827 0.749543 9.5 0.750001H2.75C2.15326 0.750001 1.58097 1.02656 1.15901 1.51885C0.737053 2.01113 0.5 2.67881 0.5 3.375V8.625C0.5 9.32119 0.737053 9.98887 1.15901 10.4812C1.58097 10.9734 2.15326 11.25 2.75 11.25H9.5C10.0827 11.2505 10.6429 10.9871 11.0625 10.5155C11.4822 10.0438 11.7286 9.40063 11.75 8.72125L14.42 10.2787C14.5222 10.3399 14.6351 10.3728 14.75 10.375C14.8904 10.3755 15.0281 10.3301 15.1475 10.2438C15.2556 10.1649 15.3447 10.0553 15.4063 9.92516C15.468 9.79503 15.5003 9.6487 15.5 9.5V2.5C15.5003 2.3513 15.468 2.20498 15.4063 2.07484C15.3447 1.94471 15.2556 1.83506 15.1475 1.75625ZM10.25 8.625C10.25 8.85706 10.171 9.07962 10.0303 9.24372C9.88968 9.40781 9.69891 9.5 9.5 9.5H2.75C2.55109 9.5 2.36032 9.40781 2.21967 9.24372C2.07902 9.07962 2 8.85706 2 8.625V3.375C2 3.14294 2.07902 2.92038 2.21967 2.75628C2.36032 2.59219 2.55109 2.5 2.75 2.5H9.5C9.69891 2.5 9.88968 2.59219 10.0303 2.75628C10.171 2.92038 10.25 3.14294 10.25 3.375V8.625ZM14 8.0825L11.75 6.77V5.23L14 3.9175V8.0825Z" fill="#333333"/>
</svg>
